<svg width="16" height="16" viewBox="0 0 16 16" fill="none" xmlns="http://www.w3.org/2000/svg">
<path fill-rule="evenodd" clip-rule="evenodd" d="M7.91431 15.2663C7.60189 14.9547 7.60189 14.4495 7.91431 14.1379L13.2686 8.7979H0.8C0.358172 8.7979 0 8.44068 0 8.00003C0 7.55938 0.358172 7.20216 0.8 7.20216H13.2687L7.91431 1.86205C7.60189 1.55046 7.60189 1.04528 7.91431 0.733691C8.22673 0.422103 8.73327 0.422103 9.04568 0.733691L15.7657 7.43582C15.8457 7.51567 15.9053 7.60822 15.9443 7.70698C15.9803 7.7977 16 7.89657 16 8.00003C16 8.11424 15.9759 8.22285 15.9326 8.32108C15.9007 8.3935 15.8575 8.46215 15.803 8.52438C15.7897 8.53956 15.7759 8.55423 15.7615 8.56836L9.04568 15.2663C8.73327 15.5779 8.22673 15.5779 7.91431 15.2663Z" fill="#006CFA"/>
</svg>
