<?xml version="1.0" encoding="UTF-8"?>
<svg width="64px" height="64px" viewBox="0 0 64 64" version="1.1" xmlns="http://www.w3.org/2000/svg" xmlns:xlink="http://www.w3.org/1999/xlink">
    <!-- Generator: Sketch 56.3 (81716) - https://sketch.com -->
    <title>Artboard Copy 4</title>
    <desc>Created with Sketch.</desc>
    <g id="Artboard-Copy-4" stroke="none" stroke-width="1" fill="none" fill-rule="evenodd">
        <polyline id="BG" fill="#9DEFC8" fill-rule="nonzero" points="62 34 62 16 44 16"></polyline>
        <path d="M59.5857864,17 L44,17 C43.4477153,17 43,16.5522847 43,16 C43,15.4477153 43.4477153,15 44,15 L62,15 C62.5522847,15 63,15.4477153 63,16 L63,34 C63,34.5522847 62.5522847,35 62,35 C61.4477153,35 61,34.5522847 61,34 L61,18.4142136 L41.5364068,37.8778068 C39.5838869,39.8303267 36.4204938,39.8313313 34.4661932,37.8804068 L26.1221932,29.5364068 C24.9503171,28.3645306 23.052311,28.3639278 21.8804068,29.5338068 L2.70710678,48.7071068 C2.31658249,49.0976311 1.68341751,49.0976311 1.29289322,48.7071068 C0.902368927,48.3165825 0.902368927,47.6834175 1.29289322,47.2928932 L20.4635932,28.1221932 L20.4668049,28.1189821 C22.4204938,26.1686687 25.5838869,26.1696733 27.5364068,28.1221932 L35.8778068,36.4635932 L35.8798038,36.4655908 C37.0523204,37.6360721 38.95032,37.6354665 40.1221932,36.4635932 L59.5857864,17 L59.5857864,17 Z" id="Stroke" fill="#001632" fill-rule="nonzero"></path>
    </g>
</svg>