<?xml version="1.0" encoding="UTF-8"?>
<svg width="40px" height="40px" viewBox="0 0 40 40" version="1.1" xmlns="http://www.w3.org/2000/svg" xmlns:xlink="http://www.w3.org/1999/xlink">
    <!-- Generator: Sketch 56.3 (81716) - https://sketch.com -->
    <title>accessible-icon</title>
    <desc>Created with Sketch.</desc>
    <g id="accessible-icon" stroke="none" stroke-width="1" fill="none" fill-rule="evenodd">
        <path d="M18.75,1.55835 C21.1667,1.55835 23.125,3.51668 23.125,5.93335 C23.125,8.35002 21.1667,10.3083 18.75,10.3083 C16.3333,10.3083 14.375,8.35002 14.375,5.93335 C14.375,3.51668 16.3333,1.55835 18.75,1.55835 Z" id="BG" fill="#e5fbff" fill-rule="nonzero"></path>
        <path d="M29.0133,37.0517 L25.9533,30.9333 L18.75,30.9333 C17.37,30.9333 16.25,29.8133 16.25,28.4333 L16.25,15.9333 C16.25,14.5533 17.37,13.4333 18.75,13.4333 C20.13,13.4333 21.25,14.5533 21.25,15.9333 L21.25,25.9333 L27.5,25.9333 C28.4467,25.9333 29.3133,26.4683 29.7367,27.315 L33.4867,34.815 C34.105,36.05 33.6033,37.5517 32.3683,38.17 C31.1333,38.7883 29.6317,38.2867 29.0133,37.0517 Z" id="BG" fill="#e5fbff" fill-rule="nonzero"></path>
        <path d="M18.75,0.80835 C21.580904,0.80835 23.875,3.10245687 23.875,5.93335 C23.875,8.76423624 21.5809109,11.0583 18.75,11.0583 C15.9190891,11.0583 13.625,8.76423624 13.625,5.93335 C13.625,3.10245687 15.919096,0.80835 18.75,0.80835 Z M18.75,2.30835 C16.7475247,2.30835 15.125,3.93088241 15.125,5.93335 C15.125,7.9358054 16.7475125,9.5583 18.75,9.5583 C20.7524875,9.5583 22.375,7.9358054 22.375,5.93335 C22.375,3.93088241 20.7524753,2.30835 18.75,2.30835 Z M22,25.1833 L27.5,25.1833 C28.7308837,25.1833 29.8571066,25.8788923 30.4075204,26.9795898 L34.1573465,34.4792423 C34.960963,36.0843958 34.309681,38.0367948 32.7040577,38.8406465 C31.0989117,39.6442593 29.1466377,38.9930859 28.3426752,37.3875011 L25.4898287,31.6833 L18.75,31.6833 C16.9557864,31.6833 15.5,30.2275136 15.5,28.4333 L15.5,15.9333 C15.5,14.1390864 16.9557864,12.6833 18.75,12.6833 C20.5442136,12.6833 22,14.1390864 22,15.9333 L22,25.1833 Z M29.6840853,36.7162196 C30.1172115,37.5812111 31.168584,37.9318923 32.0325423,37.4993535 C32.8978342,37.066147 33.2485795,36.0146905 32.8158796,35.1504102 L29.0658955,27.6504419 C28.7696675,27.0580559 28.1629059,26.6833 27.5,26.6833 L21.25,26.6833 C20.8357864,26.6833 20.5,26.3475136 20.5,25.9333 L20.5,15.9333 C20.5,14.9675136 19.7157864,14.1833 18.75,14.1833 C17.7842136,14.1833 17,14.9675136 17,15.9333 L17,28.4333 C17,29.3990864 17.7842136,30.1833 18.75,30.1833 L25.9533,30.1833 C26.2373508,30.1833 26.4970274,30.3437702 26.6240853,30.5978196 L29.6840853,36.7162196 Z M20.875004,36.4455786 C21.2337248,36.2384741 21.6924168,36.3613833 21.8995214,36.720104 C22.1066259,37.0788248 21.9837167,37.5375168 21.624996,37.7446214 C16.4831779,40.7132089 9.90770575,38.9506186 6.93880215,33.8084021 C3.97015191,28.6665871 5.73273539,22.091109 10.8749962,19.1221831 C11.2337144,18.9150743 11.692408,19.0379779 11.8995169,19.3966962 C12.1066257,19.7554144 11.9837221,20.214108 11.6250038,20.4212169 C7.20011864,22.9759601 5.68343707,28.6340788 8.23783667,33.0583959 C10.7925579,37.4832381 16.4506787,38.9999275 20.875004,36.4455786 Z" id="Stroke" fill="#001632" fill-rule="nonzero"></path>
    </g>
</svg>