<svg width="44" height="26" viewBox="0 0 44 26" fill="none" xmlns="http://www.w3.org/2000/svg">
<path fill-rule="evenodd" clip-rule="evenodd" d="M10.0114 10C10.0114 7.79 8.21934 6 6.00683 6C2.68906 6 0 3.314 0 0H2.00228C2.00228 2.21 3.79431 4 6.00683 4C9.3246 4 12.0137 6.686 12.0137 10C12.0137 12.21 13.8057 14 16.0182 14C19.336 14 22.025 16.686 22.025 20C22.025 22.21 23.8171 24 26.0296 24V26C22.7118 26 20.0228 23.314 20.0228 20C20.0228 17.79 18.2307 16 16.0182 16C12.7004 16 10.0114 13.314 10.0114 10ZM35.5043 8.05L44 16.536L42.5844 17.95L34.0887 9.464L35.5043 8.05V8.05Z" fill="#0CD977"/>
</svg>
