<svg width="16" height="16" viewBox="0 0 16 16" fill="none" xmlns="http://www.w3.org/2000/svg">
<g clip-path="url(#clip0)">
<path fill-rule="evenodd" clip-rule="evenodd" d="M12.6584 4.18247C10.5342 1.62595 6.72667 1.26512 4.15437 3.37492C2.79263 4.49185 1.99253 6.14409 1.9602 7.89466L1.11485 7.05473C0.859809 6.80133 0.446313 6.80133 0.191277 7.05473C-0.0637591 7.30813 -0.0637591 7.71897 0.191277 7.97237L2.12155 9.89024C2.24123 10.0255 2.4167 10.1109 2.61224 10.1109C2.80779 10.1109 2.98326 10.0255 3.10294 9.89024L5.03321 7.97237C5.28825 7.71897 5.28825 7.30813 5.03321 7.05473C4.77818 6.80133 4.36468 6.80133 4.10964 7.05473L3.26665 7.89232C3.29929 6.52955 3.92531 5.2456 4.98587 4.37571C7.00199 2.72209 9.98629 3.00493 11.6512 5.00865C11.8808 5.28501 12.2924 5.32409 12.5705 5.09594C12.8487 4.8678 12.888 4.45882 12.6584 4.18247ZM13.6359 6.42644C13.56 6.39543 13.4768 6.37822 13.3897 6.37797C13.3891 6.37796 13.3884 6.37796 13.3878 6.37796C13.3871 6.37796 13.3864 6.37796 13.3858 6.37797C13.2142 6.37847 13.0583 6.44469 12.942 6.55262C12.9359 6.55824 12.93 6.56396 12.9242 6.5698L10.9668 8.51461C10.7118 8.76801 10.7118 9.17885 10.9668 9.43225C11.2218 9.68565 11.6353 9.68565 11.8904 9.43225L12.6909 8.63688C12.545 9.69509 12.04 10.6795 11.2494 11.4208C9.3481 13.2038 6.35119 13.1177 4.55662 11.2281C4.30909 10.9674 3.89577 10.9555 3.63344 11.2014C3.37111 11.4474 3.35911 11.858 3.60664 12.1187C5.89631 14.5297 9.71992 14.6396 12.1458 12.3646C13.2158 11.3614 13.8756 10.0092 14.0137 8.56636L14.8852 9.43225C15.1402 9.68565 15.5537 9.68565 15.8087 9.43225C16.0638 9.17885 16.0638 8.76801 15.8087 8.51461L13.8495 6.56801C13.7864 6.5053 13.7136 6.45812 13.6359 6.42644Z" fill="#001632"/>
</g>
<defs>
<clipPath id="clip0">
<rect width="16" height="16" fill="white"/>
</clipPath>
</defs>
</svg>
