<?xml version="1.0" encoding="UTF-8"?>
<svg width="64px" height="64px" viewBox="0 0 64 64" version="1.1" xmlns="http://www.w3.org/2000/svg" xmlns:xlink="http://www.w3.org/1999/xlink">
    <!-- Generator: Sketch 56.3 (81716) - https://sketch.com -->
    <title>Artboard</title>
    <desc>Created with Sketch.</desc>
    <g id="Artboard" stroke="none" stroke-width="1" fill="none" fill-rule="evenodd">
        <rect id="BG" fill="#9DEFC8" fill-rule="nonzero" transform="translate(34.009906, 35.717167) rotate(45.000000) translate(-34.009906, -35.717167) " x="24.7677564" y="31.2171675" width="18.4843" height="9"></rect>
        <path d="M23.8426429,33.4111565 L3.31448246,51.8868872 C2.90397628,52.2563505 2.2716861,52.2230786 1.90222281,51.8125725 C1.53275952,51.4020663 1.56603136,50.7697761 1.97653754,50.4003128 L29.8642368,25.3008587 C29.4551747,24.7928847 29.1941446,24.3645704 28.9516983,23.8306079 C28.8873729,23.6889377 28.2712688,22.1698254 27.9481249,21.4586639 C26.0158623,17.2047218 26.9234012,12.1983468 30.2261956,8.8926208 L36.0608932,3.05796322 C37.9474175,1.17143893 41.0045825,1.17143893 42.8911068,3.05796322 C43.6958279,3.86268438 44.157285,4.88041047 44.2754778,5.92942152 C46.0955164,4.89464861 48.4420987,5.13774999 50.0155733,6.6574217 C51.146355,7.75249446 51.6284213,9.26550964 51.4506126,10.7182434 C52.8947499,10.5182139 54.4120818,10.9719796 55.5247768,12.0806654 C56.6305235,13.1825752 57.0914647,14.6862836 56.9062211,16.1231358 C58.3406024,15.9375106 59.8422766,16.395763 60.9444068,17.4978932 C62.8309311,19.3844175 62.8309311,22.4415825 60.9442305,24.3282831 L56.5244532,28.7448961 C56.4986534,28.7781729 56.4704635,28.8101949 56.4398837,28.8407295 L49.2004068,36.0695068 C48.0270774,37.2428361 46.4955844,37.8390056 44.9587072,37.8580496 L23.8194204,62.0130689 C23.4557028,62.4286745 22.8239366,62.470738 22.4083311,62.1070204 C21.9927255,61.7433028 21.950662,61.1115366 22.3143796,60.6959311 L35.7617006,45.3302141 L23.8426429,33.4111565 Z M25.331274,32.0713605 L37.0817546,43.8218411 L42.6645531,37.4426 C41.9004696,37.1448551 41.1844023,36.6872518 40.5677818,36.0697952 C39.6264459,35.1292272 33.6751341,29.2514294 31.2256686,26.7662945 L25.331274,32.0713605 Z M41.3980785,8.56258628 C41.4222955,8.53189215 41.448567,8.5022894 41.4768932,8.47396322 C42.5823689,7.36848751 42.5823689,5.57765249 41.4768932,4.47217678 C40.3714175,3.36670107 38.5805825,3.36670107 37.4751044,4.4721792 L31.6407204,10.306523 C28.927103,13.0225491 28.1813938,17.1362016 29.7690201,20.6314151 C30.114799,21.3923907 30.7310436,22.9118494 30.7727704,23.0037484 C30.9956111,23.4945318 31.2245813,23.8381541 31.7348807,24.4154692 C31.7591742,24.442953 31.7913142,24.478071 31.8308099,24.5203424 C31.9043233,24.5675528 31.9728191,24.6252533 32.0340872,24.6933275 C32.0809367,24.7453815 32.1213106,24.8010016 32.1552607,24.8591998 C34.0307893,26.7906774 40.8720418,33.5465334 41.9821855,34.6557723 C42.6752168,35.3497429 43.5549654,35.7433954 44.4600833,35.8366485 C44.5503366,35.8307222 44.641391,35.8369641 44.7305746,35.8555521 C45.8312019,35.8961757 46.9455233,35.4959633 47.7867163,34.6547705 L51.3017173,31.1449644 C50.3034035,30.9862735 49.3463596,30.5141582 48.5896877,29.731376 C47.5068499,28.6091838 47.075156,27.0983912 47.2864037,25.6666129 C45.9055386,25.8190233 44.4716507,25.3764643 43.3978267,24.3393583 C42.2682155,23.2454191 41.7860026,21.7343889 41.9598548,20.2854902 C40.5134254,20.488194 38.9926969,20.034792 37.8780468,18.9241582 C35.98804,17.0408351 35.9818009,13.983671 37.8662679,12.0925186 L41.3980785,8.56258628 L41.3980785,8.56258628 Z M43.6787809,17.11202 L48.6945182,12.0938706 C48.7079455,12.0803947 48.7214325,12.0670146 48.7349783,12.0537302 C49.778456,10.928872 49.7340995,9.1689625 48.6251981,8.0950778 C47.5289559,7.03632089 45.7913487,7.03571617 44.7068321,8.08306141 L39.2801321,13.5070814 L39.2815583,13.5056531 C38.1783515,14.6127754 38.1820062,16.4036123 39.2897294,17.5074182 C40.3969493,18.6106486 42.1877862,18.6069938 43.2927932,17.4979932 L43.6787809,17.11202 L43.6787809,17.11202 Z M45.1273996,18.4918118 L44.7138253,18.9055851 C43.6341435,20.0285363 43.6669471,21.8158542 44.7882019,22.9017022 C45.8449259,23.9222922 47.4975805,23.9596611 48.5866079,23.023085 C48.6240456,22.9842861 48.662258,22.945966 48.7012446,22.9081446 L54.1141932,17.4978932 C54.1484111,17.4636754 54.1830141,17.4300781 54.2179882,17.3971016 C55.2231733,16.2846242 55.1873282,14.5679119 54.1130706,13.4973818 C53.0208521,12.4090988 51.2634155,12.3979103 50.1554587,13.4621755 C50.1438181,13.474464 50.1321008,13.4867079 50.1203068,13.4989068 L45.1273996,18.4918118 L45.1273996,18.4918118 Z M55.6329114,18.8127167 C55.6013781,18.8461892 55.5692766,18.8793233 55.5366068,18.9121068 L50.1082492,24.3402521 C50.0673696,24.379739 50.0259681,24.4183632 49.9840674,24.4561245 C48.9733738,25.5500901 48.9809726,27.256598 50.0282963,28.3419861 C51.1142897,29.465453 52.9056962,29.4965284 54.0181932,28.4231932 L54.0603496,28.3817806 L54.0737702,28.3687091 C54.0862307,28.3563576 54.0862307,28.3563576 54.1143695,28.3270169 L59.5301932,22.9138932 C60.6356689,21.8084175 60.6356689,20.0175825 59.5301932,18.9121068 C58.4589618,17.8408753 56.744174,17.8076919 55.6329114,18.8127167 L55.6329114,18.8127167 Z M21.2518109,40.600896 C21.9045131,39.9551853 22.9601372,39.9566379 23.6079744,40.6091632 C24.2578699,41.2608662 24.2551648,42.3141994 23.6194202,42.9494417 L23.5999265,42.969268 C22.9465554,43.6158904 21.8892977,43.6138037 21.2418666,42.9593625 C20.5951705,42.306167 20.5971797,41.2490133 21.2518109,40.600896 Z M22.1815435,41.5596267 C22.062361,41.69003 22.0648768,41.8925313 22.1902335,42.0198332 C22.3216441,42.1505981 22.5293202,42.1503903 22.6586625,42.0224334 C22.7912276,41.8911873 22.7916252,41.6820206 22.663404,41.5525109 C22.5336661,41.4213683 22.3278669,41.4193743 22.1815435,41.5596267 Z" id="Stroke" fill="#001632" fill-rule="nonzero"></path>
    </g>
</svg>