<svg width="40" height="40" viewBox="0 0 40 40" fill="none" xmlns="http://www.w3.org/2000/svg">
<path d="M22.6098 6.36502L19.9998 8.97335V36.4067L35.9815 19.735C38.8585 16.8572 39.5715 12.4613 37.7515 8.82168C36.3921 6.1037 33.8092 4.2048 30.8094 3.7181C27.8097 3.23141 24.7588 4.21625 22.6098 6.36502Z" fill="#9DEFC8"/>
<path fill-rule="evenodd" clip-rule="evenodd" d="M16.683 7.07217C14.7613 5.15067 12.0331 4.26999 9.35066 4.70521C6.66819 5.14043 4.3584 6.8385 3.1428 9.26901C1.51309 12.525 2.15126 16.459 4.72692 19.0326L4.74191 19.0479L20 34.9617L35.2599 19.043L35.2745 19.028C37.8472 16.4546 38.4848 12.5237 36.8574 9.26901C35.6418 6.8385 33.332 5.14043 30.6495 4.70521C27.967 4.26999 25.2389 5.15067 23.3172 7.07217L20.707 9.68069C20.3165 10.0709 19.6837 10.0709 19.2932 9.68069L16.683 7.07217ZM37.7539 8.8206L38.6462 8.37446C40.657 12.3958 39.8715 17.252 36.6966 20.4344L20.722 37.0987C20.5334 37.2954 20.2727 37.4067 20.0001 37.4067C19.7276 37.4067 19.4669 37.2955 19.2783 37.0988L3.30547 20.4396C0.127007 17.257 -0.659423 12.3974 1.35405 8.37438M37.7539 8.8206L38.6462 8.37446C37.143 5.36901 34.2868 3.26919 30.9698 2.73102C27.6529 2.19287 24.2795 3.2818 21.9032 5.6577C21.9033 5.65763 21.9031 5.65776 21.9032 5.6577L20.0001 7.5596L18.0972 5.65789C18.0972 5.65795 18.0971 5.65782 18.0972 5.65789C15.7209 3.28199 12.3473 2.19287 9.03036 2.73102C5.71345 3.26918 2.85724 5.36908 1.35405 8.37438" fill="#001632"/>
</svg>
