<svg width="40" height="40" viewBox="0 0 40 40" fill="none" xmlns="http://www.w3.org/2000/svg">
<g clip-path="url(#clip0)">
<path d="M20 8.75171C25.5233 8.75171 30 13.2284 30 18.7517C30 24.275 25.5233 28.7517 20 28.7517C14.4767 28.7517 10 24.275 10 18.7517C10 13.2284 14.4767 8.75171 20 8.75171Z" fill="#e5fbff"/>
<path fill-rule="evenodd" clip-rule="evenodd" d="M21.25 1.25171C21.25 0.561353 20.6904 0.00170898 20 0.00170898C19.3096 0.00170898 18.75 0.561353 18.75 1.25171V3.75171C18.75 4.44206 19.3096 5.00171 20 5.00171C20.6904 5.00171 21.25 4.44206 21.25 3.75171V1.25171ZM33.2589 7.2623C33.747 6.77415 33.747 5.98269 33.2589 5.49453C32.7707 5.00638 31.9793 5.00638 31.4911 5.49454L29.7228 7.26287C29.2346 7.75102 29.2346 8.54248 29.7228 9.03064C30.2109 9.51879 31.0024 9.51879 31.4905 9.03063L33.2589 7.2623ZM33.75 18.7517C33.75 18.0614 34.3096 17.5017 35 17.5017H37.5C38.1904 17.5017 38.75 18.0614 38.75 18.7517C38.75 19.4421 38.1904 20.0017 37.5 20.0017H35C34.3096 20.0017 33.75 19.4421 33.75 18.7517ZM31.4905 28.4745C31.0024 27.9864 30.2109 27.9864 29.7228 28.4745C29.2346 28.9627 29.2346 29.7541 29.7228 30.2423L31.4911 32.0106C31.9793 32.4988 32.7707 32.4988 33.2589 32.0106C33.747 31.5225 33.747 30.731 33.2589 30.2429L31.4905 28.4745ZM6.74112 5.49453C7.22927 5.00638 8.02073 5.00638 8.50888 5.49453L10.2772 7.26287C10.7654 7.75102 10.7654 8.54248 10.2772 9.03063C9.78906 9.51879 8.99761 9.51879 8.50945 9.03063L6.74112 7.2623C6.25296 6.77415 6.25296 5.98269 6.74112 5.49453ZM2.5 17.5017C1.80964 17.5017 1.25 18.0614 1.25 18.7517C1.25 19.4421 1.80964 20.0017 2.5 20.0017H5C5.69036 20.0017 6.25 19.4421 6.25 18.7517C6.25 18.0614 5.69036 17.5017 5 17.5017H2.5ZM10.2772 28.4745C10.7654 28.9627 10.7654 29.7541 10.2772 30.2423L8.50888 32.0106C8.02073 32.4988 7.22927 32.4988 6.74112 32.0106C6.25296 31.5225 6.25296 30.731 6.74112 30.2428L8.50945 28.4745C8.99761 27.9864 9.78906 27.9864 10.2772 28.4745ZM8.75 18.7517C8.75 22.6526 10.7349 26.0895 13.75 28.1075V31.2484C13.75 34.2723 15.897 36.7944 18.75 37.3734V38.7517C18.75 39.4421 19.3096 40.0017 20 40.0017C20.6904 40.0017 21.25 39.4421 21.25 38.7517V37.3734C24.103 36.7944 26.25 34.2723 26.25 31.2484V28.1075C29.2651 26.0895 31.25 22.6526 31.25 18.7517C31.25 12.538 26.2137 7.50171 20 7.50171C13.7863 7.50171 8.75 12.538 8.75 18.7517ZM23.75 31.2484V29.3617C22.5771 29.7762 21.3149 30.0017 20 30.0017C18.6851 30.0017 17.4229 29.7762 16.25 29.3617V31.2484C16.25 33.3197 17.9287 34.9984 20 34.9984C22.0713 34.9984 23.75 33.3197 23.75 31.2484ZM20 10.0017C15.167 10.0017 11.25 13.9187 11.25 18.7517C11.25 23.5847 15.167 27.5017 20 27.5017C24.833 27.5017 28.75 23.5847 28.75 18.7517C28.75 13.9187 24.833 10.0017 20 10.0017Z" fill="#001632"/>
</g>
<defs>
<clipPath id="clip0">
<rect width="40" height="40" fill="white"/>
</clipPath>
</defs>
</svg>
