<svg width="24" height="24" viewBox="0 0 24 24" fill="none" xmlns="http://www.w3.org/2000/svg">
<g clip-path="url(#clip0)">
<path d="M5.67006 22.6297H0.810059V8.69971H5.67006V22.6297Z" stroke="#001632" stroke-width="1.5" stroke-linecap="round" stroke-linejoin="round"/>
<path d="M15.76 13.2399C14.578 13.2399 13.62 14.1979 13.62 15.3799V22.6299H8.51001V8.69994H13.62V10.2899C14.818 9.27594 16.331 8.70994 17.9 8.68994C21.07 8.68994 23.27 11.0399 23.27 15.4999V22.6299H17.9V15.3799C17.906 14.1979 16.952 13.2359 15.77 13.2299C15.767 13.2299 15.763 13.2299 15.76 13.2299V13.2399Z" stroke="#001632" stroke-width="1.5" stroke-linecap="round" stroke-linejoin="round"/>
<path d="M5.76001 3.87988C5.76001 5.26088 4.64101 6.37988 3.26001 6.37988C1.87901 6.37988 0.76001 5.26088 0.76001 3.87988C0.76001 2.49888 1.87901 1.37988 3.26001 1.37988C4.63301 1.39088 5.74001 2.50688 5.74001 3.87988H5.76001Z" stroke="#001632" stroke-width="1.5" stroke-linecap="round" stroke-linejoin="round"/>
</g>
<defs>
<clipPath id="clip0">
<rect width="24" height="24" fill="white"/>
</clipPath>
</defs>
</svg>
