<?xml version="1.0" encoding="UTF-8"?>
<svg width="40px" height="40px" viewBox="0 0 40 40" version="1.1" xmlns="http://www.w3.org/2000/svg" xmlns:xlink="http://www.w3.org/1999/xlink">
    <!-- Generator: Sketch 56.3 (81716) - https://sketch.com -->
    <title>Artboard Copy 2</title>
    <desc>Created with Sketch.</desc>
    <g id="Artboard-Copy-2" stroke="none" stroke-width="1" fill="none" fill-rule="evenodd">
        <path d="M21.25,27.7566 C21.25,26.9282 21.9216,26.2566 22.75,26.2566 L34.75,26.2566 C35.5784,26.2566 36.25,26.9282 36.25,27.7566 L36.25,37.2566 C36.25,38.085 35.5784,38.7566 34.75,38.7566 L22.75,38.7566 C21.9216,38.7566 21.25,38.085 21.25,37.2566 L21.25,27.7566 Z" id="BG" fill="#e5fbff"></path>
        <path d="M23,25.5066 L23,23.7566 C23,20.5809864 25.5743864,18.0066 28.75,18.0066 C31.9256136,18.0066 34.5,20.5809864 34.5,23.7566 L34.5,25.5066 L34.75,25.5066 C35.9926136,25.5066 37,26.5139864 37,27.7566 L37,37.2566 C37,38.4992136 35.9926136,39.5066 34.75,39.5066 L22.75,39.5066 C21.5073864,39.5066 20.5,38.4992136 20.5,37.2566 L20.5,27.7566 C20.5,26.5139864 21.5073864,25.5066 22.75,25.5066 L23,25.5066 Z M24.5,25.5066 L33,25.5066 L33,23.7566 C33,21.4094136 31.0971864,19.5066 28.75,19.5066 C26.4028136,19.5066 24.5,21.4094136 24.5,23.7566 L24.5,25.5066 Z M16.25,38.00659 C16.6642136,38.00659 17,38.3423764 17,38.75659 C17,39.1708036 16.6642136,39.50659 16.25,39.50659 L6.25,39.50659 C4.45507644,39.50659 3,38.0515136 3,36.25659 L3,3.75659 C3,1.96166644 4.45507644,0.50659 6.25,0.50659 L23.75,0.50659 C25.5449166,0.50659 27,1.96166943 27,3.75659 L27,12.4999 C27,12.9141136 26.6642136,13.2499 26.25,13.2499 C25.8357864,13.2499 25.5,12.9141136 25.5,12.4999 L25.5,3.75659 C25.5,2.79009748 24.7164904,2.00659 23.75,2.00659 L6.25,2.00659 C5.28350356,2.00659 4.5,2.79009356 4.5,3.75659 L4.5,36.25659 C4.5,37.2230864 5.28350356,38.00659 6.25,38.00659 L16.25,38.00659 Z M8.10326648,19.4839872 C8.29618216,19.0146138 8.72967728,18.69357 9.22639235,18.6397215 C9.27442702,18.6300661 9.32412188,18.625 9.375,18.625 C10.1343968,18.625 10.75,19.2405896 10.7499574,19.9920091 C10.7558966,20.5494129 10.4247442,21.0551845 9.91128014,21.2728323 C9.39800845,21.4901786 8.80426891,21.3761979 8.40801877,20.9841934 C8.01169197,20.5921348 7.89132444,19.9994862 8.10326648,19.4839872 Z M22,27.7566 L22,37.2566 C22,37.6707864 22.3358136,38.0066 22.75,38.0066 L34.75,38.0066 C35.1641864,38.0066 35.5,37.6707864 35.5,37.2566 L35.5,27.7566 C35.5,27.3424136 35.1641864,27.0066 34.75,27.0066 L22.75,27.0066 C22.3358136,27.0066 22,27.3424136 22,27.7566 Z M27.375,32.5066 C27.375,31.7471864 27.9905864,31.1316 28.7500174,31.1316 C29.509423,31.1316 30.125,31.7471922 30.125,32.5066 C30.125,33.2660136 29.5094136,33.8816 28.75,33.8816 C27.9905864,33.8816 27.375,33.2660136 27.375,32.5066 Z" id="Stroke" fill="#001632" fill-rule="nonzero"></path>
    </g>
</svg>