<?xml version="1.0" encoding="UTF-8"?>
<svg width="40px" height="40px" viewBox="0 0 40 40" version="1.1" xmlns="http://www.w3.org/2000/svg" xmlns:xlink="http://www.w3.org/1999/xlink">
    <!-- Generator: Sketch 56.3 (81716) - https://sketch.com -->
    <title>Artboard Copy</title>
    <desc>Created with Sketch.</desc>
    <g id="Artboard-Copy" stroke="none" stroke-width="1" fill="none" fill-rule="evenodd">
        <path d="M17.4669,22.2 C20.2651,22.2 22.5335,19.9316 22.5335,17.1333 C22.5335,14.3351 20.2651,12.0667 17.4669,12.0667 C14.6686,12.0667 12.4002,14.3351 12.4002,17.1333 C12.4002,19.9316 14.6686,22.2 17.4669,22.2 Z" id="BG" fill="#e5fbff"></path>
        <path d="M5.31686,12.7 C5.31686,11.9359827 5.93621021,11.3167 6.70021522,11.3167 C7.46419977,11.3167 8.08353,11.9359895 8.08353,12.7 C8.08353,13.4640156 7.46419154,14.0833 6.7002,14.0833 C5.93621021,14.0833 5.31686,13.4640173 5.31686,12.7 Z M26.8498,21.5667 C26.8498,20.8027202 27.4691527,20.1833 28.2331153,20.1833 C28.9971218,20.1833 29.6165,20.8026915 29.6165,21.5667 C29.6165,22.3307311 28.997096,22.95 28.2331,22.95 C27.4691702,22.95 26.8498,22.3306973 26.8498,21.5667 Z M0.25,8.5 C0.25,7.25735644 1.25735644,6.25 2.5,6.25 L32.4333,6.25 C33.6759948,6.25 34.6833,7.25733767 34.6833,8.5 L34.6833,25.7667 C34.6833,27.0093404 33.6759868,28.0167 32.4333,28.0167 L2.5,28.0167 C1.25736448,28.0167 0.25,27.0093216 0.25,25.7667 L0.25,8.5 Z M1.75,8.5 L1.75,25.7667 C1.75,26.1808991 2.08579624,26.5167 2.5,26.5167 L32.4333,26.5167 C32.8475442,26.5167 33.1833,26.1809287 33.1833,25.7667 L33.1833,8.5 C33.1833,8.08575397 32.8475568,7.75 32.4333,7.75 L2.5,7.75 C2.08578356,7.75 1.75,8.08578356 1.75,8.5 Z M17.4669,22.95 C14.2543864,22.95 11.6502,20.3458136 11.6502,17.1333 C11.6502,13.9208687 14.2544042,11.3167 17.4669,11.3167 C20.6793136,11.3167 23.2835,13.9208864 23.2835,17.1333 C23.2835,20.3457958 20.6793313,22.95 17.4669,22.95 Z M17.4669,21.45 C19.8508996,21.45 21.7835,19.5173733 21.7835,17.1333 C21.7835,14.7493136 19.8508864,12.8167 17.4669,12.8167 C15.0828267,12.8167 13.1502,14.7493004 13.1502,17.1333 C13.1502,19.5173864 15.0828136,21.45 17.4669,21.45 Z M38.2498,14.6001 C38.2498,14.1858864 38.5855864,13.8501 38.9998,13.8501 C39.4140136,13.8501 39.7498,14.1858864 39.7498,14.6001 L39.7498,29.8001 C39.7498,31.6134136 38.2798136,33.0834 36.4665,33.0834 L8.59981,33.0834 C8.18559644,33.0834 7.84981,32.7476136 7.84981,32.3334 C7.84981,31.9191864 8.18559644,31.5834 8.59981,31.5834 L36.4665,31.5834 C37.4513864,31.5834 38.2498,30.7849864 38.2498,29.8001 L38.2498,14.6001 Z" id="Stroke" fill="#001632" fill-rule="nonzero"></path>
    </g>
</svg>