<svg width="16" height="16" viewBox="0 0 16 16" fill="none" xmlns="http://www.w3.org/2000/svg">
<g clip-path="url(#clip0)">
<path fill-rule="evenodd" clip-rule="evenodd" d="M7.9951 2.33337C3.54647 2.36677 -0.0318258 5.99974 0.000213485 10.4472V11.8025C0.000213485 12.7039 0.731437 13.4351 1.63282 13.4351H6.03561L6.04066 13.4351L6.0457 13.4351H9.95387L9.95892 13.4351L9.96396 13.4351H14.3672C15.2686 13.4351 15.9998 12.7039 15.9998 11.8025V10.4465C16.0318 5.99895 12.4528 2.36677 8.0049 2.33337H7.9951ZM10.6069 12.129H14.3672C14.5472 12.129 14.6937 11.9825 14.6937 11.8025V10.4393C14.7217 6.71351 11.7251 3.67008 8 3.63946C4.27432 3.67008 1.27831 6.71405 1.30628 10.4399L1.30632 10.4448L1.3063 11.8025C1.3063 11.9825 1.45277 12.129 1.63282 12.129H5.39263C5.46684 10.9255 6.35578 9.94265 7.51473 9.72506L8.8496 5.72046C8.96365 5.3783 9.33349 5.19338 9.67564 5.30743C10.0178 5.42149 10.2027 5.79132 10.0887 6.13348L8.85834 9.82446C9.83027 10.1625 10.5409 11.0585 10.6069 12.129ZM6.7038 12.129C6.78244 11.4983 7.31069 11.0073 7.95781 10.9869C7.98601 10.9887 8.01408 10.9887 8.04188 10.9869C8.68895 11.0074 9.21714 11.4983 9.29577 12.129H6.7038ZM3.34685 9.19033C2.851 9.19033 2.44891 9.59242 2.44891 10.0883C2.44891 10.5841 2.851 10.9862 3.34685 10.9862C3.8427 10.9862 4.24478 10.5841 4.24478 10.0883C4.24478 9.59242 3.8427 9.19033 3.34685 9.19033ZM3.755 10.0883C3.755 10.3138 3.57234 10.4964 3.34685 10.4964C3.12136 10.4964 2.9387 10.3138 2.9387 10.0883C2.9387 9.86278 3.12136 9.68012 3.34685 9.68012C3.57234 9.68012 3.755 9.86278 3.755 10.0883ZM3.42848 7.64127C3.42848 7.14542 3.83057 6.74333 4.32642 6.74333C4.82226 6.74333 5.22435 7.14542 5.22435 7.64127C5.22435 8.13711 4.82226 8.5392 4.32642 8.5392C3.83057 8.5392 3.42848 8.13711 3.42848 7.64127ZM4.32642 8.04942C4.5519 8.04942 4.73457 7.86675 4.73457 7.64127C4.73457 7.41578 4.5519 7.23312 4.32642 7.23312C4.10093 7.23312 3.91826 7.41578 3.91826 7.64127C3.91826 7.86675 4.10093 8.04942 4.32642 8.04942ZM12.6527 9.19033C12.1569 9.19033 11.7548 9.59242 11.7548 10.0883C11.7548 10.5841 12.1569 10.9862 12.6527 10.9862C13.1486 10.9862 13.5507 10.5841 13.5507 10.0883C13.5507 9.59242 13.1486 9.19033 12.6527 9.19033ZM13.0609 10.0883C13.0609 10.3138 12.8782 10.4964 12.6527 10.4964C12.4272 10.4964 12.2446 10.3138 12.2446 10.0883C12.2446 9.86278 12.4272 9.68012 12.6527 9.68012C12.8782 9.68012 13.0609 9.86278 13.0609 10.0883ZM10.7752 7.64127C10.7752 7.14542 11.1773 6.74333 11.6732 6.74333C12.169 6.74333 12.5711 7.14542 12.5711 7.64127C12.5711 8.13711 12.169 8.5392 11.6732 8.5392C11.1773 8.5392 10.7752 8.13711 10.7752 7.64127ZM11.6732 8.04942C11.8986 8.04942 12.0813 7.86675 12.0813 7.64127C12.0813 7.41578 11.8986 7.23312 11.6732 7.23312C11.4477 7.23312 11.265 7.41578 11.265 7.64127C11.265 7.86675 11.4477 8.04942 11.6732 8.04942ZM6.28555 4.7842C5.7897 4.7842 5.38761 5.18629 5.38761 5.68214C5.38761 6.17798 5.7897 6.58007 6.28555 6.58007C6.78139 6.58007 7.18348 6.17798 7.18348 5.68214C7.18348 5.18629 6.78139 4.7842 6.28555 4.7842ZM6.6937 5.68214C6.6937 5.90762 6.51103 6.09029 6.28555 6.09029C6.06006 6.09029 5.87739 5.90762 5.87739 5.68214C5.87739 5.45665 6.06006 5.27398 6.28555 5.27398C6.51103 5.27398 6.6937 5.45665 6.6937 5.68214Z" fill="#001632"/>
</g>
<defs>
<clipPath id="clip0">
<rect width="16" height="16" fill="white"/>
</clipPath>
</defs>
</svg>
