<svg width="16" height="16" viewBox="0 0 16 16" fill="none" xmlns="http://www.w3.org/2000/svg">
<g clip-path="url(#clip0)">
<path fill-rule="evenodd" clip-rule="evenodd" d="M10.1008 1.31223C10.0844 1.35137 10.0597 1.44021 10.0564 1.60454C10.0486 1.99148 10.1614 2.55713 10.3725 3.22158C10.7907 4.53793 11.5125 5.99505 11.9646 6.67239C12.1193 6.90417 12.1095 7.20852 11.9402 7.42989C11.7709 7.65127 11.4795 7.74079 11.215 7.6527C10.765 7.5029 10.2771 7.2186 9.80377 6.92124C9.59381 6.78933 9.39023 6.65722 9.18449 6.5237C8.89085 6.33314 8.5928 6.13972 8.2655 5.93995C7.17136 5.27212 6.08346 4.75186 5.056 4.75186C4.37377 4.75186 3.55324 4.86924 2.91817 5.30837C2.72148 5.44437 2.53096 5.61931 2.36427 5.84877C2.34451 5.88411 2.32164 5.91721 2.29612 5.94777C1.99811 6.40481 1.79168 7.05921 1.79168 8.01219C1.79168 9.02569 2.18377 9.71448 2.80409 10.2824C3.45838 10.8815 4.34857 11.3313 5.34797 11.8304C5.35319 11.833 5.35839 11.8357 5.36355 11.8385C6.5552 12.4741 7.56123 13.4081 8.28287 14.5488C8.34226 14.6398 8.44491 14.6959 8.55665 14.6959H12.4033C12.7639 14.6959 13.0562 14.9878 13.0562 15.3479C13.0562 15.7081 12.7639 16 12.4033 16H8.55665C8.00315 16 7.48485 15.7203 7.18368 15.2528L7.18062 15.248L7.18064 15.248C6.58124 14.2995 5.74575 13.5225 4.75601 12.9929L4.72026 12.975L4.72025 12.975C3.77244 12.5018 2.72406 11.9783 1.92178 11.2438C1.07317 10.4668 0.485956 9.44394 0.485956 8.01219C0.485956 7.14211 0.632135 6.41906 0.887617 5.8246C0.212817 5.34215 -0.142667 4.48594 0.0538749 3.62774C0.315179 2.48675 1.45351 1.77398 2.59534 2.03484L2.5955 2.03488C3.36653 2.21123 3.94935 2.79022 4.15924 3.50691C4.48454 3.46224 4.7903 3.44773 5.056 3.44773C6.47677 3.44773 7.8371 4.1501 8.94637 4.82716C9.2332 5.00222 9.52649 5.19084 9.80401 5.37046C9.55077 4.80299 9.31251 4.19693 9.12796 3.61601C8.90441 2.91235 8.73874 2.18263 8.7509 1.57833C8.75698 1.27623 8.80802 0.945465 8.97026 0.657084C9.14777 0.341581 9.43947 0.113931 9.82443 0.0370502L10.1008 1.31223ZM10.1008 1.31223L9.82448 0.0370396C10.8145 -0.160691 11.5881 0.465953 12.1127 1.1396C12.6547 1.83565 13.0954 2.77884 13.4396 3.68515C13.7876 4.60167 14.0546 5.52811 14.234 6.22142C14.3239 6.56912 14.3925 6.86054 14.4387 7.06583L14.4421 7.08087C15.4691 7.66755 16.0809 8.7979 15.9914 9.99522C15.9884 10.4177 15.9163 10.8043 15.7333 11.1333C15.5384 11.4836 15.2497 11.7114 14.9225 11.8515C14.6119 11.9844 14.2692 12.0377 13.9427 12.0628C13.6191 12.0876 13.2614 12.0876 12.9063 12.0876H12.8904C12.2295 12.0876 11.8233 12.1974 11.6027 12.2855C11.4918 12.3298 11.4248 12.3698 11.3934 12.3907C11.3835 12.3973 11.3769 12.4021 11.3735 12.4047C11.1174 12.6401 10.7186 12.6338 10.4701 12.3857C10.2152 12.131 10.2152 11.7182 10.4701 11.4635L10.9318 11.9246C10.4701 11.4635 10.4705 11.4632 10.4708 11.4628L10.4715 11.4621L10.4729 11.4607L10.4759 11.4578L10.4826 11.4513L10.4908 11.4437L10.4985 11.4366C10.5102 11.426 10.5242 11.4138 10.5406 11.4002C10.5736 11.3732 10.616 11.3409 10.6691 11.3056C10.7754 11.2348 10.9226 11.1526 11.1177 11.0746C11.5092 10.9182 12.0823 10.7835 12.8904 10.7835C13.2645 10.7835 13.5742 10.7831 13.8425 10.7625C14.1128 10.7417 14.2903 10.7032 14.4081 10.6528C14.5093 10.6095 14.5573 10.5622 14.5919 10.4999C14.6346 10.4232 14.6857 10.269 14.6857 9.96839C14.6857 9.95027 14.6865 9.93216 14.688 9.91411C14.7521 9.14745 14.3185 8.42595 13.6116 8.12211C13.4145 8.03739 13.2716 7.86132 13.2295 7.65115L13.2295 7.65103L13.2294 7.65053L13.2287 7.6474L13.2259 7.63343C13.2233 7.62075 13.2192 7.6014 13.2138 7.57586C13.203 7.52476 13.1866 7.4489 13.1648 7.35196C13.1211 7.15798 13.0558 6.88012 12.9698 6.54773C12.7972 5.88087 12.5439 5.00394 12.2187 4.14766C11.8896 3.28117 11.504 2.48212 11.082 1.94026C10.6552 1.39213 10.3334 1.27558 10.1008 1.31223ZM2.89637 3.84296C2.80871 3.58107 2.59015 3.3716 2.30419 3.30614L2.30403 3.3061C1.86468 3.20582 1.4271 3.48026 1.32673 3.91853C1.25572 4.22857 1.37202 4.53774 1.60115 4.72789C1.77708 4.5416 1.96943 4.37822 2.17494 4.23612C2.40724 4.07549 2.65026 3.94638 2.89637 3.84296ZM7.00621 9.41115C6.50525 8.90019 5.80811 8.6274 5.09146 8.66346C4.73135 8.68159 4.42471 8.40471 4.40657 8.04504C4.38842 7.68537 4.66564 7.37911 5.02575 7.36099C6.13584 7.30511 7.21524 7.73631 7.98036 8.54142C7.99908 8.56112 8.01656 8.58198 8.03268 8.60386C9.01579 9.93827 9.72982 11.4512 10.1357 13.0575C10.2239 13.4066 10.012 13.7611 9.66238 13.8493C9.31278 13.9374 8.95785 13.7257 8.86962 13.3766C8.50856 11.9475 7.87598 10.6009 7.00621 9.41115ZM13.1378 8.3382L13.1357 8.3382C12.6409 8.33934 12.2401 8.74039 12.2401 9.23479C12.2401 9.72989 12.6421 10.1314 13.1378 10.1314C13.6335 10.1314 14.0355 9.72989 14.0355 9.23479C14.0355 8.73968 13.6335 8.3382 13.1378 8.3382Z" fill="#001632"/>
</g>
<defs>
<clipPath id="clip0">
<rect width="16" height="16" fill="white"/>
</clipPath>
</defs>
</svg>
