<svg width="40" height="40" viewBox="0 0 40 40" fill="none" xmlns="http://www.w3.org/2000/svg">
<path d="M22.3983 30.2875L16.4394 24.3208L29.6838 11.0591C30.7641 9.97746 32.1173 9.21079 33.6004 8.84246L37.0077 7.98579C37.76 7.79746 38.5224 8.25746 38.7104 9.01079C38.7654 9.23413 38.7654 9.46746 38.7104 9.69079L37.8582 13.1041C37.4887 14.5875 36.7214 15.9425 35.6411 17.0241L22.3983 30.2875Z" fill="#e5fbff"/>
<path d="M16.4393 24.3208L11.559 22.6925C11.1911 22.5708 10.9914 22.1725 11.1129 21.8041C11.1479 21.6991 11.2061 21.6041 11.2844 21.5258L12.9855 19.8225C14.4935 18.3125 16.724 17.7858 18.748 18.4608L21.4112 19.3475L16.4393 24.3208Z" fill="#e5fbff"/>
<path d="M22.3983 30.2875L24.0245 35.1758C24.146 35.5441 24.5438 35.7441 24.9117 35.6225C25.0165 35.5875 25.1114 35.5291 25.1896 35.4508L26.8908 33.7475C28.3988 32.2375 28.9248 30.0041 28.2507 27.9775L27.3651 25.3108L22.3983 30.2875Z" fill="#e5fbff"/>
<path fill-rule="evenodd" clip-rule="evenodd" d="M6.95075 6.60764C12.3419 0.679162 21.1154 -0.721248 28.0794 3.23537C28.6791 3.57607 28.8894 4.339 28.5491 4.93943C28.2089 5.53986 27.4469 5.75042 26.8473 5.40973C21.7432 2.50984 15.501 2.97842 10.9219 6.36855C10.1638 6.92983 9.45126 7.5712 8.79702 8.29063C3.35555 14.2768 3.78948 23.5481 9.76788 28.9983C10.2777 29.463 10.3147 30.2536 9.85053 30.7641C9.38636 31.2746 8.5968 31.3116 8.08699 30.8468C1.08897 24.4671 0.581055 13.6148 6.95075 6.60764ZM3.97354 28.7236C4.57232 29.0658 4.78064 29.8293 4.43884 30.4288C3.45852 32.1485 2.85238 33.5958 2.61202 34.693C2.35724 35.8561 2.58288 36.2579 2.68289 36.3588C2.75559 36.4311 2.98919 36.5866 3.65165 36.5368C4.30723 36.4875 5.1987 36.2449 6.3119 35.7635C8.52763 34.8053 11.3533 33.0202 14.4436 30.5664C14.9838 30.1375 15.769 30.2282 16.1974 30.7692C16.6258 31.3101 16.5351 32.0963 15.9949 32.5253C12.8134 35.0515 9.79496 36.9805 7.3018 38.0586C6.06056 38.5954 4.88138 38.9514 3.83854 39.0298C2.8043 39.1075 1.7112 38.9206 0.917704 38.1268L0.916635 38.1257C-0.123795 37.0824 -0.129161 35.5378 0.173239 34.1574C0.490485 32.7092 1.23177 31.0115 2.27049 29.1895C2.61228 28.5899 3.37476 28.3813 3.97354 28.7236ZM33.9044 10.0549L37.3104 9.19859C37.3904 9.17876 37.4764 9.22707 37.4988 9.31196C37.5048 9.33795 37.5045 9.36604 37.4983 9.392L36.6469 12.8017C36.3324 14.0642 35.679 15.2185 34.7582 16.1405L26.5261 24.3853C26.5112 24.3989 26.4965 24.4129 26.4821 24.4274L22.398 28.5195L18.2053 24.3214L22.2935 20.2319C22.316 20.2094 22.3375 20.1862 22.358 20.1623L30.5666 11.9431C31.4867 11.0218 32.6388 10.3693 33.9009 10.0558L33.9044 10.0549ZM21.307 30.9627L15.7651 25.4135L11.1675 23.8795L11.1657 23.8789C10.1428 23.5396 9.59046 22.434 9.92754 21.4122L9.92861 21.409C10.0241 21.1222 10.1846 20.8593 10.4016 20.6421L12.1028 18.9387C13.9453 17.0938 16.6699 16.4507 19.1419 17.2748L21.0698 17.9167L28.8011 10.1754C30.041 8.93379 31.5947 8.05319 33.2979 7.62981L33.2999 7.62934L36.7049 6.77323C38.1288 6.41678 39.5669 7.28739 39.9215 8.70774L39.9226 8.712C40.0258 9.13167 40.0258 9.57014 39.9226 9.98981L39.9215 9.99408L39.0695 13.4068C38.6449 15.1109 37.7637 16.6666 36.5239 17.908L28.7935 25.6505L29.4351 27.5826C30.2581 30.0578 29.616 32.7866 27.7735 34.6315L26.0724 36.3348C25.8554 36.5521 25.5928 36.7129 25.3064 36.8085L25.3032 36.8095C24.2828 37.147 23.1787 36.594 22.8397 35.5699L22.8391 35.568L21.307 30.9627ZM23.8264 30.6252L24.9301 33.943L26.008 32.8637C27.1814 31.6888 27.5911 29.9506 27.0662 28.3726L26.819 27.628L23.8264 30.6252ZM16.1021 22.8908L19.0952 19.8938L18.3535 19.6469C16.7776 19.1213 15.0417 19.5315 13.8682 20.7065L12.7903 21.7858L16.1021 22.8908Z" fill="#001632"/>
</svg>
