<svg width="596" height="380" viewBox="0 0 596 380" fill="none" xmlns="http://www.w3.org/2000/svg">
<path d="M483.102 333.001L483.102 333.001C476.901 333.995 470.889 335.057 465.044 336.09C456.335 337.628 447.998 339.1 439.963 340.185C426.549 341.996 414.036 342.717 402.169 340.845L402.169 340.845C378.38 337.103 357.098 323.021 338.088 305.311C328.583 296.435 319.672 286.675 313.578 276.695C307.483 266.712 304.232 256.548 305.974 246.844C307.747 237.132 314.534 227.801 324.23 218.961C333.921 210.125 346.478 201.816 359.716 194.14C386.199 178.826 415.224 166.041 443.524 166.692L443.525 166.692C471.825 167.303 499.405 181.31 524.331 196.831C549.323 212.398 571.563 229.386 581.059 250.44C590.553 271.491 587.367 296.584 568.271 310.719C558.733 317.78 545.173 322.129 530.107 325.324C519.523 327.568 508.228 329.237 497.093 330.882C492.379 331.579 487.693 332.271 483.102 333.001Z" stroke="#31DC89" stroke-width="0.7125"/>
<path d="M78.5843 173.932C78.2913 174.438 77.9712 174.929 77.7074 175.448C77.6594 175.586 77.6419 175.735 77.6559 175.885C77.6699 176.036 77.7152 176.184 77.789 176.322C77.8628 176.46 77.9637 176.585 78.0858 176.689C78.2078 176.794 78.3486 176.875 78.4997 176.929C78.7698 177.018 79.0501 177.063 79.3282 177.061C81.8325 176.992 84.3074 176.715 86.7252 176.232C88.4668 175.831 88.6883 175.368 87.9596 173.66C87.1045 171.626 86.1626 169.616 85.26 167.601C85.1667 167.416 85.0542 167.239 84.924 167.074C84.848 166.977 84.7522 166.896 84.6432 166.836C84.5342 166.776 84.4147 166.738 84.2931 166.726C84.1714 166.713 84.0505 166.726 83.9388 166.763C83.8272 166.8 83.7275 166.86 83.6466 166.94C83.1841 167.49 82.7448 168.052 82.2997 168.617C82.1788 168.772 82.0614 168.948 81.9622 169.093C80.9873 170.608 80.9829 170.634 79.2245 169.687C76.0475 168.031 73.1833 165.834 70.7872 163.216C69.7739 162.037 68.8827 160.771 68.1278 159.438C66.6243 156.907 66.0476 154.222 65.7605 151.464C65.5689 149.995 65.6636 148.528 66.0398 147.138C66.0839 146.98 66.1894 146.848 66.336 146.768C66.4825 146.688 66.6597 146.666 66.8331 146.705C66.9714 146.729 67.1088 146.76 67.2449 146.797C67.4493 146.864 67.6436 146.948 67.8458 147.028C70.7923 148.157 73.9299 148.576 76.9643 148.246C77.7208 148.162 78.4805 148.118 79.2334 148.023C80.3311 147.877 81.3488 147.464 82.1917 146.824C83.717 145.706 83.9655 144.329 82.9915 142.634C82.0175 140.939 80.4434 139.996 78.6886 139.347C77.2066 138.794 75.6227 138.655 74.1328 138.947C71.3422 139.439 68.8434 140.737 66.9631 142.672C66.8729 142.766 66.7961 142.871 66.7078 142.971C65.3133 144.488 65.5472 144.646 63.3144 143.233C58.4802 140.132 55.723 135.88 55.0932 130.497C55.0726 130.232 55.0723 129.966 55.0922 129.703C55.1052 129.605 55.1533 129.517 55.2288 129.453C55.3042 129.389 55.4025 129.354 55.5074 129.352C55.6391 129.318 55.7781 129.308 55.9178 129.322C57.8438 129.567 59.65 129.171 61.4778 128.862C62.4918 128.678 63.4481 128.321 64.3017 127.806C64.8216 127.506 65.2577 127.097 65.5798 126.606C66.5861 125.09 66.5331 123.51 65.3348 121.944C64.4207 120.753 63.3678 119.731 61.765 119.409C60.7212 119.181 59.6556 119.238 58.6933 119.571C57.6858 119.885 56.7799 120.41 56.0377 121.108C55.2955 121.807 54.7344 122.663 54.3929 123.619C53.9992 124.72 53.7357 125.872 53.4081 127.002C53.3797 127.129 53.299 127.237 53.1833 127.301C53.0677 127.366 52.9262 127.383 52.7891 127.348C52.3721 127.272 51.9606 127.157 51.5612 127.004C49.1318 125.895 47.2163 124.317 46.182 121.851C45.1038 119.305 44.4711 116.639 44.3109 113.966C44.233 112.635 44.2277 111.303 44.191 109.972C44.2287 109.371 44.0131 108.761 43.5915 108.273C43.5271 108.189 43.4345 108.127 43.331 108.099C43.2274 108.071 43.1199 108.079 43.0282 108.121C42.9067 108.173 42.8032 108.253 42.7272 108.356C42.6616 108.468 42.6279 108.597 42.6291 108.731C42.5681 112.188 42.662 115.646 43.536 119.114C43.9353 120.697 44.5594 122.238 45.3904 123.693C45.9677 124.652 46.714 125.518 47.5932 126.249C48.9948 127.475 50.6628 128.378 52.451 128.88C52.6951 128.917 52.9232 129.04 53.09 129.223C53.2569 129.407 53.3502 129.638 53.3516 129.87C53.467 131.605 53.8618 133.334 54.522 134.998C55.6586 137.887 57.5114 140.52 59.9131 142.66C60.8529 143.43 61.8622 144.116 62.9266 144.708C63.3604 144.959 63.7943 145.21 64.2282 145.461C64.3806 145.558 64.5 145.696 64.5687 145.856C64.6374 146.016 64.6517 146.189 64.6095 146.348C64.5688 146.606 64.4637 146.851 64.4093 147.105C64.1681 148.059 64.0856 149.055 64.1648 150.058C64.348 151.788 64.6076 153.52 64.8476 155.25C64.8841 155.518 64.9509 155.783 65.0467 156.041C66.1102 158.886 67.411 161.634 69.5595 163.98C71.3486 165.995 73.435 167.756 75.7431 169.199C76.8425 169.873 77.9177 170.579 78.9929 171.286C79.6485 171.716 79.7493 172.052 79.4254 172.63C79.3603 172.742 79.2952 172.855 79.2219 172.981C79.0185 173.333 78.7964 173.637 78.5856 173.965L78.5585 173.95L78.5843 173.932ZM79.495 141.18C80.1845 141.566 80.8008 142.069 81.3107 142.662C81.5416 142.929 81.7274 143.226 81.8607 143.543C82.0234 143.889 82.0653 144.268 81.9799 144.619C81.8944 144.971 81.6865 145.275 81.3886 145.486C80.6294 146.122 79.6632 146.504 78.6207 146.58C78.0787 146.623 77.5064 146.611 76.9636 146.691C73.8718 147.157 70.852 146.532 67.8859 145.403C67.7506 145.361 67.6255 145.289 67.5218 145.192C67.4739 145.145 67.4363 145.089 67.4115 145.029C67.3868 144.968 67.3754 144.905 67.3782 144.842C67.5767 144.437 67.8233 144.059 68.1136 143.713C69.9766 141.735 72.427 140.725 75.2196 140.312C76.6666 140.141 78.173 140.447 79.495 141.18V141.18ZM56.3828 123.343C56.8277 122.234 57.9096 121.597 59.087 121.081C59.6909 120.781 60.3958 120.681 61.0994 120.795C61.8031 120.909 62.469 121.231 63.0006 121.715C63.4358 122.081 63.8208 122.498 64.145 122.955C64.3411 123.206 64.4859 123.487 64.5712 123.783C64.6565 124.078 64.6805 124.382 64.6418 124.677C64.6032 124.972 64.5026 125.251 64.346 125.5C64.1893 125.748 63.9797 125.959 63.7294 126.122C62.9719 126.653 62.102 127.031 61.167 127.236C59.4507 127.671 57.6527 127.847 55.8351 127.758C55.7645 127.755 55.6944 127.733 55.6259 127.726C55.5557 127.726 55.4852 127.709 55.4204 127.677C55.3556 127.646 55.2984 127.601 55.2538 127.545C55.2091 127.49 55.1783 127.426 55.164 127.36C55.1496 127.293 55.152 127.225 55.1712 127.163C55.313 125.809 55.7233 124.515 56.3808 123.346L56.3828 123.343Z" fill="#001632"/>
<path d="M500.442 262.994C502.832 266.236 505.888 267.958 509.167 269.356C510.377 269.836 511.682 270.037 512.983 269.944C514.133 269.896 515.293 269.778 516.432 269.711C516.576 269.702 516.718 269.749 516.829 269.84C516.94 269.932 517.012 270.062 517.032 270.205C517.098 270.705 517.138 271.208 517.154 271.712C517.191 274.02 516.901 276.322 516.292 278.551C515.378 281.751 513.812 284.73 511.694 287.3C511.117 288.007 510.792 288.075 510.022 287.69C508.913 287.158 507.848 286.574 506.76 286.011C506.504 285.881 506.254 285.738 505.99 285.626C505.87 285.587 505.743 285.576 505.618 285.595C505.493 285.614 505.374 285.662 505.271 285.735C505.168 285.809 505.084 285.905 505.025 286.017C504.966 286.129 504.935 286.253 504.933 286.379C504.924 286.523 504.918 286.669 504.922 286.813C505.012 289.189 505.233 291.557 505.585 293.908C505.688 294.548 505.845 295.178 506.056 295.791C506.374 296.767 507.073 297.089 508.103 296.791C508.381 296.711 508.653 296.613 508.922 296.504C511.537 295.471 514.152 294.435 516.765 293.396C516.897 293.337 517.025 293.272 517.149 293.199C517.283 293.142 517.401 293.052 517.49 292.937C517.58 292.822 517.639 292.686 517.661 292.543C517.683 292.399 517.669 292.252 517.618 292.116C517.567 291.98 517.483 291.859 517.372 291.765C517.04 291.492 516.683 291.249 516.306 291.04C515.426 290.549 514.525 290.102 513.647 289.614C512.77 289.126 512.63 288.715 513.273 287.941C514.39 286.523 515.357 284.995 516.161 283.38C517.414 280.932 518.227 278.284 518.562 275.557C518.708 274.052 518.767 272.54 518.738 271.029C518.739 270.669 518.718 270.309 518.676 269.952C518.627 269.696 518.669 269.431 518.795 269.203C518.92 268.974 519.121 268.797 519.363 268.7C519.624 268.575 519.887 268.454 520.156 268.352C522.823 267.328 525.05 265.657 527.241 263.847C530.716 260.951 533.482 257.448 535.997 253.736C536.283 253.24 536.518 252.716 536.697 252.172C536.731 252.032 536.711 251.885 536.639 251.76C536.567 251.636 536.45 251.544 536.312 251.504C536.103 251.496 535.895 251.55 535.716 251.658C535.552 251.8 535.42 251.973 535.325 252.167C532.664 256.644 529.195 260.591 525.095 263.805C523.481 265.151 521.665 266.233 519.715 267.012C519.511 267.084 519.31 267.16 519.106 267.233C519.041 267.263 518.97 267.28 518.898 267.282C518.826 267.283 518.755 267.269 518.689 267.241C518.623 267.212 518.564 267.17 518.516 267.117C518.468 267.064 518.431 267.001 518.409 266.933C518.213 266.243 518.005 265.553 517.854 264.852C517.168 261.519 515.889 258.339 514.078 255.462C512.492 252.973 510.699 250.614 508.296 248.84C507.49 248.236 506.619 247.724 505.699 247.313C504.707 246.872 503.621 246.679 502.536 246.752C501.298 246.805 500.118 247.301 499.213 248.151C496.928 250.305 495.994 252.945 496.671 255.995C497.102 258.272 498.141 260.388 499.676 262.121L500.453 262.96L500.442 262.994ZM501.641 262.147L500.781 261.22C499.405 259.644 498.478 257.726 498.097 255.667C497.861 254.608 497.895 253.505 498.196 252.461C498.496 251.416 499.054 250.463 499.819 249.689C500.246 249.199 500.784 248.819 501.388 248.58C501.991 248.341 502.643 248.25 503.288 248.314C504.151 248.386 504.987 248.642 505.741 249.066C506.705 249.55 507.586 250.184 508.35 250.944C510.081 252.765 511.805 254.585 513.058 256.794C514.898 260.131 516.154 263.76 516.771 267.525C516.788 267.668 516.751 267.813 516.669 267.932C516.587 268.051 516.464 268.137 516.324 268.172C514.353 268.613 512.313 268.637 510.334 268.243C510.123 268.197 509.917 268.129 509.72 268.039C506.753 266.732 503.926 265.204 501.651 262.145L501.641 262.147Z" fill="#001632"/>
<g filter="url(#filter0_d)">
<rect x="107" y="139" width="480" height="96" rx="5.7" fill="white"/>
</g>
<path d="M195.33 207V199.494H198.055V198.545H191.551V199.494H194.275V207H195.33ZM201.213 206.203C200.018 206.203 199.344 205.336 199.344 203.842C199.344 202.342 200.018 201.48 201.213 201.48C202.408 201.48 203.082 202.342 203.082 203.842C203.082 205.336 202.408 206.203 201.213 206.203ZM201.213 207.111C203.012 207.111 204.125 205.869 204.125 203.842C204.125 201.809 203.012 200.572 201.213 200.572C199.414 200.572 198.301 201.809 198.301 203.842C198.301 205.869 199.414 207.111 201.213 207.111ZM214.203 200.684H213.195V204.422C213.195 205.529 212.586 206.191 211.473 206.191C210.465 206.191 210.043 205.664 210.043 204.527V200.684H209.035V204.773C209.035 206.268 209.773 207.111 211.191 207.111C212.158 207.111 212.832 206.713 213.148 206.01H213.242V207H214.203V200.684ZM216.102 207H217.109V203.262C217.109 202.154 217.76 201.48 218.768 201.48C219.775 201.48 220.256 202.02 220.256 203.156V207H221.264V202.91C221.264 201.41 220.473 200.572 219.055 200.572C218.088 200.572 217.473 200.982 217.156 201.68H217.063V200.684H216.102V207ZM223.168 207H224.176V198.176H223.168V207ZM228.729 206.203C227.533 206.203 226.859 205.336 226.859 203.842C226.859 202.342 227.533 201.48 228.729 201.48C229.924 201.48 230.598 202.342 230.598 203.842C230.598 205.336 229.924 206.203 228.729 206.203ZM228.729 207.111C230.527 207.111 231.641 205.869 231.641 203.842C231.641 201.809 230.527 200.572 228.729 200.572C226.93 200.572 225.816 201.809 225.816 203.842C225.816 205.869 226.93 207.111 228.729 207.111ZM238.449 202.617C238.273 201.492 237.336 200.572 235.801 200.572C234.031 200.572 232.906 201.85 232.906 203.818C232.906 205.828 234.037 207.111 235.807 207.111C237.324 207.111 238.268 206.256 238.449 205.096H237.43C237.242 205.811 236.65 206.203 235.801 206.203C234.676 206.203 233.949 205.277 233.949 203.818C233.949 202.389 234.664 201.48 235.801 201.48C236.709 201.48 237.266 201.99 237.43 202.617H238.449ZM241.098 203.443H241.004V198.176H239.996V207H241.004V204.604L241.607 204.041L243.975 207H245.258L242.357 203.391L245.076 200.684H243.84L241.098 203.443ZM250.262 199.049V200.684H249.242V201.527H250.262V205.359C250.262 206.566 250.783 207.047 252.084 207.047C252.283 207.047 252.477 207.023 252.676 206.988V206.139C252.488 206.156 252.389 206.162 252.207 206.162C251.551 206.162 251.27 205.846 251.27 205.102V201.527H252.676V200.684H251.27V199.049H250.262ZM254.258 207H255.266V203.262C255.266 202.195 255.887 201.48 257.018 201.48C257.973 201.48 258.477 202.037 258.477 203.156V207H259.484V202.91C259.484 201.428 258.641 200.572 257.305 200.572C256.338 200.572 255.676 200.982 255.359 201.68H255.266V198.176H254.258V207ZM261.348 207H262.356V200.684H261.348V207ZM261.852 199.4C262.238 199.4 262.555 199.084 262.555 198.697C262.555 198.311 262.238 197.994 261.852 197.994C261.465 197.994 261.148 198.311 261.148 198.697C261.148 199.084 261.465 199.4 261.852 199.4ZM264.131 202.412C264.131 203.326 264.67 203.836 265.854 204.123L266.938 204.387C267.611 204.551 267.94 204.844 267.94 205.277C267.94 205.857 267.33 206.262 266.481 206.262C265.672 206.262 265.168 205.922 264.998 205.389H263.961C264.072 206.438 265.039 207.111 266.445 207.111C267.881 207.111 268.977 206.332 268.977 205.201C268.977 204.293 268.402 203.777 267.213 203.49L266.24 203.256C265.496 203.074 265.145 202.805 265.145 202.371C265.145 201.809 265.731 201.428 266.481 201.428C267.242 201.428 267.734 201.762 267.869 202.266H268.865C268.731 201.229 267.811 200.572 266.486 200.572C265.145 200.572 264.131 201.363 264.131 202.412ZM275.891 206.227C275.158 206.227 274.613 205.852 274.613 205.207C274.613 204.574 275.035 204.24 275.996 204.176L277.695 204.064V204.645C277.695 205.547 276.928 206.227 275.891 206.227ZM275.703 207.111C276.547 207.111 277.238 206.742 277.648 206.068H277.742V207H278.703V202.676C278.703 201.363 277.842 200.572 276.301 200.572C274.953 200.572 273.957 201.24 273.822 202.254H274.842C274.982 201.756 275.51 201.469 276.266 201.469C277.209 201.469 277.695 201.896 277.695 202.676V203.25L275.873 203.361C274.402 203.449 273.57 204.1 273.57 205.23C273.57 206.385 274.479 207.111 275.703 207.111ZM285.793 202.617C285.617 201.492 284.68 200.572 283.145 200.572C281.375 200.572 280.25 201.85 280.25 203.818C280.25 205.828 281.381 207.111 283.15 207.111C284.668 207.111 285.611 206.256 285.793 205.096H284.773C284.586 205.811 283.994 206.203 283.145 206.203C282.02 206.203 281.293 205.277 281.293 203.818C281.293 202.389 282.008 201.48 283.145 201.48C284.053 201.48 284.609 201.99 284.773 202.617H285.793ZM287.82 199.049V200.684H286.801V201.527H287.82V205.359C287.82 206.566 288.342 207.047 289.643 207.047C289.842 207.047 290.035 207.023 290.234 206.988V206.139C290.047 206.156 289.947 206.162 289.766 206.162C289.109 206.162 288.828 205.846 288.828 205.102V201.527H290.234V200.684H288.828V199.049H287.82ZM291.781 207H292.789V200.684H291.781V207ZM292.285 199.4C292.672 199.4 292.988 199.084 292.988 198.697C292.988 198.311 292.672 197.994 292.285 197.994C291.898 197.994 291.582 198.311 291.582 198.697C291.582 199.084 291.898 199.4 292.285 199.4ZM294.16 200.684L296.498 207H297.529L299.867 200.684H298.789L297.061 205.887H296.967L295.238 200.684H294.16ZM301.238 207H302.246V200.684H301.238V207ZM301.742 199.4C302.129 199.4 302.445 199.084 302.445 198.697C302.445 198.311 302.129 197.994 301.742 197.994C301.356 197.994 301.039 198.311 301.039 198.697C301.039 199.084 301.356 199.4 301.742 199.4ZM304.59 199.049V200.684H303.57V201.527H304.59V205.359C304.59 206.566 305.111 207.047 306.412 207.047C306.611 207.047 306.805 207.023 307.004 206.988V206.139C306.816 206.156 306.717 206.162 306.535 206.162C305.879 206.162 305.598 205.846 305.598 205.102V201.527H307.004V200.684H305.598V199.049H304.59ZM309.066 209.285C310.186 209.285 310.69 208.852 311.229 207.387L313.695 200.684H312.623L310.895 205.881H310.801L309.066 200.684H307.977L310.315 207.006L310.197 207.381C309.934 208.143 309.617 208.418 309.037 208.418C308.897 208.418 308.738 208.412 308.615 208.389V209.25C308.756 209.273 308.932 209.285 309.066 209.285ZM318.969 209.285C320.088 209.285 320.592 208.852 321.131 207.387L323.598 200.684H322.525L320.797 205.881H320.703L318.969 200.684H317.879L320.217 207.006L320.1 207.381C319.836 208.143 319.52 208.418 318.94 208.418C318.799 208.418 318.641 208.412 318.518 208.389V209.25C318.658 209.273 318.834 209.285 318.969 209.285ZM327.307 206.203C326.111 206.203 325.438 205.336 325.438 203.842C325.438 202.342 326.111 201.48 327.307 201.48C328.502 201.48 329.176 202.342 329.176 203.842C329.176 205.336 328.502 206.203 327.307 206.203ZM327.307 207.111C329.106 207.111 330.219 205.869 330.219 203.842C330.219 201.809 329.106 200.572 327.307 200.572C325.508 200.572 324.395 201.809 324.395 203.842C324.395 205.869 325.508 207.111 327.307 207.111ZM336.91 200.684H335.902V204.422C335.902 205.529 335.293 206.191 334.18 206.191C333.172 206.191 332.75 205.664 332.75 204.527V200.684H331.742V204.773C331.742 206.268 332.481 207.111 333.898 207.111C334.865 207.111 335.539 206.713 335.856 206.01H335.949V207H336.91V200.684ZM342.195 207H343.203V203.262C343.203 202.154 343.854 201.48 344.861 201.48C345.869 201.48 346.35 202.02 346.35 203.156V207H347.357V202.91C347.357 201.41 346.566 200.572 345.148 200.572C344.182 200.572 343.566 200.982 343.25 201.68H343.156V200.684H342.195V207ZM351.723 201.463C352.725 201.463 353.393 202.201 353.416 203.32H349.936C350.012 202.201 350.715 201.463 351.723 201.463ZM353.387 205.365C353.123 205.922 352.572 206.221 351.758 206.221C350.686 206.221 349.988 205.43 349.936 204.182V204.135H354.477V203.748C354.477 201.785 353.44 200.572 351.734 200.572C350 200.572 348.887 201.861 348.887 203.848C348.887 205.846 349.982 207.111 351.734 207.111C353.117 207.111 354.09 206.449 354.395 205.365H353.387ZM358.578 201.463C359.58 201.463 360.248 202.201 360.272 203.32H356.791C356.867 202.201 357.57 201.463 358.578 201.463ZM360.242 205.365C359.979 205.922 359.428 206.221 358.613 206.221C357.541 206.221 356.844 205.43 356.791 204.182V204.135H361.332V203.748C361.332 201.785 360.295 200.572 358.59 200.572C356.856 200.572 355.742 201.861 355.742 203.848C355.742 205.846 356.838 207.111 358.59 207.111C359.973 207.111 360.945 206.449 361.25 205.365H360.242ZM365.252 207.111C366.125 207.111 366.875 206.695 367.273 205.992H367.367V207H368.328V198.176H367.32V201.68H367.232C366.875 200.988 366.131 200.572 365.252 200.572C363.647 200.572 362.598 201.861 362.598 203.842C362.598 205.828 363.635 207.111 365.252 207.111ZM365.486 201.48C366.629 201.48 367.344 202.395 367.344 203.842C367.344 205.301 366.635 206.203 365.486 206.203C364.332 206.203 363.641 205.318 363.641 203.842C363.641 202.371 364.338 201.48 365.486 201.48ZM374.094 199.049V200.684H373.074V201.527H374.094V205.359C374.094 206.566 374.615 207.047 375.916 207.047C376.115 207.047 376.309 207.023 376.508 206.988V206.139C376.32 206.156 376.221 206.162 376.039 206.162C375.383 206.162 375.102 205.846 375.102 205.102V201.527H376.508V200.684H375.102V199.049H374.094ZM380.533 206.203C379.338 206.203 378.664 205.336 378.664 203.842C378.664 202.342 379.338 201.48 380.533 201.48C381.729 201.48 382.402 202.342 382.402 203.842C382.402 205.336 381.729 206.203 380.533 206.203ZM380.533 207.111C382.332 207.111 383.445 205.869 383.445 203.842C383.445 201.809 382.332 200.572 380.533 200.572C378.734 200.572 377.621 201.809 377.621 203.842C377.621 205.869 378.734 207.111 380.533 207.111ZM388.268 202.412C388.268 203.326 388.807 203.836 389.99 204.123L391.074 204.387C391.748 204.551 392.076 204.844 392.076 205.277C392.076 205.857 391.467 206.262 390.617 206.262C389.809 206.262 389.305 205.922 389.135 205.389H388.098C388.209 206.438 389.176 207.111 390.582 207.111C392.018 207.111 393.113 206.332 393.113 205.201C393.113 204.293 392.539 203.777 391.35 203.49L390.377 203.256C389.633 203.074 389.281 202.805 389.281 202.371C389.281 201.809 389.867 201.428 390.617 201.428C391.379 201.428 391.871 201.762 392.006 202.266H393.002C392.867 201.229 391.947 200.572 390.623 200.572C389.281 200.572 388.268 201.363 388.268 202.412ZM399.805 200.684H398.797V204.422C398.797 205.529 398.188 206.191 397.074 206.191C396.066 206.191 395.645 205.664 395.645 204.527V200.684H394.637V204.773C394.637 206.268 395.375 207.111 396.793 207.111C397.76 207.111 398.434 206.713 398.75 206.01H398.844V207H399.805V200.684ZM404.844 207.111C406.443 207.111 407.492 205.816 407.492 203.842C407.492 201.855 406.449 200.572 404.844 200.572C403.977 200.572 403.209 201 402.863 201.68H402.77V198.176H401.762V207H402.723V205.992H402.816C403.215 206.695 403.965 207.111 404.844 207.111ZM404.609 201.48C405.764 201.48 406.449 202.365 406.449 203.842C406.449 205.318 405.764 206.203 404.609 206.203C403.461 206.203 402.746 205.301 402.746 203.842C402.746 202.383 403.461 201.48 404.609 201.48ZM409.074 207H410.082V203.086C410.082 202.195 410.721 201.48 411.547 201.48C412.344 201.48 412.865 201.961 412.865 202.711V207H413.873V202.939C413.873 202.137 414.459 201.48 415.338 201.48C416.229 201.48 416.668 201.938 416.668 202.869V207H417.676V202.635C417.676 201.311 416.955 200.572 415.666 200.572C414.793 200.572 414.072 201.012 413.732 201.68H413.639C413.346 201.023 412.748 200.572 411.893 200.572C411.049 200.572 410.416 200.977 410.129 201.68H410.035V200.684H409.074V207ZM419.539 207H420.547V200.684H419.539V207ZM420.043 199.4C420.43 199.4 420.746 199.084 420.746 198.697C420.746 198.311 420.43 197.994 420.043 197.994C419.656 197.994 419.34 198.311 419.34 198.697C419.34 199.084 419.656 199.4 420.043 199.4ZM422.891 199.049V200.684H421.871V201.527H422.891V205.359C422.891 206.566 423.412 207.047 424.713 207.047C424.912 207.047 425.106 207.023 425.305 206.988V206.139C425.117 206.156 425.018 206.162 424.836 206.162C424.18 206.162 423.898 205.846 423.898 205.102V201.527H425.305V200.684H423.898V199.049H422.891ZM430.754 209.285C431.873 209.285 432.377 208.852 432.916 207.387L435.383 200.684H434.311L432.582 205.881H432.488L430.754 200.684H429.664L432.002 207.006L431.885 207.381C431.621 208.143 431.305 208.418 430.725 208.418C430.584 208.418 430.426 208.412 430.303 208.389V209.25C430.443 209.273 430.619 209.285 430.754 209.285ZM439.092 206.203C437.897 206.203 437.223 205.336 437.223 203.842C437.223 202.342 437.897 201.48 439.092 201.48C440.287 201.48 440.961 202.342 440.961 203.842C440.961 205.336 440.287 206.203 439.092 206.203ZM439.092 207.111C440.891 207.111 442.004 205.869 442.004 203.842C442.004 201.809 440.891 200.572 439.092 200.572C437.293 200.572 436.18 201.809 436.18 203.842C436.18 205.869 437.293 207.111 439.092 207.111ZM448.695 200.684H447.688V204.422C447.688 205.529 447.078 206.191 445.965 206.191C444.957 206.191 444.535 205.664 444.535 204.527V200.684H443.527V204.773C443.527 206.268 444.266 207.111 445.684 207.111C446.65 207.111 447.324 206.713 447.641 206.01H447.734V207H448.695V200.684ZM450.594 207H451.602V203.086C451.602 202.195 452.299 201.551 453.26 201.551C453.459 201.551 453.822 201.586 453.904 201.609V200.602C453.775 200.584 453.565 200.572 453.4 200.572C452.563 200.572 451.836 201.006 451.648 201.621H451.555V200.684H450.594V207ZM461.07 201.463C462.072 201.463 462.74 202.201 462.764 203.32H459.283C459.359 202.201 460.063 201.463 461.07 201.463ZM462.734 205.365C462.471 205.922 461.92 206.221 461.106 206.221C460.033 206.221 459.336 205.43 459.283 204.182V204.135H463.824V203.748C463.824 201.785 462.787 200.572 461.082 200.572C459.348 200.572 458.234 201.861 458.234 203.848C458.234 205.846 459.33 207.111 461.082 207.111C462.465 207.111 463.438 206.449 463.742 205.365H462.734ZM465.26 202.412C465.26 203.326 465.799 203.836 466.982 204.123L468.066 204.387C468.74 204.551 469.068 204.844 469.068 205.277C469.068 205.857 468.459 206.262 467.609 206.262C466.801 206.262 466.297 205.922 466.127 205.389H465.09C465.201 206.438 466.168 207.111 467.574 207.111C469.01 207.111 470.106 206.332 470.106 205.201C470.106 204.293 469.531 203.777 468.342 203.49L467.369 203.256C466.625 203.074 466.273 202.805 466.273 202.371C466.273 201.809 466.859 201.428 467.609 201.428C468.371 201.428 468.863 201.762 468.998 202.266H469.994C469.859 201.229 468.94 200.572 467.615 200.572C466.273 200.572 465.26 201.363 465.26 202.412ZM471.424 202.412C471.424 203.326 471.963 203.836 473.147 204.123L474.231 204.387C474.904 204.551 475.232 204.844 475.232 205.277C475.232 205.857 474.623 206.262 473.773 206.262C472.965 206.262 472.461 205.922 472.291 205.389H471.254C471.365 206.438 472.332 207.111 473.738 207.111C475.174 207.111 476.27 206.332 476.27 205.201C476.27 204.293 475.695 203.777 474.506 203.49L473.533 203.256C472.789 203.074 472.438 202.805 472.438 202.371C472.438 201.809 473.023 201.428 473.773 201.428C474.535 201.428 475.027 201.762 475.162 202.266H476.158C476.023 201.229 475.104 200.572 473.779 200.572C472.438 200.572 471.424 201.363 471.424 202.412ZM479.797 206.227C479.065 206.227 478.52 205.852 478.52 205.207C478.52 204.574 478.941 204.24 479.902 204.176L481.602 204.064V204.645C481.602 205.547 480.834 206.227 479.797 206.227ZM479.609 207.111C480.453 207.111 481.145 206.742 481.555 206.068H481.648V207H482.609V202.676C482.609 201.363 481.748 200.572 480.207 200.572C478.859 200.572 477.863 201.24 477.729 202.254H478.748C478.889 201.756 479.416 201.469 480.172 201.469C481.115 201.469 481.602 201.896 481.602 202.676V203.25L479.779 203.361C478.309 203.449 477.477 204.1 477.477 205.23C477.477 206.385 478.385 207.111 479.609 207.111ZM484.777 209.285C485.897 209.285 486.4 208.852 486.94 207.387L489.406 200.684H488.334L486.606 205.881H486.512L484.777 200.684H483.688L486.025 207.006L485.908 207.381C485.645 208.143 485.328 208.418 484.748 208.418C484.607 208.418 484.449 208.412 484.326 208.389V209.25C484.467 209.273 484.643 209.285 484.777 209.285Z" fill="#66768A"/>
<g clip-path="url(#clip0)">
<path d="M172.31 198.665C172.417 198.559 172.563 198.5 172.714 198.5H179C179.315 198.5 179.571 198.248 179.571 197.938C179.571 197.627 179.315 197.375 179 197.375H172.714C172.259 197.375 171.823 197.553 171.502 197.869C171.18 198.186 171 198.615 171 199.062V206.938C171 207.385 171.18 207.814 171.502 208.131C171.823 208.447 172.259 208.625 172.714 208.625H180.714C181.169 208.625 181.605 208.447 181.926 208.131C182.248 207.814 182.428 207.385 182.428 206.938V203C182.428 202.689 182.173 202.438 181.857 202.438C181.541 202.438 181.286 202.689 181.286 203V206.938C181.286 207.087 181.225 207.23 181.118 207.335C181.011 207.441 180.866 207.5 180.714 207.5H172.714C172.563 207.5 172.417 207.441 172.31 207.335C172.203 207.23 172.143 207.087 172.143 206.938V199.062C172.143 198.913 172.203 198.77 172.31 198.665Z" fill="#8093AD"/>
<path d="M177.118 204.523L182.832 198.898C183.056 198.678 183.056 198.322 182.832 198.102C182.609 197.883 182.247 197.883 182.024 198.102L176.714 203.33L175.404 202.04C175.181 201.82 174.819 201.82 174.596 202.04C174.373 202.259 174.373 202.616 174.596 202.835L176.31 204.523C176.533 204.742 176.895 204.742 177.118 204.523Z" fill="#8093AD"/>
</g>
<path d="M172.278 180H174.034V175.909H176.42C179.119 175.909 180.454 174.278 180.454 172.131C180.454 169.989 179.131 168.364 176.426 168.364H172.278V180ZM174.034 174.42V169.869H176.239C177.977 169.869 178.687 170.812 178.687 172.131C178.687 173.449 177.977 174.42 176.261 174.42H174.034ZM186.028 180.176C187.932 180.176 189.278 179.239 189.665 177.818L188.057 177.528C187.75 178.352 187.011 178.773 186.045 178.773C184.591 178.773 183.614 177.83 183.568 176.148H189.773V175.545C189.773 172.392 187.886 171.159 185.909 171.159C183.477 171.159 181.875 173.011 181.875 175.693C181.875 178.403 183.454 180.176 186.028 180.176ZM183.574 174.875C183.642 173.636 184.54 172.562 185.92 172.562C187.239 172.562 188.102 173.54 188.108 174.875H183.574ZM195.419 180.176C197.322 180.176 198.669 179.239 199.055 177.818L197.447 177.528C197.141 178.352 196.402 178.773 195.436 178.773C193.981 178.773 193.004 177.83 192.959 176.148H199.163V175.545C199.163 172.392 197.277 171.159 195.3 171.159C192.868 171.159 191.266 173.011 191.266 175.693C191.266 178.403 192.845 180.176 195.419 180.176ZM192.964 174.875C193.033 173.636 193.93 172.562 195.311 172.562C196.629 172.562 197.493 173.54 197.498 174.875H192.964ZM201.048 180H202.747V174.67C202.747 173.528 203.628 172.705 204.832 172.705C205.185 172.705 205.582 172.767 205.719 172.807V171.182C205.548 171.159 205.213 171.142 204.997 171.142C203.974 171.142 203.099 171.722 202.781 172.659H202.69V171.273H201.048V180ZM211.423 180H213.122V174.67C213.122 173.528 214.003 172.705 215.207 172.705C215.56 172.705 215.957 172.767 216.094 172.807V171.182C215.923 171.159 215.588 171.142 215.372 171.142C214.349 171.142 213.474 171.722 213.156 172.659H213.065V171.273H211.423V180ZM221.013 180.176C222.916 180.176 224.263 179.239 224.649 177.818L223.041 177.528C222.734 178.352 221.996 178.773 221.03 178.773C219.575 178.773 218.598 177.83 218.552 176.148H224.757V175.545C224.757 172.392 222.871 171.159 220.893 171.159C218.462 171.159 216.859 173.011 216.859 175.693C216.859 178.403 218.439 180.176 221.013 180.176ZM218.558 174.875C218.626 173.636 219.524 172.562 220.905 172.562C222.223 172.562 223.087 173.54 223.092 174.875H218.558ZM234.061 171.273H232.237L230.033 177.989H229.942L227.731 171.273H225.908L229.078 180H230.896L234.061 171.273ZM235.658 180H237.356V171.273H235.658V180ZM236.516 169.926C237.101 169.926 237.589 169.472 237.589 168.915C237.589 168.358 237.101 167.898 236.516 167.898C235.925 167.898 235.442 168.358 235.442 168.915C235.442 169.472 235.925 169.926 236.516 169.926ZM243.403 180.176C245.307 180.176 246.653 179.239 247.04 177.818L245.432 177.528C245.125 178.352 244.386 178.773 243.42 178.773C241.966 178.773 240.989 177.83 240.943 176.148H247.148V175.545C247.148 172.392 245.261 171.159 243.284 171.159C240.852 171.159 239.25 173.011 239.25 175.693C239.25 178.403 240.829 180.176 243.403 180.176ZM240.949 174.875C241.017 173.636 241.915 172.562 243.295 172.562C244.614 172.562 245.477 173.54 245.483 174.875H240.949ZM250.909 180H252.636L254.409 173.699H254.54L256.312 180H258.045L260.608 171.273H258.852L257.153 177.653H257.068L255.364 171.273H253.608L251.892 177.682H251.807L250.096 171.273H248.341L250.909 180ZM270.483 180.159C272.858 180.159 274.602 178.739 274.596 176.807C274.602 175.335 273.71 174.278 272.165 174.04V173.949C273.381 173.636 274.17 172.682 274.165 171.375C274.17 169.665 272.767 168.205 270.528 168.205C268.392 168.205 266.676 169.494 266.619 171.386H268.318C268.358 170.318 269.364 169.67 270.506 169.67C271.693 169.67 272.471 170.392 272.466 171.466C272.471 172.591 271.568 173.33 270.278 173.33H269.295V174.761H270.278C271.892 174.761 272.824 175.58 272.824 176.75C272.824 177.881 271.841 178.648 270.471 178.648C269.21 178.648 268.227 178 268.159 176.966H266.375C266.449 178.864 268.131 180.159 270.483 180.159ZM284.677 180.176C287.138 180.176 288.746 178.375 288.746 175.676C288.746 172.96 287.138 171.159 284.677 171.159C282.217 171.159 280.609 172.96 280.609 175.676C280.609 178.375 282.217 180.176 284.677 180.176ZM284.683 178.75C283.075 178.75 282.325 177.347 282.325 175.67C282.325 174 283.075 172.58 284.683 172.58C286.28 172.58 287.03 174 287.03 175.67C287.03 177.347 286.28 178.75 284.683 178.75ZM294.795 171.273H292.915V170.489C292.915 169.716 293.233 169.295 294.062 169.295C294.415 169.295 294.665 169.375 294.824 169.426L295.221 168.051C294.983 167.96 294.489 167.818 293.801 167.818C292.42 167.818 291.21 168.625 291.21 170.261V171.273H289.864V172.636H291.21V180H292.915V172.636H294.795V171.273ZM301.856 183.25C303.26 183.25 304.152 182.517 304.652 181.165L308.26 171.29L306.425 171.273L304.214 178.045H304.123L301.913 171.273H300.095L303.288 180.114L303.078 180.693C302.646 181.824 302.038 181.926 301.106 181.67L300.697 183.062C300.902 183.159 301.345 183.25 301.856 183.25ZM313.224 180.176C315.685 180.176 317.292 178.375 317.292 175.676C317.292 172.96 315.685 171.159 313.224 171.159C310.764 171.159 309.156 172.96 309.156 175.676C309.156 178.375 310.764 180.176 313.224 180.176ZM313.23 178.75C311.622 178.75 310.872 177.347 310.872 175.67C310.872 174 311.622 172.58 313.23 172.58C314.827 172.58 315.577 174 315.577 175.67C315.577 177.347 314.827 178.75 313.23 178.75ZM324.717 176.381C324.723 177.864 323.621 178.568 322.666 178.568C321.615 178.568 320.888 177.807 320.888 176.619V171.273H319.189V176.824C319.189 178.989 320.376 180.114 322.052 180.114C323.365 180.114 324.257 179.42 324.66 178.489H324.751V180H326.422V171.273H324.717V176.381ZM328.704 180H330.403V174.67C330.403 173.528 331.284 172.705 332.489 172.705C332.841 172.705 333.239 172.767 333.375 172.807V171.182C333.204 171.159 332.869 171.142 332.653 171.142C331.631 171.142 330.756 171.722 330.437 172.659H330.346V171.273H328.704V180ZM339.079 183.273H340.778V178.642H340.881C341.187 179.199 341.812 180.17 343.403 180.17C345.517 180.17 347.051 178.477 347.051 175.653C347.051 172.824 345.494 171.159 343.386 171.159C341.767 171.159 341.182 172.148 340.881 172.688H340.739V171.273H339.079V183.273ZM340.744 175.636C340.744 173.812 341.54 172.602 343.023 172.602C344.562 172.602 345.335 173.903 345.335 175.636C345.335 177.386 344.54 178.722 343.023 178.722C341.562 178.722 340.744 177.472 340.744 175.636ZM352.716 180.176C354.619 180.176 355.966 179.239 356.352 177.818L354.744 177.528C354.437 178.352 353.699 178.773 352.733 178.773C351.278 178.773 350.301 177.83 350.256 176.148H356.46V175.545C356.46 172.392 354.574 171.159 352.596 171.159C350.165 171.159 348.562 173.011 348.562 175.693C348.562 178.403 350.142 180.176 352.716 180.176ZM350.261 174.875C350.329 173.636 351.227 172.562 352.608 172.562C353.926 172.562 354.79 173.54 354.795 174.875H350.261ZM362.106 180.176C364.01 180.176 365.356 179.239 365.743 177.818L364.135 177.528C363.828 178.352 363.089 178.773 362.123 178.773C360.669 178.773 359.692 177.83 359.646 176.148H365.851V175.545C365.851 172.392 363.964 171.159 361.987 171.159C359.555 171.159 357.953 173.011 357.953 175.693C357.953 178.403 359.533 180.176 362.106 180.176ZM359.652 174.875C359.72 173.636 360.618 172.562 361.998 172.562C363.317 172.562 364.18 173.54 364.186 174.875H359.652ZM367.736 180H369.435V174.67C369.435 173.528 370.315 172.705 371.52 172.705C371.872 172.705 372.27 172.767 372.406 172.807V171.182C372.236 171.159 371.9 171.142 371.685 171.142C370.662 171.142 369.787 171.722 369.469 172.659H369.378V171.273H367.736V180ZM380.416 173.403C380.064 172.045 379.001 171.159 377.115 171.159C375.143 171.159 373.746 172.199 373.746 173.744C373.746 174.983 374.496 175.807 376.132 176.17L377.609 176.494C378.45 176.682 378.842 177.057 378.842 177.602C378.842 178.278 378.121 178.807 377.007 178.807C375.99 178.807 375.337 178.369 375.132 177.511L373.49 177.761C373.774 179.307 375.058 180.176 377.018 180.176C379.126 180.176 380.587 179.057 380.587 177.477C380.587 176.244 379.802 175.483 378.2 175.114L376.814 174.795C375.854 174.568 375.439 174.244 375.444 173.653C375.439 172.983 376.166 172.506 377.132 172.506C378.189 172.506 378.677 173.091 378.876 173.676L380.416 173.403ZM383.915 168.364H382.46V169.472C382.46 170.352 382.074 171.074 381.631 171.727L382.471 172.33C383.346 171.625 383.915 170.42 383.915 169.455V168.364ZM392.003 180H393.73L395.503 173.699H395.633L397.406 180H399.139L401.702 171.273H399.946L398.247 177.653H398.162L396.457 171.273H394.702L392.986 177.682H392.9L391.19 171.273H389.435L392.003 180ZM406.724 180.176C409.185 180.176 410.792 178.375 410.792 175.676C410.792 172.96 409.185 171.159 406.724 171.159C404.264 171.159 402.656 172.96 402.656 175.676C402.656 178.375 404.264 180.176 406.724 180.176ZM406.73 178.75C405.122 178.75 404.372 177.347 404.372 175.67C404.372 174 405.122 172.58 406.73 172.58C408.327 172.58 409.077 174 409.077 175.67C409.077 177.347 408.327 178.75 406.73 178.75ZM412.689 180H414.388V174.67C414.388 173.528 415.268 172.705 416.473 172.705C416.825 172.705 417.223 172.767 417.359 172.807V171.182C417.189 171.159 416.854 171.142 416.638 171.142C415.615 171.142 414.74 171.722 414.422 172.659H414.331V171.273H412.689V180ZM418.829 180H420.528V176.903L421.375 176.057L424.341 180H426.426L422.653 175.017L426.187 171.273H424.153L420.676 174.966H420.528V168.364H418.829V180Z" fill="#001632"/>
<path fill-rule="evenodd" clip-rule="evenodd" d="M138.482 166C135.805 166 133.635 168.17 133.635 170.847C133.635 173.524 135.805 175.694 138.482 175.694C141.159 175.694 143.329 173.524 143.329 170.847C143.329 168.17 141.159 166 138.482 166ZM135.047 170.847C135.047 168.95 136.585 167.412 138.482 167.412C140.38 167.412 141.918 168.95 141.918 170.847C141.918 172.744 140.38 174.282 138.482 174.282C136.585 174.282 135.047 172.744 135.047 170.847Z" fill="#001632"/>
<path d="M132.412 183.271C132.412 179.918 135.13 177.2 138.482 177.2C141.835 177.2 144.553 179.918 144.553 183.271C144.553 183.66 144.869 183.977 145.259 183.977C145.649 183.977 145.965 183.66 145.965 183.271C145.965 179.138 142.615 175.788 138.482 175.788C134.35 175.788 131 179.138 131 183.271C131 183.66 131.316 183.977 131.706 183.977C132.096 183.977 132.412 183.66 132.412 183.271Z" fill="#001632"/>
<path fill-rule="evenodd" clip-rule="evenodd" d="M144.655 173.106C144.655 170.845 146.488 169.012 148.749 169.012C151.01 169.012 152.843 170.845 152.843 173.106C152.843 175.044 151.497 176.667 149.689 177.092C150.623 177.234 151.524 177.587 152.321 178.143C153.999 179.311 154.999 181.226 155 183.27C155 183.66 154.684 183.976 154.294 183.976C153.905 183.977 153.588 183.661 153.588 183.271C153.587 181.688 152.813 180.206 151.514 179.301C150.216 178.396 148.557 178.183 147.072 178.731C146.706 178.865 146.3 178.678 146.165 178.312C146.031 177.947 146.218 177.541 146.584 177.406C146.984 177.258 147.393 177.154 147.807 177.091C146 176.665 144.655 175.043 144.655 173.106ZM148.749 170.424C147.268 170.424 146.067 171.625 146.067 173.106C146.067 174.587 147.268 175.788 148.749 175.788C150.231 175.788 151.432 174.587 151.432 173.106C151.432 171.625 150.231 170.424 148.749 170.424Z" fill="#001632"/>
<g filter="url(#filter1_d)">
<rect x="9" y="272" width="480" height="96" rx="5.7" fill="white"/>
</g>
<path d="M94.4148 340L95.2926 337.528H98.821L99.6989 340H100.807L97.6023 331.273H96.5114L93.3068 340H94.4148ZM95.625 336.591L97.0227 332.653H97.0909L98.4886 336.591H95.625ZM106.562 333.455H105.471L103.664 338.67H103.596L101.789 333.455H100.698L103.119 340H104.141L106.562 333.455ZM109.616 340.153C110.758 340.153 111.355 339.54 111.559 339.114H111.61V340H112.616V335.688C112.616 333.608 111.031 333.369 110.196 333.369C109.207 333.369 108.082 333.71 107.571 334.903L108.525 335.244C108.747 334.767 109.271 334.256 110.23 334.256C111.154 334.256 111.61 334.746 111.61 335.585V335.619C111.61 336.105 111.116 336.062 109.923 336.216C108.708 336.374 107.383 336.642 107.383 338.142C107.383 339.42 108.372 340.153 109.616 340.153ZM109.77 339.25C108.968 339.25 108.389 338.892 108.389 338.193C108.389 337.426 109.088 337.188 109.872 337.085C110.298 337.034 111.44 336.915 111.61 336.71V337.631C111.61 338.449 110.963 339.25 109.77 339.25ZM114.452 340H115.457V333.455H114.452V340ZM114.963 332.364C115.355 332.364 115.679 332.057 115.679 331.682C115.679 331.307 115.355 331 114.963 331C114.571 331 114.247 331.307 114.247 331.682C114.247 332.057 114.571 332.364 114.963 332.364ZM118.305 331.273H117.299V340H118.305V331.273ZM122.073 340.153C123.215 340.153 123.812 339.54 124.016 339.114H124.067V340H125.073V335.688C125.073 333.608 123.488 333.369 122.653 333.369C121.664 333.369 120.539 333.71 120.028 334.903L120.982 335.244C121.204 334.767 121.728 334.256 122.687 334.256C123.612 334.256 124.067 334.746 124.067 335.585V335.619C124.067 336.105 123.573 336.062 122.38 336.216C121.165 336.374 119.84 336.642 119.84 338.142C119.84 339.42 120.829 340.153 122.073 340.153ZM122.227 339.25C121.425 339.25 120.846 338.892 120.846 338.193C120.846 337.426 121.545 337.188 122.329 337.085C122.755 337.034 123.897 336.915 124.067 336.71V337.631C124.067 338.449 123.42 339.25 122.227 339.25ZM127.045 340H128.017V338.994H128.136C128.358 339.352 128.784 340.136 130.045 340.136C131.681 340.136 132.824 338.824 132.824 336.744C132.824 334.682 131.681 333.369 130.028 333.369C128.75 333.369 128.358 334.153 128.136 334.494H128.051V331.273H127.045V340ZM128.034 336.727C128.034 335.261 128.681 334.273 129.909 334.273C131.187 334.273 131.818 335.347 131.818 336.727C131.818 338.125 131.17 339.233 129.909 339.233C128.699 339.233 128.034 338.21 128.034 336.727ZM135.368 331.273H134.362V340H135.368V331.273ZM139.954 340.136C141.283 340.136 142.255 339.472 142.562 338.483L141.59 338.21C141.335 338.892 140.742 339.233 139.954 339.233C138.773 339.233 137.96 338.47 137.913 337.068H142.664V336.642C142.664 334.205 141.215 333.369 139.852 333.369C138.079 333.369 136.903 334.767 136.903 336.778C136.903 338.79 138.062 340.136 139.954 340.136ZM137.913 336.199C137.981 335.18 138.701 334.273 139.852 334.273C140.942 334.273 141.641 335.091 141.641 336.199H137.913ZM152.648 335.168H146.648V336.105H152.648V335.168ZM157.08 331.273V340H158.069V333.369H158.154L160.881 340H161.836L164.563 333.369H164.648V340H165.637V331.273H164.376L161.41 338.517H161.308L158.342 331.273H157.08ZM169.546 340.153C170.688 340.153 171.284 339.54 171.489 339.114H171.54V340H172.546V335.688C172.546 333.608 170.961 333.369 170.125 333.369C169.137 333.369 168.012 333.71 167.5 334.903L168.455 335.244C168.676 334.767 169.201 334.256 170.159 334.256C171.084 334.256 171.54 334.746 171.54 335.585V335.619C171.54 336.105 171.046 336.062 169.853 336.216C168.638 336.374 167.313 336.642 167.313 338.142C167.313 339.42 168.301 340.153 169.546 340.153ZM169.699 339.25C168.898 339.25 168.319 338.892 168.319 338.193C168.319 337.426 169.017 337.188 169.801 337.085C170.228 337.034 171.37 336.915 171.54 336.71V337.631C171.54 338.449 170.892 339.25 169.699 339.25ZM174.381 340H175.387V335.858C175.387 334.972 176.086 334.324 177.04 334.324C177.309 334.324 177.586 334.375 177.654 334.392V333.369C177.539 333.361 177.275 333.352 177.126 333.352C176.342 333.352 175.66 333.795 175.421 334.443H175.353V333.455H174.381V340ZM181.306 340.136C182.755 340.136 183.71 339.25 183.88 338.091H182.874C182.687 338.807 182.09 339.233 181.306 339.233C180.113 339.233 179.346 338.244 179.346 336.727C179.346 335.244 180.13 334.273 181.306 334.273C182.192 334.273 182.721 334.818 182.874 335.415H183.88C183.71 334.188 182.67 333.369 181.289 333.369C179.516 333.369 178.34 334.767 178.34 336.761C178.34 338.722 179.465 340.136 181.306 340.136ZM186.356 336.062C186.356 334.92 187.085 334.273 188.077 334.273C189.023 334.273 189.594 334.869 189.594 335.909V340H190.6V335.841C190.6 334.158 189.705 333.369 188.367 333.369C187.336 333.369 186.748 333.8 186.441 334.477H186.356V331.273H185.35V340H186.356V336.062ZM198.866 331.273H197.809L195.627 332.722V333.795L197.758 332.381H197.809V340H198.866V331.273ZM204.223 340.119C206.149 340.119 207.257 338.487 207.257 335.636C207.257 332.807 206.132 331.153 204.223 331.153C202.314 331.153 201.189 332.807 201.189 335.636C201.189 338.487 202.297 340.119 204.223 340.119ZM204.223 339.182C202.953 339.182 202.211 337.908 202.211 335.636C202.211 333.369 202.961 332.074 204.223 332.074C205.484 332.074 206.234 333.369 206.234 335.636C206.234 337.908 205.493 339.182 204.223 339.182ZM210.393 338.807H209.302L209.251 339.284C209.127 340.439 208.885 341.589 208.774 342.131H209.541C209.745 341.551 210.18 340.239 210.325 339.267L210.393 338.807ZM218.683 331.273H217.626L215.444 332.722V333.795L217.575 332.381H217.626V340H218.683V331.273ZM221.192 340H226.698V339.062H222.641V338.994L224.602 336.898C226.102 335.291 226.545 334.541 226.545 333.574C226.545 332.227 225.454 331.153 223.92 331.153C222.39 331.153 221.227 332.193 221.227 333.727H222.232C222.232 332.734 222.876 332.074 223.886 332.074C224.832 332.074 225.556 332.653 225.556 333.574C225.556 334.379 225.083 334.976 224.073 336.08L221.192 339.233V340ZM229.208 338.884C229.63 338.884 229.975 338.538 229.975 338.116C229.975 337.695 229.63 337.349 229.208 337.349C228.786 337.349 228.441 337.695 228.441 338.116C228.441 338.538 228.786 338.884 229.208 338.884ZM229.208 334.469C229.63 334.469 229.975 334.124 229.975 333.702C229.975 333.28 229.63 332.935 229.208 332.935C228.786 332.935 228.441 333.28 228.441 333.702C228.441 334.124 228.786 334.469 229.208 334.469ZM234.609 340.119C236.536 340.119 237.643 338.487 237.643 335.636C237.643 332.807 236.518 331.153 234.609 331.153C232.7 331.153 231.575 332.807 231.575 335.636C231.575 338.487 232.683 340.119 234.609 340.119ZM234.609 339.182C233.339 339.182 232.598 337.908 232.598 335.636C232.598 333.369 233.348 332.074 234.609 332.074C235.871 332.074 236.621 333.369 236.621 335.636C236.621 337.908 235.879 339.182 234.609 339.182ZM242.109 340.119C244.036 340.119 245.143 338.487 245.143 335.636C245.143 332.807 244.018 331.153 242.109 331.153C240.2 331.153 239.075 332.807 239.075 335.636C239.075 338.487 240.183 340.119 242.109 340.119ZM242.109 339.182C240.839 339.182 240.098 337.908 240.098 335.636C240.098 333.369 240.848 332.074 242.109 332.074C243.371 332.074 244.121 333.369 244.121 335.636C244.121 337.908 243.379 339.182 242.109 339.182ZM248.706 340.153C249.848 340.153 250.445 339.54 250.649 339.114H250.7V340H251.706V335.688C251.706 333.608 250.121 333.369 249.286 333.369C248.297 333.369 247.172 333.71 246.661 334.903L247.615 335.244C247.837 334.767 248.361 334.256 249.32 334.256C250.244 334.256 250.7 334.746 250.7 335.585V335.619C250.7 336.105 250.206 336.062 249.013 336.216C247.798 336.374 246.473 336.642 246.473 338.142C246.473 339.42 247.462 340.153 248.706 340.153ZM248.859 339.25C248.058 339.25 247.479 338.892 247.479 338.193C247.479 337.426 248.178 337.188 248.962 337.085C249.388 337.034 250.53 336.915 250.7 336.71V337.631C250.7 338.449 250.053 339.25 248.859 339.25ZM253.542 340H254.547V335.909C254.547 334.95 255.246 334.273 256.03 334.273C256.793 334.273 257.326 334.771 257.326 335.517V340H258.348V335.739C258.348 334.895 258.877 334.273 259.797 334.273C260.513 334.273 261.127 334.652 261.127 335.619V340H262.132V335.619C262.132 334.081 261.306 333.369 260.138 333.369C259.201 333.369 258.515 333.8 258.178 334.477H258.11C257.786 333.778 257.215 333.369 256.354 333.369C255.502 333.369 254.871 333.778 254.598 334.477H254.513V333.455H253.542V340Z" fill="#66768A"/>
<path fill-rule="evenodd" clip-rule="evenodd" d="M82.5217 331.5H83.9565C84.5328 331.5 85 331.948 85 332.5V341C85 341.552 84.5328 342 83.9565 342H74.0435C73.4672 342 73 341.552 73 341V332.5C73 331.948 73.4672 331.5 74.0435 331.5H74.8261C74.9702 331.5 75.087 331.612 75.087 331.75V332.875C75.087 333.082 75.2621 333.25 75.4783 333.25C75.6944 333.25 75.8696 333.082 75.8696 332.875V330.5C75.8696 330.224 76.1032 330 76.3913 330C76.6795 330 76.913 330.224 76.913 330.5V331.375C76.9133 331.444 76.9716 331.5 77.0435 331.5H80.3043C80.4484 331.5 80.5652 331.612 80.5652 331.75V332.875C80.5652 333.082 80.7404 333.25 80.9565 333.25C81.1726 333.25 81.3478 333.082 81.3478 332.875V330.5C81.3478 330.224 81.5814 330 81.8696 330C82.1577 330 82.3913 330.224 82.3913 330.5V331.375C82.3913 331.444 82.4497 331.5 82.5217 331.5ZM74.3043 341H83.6957C83.8397 341 83.9565 340.888 83.9565 340.75V334.75C83.9565 334.612 83.8397 334.5 83.6957 334.5H74.3043C74.1603 334.5 74.0435 334.612 74.0435 334.75V340.75C74.0435 340.888 74.1603 341 74.3043 341Z" fill="#8093AD"/>
<path d="M83.9432 305.148C83.5455 302.659 81.5966 301.205 79.1364 301.205C76.125 301.205 73.9034 303.46 73.9034 307.182C73.9034 310.903 76.1136 313.159 79.1364 313.159C81.6932 313.159 83.5625 311.557 83.9432 309.256L82.1705 309.25C81.8693 310.739 80.6193 311.557 79.1477 311.557C77.1534 311.557 75.6477 310.028 75.6477 307.182C75.6477 304.358 77.1477 302.807 79.1534 302.807C80.6364 302.807 81.8807 303.642 82.1705 305.148H83.9432ZM89.5838 313.176C92.044 313.176 93.652 311.375 93.652 308.676C93.652 305.96 92.044 304.159 89.5838 304.159C87.1236 304.159 85.5156 305.96 85.5156 308.676C85.5156 311.375 87.1236 313.176 89.5838 313.176ZM89.5895 311.75C87.9815 311.75 87.2315 310.347 87.2315 308.67C87.2315 307 87.9815 305.58 89.5895 305.58C91.1861 305.58 91.9361 307 91.9361 308.67C91.9361 310.347 91.1861 311.75 89.5895 311.75ZM95.5483 313H97.2472V307.619C97.2472 306.443 98.071 305.625 99.0369 305.625C99.9801 305.625 100.634 306.25 100.634 307.199V313H102.327V307.438C102.327 306.386 102.969 305.625 104.077 305.625C104.974 305.625 105.713 306.125 105.713 307.307V313H107.412V307.148C107.412 305.153 106.298 304.159 104.719 304.159C103.463 304.159 102.52 304.761 102.099 305.693H102.009C101.628 304.739 100.827 304.159 99.6619 304.159C98.5085 304.159 97.6506 304.733 97.2869 305.693H97.179V304.273H95.5483V313ZM109.689 313H111.388V307.619C111.388 306.443 112.212 305.625 113.178 305.625C114.121 305.625 114.774 306.25 114.774 307.199V313H116.467V307.438C116.467 306.386 117.109 305.625 118.217 305.625C119.115 305.625 119.854 306.125 119.854 307.307V313H121.553V307.148C121.553 305.153 120.439 304.159 118.859 304.159C117.604 304.159 116.661 304.761 116.24 305.693H116.149C115.768 304.739 114.967 304.159 113.803 304.159C112.649 304.159 111.791 304.733 111.428 305.693H111.32V304.273H109.689V313ZM127.591 313.176C129.494 313.176 130.841 312.239 131.227 310.818L129.619 310.528C129.312 311.352 128.574 311.773 127.608 311.773C126.153 311.773 125.176 310.83 125.131 309.148H131.335V308.545C131.335 305.392 129.449 304.159 127.472 304.159C125.04 304.159 123.438 306.011 123.438 308.693C123.438 311.403 125.017 313.176 127.591 313.176ZM125.136 307.875C125.205 306.636 126.102 305.562 127.483 305.562C128.801 305.562 129.665 306.54 129.67 307.875H125.136ZM134.919 307.818C134.919 306.426 135.771 305.631 136.953 305.631C138.107 305.631 138.805 306.386 138.805 307.653V313H140.504V307.449C140.504 305.29 139.317 304.159 137.533 304.159C136.22 304.159 135.362 304.767 134.959 305.693H134.851V304.273H133.22V313H134.919V307.818ZM146.857 304.273H145.067V302.182H143.368V304.273H142.089V305.636H143.368V310.79C143.362 312.375 144.572 313.142 145.913 313.114C146.453 313.108 146.817 313.006 147.016 312.932L146.709 311.528C146.595 311.551 146.385 311.602 146.112 311.602C145.561 311.602 145.067 311.42 145.067 310.438V305.636H146.857V304.273ZM156.646 313.176C159.107 313.176 160.714 311.375 160.714 308.676C160.714 305.96 159.107 304.159 156.646 304.159C154.186 304.159 152.578 305.96 152.578 308.676C152.578 311.375 154.186 313.176 156.646 313.176ZM156.652 311.75C155.044 311.75 154.294 310.347 154.294 308.67C154.294 307 155.044 305.58 156.652 305.58C158.249 305.58 158.999 307 158.999 308.67C158.999 310.347 158.249 311.75 156.652 311.75ZM164.31 307.818C164.31 306.426 165.162 305.631 166.344 305.631C167.497 305.631 168.196 306.386 168.196 307.653V313H169.895V307.449C169.895 305.29 168.707 304.159 166.923 304.159C165.611 304.159 164.753 304.767 164.349 305.693H164.241V304.273H162.611V313H164.31V307.818ZM177.482 316.25C178.885 316.25 179.777 315.517 180.277 314.165L183.885 304.29L182.05 304.273L179.839 311.045H179.749L177.538 304.273H175.72L178.913 313.114L178.703 313.693C178.271 314.824 177.663 314.926 176.732 314.67L176.322 316.062C176.527 316.159 176.97 316.25 177.482 316.25ZM188.849 313.176C191.31 313.176 192.918 311.375 192.918 308.676C192.918 305.96 191.31 304.159 188.849 304.159C186.389 304.159 184.781 305.96 184.781 308.676C184.781 311.375 186.389 313.176 188.849 313.176ZM188.855 311.75C187.247 311.75 186.497 310.347 186.497 308.67C186.497 307 187.247 305.58 188.855 305.58C190.452 305.58 191.202 307 191.202 308.67C191.202 310.347 190.452 311.75 188.855 311.75ZM200.342 309.381C200.348 310.864 199.246 311.568 198.291 311.568C197.24 311.568 196.513 310.807 196.513 309.619V304.273H194.814V309.824C194.814 311.989 196.001 313.114 197.678 313.114C198.99 313.114 199.882 312.42 200.286 311.489H200.376V313H202.047V304.273H200.342V309.381ZM204.33 313H206.028V307.67C206.028 306.528 206.909 305.705 208.114 305.705C208.466 305.705 208.864 305.767 209 305.807V304.182C208.83 304.159 208.494 304.142 208.278 304.142C207.256 304.142 206.381 304.722 206.062 305.659H205.972V304.273H204.33V313ZM214.705 313H216.403V307.67C216.403 306.528 217.284 305.705 218.489 305.705C218.841 305.705 219.239 305.767 219.375 305.807V304.182C219.205 304.159 218.869 304.142 218.653 304.142C217.631 304.142 216.756 304.722 216.438 305.659H216.347V304.273H214.705V313ZM224.294 313.176C226.197 313.176 227.544 312.239 227.93 310.818L226.322 310.528C226.016 311.352 225.277 311.773 224.311 311.773C222.857 311.773 221.879 310.83 221.834 309.148H228.038V308.545C228.038 305.392 226.152 304.159 224.175 304.159C221.743 304.159 220.141 306.011 220.141 308.693C220.141 311.403 221.72 313.176 224.294 313.176ZM221.839 307.875C221.908 306.636 222.805 305.562 224.186 305.562C225.504 305.562 226.368 306.54 226.374 307.875H221.839ZM233.599 313.176C235.662 313.176 236.997 311.938 237.185 310.239H235.531C235.315 311.182 234.582 311.739 233.611 311.739C232.173 311.739 231.247 310.54 231.247 308.636C231.247 306.767 232.19 305.591 233.611 305.591C234.69 305.591 235.349 306.273 235.531 307.091H237.185C237.003 305.33 235.565 304.159 233.582 304.159C231.122 304.159 229.531 306.011 229.531 308.676C229.531 311.307 231.065 313.176 233.599 313.176ZM242.763 313.176C244.666 313.176 246.013 312.239 246.399 310.818L244.791 310.528C244.484 311.352 243.746 311.773 242.78 311.773C241.325 311.773 240.348 310.83 240.303 309.148H246.507V308.545C246.507 305.392 244.621 304.159 242.643 304.159C240.212 304.159 238.609 306.011 238.609 308.693C238.609 311.403 240.189 313.176 242.763 313.176ZM240.308 307.875C240.376 306.636 241.274 305.562 242.655 305.562C243.973 305.562 244.837 306.54 244.842 307.875H240.308ZM248.392 313H250.091V304.273H248.392V313ZM249.25 302.926C249.835 302.926 250.324 302.472 250.324 301.915C250.324 301.358 249.835 300.898 249.25 300.898C248.659 300.898 248.176 301.358 248.176 301.915C248.176 302.472 248.659 302.926 249.25 302.926ZM259.842 304.273H258.018L255.814 310.989H255.723L253.513 304.273H251.689L254.859 313H256.678L259.842 304.273ZM264.888 313.176C266.791 313.176 268.138 312.239 268.524 310.818L266.916 310.528C266.609 311.352 265.871 311.773 264.905 311.773C263.45 311.773 262.473 310.83 262.428 309.148H268.632V308.545C268.632 305.392 266.746 304.159 264.768 304.159C262.337 304.159 260.734 306.011 260.734 308.693C260.734 311.403 262.314 313.176 264.888 313.176ZM262.433 307.875C262.501 306.636 263.399 305.562 264.78 305.562C266.098 305.562 266.962 306.54 266.967 307.875H262.433ZM273.784 313.17C275.375 313.17 276 312.199 276.307 311.642H276.449V313H278.108V301.364H276.409V305.688H276.307C276 305.148 275.42 304.159 273.795 304.159C271.688 304.159 270.136 305.824 270.136 308.653C270.136 311.477 271.665 313.17 273.784 313.17ZM274.159 311.722C272.642 311.722 271.852 310.386 271.852 308.636C271.852 306.903 272.625 305.602 274.159 305.602C275.642 305.602 276.438 306.812 276.438 308.636C276.438 310.472 275.625 311.722 274.159 311.722ZM288.92 304.273H287.04V303.489C287.04 302.716 287.358 302.295 288.188 302.295C288.54 302.295 288.79 302.375 288.949 302.426L289.347 301.051C289.108 300.96 288.614 300.818 287.926 300.818C286.545 300.818 285.335 301.625 285.335 303.261V304.273H283.989V305.636H285.335V313H287.04V305.636H288.92V304.273ZM294.091 313.176C295.994 313.176 297.341 312.239 297.727 310.818L296.119 310.528C295.812 311.352 295.074 311.773 294.108 311.773C292.653 311.773 291.676 310.83 291.631 309.148H297.835V308.545C297.835 305.392 295.949 304.159 293.972 304.159C291.54 304.159 289.938 306.011 289.938 308.693C289.938 311.403 291.517 313.176 294.091 313.176ZM291.636 307.875C291.705 306.636 292.602 305.562 293.983 305.562C295.301 305.562 296.165 306.54 296.17 307.875H291.636ZM303.482 313.176C305.385 313.176 306.732 312.239 307.118 310.818L305.51 310.528C305.203 311.352 304.464 311.773 303.499 311.773C302.044 311.773 301.067 310.83 301.021 309.148H307.226V308.545C307.226 305.392 305.339 304.159 303.362 304.159C300.93 304.159 299.328 306.011 299.328 308.693C299.328 311.403 300.908 313.176 303.482 313.176ZM301.027 307.875C301.095 306.636 301.993 305.562 303.374 305.562C304.692 305.562 305.555 306.54 305.561 307.875H301.027ZM312.378 313.17C313.969 313.17 314.594 312.199 314.901 311.642H315.043V313H316.702V301.364H315.003V305.688H314.901C314.594 305.148 314.014 304.159 312.389 304.159C310.281 304.159 308.73 305.824 308.73 308.653C308.73 311.477 310.259 313.17 312.378 313.17ZM312.753 311.722C311.236 311.722 310.446 310.386 310.446 308.636C310.446 306.903 311.219 305.602 312.753 305.602C314.236 305.602 315.031 306.812 315.031 308.636C315.031 310.472 314.219 311.722 312.753 311.722ZM319.263 313H320.922V311.642H321.064C321.371 312.199 321.996 313.17 323.587 313.17C325.7 313.17 327.234 311.477 327.234 308.653C327.234 305.824 325.678 304.159 323.57 304.159C321.95 304.159 321.365 305.148 321.064 305.688H320.962V301.364H319.263V313ZM320.928 308.636C320.928 306.812 321.723 305.602 323.206 305.602C324.746 305.602 325.518 306.903 325.518 308.636C325.518 310.386 324.723 311.722 323.206 311.722C321.746 311.722 320.928 310.472 320.928 308.636ZM331.682 313.193C333.125 313.193 333.938 312.46 334.261 311.807H334.33V313H335.989V307.205C335.989 304.665 333.989 304.159 332.602 304.159C331.023 304.159 329.568 304.795 329 306.386L330.597 306.75C330.847 306.131 331.483 305.534 332.625 305.534C333.722 305.534 334.284 306.108 334.284 307.097V307.136C334.284 307.756 333.648 307.744 332.08 307.926C330.426 308.119 328.733 308.551 328.733 310.534C328.733 312.25 330.023 313.193 331.682 313.193ZM332.051 311.83C331.091 311.83 330.398 311.398 330.398 310.557C330.398 309.648 331.205 309.324 332.188 309.193C332.739 309.119 334.045 308.972 334.29 308.727V309.852C334.29 310.886 333.466 311.83 332.051 311.83ZM341.928 313.176C343.99 313.176 345.325 311.938 345.513 310.239H343.859C343.643 311.182 342.911 311.739 341.939 311.739C340.501 311.739 339.575 310.54 339.575 308.636C339.575 306.767 340.518 305.591 341.939 305.591C343.018 305.591 343.678 306.273 343.859 307.091H345.513C345.331 305.33 343.893 304.159 341.911 304.159C339.45 304.159 337.859 306.011 337.859 308.676C337.859 311.307 339.393 313.176 341.928 313.176ZM347.33 313H349.028V309.903L349.875 309.057L352.841 313H354.926L351.153 308.017L354.688 304.273H352.653L349.176 307.966H349.028V301.364H347.33V313Z" fill="#001632"/>
<path fill-rule="evenodd" clip-rule="evenodd" d="M51.354 304.261C50.8709 303.294 49.9525 302.617 48.8862 302.444C47.8201 302.271 46.7358 302.621 45.9719 303.385L45.7375 303.62L45.5036 303.386C44.7398 302.621 43.6549 302.27 42.5883 302.443C41.5217 302.617 40.6034 303.293 40.1203 304.26C39.4762 305.554 39.7293 307.115 40.7489 308.138L45.232 312.819C45.3652 312.958 45.5494 313.036 45.7419 313.036C45.9344 313.036 46.1185 312.957 46.2516 312.818L50.7254 308.138C51.7452 307.115 51.9986 305.554 51.354 304.261ZM42.8145 303.838C43.433 303.738 44.0621 303.941 44.5051 304.385L45.2388 305.118C45.5143 305.393 45.9608 305.393 46.2363 305.118L46.9695 304.385C47.4125 303.942 48.0417 303.738 48.66 303.839C49.2782 303.939 49.8106 304.331 50.0908 304.891C50.4652 305.643 50.3168 306.55 49.7225 307.143L49.7108 307.155L45.741 311.308L41.7628 307.155L41.7517 307.143C41.1576 306.55 41.0092 305.643 41.3834 304.891C41.6636 304.33 42.196 303.939 42.8145 303.838Z" fill="#001632"/>
<path fill-rule="evenodd" clip-rule="evenodd" d="M56.3582 303.502C54.7695 298.999 50.5127 295.991 45.7414 296C41.6633 295.995 37.9032 298.204 35.9203 301.771C34.0006 305.224 34.0391 309.423 35.9982 312.831L33.0686 318.99C32.9401 319.26 32.9955 319.582 33.2068 319.793C33.4181 320.005 33.7396 320.06 34.0094 319.931L40.1624 316.998C44.1628 319.301 49.183 318.924 52.801 316.014C56.5207 313.023 57.947 308.006 56.3582 303.502ZM45.7405 297.413L45.7416 296.707L45.7429 297.413C49.9153 297.405 53.6378 300.035 55.027 303.973C56.4162 307.911 55.1691 312.297 51.9167 314.913C48.6642 317.529 44.1159 317.803 40.573 315.598C40.3687 315.47 40.1138 315.456 39.8966 315.56L35.1985 317.799L37.4354 313.097C37.5388 312.88 37.5245 312.625 37.3974 312.42C35.5135 309.39 35.4203 305.576 37.1539 302.458C38.8876 299.339 42.1751 297.408 45.7405 297.413Z" fill="#001632"/>
<g filter="url(#filter2_d)">
<rect x="20" y="6" width="480" height="96" rx="5.7" fill="white"/>
</g>
<g clip-path="url(#clip1)">
<path d="M65.554 32.4458L44.75 53.2498" stroke="#001632" stroke-width="1.5" stroke-linecap="round" stroke-linejoin="round"/>
<path d="M59.925 46.264L56.342 45.752" stroke="#001632" stroke-width="1.5" stroke-linecap="round" stroke-linejoin="round"/>
<path d="M62.995 43.1929L59.413 42.6809" stroke="#001632" stroke-width="1.5" stroke-linecap="round" stroke-linejoin="round"/>
<path d="M49.061 40.7499C48.176 41.6359 47.717 42.8609 47.8 44.1099L48.181 49.8199L53.891 50.2009C55.141 50.2839 56.365 49.8239 57.251 48.9389L65.551 40.6389C67.831 38.3969 67.863 34.7309 65.621 32.4509C63.379 30.1709 59.713 30.1389 57.433 32.3809C57.41 32.4039 57.386 32.4269 57.363 32.4509L49.061 40.7499Z" stroke="#001632" stroke-width="1.5" stroke-linecap="round" stroke-linejoin="round"/>
</g>
<path d="M112.75 74C115.409 74 116.909 72.3466 116.909 69.6193C116.909 66.9091 115.409 65.2727 112.869 65.2727H110.057V74H112.75ZM111.114 73.0625V66.2102H112.801C114.847 66.2102 115.886 67.5057 115.886 69.6193C115.886 71.75 114.847 73.0625 112.682 73.0625H111.114ZM121.29 74.1364C122.619 74.1364 123.591 73.4716 123.898 72.483L122.926 72.2102C122.67 72.892 122.078 73.233 121.29 73.233C120.109 73.233 119.295 72.4702 119.249 71.0682H124V70.642C124 68.2045 122.551 67.3693 121.188 67.3693C119.415 67.3693 118.239 68.767 118.239 70.7784C118.239 72.7898 119.398 74.1364 121.29 74.1364ZM119.249 70.1989C119.317 69.1804 120.037 68.2727 121.188 68.2727C122.278 68.2727 122.977 69.0909 122.977 70.1989H119.249ZM127.456 74.1534C128.598 74.1534 129.195 73.5398 129.399 73.1136H129.45V74H130.456V69.6875C130.456 67.608 128.871 67.3693 128.036 67.3693C127.047 67.3693 125.922 67.7102 125.411 68.9034L126.365 69.2443C126.587 68.767 127.111 68.2557 128.07 68.2557C128.994 68.2557 129.45 68.7457 129.45 69.5852V69.6193C129.45 70.1051 128.956 70.0625 127.763 70.2159C126.548 70.3736 125.223 70.642 125.223 72.142C125.223 73.4205 126.212 74.1534 127.456 74.1534ZM127.609 73.25C126.808 73.25 126.229 72.892 126.229 72.1932C126.229 71.4261 126.928 71.1875 127.712 71.0852C128.138 71.0341 129.28 70.9148 129.45 70.7102V71.6307C129.45 72.4489 128.803 73.25 127.609 73.25ZM134.763 74.1364C136.025 74.1364 136.451 73.3523 136.672 72.9943H136.792V74H137.763V65.2727H136.757V68.4943H136.672C136.451 68.1534 136.059 67.3693 134.78 67.3693C133.127 67.3693 131.985 68.6818 131.985 70.7443C131.985 72.8239 133.127 74.1364 134.763 74.1364ZM134.9 73.233C133.638 73.233 132.99 72.125 132.99 70.7273C132.99 69.3466 133.621 68.2727 134.9 68.2727C136.127 68.2727 136.775 69.2614 136.775 70.7273C136.775 72.2102 136.11 73.233 134.9 73.233ZM140.75 65.2727H139.745V74H140.75V65.2727ZM142.592 74H143.598V67.4545H142.592V74ZM143.104 66.3636C143.496 66.3636 143.82 66.0568 143.82 65.6818C143.82 65.3068 143.496 65 143.104 65C142.712 65 142.388 65.3068 142.388 65.6818C142.388 66.0568 142.712 66.3636 143.104 66.3636ZM146.446 70.0625C146.446 68.9205 147.153 68.2727 148.116 68.2727C149.049 68.2727 149.616 68.8821 149.616 69.9091V74H150.622V69.8409C150.622 68.1705 149.731 67.3693 148.406 67.3693C147.417 67.3693 146.804 67.8125 146.497 68.4773H146.412V67.4545H145.44V74H146.446V70.0625ZM155.204 74.1364C156.533 74.1364 157.505 73.4716 157.812 72.483L156.84 72.2102C156.585 72.892 155.992 73.233 155.204 73.233C154.023 73.233 153.21 72.4702 153.163 71.0682H157.914V70.642C157.914 68.2045 156.465 67.3693 155.102 67.3693C153.329 67.3693 152.153 68.767 152.153 70.7784C152.153 72.7898 153.312 74.1364 155.204 74.1364ZM153.163 70.1989C153.231 69.1804 153.951 68.2727 155.102 68.2727C156.192 68.2727 156.891 69.0909 156.891 70.1989H153.163ZM167.898 69.7898H161.898V70.7273H167.898V69.7898ZM172.33 65.2727V74H173.319V67.3693H173.404L176.131 74H177.086L179.813 67.3693H179.898V74H180.887V65.2727H179.626L176.66 72.517H176.558L173.592 65.2727H172.33ZM184.796 74.1534C185.938 74.1534 186.534 73.5398 186.739 73.1136H186.79V74H187.796V69.6875C187.796 67.608 186.211 67.3693 185.375 67.3693C184.387 67.3693 183.262 67.7102 182.75 68.9034L183.705 69.2443C183.926 68.767 184.451 68.2557 185.409 68.2557C186.334 68.2557 186.79 68.7457 186.79 69.5852V69.6193C186.79 70.1051 186.296 70.0625 185.103 70.2159C183.888 70.3736 182.563 70.642 182.563 72.142C182.563 73.4205 183.551 74.1534 184.796 74.1534ZM184.949 73.25C184.148 73.25 183.569 72.892 183.569 72.1932C183.569 71.4261 184.267 71.1875 185.051 71.0852C185.478 71.0341 186.62 70.9148 186.79 70.7102V71.6307C186.79 72.4489 186.142 73.25 184.949 73.25ZM189.631 74H190.637V69.858C190.637 68.9716 191.336 68.3239 192.29 68.3239C192.559 68.3239 192.836 68.375 192.904 68.392V67.3693C192.789 67.3608 192.525 67.3523 192.376 67.3523C191.592 67.3523 190.91 67.7955 190.671 68.4432H190.603V67.4545H189.631V74ZM196.556 74.1364C198.005 74.1364 198.96 73.25 199.13 72.0909H198.124C197.937 72.8068 197.34 73.233 196.556 73.233C195.363 73.233 194.596 72.2443 194.596 70.7273C194.596 69.2443 195.38 68.2727 196.556 68.2727C197.442 68.2727 197.971 68.8182 198.124 69.4148H199.13C198.96 68.1875 197.92 67.3693 196.539 67.3693C194.766 67.3693 193.59 68.767 193.59 70.7614C193.59 72.7216 194.715 74.1364 196.556 74.1364ZM201.606 70.0625C201.606 68.9205 202.335 68.2727 203.327 68.2727C204.273 68.2727 204.844 68.8693 204.844 69.9091V74H205.85V69.8409C205.85 68.1577 204.955 67.3693 203.617 67.3693C202.586 67.3693 201.998 67.7997 201.691 68.4773H201.606V65.2727H200.6V74H201.606V70.0625ZM213.775 74.1193C215.437 74.1193 216.656 72.892 216.656 71.2216C216.656 69.5298 215.48 68.2898 213.877 68.2898C213.289 68.2898 212.718 68.4986 212.36 68.7841H212.309L212.616 66.2102H216.264V65.2727H211.73L211.201 69.5682L212.19 69.6875C212.552 69.4276 213.17 69.2401 213.707 69.2443C214.819 69.2528 215.633 70.0966 215.633 71.2386C215.633 72.3594 214.849 73.1818 213.775 73.1818C212.88 73.1818 212.169 72.6065 212.088 71.8182H211.065C211.129 73.1477 212.275 74.1193 213.775 74.1193ZM219.456 72.8068H218.365L218.314 73.2841C218.19 74.4389 217.947 75.5895 217.836 76.1307H218.603C218.808 75.5511 219.243 74.2386 219.387 73.267L219.456 72.8068ZM227.745 65.2727H226.688L224.506 66.7216V67.7955L226.637 66.3807H226.688V74H227.745V65.2727ZM233.102 74.1193C235.028 74.1193 236.136 72.4872 236.136 69.6364C236.136 66.8068 235.011 65.1534 233.102 65.1534C231.192 65.1534 230.067 66.8068 230.067 69.6364C230.067 72.4872 231.175 74.1193 233.102 74.1193ZM233.102 73.1818C231.832 73.1818 231.09 71.9077 231.09 69.6364C231.09 67.3693 231.84 66.0739 233.102 66.0739C234.363 66.0739 235.113 67.3693 235.113 69.6364C235.113 71.9077 234.371 73.1818 233.102 73.1818ZM238.505 72.8835C238.927 72.8835 239.272 72.5384 239.272 72.1165C239.272 71.6946 238.927 71.3494 238.505 71.3494C238.083 71.3494 237.738 71.6946 237.738 72.1165C237.738 72.5384 238.083 72.8835 238.505 72.8835ZM238.505 68.4688C238.927 68.4688 239.272 68.1236 239.272 67.7017C239.272 67.2798 238.927 66.9347 238.505 66.9347C238.083 66.9347 237.738 67.2798 237.738 67.7017C237.738 68.1236 238.083 68.4688 238.505 68.4688ZM244.009 74.1193C245.7 74.1193 246.957 73.0582 246.957 71.6307C246.957 70.5227 246.301 69.7173 245.202 69.5341V69.4659C246.084 69.1974 246.634 68.473 246.634 67.4886C246.634 66.2528 245.658 65.1534 244.043 65.1534C242.534 65.1534 241.281 66.0824 241.23 67.4545H242.253C242.291 66.5852 243.118 66.0739 244.026 66.0739C244.989 66.0739 245.611 66.6577 245.611 67.5398C245.611 68.4602 244.891 69.0568 243.855 69.0568H243.156V69.9943H243.855C245.18 69.9943 245.918 70.6676 245.918 71.6307C245.918 72.5554 245.112 73.1818 243.991 73.1818C242.982 73.1818 242.18 72.6619 242.116 71.8182H241.043C241.107 73.1903 242.317 74.1193 244.009 74.1193ZM251.547 74.1193C253.473 74.1193 254.581 72.4872 254.581 69.6364C254.581 66.8068 253.456 65.1534 251.547 65.1534C249.638 65.1534 248.513 66.8068 248.513 69.6364C248.513 72.4872 249.621 74.1193 251.547 74.1193ZM251.547 73.1818C250.277 73.1818 249.536 71.9077 249.536 69.6364C249.536 67.3693 250.286 66.0739 251.547 66.0739C252.808 66.0739 253.558 67.3693 253.558 69.6364C253.558 71.9077 252.817 73.1818 251.547 73.1818ZM258.143 74.1534C259.286 74.1534 259.882 73.5398 260.087 73.1136H260.138V74H261.143V69.6875C261.143 67.608 259.558 67.3693 258.723 67.3693C257.734 67.3693 256.609 67.7102 256.098 68.9034L257.053 69.2443C257.274 68.767 257.798 68.2557 258.757 68.2557C259.682 68.2557 260.138 68.7457 260.138 69.5852V69.6193C260.138 70.1051 259.643 70.0625 258.45 70.2159C257.236 70.3736 255.911 70.642 255.911 72.142C255.911 73.4205 256.899 74.1534 258.143 74.1534ZM258.297 73.25C257.496 73.25 256.916 72.892 256.916 72.1932C256.916 71.4261 257.615 71.1875 258.399 71.0852C258.825 71.0341 259.967 70.9148 260.138 70.7102V71.6307C260.138 72.4489 259.49 73.25 258.297 73.25ZM262.979 74H263.985V69.9091C263.985 68.9503 264.684 68.2727 265.468 68.2727C266.23 68.2727 266.763 68.7713 266.763 69.517V74H267.786V69.7386C267.786 68.8949 268.314 68.2727 269.235 68.2727C269.951 68.2727 270.564 68.652 270.564 69.6193V74H271.57V69.6193C271.57 68.081 270.743 67.3693 269.576 67.3693C268.638 67.3693 267.952 67.7997 267.615 68.4773H267.547C267.223 67.7784 266.652 67.3693 265.792 67.3693C264.939 67.3693 264.309 67.7784 264.036 68.4773H263.951V67.4545H262.979V74Z" fill="#66768A"/>
<path fill-rule="evenodd" clip-rule="evenodd" d="M98.5217 65.5H99.9565C100.533 65.5 101 65.9477 101 66.5V75C101 75.5523 100.533 76 99.9565 76H90.0435C89.4672 76 89 75.5523 89 75V66.5C89 65.9477 89.4672 65.5 90.0435 65.5H90.8261C90.9702 65.5 91.087 65.6119 91.087 65.75V66.875C91.087 67.0821 91.2621 67.25 91.4783 67.25C91.6944 67.25 91.8696 67.0821 91.8696 66.875V64.5C91.8696 64.2239 92.1032 64 92.3913 64C92.6795 64 92.913 64.2239 92.913 64.5V65.3755C92.9133 65.4443 92.9716 65.5 93.0435 65.5H96.3043C96.4484 65.5 96.5652 65.6119 96.5652 65.75V66.875C96.5652 67.0821 96.7404 67.25 96.9565 67.25C97.1726 67.25 97.3478 67.0821 97.3478 66.875V64.5C97.3478 64.2239 97.5814 64 97.8696 64C98.1577 64 98.3913 64.2239 98.3913 64.5V65.375C98.3913 65.444 98.4497 65.5 98.5217 65.5ZM90.3043 75H99.6957C99.8397 75 99.9565 74.8881 99.9565 74.75V68.75C99.9565 68.6119 99.8397 68.5 99.6957 68.5H90.3043C90.1603 68.5 90.0435 68.6119 90.0435 68.75V74.75C90.0435 74.8881 90.1603 75 90.3043 75Z" fill="#8093AD"/>
<path d="M91.625 38.4205H93.3182C93.267 36.5568 91.6193 35.2045 89.2557 35.2045C86.9205 35.2045 85.1307 36.5398 85.1307 38.5455C85.1307 40.1648 86.2898 41.1136 88.1591 41.6193L89.5341 41.9943C90.7784 42.3239 91.7386 42.733 91.7386 43.767C91.7386 44.9034 90.6534 45.6534 89.1591 45.6534C87.8068 45.6534 86.6818 45.0511 86.5795 43.7841H84.8182C84.9318 45.892 86.5625 47.1932 89.1705 47.1932C91.9034 47.1932 93.4773 45.7557 93.4773 43.7841C93.4773 41.6875 91.608 40.875 90.1307 40.5114L88.9943 40.2159C88.0852 39.983 86.875 39.5568 86.8807 38.4432C86.8807 37.4545 87.7841 36.7216 89.2159 36.7216C90.5511 36.7216 91.5 37.3466 91.625 38.4205ZM100.967 43.3807C100.973 44.8636 99.8707 45.5682 98.9162 45.5682C97.8651 45.5682 97.1378 44.8068 97.1378 43.6193V38.2727H95.4389V43.8239C95.4389 45.9886 96.6264 47.1136 98.3026 47.1136C99.6151 47.1136 100.507 46.4205 100.911 45.4886H101.001V47H102.672V38.2727H100.967V43.3807ZM105.091 47H106.75V45.642H106.892C107.199 46.1989 107.824 47.1705 109.415 47.1705C111.528 47.1705 113.062 45.4773 113.062 42.6534C113.062 39.8239 111.506 38.1591 109.398 38.1591C107.778 38.1591 107.193 39.1477 106.892 39.6875H106.79V35.3636H105.091V47ZM106.756 42.6364C106.756 40.8125 107.551 39.6023 109.034 39.6023C110.574 39.6023 111.347 40.9034 111.347 42.6364C111.347 44.3864 110.551 45.7216 109.034 45.7216C107.574 45.7216 106.756 44.4716 106.756 42.6364ZM114.97 47H116.669V41.6193C116.669 40.4432 117.493 39.625 118.459 39.625C119.402 39.625 120.055 40.25 120.055 41.1989V47H121.749V41.4375C121.749 40.3864 122.391 39.625 123.499 39.625C124.396 39.625 125.135 40.125 125.135 41.3068V47H126.834V41.1477C126.834 39.1534 125.72 38.1591 124.141 38.1591C122.885 38.1591 121.942 38.7614 121.521 39.6932H121.43C121.05 38.7386 120.249 38.1591 119.084 38.1591C117.93 38.1591 117.072 38.733 116.709 39.6932H116.601V38.2727H114.97V47ZM129.111 47H130.81V38.2727H129.111V47ZM129.969 36.9261C130.554 36.9261 131.043 36.4716 131.043 35.9148C131.043 35.358 130.554 34.8977 129.969 34.8977C129.378 34.8977 128.895 35.358 128.895 35.9148C128.895 36.4716 129.378 36.9261 129.969 36.9261ZM137.169 38.2727H135.379V36.1818H133.68V38.2727H132.402V39.6364H133.68V44.7898C133.675 46.375 134.885 47.142 136.226 47.1136C136.766 47.108 137.129 47.0057 137.328 46.9318L137.021 45.5284C136.908 45.5511 136.697 45.6023 136.425 45.6023C135.874 45.6023 135.379 45.4205 135.379 44.4375V39.6364H137.169V38.2727ZM144.357 50.25C145.76 50.25 146.652 49.517 147.152 48.1648L150.76 38.2898L148.925 38.2727L146.714 45.0455H146.624L144.413 38.2727H142.595L145.788 47.1136L145.578 47.6932C145.146 48.8239 144.538 48.9261 143.607 48.6705L143.197 50.0625C143.402 50.1591 143.845 50.25 144.357 50.25ZM155.724 47.1761C158.185 47.1761 159.793 45.375 159.793 42.6761C159.793 39.9602 158.185 38.1591 155.724 38.1591C153.264 38.1591 151.656 39.9602 151.656 42.6761C151.656 45.375 153.264 47.1761 155.724 47.1761ZM155.73 45.75C154.122 45.75 153.372 44.3466 153.372 42.6705C153.372 41 154.122 39.5795 155.73 39.5795C157.327 39.5795 158.077 41 158.077 42.6705C158.077 44.3466 157.327 45.75 155.73 45.75ZM167.217 43.3807C167.223 44.8636 166.121 45.5682 165.166 45.5682C164.115 45.5682 163.388 44.8068 163.388 43.6193V38.2727H161.689V43.8239C161.689 45.9886 162.876 47.1136 164.553 47.1136C165.865 47.1136 166.757 46.4205 167.161 45.4886H167.251V47H168.922V38.2727H167.217V43.3807ZM171.205 47H172.903V41.6705C172.903 40.5284 173.784 39.7045 174.989 39.7045C175.341 39.7045 175.739 39.767 175.875 39.8068V38.1818C175.705 38.1591 175.369 38.142 175.153 38.142C174.131 38.142 173.256 38.7216 172.938 39.6591H172.847V38.2727H171.205V47ZM185.341 47.1761C187.244 47.1761 188.591 46.2386 188.977 44.8182L187.369 44.5284C187.062 45.3523 186.324 45.7727 185.358 45.7727C183.903 45.7727 182.926 44.8295 182.881 43.1477H189.085V42.5455C189.085 39.392 187.199 38.1591 185.222 38.1591C182.79 38.1591 181.188 40.0114 181.188 42.6932C181.188 45.4034 182.767 47.1761 185.341 47.1761ZM182.886 41.875C182.955 40.6364 183.852 39.5625 185.233 39.5625C186.551 39.5625 187.415 40.5398 187.42 41.875H182.886ZM197.51 40.4034C197.158 39.0455 196.095 38.1591 194.209 38.1591C192.237 38.1591 190.839 39.1989 190.839 40.7443C190.839 41.983 191.589 42.8068 193.226 43.1705L194.703 43.4943C195.544 43.6818 195.936 44.0568 195.936 44.6023C195.936 45.2784 195.214 45.8068 194.101 45.8068C193.084 45.8068 192.43 45.3693 192.226 44.5114L190.584 44.7614C190.868 46.3068 192.152 47.1761 194.112 47.1761C196.22 47.1761 197.68 46.0568 197.68 44.4773C197.68 43.2443 196.896 42.483 195.294 42.1136L193.908 41.7955C192.947 41.5682 192.533 41.2443 192.538 40.6534C192.533 39.983 193.26 39.5057 194.226 39.5057C195.283 39.5057 195.771 40.0909 195.97 40.6761L197.51 40.4034ZM206.088 40.4034C205.736 39.0455 204.673 38.1591 202.787 38.1591C200.815 38.1591 199.418 39.1989 199.418 40.7443C199.418 41.983 200.168 42.8068 201.804 43.1705L203.281 43.4943C204.122 43.6818 204.514 44.0568 204.514 44.6023C204.514 45.2784 203.793 45.8068 202.679 45.8068C201.662 45.8068 201.009 45.3693 200.804 44.5114L199.162 44.7614C199.446 46.3068 200.73 47.1761 202.69 47.1761C204.798 47.1761 206.259 46.0568 206.259 44.4773C206.259 43.2443 205.474 42.483 203.872 42.1136L202.486 41.7955C201.526 41.5682 201.111 41.2443 201.116 40.6534C201.111 39.983 201.838 39.5057 202.804 39.5057C203.861 39.5057 204.349 40.0909 204.548 40.6761L206.088 40.4034ZM210.666 47.1932C212.109 47.1932 212.922 46.4602 213.246 45.8068H213.314V47H214.973V41.2045C214.973 38.6648 212.973 38.1591 211.587 38.1591C210.007 38.1591 208.553 38.7955 207.984 40.3864L209.581 40.75C209.831 40.1307 210.467 39.5341 211.609 39.5341C212.706 39.5341 213.268 40.108 213.268 41.0966V41.1364C213.268 41.7557 212.632 41.7443 211.064 41.9261C209.411 42.1193 207.717 42.5511 207.717 44.5341C207.717 46.25 209.007 47.1932 210.666 47.1932ZM211.036 45.8295C210.075 45.8295 209.382 45.3977 209.382 44.5568C209.382 43.6477 210.189 43.3239 211.172 43.1932C211.723 43.1193 213.03 42.9716 213.274 42.7273V43.8523C213.274 44.8864 212.45 45.8295 211.036 45.8295ZM217.997 50.25C219.401 50.25 220.293 49.517 220.793 48.1648L224.401 38.2898L222.565 38.2727L220.355 45.0455H220.264L218.054 38.2727H216.236L219.429 47.1136L219.219 47.6932C218.787 48.8239 218.179 48.9261 217.247 48.6705L216.838 50.0625C217.043 50.1591 217.486 50.25 217.997 50.25ZM232.541 40.4034C232.189 39.0455 231.126 38.1591 229.24 38.1591C227.268 38.1591 225.871 39.1989 225.871 40.7443C225.871 41.983 226.621 42.8068 228.257 43.1705L229.734 43.4943C230.575 43.6818 230.967 44.0568 230.967 44.6023C230.967 45.2784 230.246 45.8068 229.132 45.8068C228.115 45.8068 227.462 45.3693 227.257 44.5114L225.615 44.7614C225.899 46.3068 227.183 47.1761 229.143 47.1761C231.251 47.1761 232.712 46.0568 232.712 44.4773C232.712 43.2443 231.928 42.483 230.325 42.1136L228.939 41.7955C227.979 41.5682 227.564 41.2443 227.57 40.6534C227.564 39.983 228.291 39.5057 229.257 39.5057C230.314 39.5057 230.803 40.0909 231.001 40.6761L232.541 40.4034ZM242.49 47.1761C244.95 47.1761 246.558 45.375 246.558 42.6761C246.558 39.9602 244.95 38.1591 242.49 38.1591C240.03 38.1591 238.422 39.9602 238.422 42.6761C238.422 45.375 240.03 47.1761 242.49 47.1761ZM242.496 45.75C240.888 45.75 240.138 44.3466 240.138 42.6705C240.138 41 240.888 39.5795 242.496 39.5795C244.092 39.5795 244.842 41 244.842 42.6705C244.842 44.3466 244.092 45.75 242.496 45.75ZM250.153 41.8182C250.153 40.4261 251.006 39.6307 252.188 39.6307C253.341 39.6307 254.04 40.3864 254.04 41.6534V47H255.739V41.4489C255.739 39.2898 254.551 38.1591 252.767 38.1591C251.455 38.1591 250.597 38.767 250.193 39.6932H250.085V38.2727H248.455V47H250.153V41.8182ZM266.911 35.3636V43.6136C266.905 44.9545 266.28 45.6705 265.166 45.6705C264.138 45.6705 263.422 45.0568 263.416 44.0909H261.672C261.672 46.0568 263.149 47.1591 265.121 47.1591C267.257 47.1591 268.655 45.8523 268.661 43.6136V35.3636H266.911ZM274.841 47.1761C276.744 47.1761 278.091 46.2386 278.477 44.8182L276.869 44.5284C276.562 45.3523 275.824 45.7727 274.858 45.7727C273.403 45.7727 272.426 44.8295 272.381 43.1477H278.585V42.5455C278.585 39.392 276.699 38.1591 274.722 38.1591C272.29 38.1591 270.688 40.0114 270.688 42.6932C270.688 45.4034 272.267 47.1761 274.841 47.1761ZM272.386 41.875C272.455 40.6364 273.352 39.5625 274.733 39.5625C276.051 39.5625 276.915 40.5398 276.92 41.875H272.386ZM284.624 38.2727H282.743V37.4886C282.743 36.7159 283.061 36.2955 283.891 36.2955C284.243 36.2955 284.493 36.375 284.652 36.4261L285.05 35.0511C284.811 34.9602 284.317 34.8182 283.629 34.8182C282.249 34.8182 281.038 35.625 281.038 37.2614V38.2727H279.692V39.6364H281.038V47H282.743V39.6364H284.624V38.2727ZM290.53 38.2727H288.649V37.4886C288.649 36.7159 288.967 36.2955 289.797 36.2955C290.149 36.2955 290.399 36.375 290.558 36.4261L290.956 35.0511C290.717 34.9602 290.223 34.8182 289.536 34.8182C288.155 34.8182 286.945 35.625 286.945 37.2614V38.2727H285.598V39.6364H286.945V47H288.649V39.6364H290.53V38.2727ZM295.7 47.1761C297.604 47.1761 298.95 46.2386 299.337 44.8182L297.729 44.5284C297.422 45.3523 296.683 45.7727 295.717 45.7727C294.263 45.7727 293.286 44.8295 293.24 43.1477H299.445V42.5455C299.445 39.392 297.558 38.1591 295.581 38.1591C293.149 38.1591 291.547 40.0114 291.547 42.6932C291.547 45.4034 293.126 47.1761 295.7 47.1761ZM293.246 41.875C293.314 40.6364 294.212 39.5625 295.592 39.5625C296.911 39.5625 297.774 40.5398 297.78 41.875H293.246ZM301.33 47H303.028V41.6705C303.028 40.5284 303.909 39.7045 305.114 39.7045C305.466 39.7045 305.864 39.767 306 39.8068V38.1818C305.83 38.1591 305.494 38.142 305.278 38.142C304.256 38.142 303.381 38.7216 303.062 39.6591H302.972V38.2727H301.33V47ZM314.01 40.4034C313.658 39.0455 312.595 38.1591 310.709 38.1591C308.737 38.1591 307.339 39.1989 307.339 40.7443C307.339 41.983 308.089 42.8068 309.726 43.1705L311.203 43.4943C312.044 43.6818 312.436 44.0568 312.436 44.6023C312.436 45.2784 311.714 45.8068 310.601 45.8068C309.584 45.8068 308.93 45.3693 308.726 44.5114L307.084 44.7614C307.368 46.3068 308.652 47.1761 310.612 47.1761C312.72 47.1761 314.18 46.0568 314.18 44.4773C314.18 43.2443 313.396 42.483 311.794 42.1136L310.408 41.7955C309.447 41.5682 309.033 41.2443 309.038 40.6534C309.033 39.983 309.76 39.5057 310.726 39.5057C311.783 39.5057 312.271 40.0909 312.47 40.6761L314.01 40.4034ZM319.724 47.1761C322.185 47.1761 323.793 45.375 323.793 42.6761C323.793 39.9602 322.185 38.1591 319.724 38.1591C317.264 38.1591 315.656 39.9602 315.656 42.6761C315.656 45.375 317.264 47.1761 319.724 47.1761ZM319.73 45.75C318.122 45.75 317.372 44.3466 317.372 42.6705C317.372 41 318.122 39.5795 319.73 39.5795C321.327 39.5795 322.077 41 322.077 42.6705C322.077 44.3466 321.327 45.75 319.73 45.75ZM327.388 41.8182C327.388 40.4261 328.24 39.6307 329.422 39.6307C330.575 39.6307 331.274 40.3864 331.274 41.6534V47H332.973V41.4489C332.973 39.2898 331.786 38.1591 330.001 38.1591C328.689 38.1591 327.831 38.767 327.428 39.6932H327.32V38.2727H325.689V47H327.388V41.8182ZM335.251 47H336.95V38.2727H335.251V47ZM336.109 36.9261C336.695 36.9261 337.183 36.4716 337.183 35.9148C337.183 35.358 336.695 34.8977 336.109 34.8977C335.518 34.8977 335.036 35.358 335.036 35.9148C335.036 36.4716 335.518 36.9261 336.109 36.9261ZM341.776 47.1932C343.219 47.1932 344.031 46.4602 344.355 45.8068H344.423V47H346.082V41.2045C346.082 38.6648 344.082 38.1591 342.696 38.1591C341.116 38.1591 339.662 38.7955 339.094 40.3864L340.69 40.75C340.94 40.1307 341.577 39.5341 342.719 39.5341C343.815 39.5341 344.378 40.108 344.378 41.0966V41.1364C344.378 41.7557 343.741 41.7443 342.173 41.9261C340.52 42.1193 338.827 42.5511 338.827 44.5341C338.827 46.25 340.116 47.1932 341.776 47.1932ZM342.145 45.8295C341.185 45.8295 340.491 45.3977 340.491 44.5568C340.491 43.6477 341.298 43.3239 342.281 43.1932C342.832 43.1193 344.139 42.9716 344.384 42.7273V43.8523C344.384 44.8864 343.56 45.8295 342.145 45.8295ZM350.044 41.8182C350.044 40.4261 350.896 39.6307 352.078 39.6307C353.232 39.6307 353.93 40.3864 353.93 41.6534V47H355.629V41.4489C355.629 39.2898 354.442 38.1591 352.658 38.1591C351.345 38.1591 350.487 38.767 350.084 39.6932H349.976V38.2727H348.345V47H350.044V41.8182ZM366.045 47C369.591 47 371.642 44.8011 371.642 41.1648C371.642 37.5455 369.591 35.3636 366.165 35.3636H362.278V47H366.045ZM364.034 45.4659V36.8977H366.057C368.602 36.8977 369.915 38.4205 369.915 41.1648C369.915 43.9205 368.602 45.4659 365.949 45.4659H364.034ZM377.45 47.1761C379.354 47.1761 380.7 46.2386 381.087 44.8182L379.479 44.5284C379.172 45.3523 378.433 45.7727 377.467 45.7727C376.013 45.7727 375.036 44.8295 374.99 43.1477H381.195V42.5455C381.195 39.392 379.308 38.1591 377.331 38.1591C374.899 38.1591 373.297 40.0114 373.297 42.6932C373.297 45.4034 374.876 47.1761 377.45 47.1761ZM374.996 41.875C375.064 40.6364 375.962 39.5625 377.342 39.5625C378.661 39.5625 379.524 40.5398 379.53 41.875H374.996ZM383.08 47H384.778V41.6193C384.778 40.4432 385.602 39.625 386.568 39.625C387.511 39.625 388.165 40.25 388.165 41.1989V47H389.858V41.4375C389.858 40.3864 390.5 39.625 391.608 39.625C392.506 39.625 393.244 40.125 393.244 41.3068V47H394.943V41.1477C394.943 39.1534 393.83 38.1591 392.25 38.1591C390.994 38.1591 390.051 38.7614 389.631 39.6932H389.54C389.159 38.7386 388.358 38.1591 387.193 38.1591C386.04 38.1591 385.182 38.733 384.818 39.6932H384.71V38.2727H383.08V47ZM400.896 47.1761C403.357 47.1761 404.964 45.375 404.964 42.6761C404.964 39.9602 403.357 38.1591 400.896 38.1591C398.436 38.1591 396.828 39.9602 396.828 42.6761C396.828 45.375 398.436 47.1761 400.896 47.1761ZM400.902 45.75C399.294 45.75 398.544 44.3466 398.544 42.6705C398.544 41 399.294 39.5795 400.902 39.5795C402.499 39.5795 403.249 41 403.249 42.6705C403.249 44.3466 402.499 45.75 400.902 45.75ZM410.537 47.1761C412.599 47.1761 413.935 45.9375 414.122 44.2386H412.469C412.253 45.1818 411.52 45.7386 410.548 45.7386C409.111 45.7386 408.185 44.5398 408.185 42.6364C408.185 40.767 409.128 39.5909 410.548 39.5909C411.628 39.5909 412.287 40.2727 412.469 41.0909H414.122C413.94 39.3295 412.503 38.1591 410.52 38.1591C408.06 38.1591 406.469 40.0114 406.469 42.6761C406.469 45.3068 408.003 47.1761 410.537 47.1761ZM415.939 47H417.638V41.6705C417.638 40.5284 418.518 39.7045 419.723 39.7045C420.075 39.7045 420.473 39.767 420.609 39.8068V38.1818C420.439 38.1591 420.104 38.142 419.888 38.142C418.865 38.142 417.99 38.7216 417.672 39.6591H417.581V38.2727H415.939V47ZM424.541 47.1932C425.984 47.1932 426.797 46.4602 427.121 45.8068H427.189V47H428.848V41.2045C428.848 38.6648 426.848 38.1591 425.462 38.1591C423.882 38.1591 422.428 38.7955 421.859 40.3864L423.456 40.75C423.706 40.1307 424.342 39.5341 425.484 39.5341C426.581 39.5341 427.143 40.108 427.143 41.0966V41.1364C427.143 41.7557 426.507 41.7443 424.939 41.9261C423.286 42.1193 421.592 42.5511 421.592 44.5341C421.592 46.25 422.882 47.1932 424.541 47.1932ZM424.911 45.8295C423.95 45.8295 423.257 45.3977 423.257 44.5568C423.257 43.6477 424.064 43.3239 425.047 43.1932C425.598 43.1193 426.905 42.9716 427.149 42.7273V43.8523C427.149 44.8864 426.325 45.8295 424.911 45.8295ZM434.787 47.1761C436.849 47.1761 438.185 45.9375 438.372 44.2386H436.719C436.503 45.1818 435.77 45.7386 434.798 45.7386C433.361 45.7386 432.435 44.5398 432.435 42.6364C432.435 40.767 433.378 39.5909 434.798 39.5909C435.878 39.5909 436.537 40.2727 436.719 41.0909H438.372C438.19 39.3295 436.753 38.1591 434.77 38.1591C432.31 38.1591 430.719 40.0114 430.719 42.6761C430.719 45.3068 432.253 47.1761 434.787 47.1761ZM441.263 50.25C442.666 50.25 443.558 49.517 444.058 48.1648L447.666 38.2898L445.831 38.2727L443.621 45.0455H443.53L441.32 38.2727H439.501L442.695 47.1136L442.484 47.6932C442.053 48.8239 441.445 48.9261 440.513 48.6705L440.104 50.0625C440.308 50.1591 440.751 50.25 441.263 50.25Z" fill="#001632"/>
<defs>
<filter id="filter0_d" x="98.4499" y="133.3" width="497.1" height="113.1" filterUnits="userSpaceOnUse" color-interpolation-filters="sRGB">
<feFlood flood-opacity="0" result="BackgroundImageFix"/>
<feColorMatrix in="SourceAlpha" type="matrix" values="0 0 0 0 0 0 0 0 0 0 0 0 0 0 0 0 0 0 127 0"/>
<feOffset dy="2.85"/>
<feGaussianBlur stdDeviation="4.275"/>
<feColorMatrix type="matrix" values="0 0 0 0 0 0 0 0 0 0 0 0 0 0 0 0 0 0 0.06 0"/>
<feBlend mode="normal" in2="BackgroundImageFix" result="effect1_dropShadow"/>
<feBlend mode="normal" in="SourceGraphic" in2="effect1_dropShadow" result="shape"/>
</filter>
<filter id="filter1_d" x="0.45" y="266.3" width="497.1" height="113.1" filterUnits="userSpaceOnUse" color-interpolation-filters="sRGB">
<feFlood flood-opacity="0" result="BackgroundImageFix"/>
<feColorMatrix in="SourceAlpha" type="matrix" values="0 0 0 0 0 0 0 0 0 0 0 0 0 0 0 0 0 0 127 0"/>
<feOffset dy="2.85"/>
<feGaussianBlur stdDeviation="4.275"/>
<feColorMatrix type="matrix" values="0 0 0 0 0 0 0 0 0 0 0 0 0 0 0 0 0 0 0.06 0"/>
<feBlend mode="normal" in2="BackgroundImageFix" result="effect1_dropShadow"/>
<feBlend mode="normal" in="SourceGraphic" in2="effect1_dropShadow" result="shape"/>
</filter>
<filter id="filter2_d" x="11.45" y="0.3" width="497.1" height="113.1" filterUnits="userSpaceOnUse" color-interpolation-filters="sRGB">
<feFlood flood-opacity="0" result="BackgroundImageFix"/>
<feColorMatrix in="SourceAlpha" type="matrix" values="0 0 0 0 0 0 0 0 0 0 0 0 0 0 0 0 0 0 127 0"/>
<feOffset dy="2.85"/>
<feGaussianBlur stdDeviation="4.275"/>
<feColorMatrix type="matrix" values="0 0 0 0 0 0 0 0 0 0 0 0 0 0 0 0 0 0 0.06 0"/>
<feBlend mode="normal" in2="BackgroundImageFix" result="effect1_dropShadow"/>
<feBlend mode="normal" in="SourceGraphic" in2="effect1_dropShadow" result="shape"/>
</filter>
<clipPath id="clip0">
<rect width="12" height="12" fill="white" transform="translate(171 197)"/>
</clipPath>
<clipPath id="clip1">
<rect width="24" height="24" fill="white" transform="translate(44 30)"/>
</clipPath>
</defs>
</svg>
