<svg width="736" height="556" viewBox="0 0 736 556" fill="none" xmlns="http://www.w3.org/2000/svg">
<path d="M411.372 275.548L411.372 275.547C408.701 268.119 405.956 260.942 403.289 253.968C399.315 243.58 395.513 233.64 392.382 223.98C387.157 207.855 383.841 192.61 384.783 177.586L384.783 177.585C386.656 147.458 405.516 118.062 430.621 90.6218C443.2 76.9033 457.304 63.712 472.256 53.9435C487.211 44.1737 502.982 37.8489 518.906 37.811C534.836 37.8088 550.993 44.0943 566.837 54.0543C582.678 64.0127 598.172 77.6218 612.767 92.2134C641.91 121.424 667.398 154.304 671.252 189.287L671.252 189.288C675.171 224.264 657.525 261.394 636.959 295.634C616.346 329.943 592.967 361.205 560.831 377.673C528.667 394.157 487.804 395.873 461.818 375.496C448.858 365.335 439.547 349.613 431.82 331.767C426.391 319.228 421.762 305.686 417.196 292.33C415.262 286.673 413.339 281.048 411.372 275.548Z" stroke="#0CD977"/>
<path d="M290.758 454.949L290.757 454.949C282.054 456.344 273.616 457.835 265.413 459.284C253.189 461.443 241.488 463.51 230.212 465.032C211.385 467.574 193.822 468.585 177.167 465.958L177.167 465.958C143.779 460.705 113.909 440.942 87.2285 416.085C73.8882 403.628 61.3812 389.93 52.8292 375.923C44.2745 361.911 39.7116 347.646 42.1571 334.026C44.6452 320.396 54.1705 307.3 67.7797 294.892C81.3809 282.492 99.0042 270.829 117.585 260.056C154.754 238.563 195.491 220.619 235.21 221.533L235.21 221.533C274.929 222.39 313.639 242.049 348.622 263.833C383.699 285.681 414.913 309.524 428.24 339.074C441.566 368.619 437.094 403.838 410.293 423.675C396.906 433.586 377.875 439.69 356.729 444.174C341.875 447.323 326.022 449.666 310.394 451.975C303.778 452.953 297.201 453.924 290.758 454.949Z" stroke="#006CFA"/>
<g filter="url(#filter0_d)">
<rect x="8" y="4" width="229" height="123" rx="4" fill="white"/>
</g>
<path d="M80.9111 84.348H82.816C82.7584 82.2514 80.9047 80.7301 78.2457 80.7301C75.6185 80.7301 73.605 82.2322 73.605 84.4886C73.605 86.3104 74.909 87.3778 77.012 87.9467L78.5589 88.3686C79.9587 88.7393 81.039 89.1996 81.039 90.3629C81.039 91.6413 79.8181 92.4851 78.137 92.4851C76.6157 92.4851 75.3501 91.8075 75.235 90.3821H73.2535C73.3813 92.7536 75.2158 94.2173 78.1498 94.2173C81.2243 94.2173 82.9949 92.6001 82.9949 90.3821C82.9949 88.0234 80.892 87.1094 79.23 86.7003L77.9516 86.3679C76.9289 86.1058 75.5674 85.6264 75.5738 84.3736C75.5738 83.2614 76.5901 82.4368 78.2009 82.4368C79.703 82.4368 80.7705 83.1399 80.9111 84.348ZM91.4213 89.9283C91.4276 91.5966 90.1876 92.3892 89.1137 92.3892C87.9312 92.3892 87.113 91.5327 87.113 90.1967V84.1818H85.2018V90.4268C85.2018 92.8622 86.5377 94.1278 88.4234 94.1278C89.8999 94.1278 90.9035 93.348 91.3573 92.2997H91.4596V94H93.3389V84.1818H91.4213V89.9283ZM96.0603 94H97.9268V92.4723H98.0866C98.4317 93.0987 99.1349 94.1918 100.925 94.1918C103.302 94.1918 105.028 92.2869 105.028 89.1101C105.028 85.9268 103.277 84.054 100.905 84.054C99.0837 84.054 98.4253 85.1662 98.0866 85.7734H97.9715V80.9091H96.0603V94ZM97.9332 89.0909C97.9332 87.0391 98.828 85.6776 100.496 85.6776C102.229 85.6776 103.098 87.1413 103.098 89.0909C103.098 91.0597 102.203 92.5618 100.496 92.5618C98.8536 92.5618 97.9332 91.1555 97.9332 89.0909ZM107.174 94H109.086V87.9467C109.086 86.6236 110.013 85.7031 111.099 85.7031C112.16 85.7031 112.895 86.4062 112.895 87.4737V94H114.8V87.7422C114.8 86.5597 115.522 85.7031 116.769 85.7031C117.779 85.7031 118.61 86.2656 118.61 87.5952V94H120.521V87.4162C120.521 85.1726 119.268 84.054 117.491 84.054C116.079 84.054 115.017 84.7315 114.544 85.7798H114.442C114.014 84.706 113.113 84.054 111.802 84.054C110.505 84.054 109.54 84.6996 109.13 85.7798H109.009V84.1818H107.174V94ZM123.083 94H124.994V84.1818H123.083V94ZM124.048 82.6669C124.706 82.6669 125.256 82.1555 125.256 81.5291C125.256 80.9027 124.706 80.3849 124.048 80.3849C123.383 80.3849 122.84 80.9027 122.84 81.5291C122.84 82.1555 123.383 82.6669 124.048 82.6669ZM134.922 86.5788C134.526 85.0511 133.331 84.054 131.209 84.054C128.991 84.054 127.418 85.2237 127.418 86.9624C127.418 88.3558 128.262 89.2827 130.103 89.6918L131.765 90.0561C132.711 90.267 133.152 90.6889 133.152 91.3026C133.152 92.0632 132.34 92.6577 131.087 92.6577C129.943 92.6577 129.208 92.1655 128.978 91.2003L127.13 91.4815C127.45 93.2202 128.895 94.1982 131.1 94.1982C133.471 94.1982 135.114 92.9389 135.114 91.1619C135.114 89.7749 134.232 88.9183 132.429 88.5028L130.87 88.1449C129.79 87.8892 129.323 87.5249 129.329 86.8601C129.323 86.1058 130.141 85.5689 131.228 85.5689C132.417 85.5689 132.966 86.2273 133.19 86.8857L134.922 86.5788ZM144.573 86.5788C144.176 85.0511 142.981 84.054 140.859 84.054C138.641 84.054 137.068 85.2237 137.068 86.9624C137.068 88.3558 137.912 89.2827 139.753 89.6918L141.415 90.0561C142.361 90.267 142.802 90.6889 142.802 91.3026C142.802 92.0632 141.99 92.6577 140.737 92.6577C139.593 92.6577 138.858 92.1655 138.628 91.2003L136.781 91.4815C137.1 93.2202 138.545 94.1982 140.75 94.1982C143.122 94.1982 144.764 92.9389 144.764 91.1619C144.764 89.7749 143.882 88.9183 142.08 88.5028L140.52 88.1449C139.44 87.8892 138.973 87.5249 138.98 86.8601C138.973 86.1058 139.791 85.5689 140.878 85.5689C142.067 85.5689 142.617 86.2273 142.84 86.8857L144.573 86.5788ZM146.866 94H148.777V84.1818H146.866V94ZM147.831 82.6669C148.489 82.6669 149.039 82.1555 149.039 81.5291C149.039 80.9027 148.489 80.3849 147.831 80.3849C147.166 80.3849 146.623 80.9027 146.623 81.5291C146.623 82.1555 147.166 82.6669 147.831 82.6669ZM155.484 94.1982C158.252 94.1982 160.061 92.1719 160.061 89.1357C160.061 86.0803 158.252 84.054 155.484 84.054C152.716 84.054 150.907 86.0803 150.907 89.1357C150.907 92.1719 152.716 94.1982 155.484 94.1982ZM155.49 92.5938C153.681 92.5938 152.838 91.0149 152.838 89.1293C152.838 87.25 153.681 85.652 155.49 85.652C157.286 85.652 158.13 87.25 158.13 89.1293C158.13 91.0149 157.286 92.5938 155.49 92.5938ZM164.105 88.1705C164.105 86.6044 165.064 85.7095 166.394 85.7095C167.691 85.7095 168.477 86.5597 168.477 87.9851V94H170.389V87.755C170.389 85.326 169.053 84.054 167.046 84.054C165.569 84.054 164.604 84.7379 164.15 85.7798H164.028V84.1818H162.194V94H164.105V88.1705Z" fill="#001632"/>
<g filter="url(#filter1_d)">
<rect x="253" y="4" width="230" height="123" rx="4" fill="white"/>
</g>
<g filter="url(#filter2_d)">
<rect x="499" y="4" width="229" height="123" rx="4" fill="white"/>
</g>
<g filter="url(#filter3_d)">
<rect x="8" y="143" width="229" height="123" rx="4" fill="white"/>
</g>
<g filter="url(#filter4_d)">
<rect x="253" y="143" width="230" height="123" rx="4" fill="white"/>
</g>
<g filter="url(#filter5_d)">
<rect x="499" y="143" width="229" height="123" rx="4" fill="white"/>
</g>
<g filter="url(#filter6_d)">
<rect x="8" y="282" width="229" height="123" rx="4" fill="white"/>
</g>
<g filter="url(#filter7_d)">
<rect x="253" y="282" width="230" height="123" rx="4" fill="white"/>
</g>
<g filter="url(#filter8_d)">
<rect x="499" y="282" width="229" height="123" rx="4" fill="white"/>
</g>
<g filter="url(#filter9_d)">
<rect x="8" y="421" width="229" height="123" rx="4" fill="white"/>
</g>
<g filter="url(#filter10_d)">
<rect x="253" y="421" width="230" height="123" rx="4" fill="white"/>
</g>
<g filter="url(#filter11_d)">
<rect x="499" y="421" width="229" height="123" rx="4" fill="white"/>
</g>
<path d="M578.983 501.348H580.888C580.831 499.251 578.977 497.73 576.318 497.73C573.691 497.73 571.677 499.232 571.677 501.489C571.677 503.31 572.981 504.378 575.084 504.947L576.631 505.369C578.031 505.739 579.111 506.2 579.111 507.363C579.111 508.641 577.89 509.485 576.209 509.485C574.688 509.485 573.422 508.808 573.307 507.382H571.326C571.454 509.754 573.288 511.217 576.222 511.217C579.297 511.217 581.067 509.6 581.067 507.382C581.067 505.023 578.964 504.109 577.302 503.7L576.024 503.368C575.001 503.106 573.64 502.626 573.646 501.374C573.646 500.261 574.662 499.437 576.273 499.437C577.775 499.437 578.843 500.14 578.983 501.348ZM585.185 505.17C585.185 503.604 586.176 502.71 587.538 502.71C588.854 502.71 589.641 503.547 589.641 504.985V511H591.552V504.755C591.552 502.307 590.209 501.054 588.19 501.054C586.662 501.054 585.741 501.719 585.281 502.78H585.16V497.909H583.274V511H585.185V505.17ZM598.238 511.198C601.006 511.198 602.815 509.172 602.815 506.136C602.815 503.08 601.006 501.054 598.238 501.054C595.47 501.054 593.661 503.08 593.661 506.136C593.661 509.172 595.47 511.198 598.238 511.198ZM598.244 509.594C596.435 509.594 595.592 508.015 595.592 506.129C595.592 504.25 596.435 502.652 598.244 502.652C600.04 502.652 600.884 504.25 600.884 506.129C600.884 508.015 600.04 509.594 598.244 509.594ZM606.778 511H608.721L610.715 503.911H610.862L612.856 511H614.806L617.689 501.182H615.714L613.802 508.36H613.707L611.789 501.182H609.814L607.883 508.392H607.788L605.864 501.182H603.888L606.778 511ZM623.339 511.198C625.66 511.198 627.162 509.805 627.373 507.893H625.513C625.27 508.955 624.445 509.581 623.352 509.581C621.735 509.581 620.693 508.232 620.693 506.091C620.693 503.988 621.754 502.665 623.352 502.665C624.567 502.665 625.308 503.432 625.513 504.352H627.373C627.168 502.371 625.551 501.054 623.32 501.054C620.552 501.054 618.763 503.138 618.763 506.136C618.763 509.095 620.489 511.198 623.339 511.198ZM632.274 511.217C633.897 511.217 634.812 510.393 635.176 509.658H635.253V511H637.119V504.48C637.119 501.623 634.869 501.054 633.309 501.054C631.532 501.054 629.896 501.77 629.257 503.56L631.053 503.969C631.334 503.272 632.05 502.601 633.335 502.601C634.569 502.601 635.201 503.246 635.201 504.359V504.403C635.201 505.1 634.486 505.087 632.721 505.292C630.861 505.509 628.956 505.995 628.956 508.226C628.956 510.156 630.407 511.217 632.274 511.217ZM632.689 509.683C631.609 509.683 630.829 509.197 630.829 508.251C630.829 507.229 631.737 506.864 632.843 506.717C633.463 506.634 634.933 506.468 635.208 506.193V507.459C635.208 508.622 634.281 509.683 632.689 509.683ZM647.022 503.579C646.626 502.051 645.43 501.054 643.308 501.054C641.09 501.054 639.518 502.224 639.518 503.962C639.518 505.356 640.361 506.283 642.202 506.692L643.864 507.056C644.81 507.267 645.251 507.689 645.251 508.303C645.251 509.063 644.44 509.658 643.187 509.658C642.043 509.658 641.307 509.165 641.077 508.2L639.23 508.482C639.55 510.22 640.994 511.198 643.199 511.198C645.571 511.198 647.214 509.939 647.214 508.162C647.214 506.775 646.332 505.918 644.529 505.503L642.969 505.145C641.889 504.889 641.422 504.525 641.429 503.86C641.422 503.106 642.241 502.569 643.327 502.569C644.516 502.569 645.066 503.227 645.29 503.886L647.022 503.579ZM653.547 511.198C655.688 511.198 657.203 510.143 657.638 508.545L655.829 508.219C655.483 509.146 654.652 509.619 653.566 509.619C651.929 509.619 650.83 508.558 650.779 506.666H657.759V505.989C657.759 502.441 655.637 501.054 653.412 501.054C650.677 501.054 648.874 503.138 648.874 506.155C648.874 509.204 650.651 511.198 653.547 511.198ZM650.785 505.234C650.862 503.841 651.872 502.633 653.425 502.633C654.908 502.633 655.88 503.732 655.886 505.234H650.785Z" fill="#001632"/>
<path d="M628.062 459V463.172C628.063 463.703 627.865 464.211 627.514 464.587L617.361 475.415C617.01 475.789 616.533 476 616.036 476H601.812C600.777 476 599.938 475.105 599.938 474V448C599.938 446.895 600.777 446 601.812 446H618.688" stroke="#006CFA" stroke-width="2" stroke-linecap="round" stroke-linejoin="round"/>
<path d="M616.812 475.82V466C616.812 464.895 617.652 464 618.688 464H627.894" stroke="#006CFA" stroke-width="2" stroke-linecap="round" stroke-linejoin="round"/>
<path d="M622.438 456V448C622.438 446.895 623.277 446 624.312 446C625.348 446 626.188 446.895 626.188 448V456" stroke="#006CFA" stroke-width="2" stroke-linecap="round" stroke-linejoin="round"/>
<path d="M622.438 452H626.188" stroke="#006CFA" stroke-width="2" stroke-linecap="round" stroke-linejoin="round"/>
<path d="M608.375 454H614.938" stroke="#006CFA" stroke-width="2" stroke-linecap="round" stroke-linejoin="round"/>
<path d="M604.625 460H614.938" stroke="#006CFA" stroke-width="2" stroke-linecap="round" stroke-linejoin="round"/>
<path d="M604.625 466H612.125" stroke="#006CFA" stroke-width="2" stroke-linecap="round" stroke-linejoin="round"/>
<path d="M135.739 31.2612L108 58.9999" stroke="#006CFA" stroke-width="1.5" stroke-linecap="round" stroke-linejoin="round"/>
<path d="M128.233 49.6854L123.456 49.0027" stroke="#006CFA" stroke-width="1.5" stroke-linecap="round" stroke-linejoin="round"/>
<path d="M132.327 45.5906L127.551 44.908" stroke="#006CFA" stroke-width="1.5" stroke-linecap="round" stroke-linejoin="round"/>
<path d="M113.748 42.3332C112.568 43.5146 111.956 45.1479 112.067 46.8132L112.575 54.4266L120.188 54.9346C121.855 55.0453 123.487 54.4319 124.668 53.2519L135.735 42.1852C138.775 39.1959 138.817 34.3079 135.828 31.2679C132.839 28.2279 127.951 28.1852 124.911 31.1746C124.88 31.2052 124.848 31.2359 124.817 31.2679L113.748 42.3332Z" stroke="#006CFA" stroke-width="1.5" stroke-linecap="round" stroke-linejoin="round"/>
<path d="M318.769 94H320.744V89.3977H323.429C326.465 89.3977 327.967 87.5632 327.967 85.147C327.967 82.7372 326.478 80.9091 323.435 80.9091H318.769V94ZM320.744 87.723V82.603H323.225C325.18 82.603 325.979 83.6641 325.979 85.147C325.979 86.63 325.18 87.723 323.25 87.723H320.744ZM334.238 94.1982C336.379 94.1982 337.894 93.1435 338.329 91.5455L336.52 91.2195C336.175 92.1463 335.344 92.6193 334.257 92.6193C332.621 92.6193 331.521 91.5582 331.47 89.6662H338.45V88.9886C338.45 85.4411 336.328 84.054 334.104 84.054C331.368 84.054 329.565 86.1378 329.565 89.1548C329.565 92.2038 331.342 94.1982 334.238 94.1982ZM331.477 88.2344C331.553 86.8409 332.563 85.6328 334.117 85.6328C335.6 85.6328 336.571 86.7322 336.578 88.2344H331.477ZM344.802 94.1982C346.944 94.1982 348.459 93.1435 348.893 91.5455L347.084 91.2195C346.739 92.1463 345.908 92.6193 344.822 92.6193C343.185 92.6193 342.086 91.5582 342.035 89.6662H349.015V88.9886C349.015 85.4411 346.893 84.054 344.668 84.054C341.932 84.054 340.13 86.1378 340.13 89.1548C340.13 92.2038 341.907 94.1982 344.802 94.1982ZM342.041 88.2344C342.118 86.8409 343.128 85.6328 344.681 85.6328C346.164 85.6328 347.136 86.7322 347.142 88.2344H342.041ZM351.135 94H353.047V88.0043C353.047 86.7195 354.037 85.7926 355.392 85.7926C355.789 85.7926 356.236 85.8629 356.39 85.9077V84.0795C356.198 84.054 355.821 84.0348 355.578 84.0348C354.427 84.0348 353.443 84.6868 353.085 85.7415H352.983V84.1818H351.135V94ZM362.807 94H364.718V88.0043C364.718 86.7195 365.709 85.7926 367.064 85.7926C367.461 85.7926 367.908 85.8629 368.062 85.9077V84.0795C367.87 84.054 367.493 84.0348 367.25 84.0348C366.099 84.0348 365.115 84.6868 364.757 85.7415H364.655V84.1818H362.807V94ZM373.595 94.1982C375.737 94.1982 377.252 93.1435 377.686 91.5455L375.877 91.2195C375.532 92.1463 374.701 92.6193 373.615 92.6193C371.978 92.6193 370.879 91.5582 370.828 89.6662H377.808V88.9886C377.808 85.4411 375.686 84.054 373.461 84.054C370.725 84.054 368.923 86.1378 368.923 89.1548C368.923 92.2038 370.7 94.1982 373.595 94.1982ZM370.834 88.2344C370.911 86.8409 371.921 85.6328 373.474 85.6328C374.957 85.6328 375.929 86.7322 375.935 88.2344H370.834ZM388.275 84.1818H386.223L383.743 91.7372H383.641L381.154 84.1818H379.102L382.669 94H384.714L388.275 84.1818ZM390.071 94H391.982V84.1818H390.071V94ZM391.036 82.6669C391.695 82.6669 392.244 82.1555 392.244 81.5291C392.244 80.9027 391.695 80.3849 391.036 80.3849C390.371 80.3849 389.828 80.9027 389.828 81.5291C389.828 82.1555 390.371 82.6669 391.036 82.6669ZM398.785 94.1982C400.926 94.1982 402.441 93.1435 402.876 91.5455L401.067 91.2195C400.722 92.1463 399.891 92.6193 398.804 92.6193C397.168 92.6193 396.068 91.5582 396.017 89.6662H402.997V88.9886C402.997 85.4411 400.875 84.054 398.651 84.054C395.915 84.054 394.112 86.1378 394.112 89.1548C394.112 92.2038 395.889 94.1982 398.785 94.1982ZM396.024 88.2344C396.1 86.8409 397.11 85.6328 398.663 85.6328C400.146 85.6328 401.118 86.7322 401.124 88.2344H396.024ZM407.229 94H409.172L411.166 86.9112H411.313L413.308 94H415.257L418.14 84.1818H416.165L414.254 91.3601H414.158L412.24 84.1818H410.265L408.335 91.392H408.239L406.315 84.1818H404.34L407.229 94Z" fill="#001632"/>
<path fill-rule="evenodd" clip-rule="evenodd" d="M361.976 32C358.407 32 355.514 34.8935 355.514 38.4627C355.514 42.032 358.407 44.9255 361.976 44.9255C365.546 44.9255 368.439 42.032 368.439 38.4627C368.439 34.8935 365.546 32 361.976 32ZM357.396 38.4627C357.396 35.9331 359.447 33.8824 361.976 33.8824C364.506 33.8824 366.557 35.9331 366.557 38.4627C366.557 40.9924 364.506 43.0431 361.976 43.0431C359.447 43.0431 357.396 40.9924 357.396 38.4627Z" fill="#006CFA"/>
<path d="M353.882 55.0275C353.882 50.5572 357.506 46.9334 361.976 46.9334C366.447 46.9334 370.071 50.5572 370.071 55.0275C370.071 55.5473 370.492 55.9687 371.012 55.9687C371.532 55.9687 371.953 55.5473 371.953 55.0275C371.953 49.5176 367.486 45.051 361.976 45.051C356.467 45.051 352 49.5176 352 55.0275C352 55.5473 352.421 55.9687 352.941 55.9687C353.461 55.9687 353.882 55.5473 353.882 55.0275Z" fill="#006CFA"/>
<path fill-rule="evenodd" clip-rule="evenodd" d="M370.207 41.4746C370.207 38.4597 372.651 36.0157 375.666 36.0157C378.681 36.0157 381.125 38.4597 381.125 41.4746C381.125 44.058 379.33 46.2223 376.919 46.7888C378.164 46.9786 379.366 47.45 380.429 48.1904C382.665 49.7485 383.999 52.3013 384 55.0269C384 55.5467 383.579 55.9683 383.059 55.9686C382.54 55.9689 382.118 55.5477 382.118 55.0279C382.116 52.9177 381.084 50.9412 379.353 49.7348C377.621 48.5284 375.409 48.2443 373.429 48.9741C372.942 49.1538 372.401 48.9042 372.221 48.4164C372.041 47.9287 372.291 47.3876 372.778 47.2079C373.312 47.0113 373.858 46.8717 374.409 46.788C372 46.2203 370.207 44.0568 370.207 41.4746ZM375.666 37.8981C373.691 37.8981 372.089 39.4993 372.089 41.4746C372.089 43.4498 373.691 45.051 375.666 45.051C377.641 45.051 379.242 43.4498 379.242 41.4746C379.242 39.4993 377.641 37.8981 375.666 37.8981Z" fill="#006CFA"/>
<path d="M530.667 94H532.642V88.2919H538.203V86.598H532.642V82.6094H538.785V80.9091H530.667V94ZM544.571 94.1982C546.712 94.1982 548.227 93.1435 548.662 91.5455L546.853 91.2195C546.508 92.1463 545.677 92.6193 544.59 92.6193C542.954 92.6193 541.854 91.5582 541.803 89.6662H548.783V88.9886C548.783 85.4411 546.661 84.054 544.437 84.054C541.701 84.054 539.898 86.1378 539.898 89.1548C539.898 92.2038 541.675 94.1982 544.571 94.1982ZM541.81 88.2344C541.886 86.8409 542.896 85.6328 544.45 85.6328C545.933 85.6328 546.904 86.7322 546.911 88.2344H541.81ZM555.135 94.1982C557.277 94.1982 558.792 93.1435 559.226 91.5455L557.417 91.2195C557.072 92.1463 556.241 92.6193 555.155 92.6193C553.518 92.6193 552.419 91.5582 552.368 89.6662H559.348V88.9886C559.348 85.4411 557.226 84.054 555.001 84.054C552.265 84.054 550.463 86.1378 550.463 89.1548C550.463 92.2038 552.24 94.1982 555.135 94.1982ZM552.374 88.2344C552.451 86.8409 553.461 85.6328 555.014 85.6328C556.497 85.6328 557.469 86.7322 557.475 88.2344H552.374ZM565.144 94.1918C566.934 94.1918 567.637 93.0987 567.982 92.4723H568.142V94H570.008V80.9091H568.097V85.7734H567.982C567.637 85.1662 566.985 84.054 565.157 84.054C562.785 84.054 561.04 85.9268 561.04 89.1101C561.04 92.2869 562.76 94.1918 565.144 94.1918ZM565.566 92.5618C563.859 92.5618 562.971 91.0597 562.971 89.0909C562.971 87.1413 563.84 85.6776 565.566 85.6776C567.234 85.6776 568.129 87.0391 568.129 89.0909C568.129 91.1555 567.215 92.5618 565.566 92.5618ZM572.889 94H574.756V92.4723H574.916C575.261 93.0987 575.964 94.1918 577.754 94.1918C580.132 94.1918 581.857 92.2869 581.857 89.1101C581.857 85.9268 580.106 84.054 577.735 84.054C575.913 84.054 575.254 85.1662 574.916 85.7734H574.801V80.9091H572.889V94ZM574.762 89.0909C574.762 87.0391 575.657 85.6776 577.325 85.6776C579.058 85.6776 579.927 87.1413 579.927 89.0909C579.927 91.0597 579.032 92.5618 577.325 92.5618C575.683 92.5618 574.762 91.1555 574.762 89.0909ZM586.861 94.2173C588.484 94.2173 589.398 93.3928 589.763 92.6577H589.839V94H591.706V87.4801C591.706 84.6229 589.456 84.054 587.896 84.054C586.119 84.054 584.483 84.7699 583.844 86.5597L585.64 86.9688C585.921 86.272 586.637 85.6009 587.922 85.6009C589.156 85.6009 589.788 86.2464 589.788 87.3587V87.4034C589.788 88.1001 589.072 88.0874 587.308 88.2919C585.448 88.5092 583.543 88.995 583.543 91.2259C583.543 93.1562 584.994 94.2173 586.861 94.2173ZM587.276 92.6832C586.196 92.6832 585.416 92.1974 585.416 91.2514C585.416 90.2287 586.324 89.8643 587.43 89.7173C588.05 89.6342 589.52 89.468 589.795 89.1932V90.4588C589.795 91.6222 588.868 92.6832 587.276 92.6832ZM598.387 94.1982C600.708 94.1982 602.21 92.8047 602.421 90.8935H600.561C600.318 91.9545 599.493 92.581 598.4 92.581C596.783 92.581 595.741 91.2322 595.741 89.0909C595.741 86.9879 596.802 85.6648 598.4 85.6648C599.615 85.6648 600.356 86.4318 600.561 87.3523H602.421C602.216 85.3707 600.599 84.054 598.368 84.054C595.6 84.054 593.811 86.1378 593.811 89.1357C593.811 92.0952 595.536 94.1982 598.387 94.1982ZM604.464 94H606.376V90.5163L607.328 89.5639L610.665 94H613.011L608.766 88.3942L612.742 84.1818H610.454L606.542 88.3366H606.376V80.9091H604.464V94ZM619.248 94H621.159V88.0043C621.159 86.7195 622.15 85.7926 623.505 85.7926C623.901 85.7926 624.349 85.8629 624.502 85.9077V84.0795C624.31 84.054 623.933 84.0348 623.69 84.0348C622.54 84.0348 621.555 84.6868 621.197 85.7415H621.095V84.1818H619.248V94ZM630.036 94.1982C632.177 94.1982 633.692 93.1435 634.127 91.5455L632.318 91.2195C631.973 92.1463 631.142 92.6193 630.055 92.6193C628.419 92.6193 627.319 91.5582 627.268 89.6662H634.248V88.9886C634.248 85.4411 632.126 84.054 629.902 84.054C627.166 84.054 625.363 86.1378 625.363 89.1548C625.363 92.2038 627.14 94.1982 630.036 94.1982ZM627.275 88.2344C627.351 86.8409 628.361 85.6328 629.914 85.6328C631.397 85.6328 632.369 86.7322 632.375 88.2344H627.275ZM641.041 84.1818H638.926V83.2997C638.926 82.4304 639.284 81.9574 640.217 81.9574C640.613 81.9574 640.894 82.0469 641.073 82.1044L641.521 80.5575C641.252 80.4553 640.696 80.2955 639.923 80.2955C638.369 80.2955 637.008 81.2031 637.008 83.044V84.1818H635.493V85.7159H637.008V94H638.926V85.7159H641.041V84.1818ZM644.925 80.9091H643.013V94H644.925V80.9091ZM651.727 94.1982C653.869 94.1982 655.384 93.1435 655.818 91.5455L654.009 91.2195C653.664 92.1463 652.833 92.6193 651.746 92.6193C650.11 92.6193 649.011 91.5582 648.96 89.6662H655.94V88.9886C655.94 85.4411 653.817 84.054 651.593 84.054C648.857 84.054 647.055 86.1378 647.055 89.1548C647.055 92.2038 648.832 94.1982 651.727 94.1982ZM648.966 88.2344C649.043 86.8409 650.053 85.6328 651.606 85.6328C653.089 85.6328 654.06 86.7322 654.067 88.2344H648.966ZM662.196 94.1982C664.516 94.1982 666.018 92.8047 666.229 90.8935H664.369C664.126 91.9545 663.302 92.581 662.209 92.581C660.591 92.581 659.55 91.2322 659.55 89.0909C659.55 86.9879 660.611 85.6648 662.209 85.6648C663.423 85.6648 664.165 86.4318 664.369 87.3523H666.229C666.025 85.3707 664.407 84.054 662.177 84.054C659.409 84.054 657.619 86.1378 657.619 89.1357C657.619 92.0952 659.345 94.1982 662.196 94.1982ZM672.856 84.1818H670.843V81.8295H668.931V84.1818H667.493V85.7159H668.931V91.5135C668.925 93.2969 670.287 94.1598 671.795 94.1278C672.402 94.1214 672.811 94.0064 673.035 93.9233L672.69 92.3445C672.562 92.37 672.326 92.4276 672.019 92.4276C671.399 92.4276 670.843 92.223 670.843 91.1172V85.7159H672.856V84.1818ZM674.97 94H676.882V84.1818H674.97V94ZM675.936 82.6669C676.594 82.6669 677.144 82.1555 677.144 81.5291C677.144 80.9027 676.594 80.3849 675.936 80.3849C675.271 80.3849 674.727 80.9027 674.727 81.5291C674.727 82.1555 675.271 82.6669 675.936 82.6669ZM683.588 94.1982C686.356 94.1982 688.165 92.1719 688.165 89.1357C688.165 86.0803 686.356 84.054 683.588 84.054C680.821 84.054 679.012 86.0803 679.012 89.1357C679.012 92.1719 680.821 94.1982 683.588 94.1982ZM683.595 92.5938C681.786 92.5938 680.942 91.0149 680.942 89.1293C680.942 87.25 681.786 85.652 683.595 85.652C685.391 85.652 686.235 87.25 686.235 89.1293C686.235 91.0149 685.391 92.5938 683.595 92.5938ZM692.21 88.1705C692.21 86.6044 693.169 85.7095 694.498 85.7095C695.796 85.7095 696.582 86.5597 696.582 87.9851V94H698.493V87.755C698.493 85.326 697.157 84.054 695.15 84.054C693.673 84.054 692.708 84.7379 692.254 85.7798H692.133V84.1818H690.298V94H692.21V88.1705Z" fill="#001632"/>
<path fill-rule="evenodd" clip-rule="evenodd" d="M620.999 59L614.181 51.888C612.953 50.6603 612.648 48.784 613.425 47.2307V47.2307C614.005 46.0709 615.107 45.2606 616.387 45.053C617.667 44.8454 618.969 45.2657 619.885 46.1827L620.999 47.296L622.112 46.1827C623.029 45.2657 624.331 44.8454 625.611 45.053C626.891 45.2607 627.993 46.0709 628.573 47.2307V47.2307C629.349 48.7841 629.045 50.6599 627.817 51.888L620.999 59Z" stroke="#006CFA" stroke-width="2" stroke-linecap="round" stroke-linejoin="round"/>
<path fill-rule="evenodd" clip-rule="evenodd" d="M606 37C608.209 37 610 35.2091 610 33C610 30.7909 608.209 29 606 29C603.791 29 602 30.7909 602 33C602 35.2091 603.791 37 606 37Z" stroke="#006CFA" stroke-width="2" stroke-linecap="round" stroke-linejoin="round"/>
<path d="M612.089 42.5467C611.542 41.5814 610.774 40.7591 609.848 40.1467L606 46.0001L602.152 40.1521C600.184 41.4462 598.999 43.6443 599 46.0001V49.0001H602L603 59.0001H609L609.476 54.2361" stroke="#006CFA" stroke-width="2" stroke-linecap="round" stroke-linejoin="round"/>
<path d="M602 33C602 33 602 38 599 38" stroke="#006CFA" stroke-width="2" stroke-linecap="round" stroke-linejoin="round"/>
<path d="M610 33C610 33 610 38 613 38" stroke="#006CFA" stroke-width="2" stroke-linecap="round" stroke-linejoin="round"/>
<path d="M67.0654 223.348H68.9703C68.9127 221.251 67.059 219.73 64.3999 219.73C61.7728 219.73 59.7593 221.232 59.7593 223.489C59.7593 225.31 61.0633 226.378 63.1663 226.947L64.7132 227.369C66.113 227.739 67.1933 228.2 67.1933 229.363C67.1933 230.641 65.9724 231.485 64.2913 231.485C62.77 231.485 61.5044 230.808 61.3893 229.382H59.4078C59.5356 231.754 61.3701 233.217 64.3041 233.217C67.3786 233.217 69.1492 231.6 69.1492 229.382C69.1492 227.023 67.0463 226.109 65.3843 225.7L64.1059 225.368C63.0832 225.106 61.7217 224.626 61.7281 223.374C61.7281 222.261 62.7444 221.437 64.3552 221.437C65.8573 221.437 66.9248 222.14 67.0654 223.348ZM75.5876 233.198C77.729 233.198 79.2439 232.143 79.6785 230.545L77.8696 230.219C77.5244 231.146 76.6934 231.619 75.6068 231.619C73.9704 231.619 72.871 230.558 72.8199 228.666H79.8V227.989C79.8 224.441 77.6778 223.054 75.4534 223.054C72.7176 223.054 70.915 225.138 70.915 228.155C70.915 231.204 72.692 233.198 75.5876 233.198ZM72.8263 227.234C72.903 225.841 73.9129 224.633 75.4662 224.633C76.9491 224.633 77.9207 225.732 77.9271 227.234H72.8263ZM83.8318 219.909H81.9205V233H83.8318V219.909ZM91.0756 223.182H88.9598V222.3C88.9598 221.43 89.3177 220.957 90.251 220.957C90.6473 220.957 90.9285 221.047 91.1075 221.104L91.555 219.558C91.2865 219.455 90.7304 219.295 89.9569 219.295C88.4037 219.295 87.0422 220.203 87.0422 222.044V223.182H85.5273V224.716H87.0422V233H88.9598V224.716H91.0756V223.182ZM98.3753 226.64H92.5713V228.295H98.3753V226.64ZM105.154 233.198C107.295 233.198 108.81 232.143 109.245 230.545L107.436 230.219C107.091 231.146 106.26 231.619 105.173 231.619C103.537 231.619 102.437 230.558 102.386 228.666H109.366V227.989C109.366 224.441 107.244 223.054 105.02 223.054C102.284 223.054 100.481 225.138 100.481 228.155C100.481 231.204 102.258 233.198 105.154 233.198ZM102.393 227.234C102.469 225.841 103.479 224.633 105.033 224.633C106.516 224.633 107.487 225.732 107.494 227.234H102.393ZM119.833 223.182H117.782L115.301 230.737H115.199L112.713 223.182H110.661L114.228 233H116.273L119.833 223.182ZM124.188 233.217C125.812 233.217 126.726 232.393 127.09 231.658H127.167V233H129.033V226.48C129.033 223.623 126.783 223.054 125.223 223.054C123.446 223.054 121.81 223.77 121.171 225.56L122.967 225.969C123.248 225.272 123.964 224.601 125.249 224.601C126.483 224.601 127.116 225.246 127.116 226.359V226.403C127.116 227.1 126.4 227.087 124.635 227.292C122.775 227.509 120.87 227.995 120.87 230.226C120.87 232.156 122.321 233.217 124.188 233.217ZM124.603 231.683C123.523 231.683 122.743 231.197 122.743 230.251C122.743 229.229 123.651 228.864 124.757 228.717C125.377 228.634 126.847 228.468 127.122 228.193V229.459C127.122 230.622 126.195 231.683 124.603 231.683ZM133.49 219.909H131.579V233H133.49V219.909ZM142.281 228.928C142.287 230.597 141.047 231.389 139.973 231.389C138.791 231.389 137.972 230.533 137.972 229.197V223.182H136.061V229.427C136.061 231.862 137.397 233.128 139.283 233.128C140.759 233.128 141.763 232.348 142.217 231.3H142.319V233H144.198V223.182H142.281V228.928ZM149.623 233.217C151.247 233.217 152.161 232.393 152.525 231.658H152.602V233H154.469V226.48C154.469 223.623 152.219 223.054 150.659 223.054C148.882 223.054 147.246 223.77 146.606 225.56L148.403 225.969C148.684 225.272 149.4 224.601 150.685 224.601C151.918 224.601 152.551 225.246 152.551 226.359V226.403C152.551 227.1 151.835 227.087 150.071 227.292C148.211 227.509 146.306 227.995 146.306 230.226C146.306 232.156 147.757 233.217 149.623 233.217ZM150.039 231.683C148.959 231.683 148.179 231.197 148.179 230.251C148.179 229.229 149.087 228.864 150.192 228.717C150.812 228.634 152.283 228.468 152.557 228.193V229.459C152.557 230.622 151.631 231.683 150.039 231.683ZM161.597 223.182H159.584V220.83H157.673V223.182H156.234V224.716H157.673V230.513C157.666 232.297 159.028 233.16 160.536 233.128C161.144 233.121 161.553 233.006 161.776 232.923L161.431 231.344C161.303 231.37 161.067 231.428 160.76 231.428C160.14 231.428 159.584 231.223 159.584 230.117V224.716H161.597V223.182ZM163.712 233H165.623V223.182H163.712V233ZM164.677 221.667C165.335 221.667 165.885 221.156 165.885 220.529C165.885 219.903 165.335 219.385 164.677 219.385C164.012 219.385 163.469 219.903 163.469 220.529C163.469 221.156 164.012 221.667 164.677 221.667ZM172.33 233.198C175.097 233.198 176.906 231.172 176.906 228.136C176.906 225.08 175.097 223.054 172.33 223.054C169.562 223.054 167.753 225.08 167.753 228.136C167.753 231.172 169.562 233.198 172.33 233.198ZM172.336 231.594C170.527 231.594 169.683 230.015 169.683 228.129C169.683 226.25 170.527 224.652 172.336 224.652C174.132 224.652 174.976 226.25 174.976 228.129C174.976 230.015 174.132 231.594 172.336 231.594ZM180.951 227.17C180.951 225.604 181.91 224.71 183.239 224.71C184.537 224.71 185.323 225.56 185.323 226.985V233H187.234V226.755C187.234 224.326 185.898 223.054 183.891 223.054C182.415 223.054 181.449 223.738 180.996 224.78H180.874V223.182H179.04V233H180.951V227.17Z" fill="#001632"/>
<path d="M108 190C108.002 186.978 109.52 184.158 112.042 182.493C114.564 180.827 117.753 180.538 120.533 181.723" stroke="#006CFA" stroke-width="2" stroke-linecap="round" stroke-linejoin="round"/>
<path fill-rule="evenodd" clip-rule="evenodd" d="M117 179C120.038 179 122.5 176.538 122.5 173.5C122.5 170.462 120.038 168 117 168C113.962 168 111.5 170.462 111.5 173.5C111.5 176.538 113.962 179 117 179Z" stroke="#006CFA" stroke-width="2" stroke-linecap="round" stroke-linejoin="round"/>
<path d="M133 188H138V182" stroke="#006CFA" stroke-width="2" stroke-linecap="round" stroke-linejoin="round"/>
<path d="M137.748 188C136.822 184.406 133.546 181.922 129.835 181.998C126.125 182.075 122.955 184.693 122.178 188.322C121.401 191.951 123.222 195.638 126.576 197.226C129.93 198.815 133.936 197.889 136.252 194.989" stroke="#006CFA" stroke-width="2" stroke-linecap="round" stroke-linejoin="round"/>
<path d="M100.585 363.166C100.138 360.366 97.9456 358.73 95.1778 358.73C91.79 358.73 89.2907 361.268 89.2907 365.455C89.2907 369.641 91.7773 372.179 95.1778 372.179C98.0542 372.179 100.157 370.376 100.585 367.788L98.5912 367.781C98.2524 369.456 96.8461 370.376 95.1906 370.376C92.947 370.376 91.2531 368.657 91.2531 365.455C91.2531 362.278 92.9406 360.533 95.197 360.533C96.8653 360.533 98.2652 361.472 98.5912 363.166H100.585ZM106.931 372.198C109.699 372.198 111.508 370.172 111.508 367.136C111.508 364.08 109.699 362.054 106.931 362.054C104.163 362.054 102.354 364.08 102.354 367.136C102.354 370.172 104.163 372.198 106.931 372.198ZM106.938 370.594C105.129 370.594 104.285 369.015 104.285 367.129C104.285 365.25 105.129 363.652 106.938 363.652C108.734 363.652 109.578 365.25 109.578 367.129C109.578 369.015 108.734 370.594 106.938 370.594ZM115.552 366.17C115.552 364.604 116.511 363.71 117.841 363.71C119.138 363.71 119.925 364.56 119.925 365.985V372H121.836V365.755C121.836 363.326 120.5 362.054 118.493 362.054C117.016 362.054 116.051 362.738 115.597 363.78H115.476V362.182H113.641V372H115.552V366.17ZM128.982 362.182H126.969V359.83H125.057V362.182H123.619V363.716H125.057V369.513C125.051 371.297 126.413 372.16 127.921 372.128C128.528 372.121 128.937 372.006 129.161 371.923L128.816 370.344C128.688 370.37 128.452 370.428 128.145 370.428C127.525 370.428 126.969 370.223 126.969 369.117V363.716H128.982V362.182ZM135.222 372.198C137.364 372.198 138.879 371.143 139.313 369.545L137.504 369.219C137.159 370.146 136.328 370.619 135.242 370.619C133.605 370.619 132.506 369.558 132.455 367.666H139.435V366.989C139.435 363.441 137.313 362.054 135.088 362.054C132.352 362.054 130.55 364.138 130.55 367.155C130.55 370.204 132.327 372.198 135.222 372.198ZM132.461 366.234C132.538 364.841 133.548 363.633 135.101 363.633C136.584 363.633 137.555 364.732 137.562 366.234H132.461ZM143.467 366.17C143.467 364.604 144.425 363.71 145.755 363.71C147.052 363.71 147.839 364.56 147.839 365.985V372H149.75V365.755C149.75 363.326 148.414 362.054 146.407 362.054C144.93 362.054 143.965 362.738 143.511 363.78H143.39V362.182H141.555V372H143.467V366.17ZM156.896 362.182H154.883V359.83H152.972V362.182H151.533V363.716H152.972V369.513C152.965 371.297 154.327 372.16 155.835 372.128C156.442 372.121 156.851 372.006 157.075 371.923L156.73 370.344C156.602 370.37 156.366 370.428 156.059 370.428C155.439 370.428 154.883 370.223 154.883 369.117V363.716H156.896V362.182Z" fill="#001632"/>
<path d="M309.717 372H311.692V367.046H314.376C314.421 367.046 314.459 367.046 314.504 367.046L317.163 372H319.413L316.511 366.701C318.116 366.107 318.915 364.771 318.915 363.013C318.915 360.603 317.419 358.909 314.383 358.909H309.717V372ZM311.692 365.346V360.603H314.172C316.121 360.603 316.927 361.53 316.927 363.013C316.927 364.489 316.121 365.346 314.197 365.346H311.692ZM325.273 372.198C327.415 372.198 328.929 371.143 329.364 369.545L327.555 369.219C327.21 370.146 326.379 370.619 325.292 370.619C323.656 370.619 322.557 369.558 322.505 367.666H329.486V366.989C329.486 363.441 327.363 362.054 325.139 362.054C322.403 362.054 320.601 364.138 320.601 367.155C320.601 370.204 322.378 372.198 325.273 372.198ZM322.512 366.234C322.589 364.841 323.598 363.633 325.152 363.633C326.635 363.633 327.606 364.732 327.613 366.234H322.512ZM338.963 364.579C338.567 363.051 337.372 362.054 335.25 362.054C333.032 362.054 331.459 363.224 331.459 364.962C331.459 366.356 332.303 367.283 334.144 367.692L335.806 368.056C336.752 368.267 337.193 368.689 337.193 369.303C337.193 370.063 336.381 370.658 335.128 370.658C333.984 370.658 333.249 370.165 333.019 369.2L331.171 369.482C331.491 371.22 332.936 372.198 335.141 372.198C337.512 372.198 339.155 370.939 339.155 369.162C339.155 367.775 338.273 366.918 336.47 366.503L334.911 366.145C333.831 365.889 333.364 365.525 333.37 364.86C333.364 364.106 334.182 363.569 335.269 363.569C336.458 363.569 337.007 364.227 337.231 364.886L338.963 364.579ZM347.476 367.928C347.482 369.597 346.242 370.389 345.168 370.389C343.986 370.389 343.168 369.533 343.168 368.197V362.182H341.256V368.427C341.256 370.862 342.592 372.128 344.478 372.128C345.955 372.128 346.958 371.348 347.412 370.3H347.514V372H349.394V362.182H347.476V367.928ZM352.115 372H353.981V370.472H354.141C354.486 371.099 355.19 372.192 356.979 372.192C359.357 372.192 361.083 370.287 361.083 367.11C361.083 363.927 359.332 362.054 356.96 362.054C355.138 362.054 354.48 363.166 354.141 363.773H354.026V358.909H352.115V372ZM353.988 367.091C353.988 365.039 354.883 363.678 356.551 363.678C358.283 363.678 359.153 365.141 359.153 367.091C359.153 369.06 358.258 370.562 356.551 370.562C354.908 370.562 353.988 369.156 353.988 367.091ZM363.229 372H365.14V365.947C365.14 364.624 366.067 363.703 367.154 363.703C368.215 363.703 368.95 364.406 368.95 365.474V372H370.855V365.742C370.855 364.56 371.577 363.703 372.824 363.703C373.834 363.703 374.665 364.266 374.665 365.595V372H376.576V365.416C376.576 363.173 375.323 362.054 373.546 362.054C372.133 362.054 371.072 362.732 370.599 363.78H370.497C370.069 362.706 369.167 362.054 367.857 362.054C366.559 362.054 365.594 362.7 365.185 363.78H365.064V362.182H363.229V372ZM379.137 372H381.049V362.182H379.137V372ZM380.103 360.667C380.761 360.667 381.311 360.156 381.311 359.529C381.311 358.903 380.761 358.385 380.103 358.385C379.438 358.385 378.894 358.903 378.894 359.529C378.894 360.156 379.438 360.667 380.103 360.667ZM390.977 364.579C390.581 363.051 389.385 362.054 387.263 362.054C385.045 362.054 383.473 363.224 383.473 364.962C383.473 366.356 384.316 367.283 386.157 367.692L387.819 368.056C388.765 368.267 389.206 368.689 389.206 369.303C389.206 370.063 388.395 370.658 387.142 370.658C385.998 370.658 385.263 370.165 385.032 369.2L383.185 369.482C383.505 371.22 384.949 372.198 387.155 372.198C389.526 372.198 391.169 370.939 391.169 369.162C391.169 367.775 390.287 366.918 388.484 366.503L386.924 366.145C385.844 365.889 385.378 365.525 385.384 364.86C385.378 364.106 386.196 363.569 387.282 363.569C388.471 363.569 389.021 364.227 389.245 364.886L390.977 364.579ZM400.627 364.579C400.231 363.051 399.036 362.054 396.914 362.054C394.696 362.054 393.123 363.224 393.123 364.962C393.123 366.356 393.967 367.283 395.808 367.692L397.47 368.056C398.416 368.267 398.857 368.689 398.857 369.303C398.857 370.063 398.045 370.658 396.792 370.658C395.648 370.658 394.913 370.165 394.683 369.2L392.835 369.482C393.155 371.22 394.6 372.198 396.805 372.198C399.176 372.198 400.819 370.939 400.819 369.162C400.819 367.775 399.937 366.918 398.134 366.503L396.575 366.145C395.495 365.889 395.028 365.525 395.034 364.86C395.028 364.106 395.846 363.569 396.933 363.569C398.122 363.569 398.671 364.227 398.895 364.886L400.627 364.579ZM402.921 372H404.832V362.182H402.921V372ZM403.886 360.667C404.544 360.667 405.094 360.156 405.094 359.529C405.094 358.903 404.544 358.385 403.886 358.385C403.221 358.385 402.678 358.903 402.678 359.529C402.678 360.156 403.221 360.667 403.886 360.667ZM411.539 372.198C414.306 372.198 416.115 370.172 416.115 367.136C416.115 364.08 414.306 362.054 411.539 362.054C408.771 362.054 406.962 364.08 406.962 367.136C406.962 370.172 408.771 372.198 411.539 372.198ZM411.545 370.594C409.736 370.594 408.892 369.015 408.892 367.129C408.892 365.25 409.736 363.652 411.545 363.652C413.341 363.652 414.185 365.25 414.185 367.129C414.185 369.015 413.341 370.594 411.545 370.594ZM420.16 366.17C420.16 364.604 421.119 363.71 422.448 363.71C423.746 363.71 424.532 364.56 424.532 365.985V372H426.443V365.755C426.443 363.326 425.107 362.054 423.1 362.054C421.624 362.054 420.658 362.738 420.205 363.78H420.083V362.182H418.249V372H420.16V366.17Z" fill="#001632"/>
<path d="M371.75 320.731V325.731L368 326.981L364.25 325.731V320.731" stroke="#006CFA" stroke-width="2" stroke-linecap="round" stroke-linejoin="round"/>
<path fill-rule="evenodd" clip-rule="evenodd" d="M375.5 319.481L368 316.981L360.5 319.481L368 321.981L375.5 319.481V319.481Z" stroke="#006CFA" stroke-width="2" stroke-linecap="round" stroke-linejoin="round"/>
<path d="M360.5 319.481V323.715" stroke="#006CFA" stroke-width="2" stroke-linecap="round" stroke-linejoin="round"/>
<path d="M379.981 322.647C380.257 317.679 377.439 313.057 372.898 311.027C368.356 308.996 363.032 309.978 359.515 313.496L358.808 314.203" stroke="#006CFA" stroke-width="2" stroke-linecap="round" stroke-linejoin="round"/>
<path d="M356.019 321.316C355.743 326.283 358.561 330.906 363.102 332.936C367.644 334.967 372.967 333.984 376.485 330.467L377.192 329.759" stroke="#006CFA" stroke-width="2" stroke-linecap="round" stroke-linejoin="round"/>
<path d="M372.949 329.759H377.192V334.001" stroke="#006CFA" stroke-width="2" stroke-linecap="round" stroke-linejoin="round"/>
<path d="M363.051 314.203H358.808V309.96" stroke="#006CFA" stroke-width="2" stroke-linecap="round" stroke-linejoin="round"/>
<path d="M556.445 372H558.42V367.398H561.105C564.141 367.398 565.643 365.563 565.643 363.147C565.643 360.737 564.154 358.909 561.111 358.909H556.445V372ZM558.42 365.723V360.603H560.9C562.856 360.603 563.655 361.664 563.655 363.147C563.655 364.63 562.856 365.723 560.926 365.723H558.42ZM567.805 372H569.717V366.004C569.717 364.719 570.707 363.793 572.062 363.793C572.459 363.793 572.906 363.863 573.06 363.908V362.08C572.868 362.054 572.491 362.035 572.248 362.035C571.097 362.035 570.113 362.687 569.755 363.741H569.653V362.182H567.805V372ZM578.593 372.198C580.735 372.198 582.25 371.143 582.684 369.545L580.875 369.219C580.53 370.146 579.699 370.619 578.613 370.619C576.976 370.619 575.877 369.558 575.826 367.666H582.806V366.989C582.806 363.441 580.684 362.054 578.459 362.054C575.723 362.054 573.921 364.138 573.921 367.155C573.921 370.204 575.698 372.198 578.593 372.198ZM575.832 366.234C575.909 364.841 576.919 363.633 578.472 363.633C579.955 363.633 580.927 364.732 580.933 366.234H575.832ZM592.284 364.579C591.887 363.051 590.692 362.054 588.57 362.054C586.352 362.054 584.779 363.224 584.779 364.962C584.779 366.356 585.623 367.283 587.464 367.692L589.126 368.056C590.072 368.267 590.513 368.689 590.513 369.303C590.513 370.063 589.701 370.658 588.448 370.658C587.304 370.658 586.569 370.165 586.339 369.2L584.492 369.482C584.811 371.22 586.256 372.198 588.461 372.198C590.833 372.198 592.475 370.939 592.475 369.162C592.475 367.775 591.593 366.918 589.791 366.503L588.231 366.145C587.151 365.889 586.684 365.525 586.691 364.86C586.684 364.106 587.502 363.569 588.589 363.569C589.778 363.569 590.328 364.227 590.551 364.886L592.284 364.579ZM598.808 372.198C600.95 372.198 602.465 371.143 602.899 369.545L601.09 369.219C600.745 370.146 599.914 370.619 598.828 370.619C597.191 370.619 596.092 369.558 596.041 367.666H603.021V366.989C603.021 363.441 600.899 362.054 598.674 362.054C595.938 362.054 594.136 364.138 594.136 367.155C594.136 370.204 595.913 372.198 598.808 372.198ZM596.047 366.234C596.124 364.841 597.134 363.633 598.687 363.633C600.17 363.633 601.141 364.732 601.148 366.234H596.047ZM607.052 366.17C607.052 364.604 608.011 363.71 609.341 363.71C610.638 363.71 611.425 364.56 611.425 365.985V372H613.336V365.755C613.336 363.326 612 362.054 609.993 362.054C608.516 362.054 607.551 362.738 607.097 363.78H606.976V362.182H605.141V372H607.052V366.17ZM620.482 362.182H618.469V359.83H616.557V362.182H615.119V363.716H616.557V369.513C616.551 371.297 617.913 372.16 619.421 372.128C620.028 372.121 620.437 372.006 620.661 371.923L620.316 370.344C620.188 370.37 619.952 370.428 619.645 370.428C619.025 370.428 618.469 370.223 618.469 369.117V363.716H620.482V362.182ZM625.454 372.217C627.077 372.217 627.991 371.393 628.356 370.658H628.432V372H630.299V365.48C630.299 362.623 628.049 362.054 626.489 362.054C624.712 362.054 623.076 362.77 622.437 364.56L624.233 364.969C624.514 364.272 625.23 363.601 626.515 363.601C627.748 363.601 628.381 364.246 628.381 365.359V365.403C628.381 366.1 627.665 366.087 625.901 366.292C624.041 366.509 622.136 366.995 622.136 369.226C622.136 371.156 623.587 372.217 625.454 372.217ZM625.869 370.683C624.789 370.683 624.009 370.197 624.009 369.251C624.009 368.229 624.917 367.864 626.022 367.717C626.642 367.634 628.113 367.468 628.388 367.193V368.459C628.388 369.622 627.461 370.683 625.869 370.683ZM637.427 362.182H635.414V359.83H633.503V362.182H632.065V363.716H633.503V369.513C633.496 371.297 634.858 372.16 636.366 372.128C636.974 372.121 637.383 372.006 637.606 371.923L637.261 370.344C637.133 370.37 636.897 370.428 636.59 370.428C635.97 370.428 635.414 370.223 635.414 369.117V363.716H637.427V362.182ZM639.542 372H641.453V362.182H639.542V372ZM640.507 360.667C641.165 360.667 641.715 360.156 641.715 359.529C641.715 358.903 641.165 358.385 640.507 358.385C639.842 358.385 639.299 358.903 639.299 359.529C639.299 360.156 639.842 360.667 640.507 360.667ZM648.16 372.198C650.927 372.198 652.736 370.172 652.736 367.136C652.736 364.08 650.927 362.054 648.16 362.054C645.392 362.054 643.583 364.08 643.583 367.136C643.583 370.172 645.392 372.198 648.16 372.198ZM648.166 370.594C646.357 370.594 645.513 369.015 645.513 367.129C645.513 365.25 646.357 363.652 648.166 363.652C649.962 363.652 650.806 365.25 650.806 367.129C650.806 369.015 649.962 370.594 648.166 370.594ZM656.781 366.17C656.781 364.604 657.74 363.71 659.069 363.71C660.367 363.71 661.153 364.56 661.153 365.985V372H663.064V365.755C663.064 363.326 661.728 362.054 659.721 362.054C658.245 362.054 657.28 362.738 656.826 363.78H656.704V362.182H654.87V372H656.781V366.17ZM672.985 364.579C672.589 363.051 671.393 362.054 669.271 362.054C667.053 362.054 665.481 363.224 665.481 364.962C665.481 366.356 666.324 367.283 668.165 367.692L669.827 368.056C670.773 368.267 671.214 368.689 671.214 369.303C671.214 370.063 670.402 370.658 669.15 370.658C668.005 370.658 667.27 370.165 667.04 369.2L665.193 369.482C665.513 371.22 666.957 372.198 669.162 372.198C671.534 372.198 673.177 370.939 673.177 369.162C673.177 367.775 672.294 366.918 670.492 366.503L668.932 366.145C667.852 365.889 667.385 365.525 667.392 364.86C667.385 364.106 668.204 363.569 669.29 363.569C670.479 363.569 671.029 364.227 671.253 364.886L672.985 364.579Z" fill="#001632"/>
<path fill-rule="evenodd" clip-rule="evenodd" d="M605 315C607.209 315 609 313.209 609 311C609 308.791 607.209 307 605 307C602.791 307 601 308.791 601 311C601 313.209 602.791 315 605 315Z" stroke="#006CFA" stroke-width="2" stroke-linecap="round" stroke-linejoin="round"/>
<path d="M605 317V325" stroke="#006CFA" stroke-width="2" stroke-linecap="round" stroke-linejoin="round"/>
<path fill-rule="evenodd" clip-rule="evenodd" d="M608 337L609 327H611V323C611 319.686 608.314 317 605 317C601.686 317 599 319.686 599 323V327H601L602 337H608Z" stroke="#006CFA" stroke-width="2" stroke-linecap="round" stroke-linejoin="round"/>
<path d="M629 307H613" stroke="#006CFA" stroke-width="2" stroke-linecap="round" stroke-linejoin="round"/>
<path d="M615 328H629" stroke="#006CFA" stroke-width="2" stroke-linecap="round" stroke-linejoin="round"/>
<path d="M626 313L620 321L616 317" stroke="#006CFA" stroke-width="2" stroke-linecap="round" stroke-linejoin="round"/>
<path d="M80.9623 511C84.9509 511 87.2584 508.526 87.2584 504.435C87.2584 500.364 84.9509 497.909 81.0965 497.909H76.7243V511H80.9623ZM78.6995 509.274V499.635H80.9751C83.8387 499.635 85.3153 501.348 85.3153 504.435C85.3153 507.536 83.8387 509.274 80.8536 509.274H78.6995ZM89.5612 511H91.4724V501.182H89.5612V511ZM90.5264 499.667C91.1847 499.667 91.7345 499.156 91.7345 498.529C91.7345 497.903 91.1847 497.385 90.5264 497.385C89.8616 497.385 89.3183 497.903 89.3183 498.529C89.3183 499.156 89.8616 499.667 90.5264 499.667ZM101.401 503.579C101.005 502.051 99.8092 501.054 97.6871 501.054C95.469 501.054 93.8966 502.224 93.8966 503.962C93.8966 505.356 94.7403 506.283 96.5812 506.692L98.2432 507.056C99.1892 507.267 99.6302 507.689 99.6302 508.303C99.6302 509.063 98.8184 509.658 97.5656 509.658C96.4214 509.658 95.6863 509.165 95.4562 508.2L93.6089 508.482C93.9285 510.22 95.3731 511.198 97.5784 511.198C99.9498 511.198 101.593 509.939 101.593 508.162C101.593 506.775 100.71 505.918 98.9079 505.503L97.3483 505.145C96.268 504.889 95.8014 504.525 95.8078 503.86C95.8014 503.106 96.6196 502.569 97.7062 502.569C98.8952 502.569 99.4449 503.227 99.6686 503.886L101.401 503.579ZM107.83 511.198C110.15 511.198 111.652 509.805 111.863 507.893H110.003C109.76 508.955 108.935 509.581 107.842 509.581C106.225 509.581 105.183 508.232 105.183 506.091C105.183 503.988 106.244 502.665 107.842 502.665C109.057 502.665 109.798 503.432 110.003 504.352H111.863C111.658 502.371 110.041 501.054 107.81 501.054C105.043 501.054 103.253 503.138 103.253 506.136C103.253 509.095 104.979 511.198 107.83 511.198ZM120.126 506.928C120.133 508.597 118.893 509.389 117.819 509.389C116.636 509.389 115.818 508.533 115.818 507.197V501.182H113.907V507.427C113.907 509.862 115.243 511.128 117.128 511.128C118.605 511.128 119.609 510.348 120.062 509.3H120.165V511H122.044V501.182H120.126V506.928ZM131.969 503.579C131.573 502.051 130.378 501.054 128.255 501.054C126.037 501.054 124.465 502.224 124.465 503.962C124.465 505.356 125.309 506.283 127.15 506.692L128.812 507.056C129.758 507.267 130.199 507.689 130.199 508.303C130.199 509.063 129.387 509.658 128.134 509.658C126.99 509.658 126.255 509.165 126.025 508.2L124.177 508.482C124.497 510.22 125.941 511.198 128.147 511.198C130.518 511.198 132.161 509.939 132.161 508.162C132.161 506.775 131.279 505.918 129.476 505.503L127.917 505.145C126.836 504.889 126.37 504.525 126.376 503.86C126.37 503.106 127.188 502.569 128.275 502.569C129.464 502.569 130.013 503.227 130.237 503.886L131.969 503.579ZM141.62 503.579C141.223 502.051 140.028 501.054 137.906 501.054C135.688 501.054 134.115 502.224 134.115 503.962C134.115 505.356 134.959 506.283 136.8 506.692L138.462 507.056C139.408 507.267 139.849 507.689 139.849 508.303C139.849 509.063 139.037 509.658 137.784 509.658C136.64 509.658 135.905 509.165 135.675 508.2L133.828 508.482C134.147 510.22 135.592 511.198 137.797 511.198C140.169 511.198 141.811 509.939 141.811 508.162C141.811 506.775 140.929 505.918 139.127 505.503L137.567 505.145C136.487 504.889 136.02 504.525 136.027 503.86C136.02 503.106 136.838 502.569 137.925 502.569C139.114 502.569 139.664 503.227 139.887 503.886L141.62 503.579ZM143.913 511H145.824V501.182H143.913V511ZM144.878 499.667C145.536 499.667 146.086 499.156 146.086 498.529C146.086 497.903 145.536 497.385 144.878 497.385C144.213 497.385 143.67 497.903 143.67 498.529C143.67 499.156 144.213 499.667 144.878 499.667ZM152.531 511.198C155.299 511.198 157.108 509.172 157.108 506.136C157.108 503.08 155.299 501.054 152.531 501.054C149.763 501.054 147.954 503.08 147.954 506.136C147.954 509.172 149.763 511.198 152.531 511.198ZM152.537 509.594C150.728 509.594 149.884 508.015 149.884 506.129C149.884 504.25 150.728 502.652 152.537 502.652C154.333 502.652 155.177 504.25 155.177 506.129C155.177 508.015 154.333 509.594 152.537 509.594ZM161.152 505.17C161.152 503.604 162.111 502.71 163.44 502.71C164.738 502.71 165.524 503.56 165.524 504.985V511H167.435V504.755C167.435 502.326 166.1 501.054 164.092 501.054C162.616 501.054 161.651 501.738 161.197 502.78H161.075V501.182H159.241V511H161.152V505.17Z" fill="#001632"/>
<path fill-rule="evenodd" clip-rule="evenodd" d="M136 456H125L123 457.999L121 455.999H110C108.895 455.999 108 455.103 108 453.999V448C108 446.895 108.895 446 110 446H136C137.105 446 138 446.895 138 448V454C138 455.105 137.105 456 136 456Z" stroke="#006CFA" stroke-width="2" stroke-linecap="round" stroke-linejoin="round"/>
<path fill-rule="evenodd" clip-rule="evenodd" d="M111.5 471C113.433 471 115 469.433 115 467.5C115 465.567 113.433 464 111.5 464C109.567 464 108 465.567 108 467.5C108 469.433 109.567 471 111.5 471Z" stroke="#006CFA" stroke-width="2" stroke-linecap="round" stroke-linejoin="round"/>
<path d="M117.019 475.644C116.302 473.971 114.865 472.713 113.112 472.225C111.358 471.736 109.478 472.071 108 473.133" stroke="#006CFA" stroke-width="2" stroke-linecap="round" stroke-linejoin="round"/>
<path fill-rule="evenodd" clip-rule="evenodd" d="M134.5 471C136.433 471 138 469.433 138 467.5C138 465.567 136.433 464 134.5 464C132.567 464 131 465.567 131 467.5C131 469.433 132.567 471 134.5 471Z" stroke="#006CFA" stroke-width="2" stroke-linecap="round" stroke-linejoin="round"/>
<path d="M128.981 475.644C129.698 473.971 131.135 472.713 132.888 472.225C134.642 471.736 136.522 472.071 138 473.133" stroke="#006CFA" stroke-width="2" stroke-linecap="round" stroke-linejoin="round"/>
<path fill-rule="evenodd" clip-rule="evenodd" d="M123 471C125.485 471 127.5 468.985 127.5 466.5C127.5 464.015 125.485 462 123 462C120.515 462 118.5 464.015 118.5 466.5C118.5 468.985 120.515 471 123 471Z" stroke="#006CFA" stroke-width="2" stroke-linecap="round" stroke-linejoin="round"/>
<path d="M129.285 475.999C127.75 474.102 125.44 473 122.999 473C120.559 473 118.249 474.102 116.713 475.999" stroke="#006CFA" stroke-width="2" stroke-linecap="round" stroke-linejoin="round"/>
<path d="M361.833 504.455C361.833 500.268 359.327 497.73 355.94 497.73C352.539 497.73 350.04 500.268 350.04 504.455C350.04 508.635 352.539 511.179 355.94 511.179C356.783 511.179 357.57 511.026 358.273 510.725L359.391 512.176H361.411L359.647 509.875C361.002 508.731 361.833 506.864 361.833 504.455ZM355.275 506.756L357.135 509.197C356.764 509.319 356.362 509.376 355.94 509.376C353.683 509.376 352.002 507.644 352.002 504.455C352.002 501.265 353.683 499.533 355.94 499.533C358.19 499.533 359.877 501.265 359.877 504.455C359.877 506.244 359.347 507.58 358.477 508.398L357.218 506.756H355.275ZM370.362 506.928C370.368 508.597 369.128 509.389 368.054 509.389C366.872 509.389 366.053 508.533 366.053 507.197V501.182H364.142V507.427C364.142 509.862 365.478 511.128 367.364 511.128C368.84 511.128 369.844 510.348 370.298 509.3H370.4V511H372.279V501.182H370.362V506.928ZM374.847 511H376.759V501.182H374.847V511ZM375.812 499.667C376.471 499.667 377.021 499.156 377.021 498.529C377.021 497.903 376.471 497.385 375.812 497.385C375.148 497.385 374.604 497.903 374.604 498.529C374.604 499.156 375.148 499.667 375.812 499.667ZM379.125 511H387.007V509.338H381.714V509.249L386.828 502.575V501.182H379.298V502.844H384.443V502.933L379.125 509.69V511Z" fill="#001632"/>
<path d="M359 472H355C353.895 472 353 471.105 353 470V448C353 446.895 353.895 446 355 446H369.172C369.702 446 370.21 446.211 370.585 446.585L374.415 450.415C374.789 450.79 375 451.298 375 451.828V458" stroke="#006CFA" stroke-width="2" stroke-linecap="round" stroke-linejoin="round"/>
<path d="M379 468.444V474.556L374 476L369 474.556V468.444" stroke="#006CFA" stroke-width="2" stroke-linecap="round" stroke-linejoin="round"/>
<path fill-rule="evenodd" clip-rule="evenodd" d="M383 467.2L374 463.92L365 467.2L374 470L383 467.2V467.2Z" stroke="#006CFA" stroke-width="2" stroke-linecap="round" stroke-linejoin="round"/>
<path d="M365 467.2V471.667" stroke="#006CFA" stroke-width="2" stroke-linecap="round" stroke-linejoin="round"/>
<path d="M357 451H359" stroke="#006CFA" stroke-width="2" stroke-linecap="round" stroke-linejoin="round"/>
<path d="M363 451H369" stroke="#006CFA" stroke-width="2" stroke-linecap="round" stroke-linejoin="round"/>
<path d="M357 456H359" stroke="#006CFA" stroke-width="2" stroke-linecap="round" stroke-linejoin="round"/>
<path d="M363 456H369" stroke="#006CFA" stroke-width="2" stroke-linecap="round" stroke-linejoin="round"/>
<path d="M357 461H359" stroke="#006CFA" stroke-width="2" stroke-linecap="round" stroke-linejoin="round"/>
<path d="M357 466H359" stroke="#006CFA" stroke-width="2" stroke-linecap="round" stroke-linejoin="round"/>
<path d="M363 461H369" stroke="#006CFA" stroke-width="2" stroke-linecap="round" stroke-linejoin="round"/>
<path d="M309.365 224.045H311.391C310.95 221.494 308.771 219.73 305.945 219.73C302.557 219.73 300.084 222.281 300.084 226.461C300.084 230.603 302.487 233.179 306.035 233.179C309.212 233.179 311.481 231.095 311.481 227.79V226.301H306.335V227.931H309.57C309.525 230.04 308.131 231.376 306.035 231.376C303.727 231.376 302.046 229.631 302.046 226.448C302.046 223.278 303.74 221.533 305.958 221.533C307.697 221.533 308.873 222.491 309.365 224.045ZM313.835 233H315.746V227.004C315.746 225.719 316.737 224.793 318.092 224.793C318.488 224.793 318.935 224.863 319.089 224.908V223.08C318.897 223.054 318.52 223.035 318.277 223.035C317.127 223.035 316.142 223.687 315.784 224.741H315.682V223.182H313.835V233ZM324.527 233.198C327.295 233.198 329.104 231.172 329.104 228.136C329.104 225.08 327.295 223.054 324.527 223.054C321.759 223.054 319.95 225.08 319.95 228.136C319.95 231.172 321.759 233.198 324.527 233.198ZM324.533 231.594C322.724 231.594 321.881 230.015 321.881 228.129C321.881 226.25 322.724 224.652 324.533 224.652C326.329 224.652 327.173 226.25 327.173 228.129C327.173 230.015 326.329 231.594 324.533 231.594ZM337.456 228.928C337.463 230.597 336.223 231.389 335.149 231.389C333.966 231.389 333.148 230.533 333.148 229.197V223.182H331.237V229.427C331.237 231.862 332.573 233.128 334.459 233.128C335.935 233.128 336.939 232.348 337.392 231.3H337.495V233H339.374V223.182H337.456V228.928ZM341.942 236.682H343.853V231.472H343.968C344.313 232.099 345.017 233.192 346.806 233.192C349.184 233.192 350.91 231.287 350.91 228.11C350.91 224.927 349.159 223.054 346.787 223.054C344.965 223.054 344.307 224.166 343.968 224.773H343.809V223.182H341.942V236.682ZM343.815 228.091C343.815 226.039 344.71 224.678 346.378 224.678C348.11 224.678 348.98 226.141 348.98 228.091C348.98 230.06 348.085 231.562 346.378 231.562C344.735 231.562 343.815 230.156 343.815 228.091ZM362.488 223.182H360.372V222.3C360.372 221.43 360.73 220.957 361.663 220.957C362.059 220.957 362.341 221.047 362.52 221.104L362.967 219.558C362.699 219.455 362.142 219.295 361.369 219.295C359.816 219.295 358.454 220.203 358.454 222.044V223.182H356.939V224.716H358.454V233H360.372V224.716H362.488V223.182ZM368.304 233.198C370.446 233.198 371.961 232.143 372.395 230.545L370.586 230.219C370.241 231.146 369.41 231.619 368.324 231.619C366.687 231.619 365.588 230.558 365.537 228.666H372.517V227.989C372.517 224.441 370.395 223.054 368.17 223.054C365.434 223.054 363.632 225.138 363.632 228.155C363.632 231.204 365.409 233.198 368.304 233.198ZM365.543 227.234C365.62 225.841 366.63 224.633 368.183 224.633C369.666 224.633 370.638 225.732 370.644 227.234H365.543ZM378.869 233.198C381.01 233.198 382.525 232.143 382.96 230.545L381.151 230.219C380.806 231.146 379.975 231.619 378.888 231.619C377.252 231.619 376.152 230.558 376.101 228.666H383.081V227.989C383.081 224.441 380.959 223.054 378.735 223.054C375.999 223.054 374.196 225.138 374.196 228.155C374.196 231.204 375.973 233.198 378.869 233.198ZM376.108 227.234C376.184 225.841 377.194 224.633 378.747 224.633C380.23 224.633 381.202 225.732 381.208 227.234H376.108ZM388.877 233.192C390.667 233.192 391.37 232.099 391.715 231.472H391.875V233H393.742V219.909H391.83V224.773H391.715C391.37 224.166 390.718 223.054 388.89 223.054C386.519 223.054 384.774 224.927 384.774 228.11C384.774 231.287 386.493 233.192 388.877 233.192ZM389.299 231.562C387.592 231.562 386.704 230.06 386.704 228.091C386.704 226.141 387.573 224.678 389.299 224.678C390.967 224.678 391.862 226.039 391.862 228.091C391.862 230.156 390.948 231.562 389.299 231.562ZM396.623 233H398.489V231.472H398.649C398.994 232.099 399.697 233.192 401.487 233.192C403.865 233.192 405.591 231.287 405.591 228.11C405.591 224.927 403.839 223.054 401.468 223.054C399.646 223.054 398.988 224.166 398.649 224.773H398.534V219.909H396.623V233ZM398.496 228.091C398.496 226.039 399.391 224.678 401.059 224.678C402.791 224.678 403.66 226.141 403.66 228.091C403.66 230.06 402.766 231.562 401.059 231.562C399.416 231.562 398.496 230.156 398.496 228.091ZM410.594 233.217C412.218 233.217 413.132 232.393 413.496 231.658H413.573V233H415.439V226.48C415.439 223.623 413.189 223.054 411.63 223.054C409.853 223.054 408.216 223.77 407.577 225.56L409.373 225.969C409.655 225.272 410.37 224.601 411.655 224.601C412.889 224.601 413.522 225.246 413.522 226.359V226.403C413.522 227.1 412.806 227.087 411.042 227.292C409.182 227.509 407.277 227.995 407.277 230.226C407.277 232.156 408.728 233.217 410.594 233.217ZM411.01 231.683C409.929 231.683 409.15 231.197 409.15 230.251C409.15 229.229 410.057 228.864 411.163 228.717C411.783 228.634 413.253 228.468 413.528 228.193V229.459C413.528 230.622 412.601 231.683 411.01 231.683ZM422.121 233.198C424.441 233.198 425.943 231.805 426.154 229.893H424.294C424.051 230.955 423.226 231.581 422.133 231.581C420.516 231.581 419.474 230.232 419.474 228.091C419.474 225.988 420.535 224.665 422.133 224.665C423.348 224.665 424.089 225.432 424.294 226.352H426.154C425.949 224.371 424.332 223.054 422.101 223.054C419.334 223.054 417.544 225.138 417.544 228.136C417.544 231.095 419.27 233.198 422.121 233.198ZM428.198 233H430.109V229.516L431.062 228.564L434.398 233H436.744L432.5 227.394L436.476 223.182H434.187L430.275 227.337H430.109V219.909H428.198V233Z" fill="#001632"/>
<path fill-rule="evenodd" clip-rule="evenodd" d="M368 193C369.933 193 371.5 191.433 371.5 189.5C371.5 187.567 369.933 186 368 186C366.067 186 364.5 187.567 364.5 189.5C364.5 191.433 366.067 193 368 193Z" stroke="#006CFA" stroke-width="2" stroke-linecap="round" stroke-linejoin="round"/>
<path d="M373.632 198C372.796 195.605 370.537 194.001 368 194.001C365.463 194.001 363.204 195.605 362.368 198" stroke="#006CFA" stroke-width="2" stroke-linecap="round" stroke-linejoin="round"/>
<path fill-rule="evenodd" clip-rule="evenodd" d="M358.632 175C360.565 175 362.132 173.433 362.132 171.5C362.132 169.567 360.565 168 358.632 168C356.699 168 355.132 169.567 355.132 171.5C355.132 173.433 356.699 175 358.632 175Z" stroke="#006CFA" stroke-width="2" stroke-linecap="round" stroke-linejoin="round"/>
<path fill-rule="evenodd" clip-rule="evenodd" d="M364.267 180C363.431 177.604 361.171 175.999 358.634 175.999C356.096 175.999 353.837 177.604 353.001 180H364.267Z" stroke="#006CFA" stroke-width="2" stroke-linecap="round" stroke-linejoin="round"/>
<path fill-rule="evenodd" clip-rule="evenodd" d="M377.368 175C379.301 175 380.868 173.433 380.868 171.5C380.868 169.567 379.301 168 377.368 168C375.435 168 373.868 169.567 373.868 171.5C373.868 173.433 375.435 175 377.368 175Z" stroke="#006CFA" stroke-width="2" stroke-linecap="round" stroke-linejoin="round"/>
<path fill-rule="evenodd" clip-rule="evenodd" d="M383 180C382.164 177.604 379.904 175.999 377.367 175.999C374.83 175.999 372.57 177.604 371.734 180H383Z" stroke="#006CFA" stroke-width="2" stroke-linecap="round" stroke-linejoin="round"/>
<path d="M357 184V189C357 190.657 358.343 192 360 192H361" stroke="#006CFA" stroke-width="2" stroke-linecap="round" stroke-linejoin="round"/>
<path d="M379 184V189C379 190.657 377.657 192 376 192H375" stroke="#006CFA" stroke-width="2" stroke-linecap="round" stroke-linejoin="round"/>
<path d="M537.896 221.609H541.974V233H543.943V221.609H548.028V219.909H537.896V221.609ZM552.921 233.198C555.062 233.198 556.577 232.143 557.012 230.545L555.203 230.219C554.857 231.146 554.026 231.619 552.94 231.619C551.303 231.619 550.204 230.558 550.153 228.666H557.133V227.989C557.133 224.441 555.011 223.054 552.786 223.054C550.051 223.054 548.248 225.138 548.248 228.155C548.248 231.204 550.025 233.198 552.921 233.198ZM550.159 227.234C550.236 225.841 551.246 224.633 552.799 224.633C554.282 224.633 555.254 225.732 555.26 227.234H550.159ZM562.111 233.217C563.734 233.217 564.648 232.393 565.013 231.658H565.089V233H566.956V226.48C566.956 223.623 564.706 223.054 563.146 223.054C561.369 223.054 559.733 223.77 559.094 225.56L560.89 225.969C561.171 225.272 561.887 224.601 563.172 224.601C564.406 224.601 565.038 225.246 565.038 226.359V226.403C565.038 227.1 564.322 227.087 562.558 227.292C560.698 227.509 558.793 227.995 558.793 230.226C558.793 232.156 560.244 233.217 562.111 233.217ZM562.526 231.683C561.446 231.683 560.666 231.197 560.666 230.251C560.666 229.229 561.574 228.864 562.68 228.717C563.3 228.634 564.77 228.468 565.045 228.193V229.459C565.045 230.622 564.118 231.683 562.526 231.683ZM573.637 233.198C575.958 233.198 577.46 231.805 577.671 229.893H575.811C575.568 230.955 574.743 231.581 573.65 231.581C572.033 231.581 570.991 230.232 570.991 228.091C570.991 225.988 572.052 224.665 573.65 224.665C574.865 224.665 575.606 225.432 575.811 226.352H577.671C577.466 224.371 575.849 223.054 573.618 223.054C570.85 223.054 569.061 225.138 569.061 228.136C569.061 231.095 570.786 233.198 573.637 233.198ZM581.626 227.17C581.626 225.604 582.616 224.71 583.978 224.71C585.295 224.71 586.081 225.547 586.081 226.985V233H587.992V226.755C587.992 224.307 586.65 223.054 584.63 223.054C583.102 223.054 582.182 223.719 581.722 224.78H581.6V219.909H579.714V233H581.626V227.17ZM594.774 233.198C596.915 233.198 598.43 232.143 598.865 230.545L597.056 230.219C596.711 231.146 595.88 231.619 594.793 231.619C593.157 231.619 592.058 230.558 592.006 228.666H598.987V227.989C598.987 224.441 596.864 223.054 594.64 223.054C591.904 223.054 590.102 225.138 590.102 228.155C590.102 231.204 591.879 233.198 594.774 233.198ZM592.013 227.234C592.089 225.841 593.099 224.633 594.653 224.633C596.136 224.633 597.107 225.732 597.114 227.234H592.013ZM601.107 233H603.018V227.004C603.018 225.719 604.009 224.793 605.364 224.793C605.76 224.793 606.208 224.863 606.361 224.908V223.08C606.17 223.054 605.792 223.035 605.55 223.035C604.399 223.035 603.415 223.687 603.057 224.741H602.954V223.182H601.107V233ZM617.452 223.182H615.336V222.3C615.336 221.43 615.694 220.957 616.627 220.957C617.023 220.957 617.305 221.047 617.483 221.104L617.931 219.558C617.662 219.455 617.106 219.295 616.333 219.295C614.78 219.295 613.418 220.203 613.418 222.044V223.182H611.903V224.716H613.418V233H615.336V224.716H617.452V223.182ZM623.268 233.198C625.41 233.198 626.925 232.143 627.359 230.545L625.55 230.219C625.205 231.146 624.374 231.619 623.287 231.619C621.651 231.619 620.552 230.558 620.501 228.666H627.481V227.989C627.481 224.441 625.358 223.054 623.134 223.054C620.398 223.054 618.596 225.138 618.596 228.155C618.596 231.204 620.373 233.198 623.268 233.198ZM620.507 227.234C620.584 225.841 621.594 224.633 623.147 224.633C624.63 224.633 625.601 225.732 625.608 227.234H620.507ZM633.833 233.198C635.974 233.198 637.489 232.143 637.924 230.545L636.115 230.219C635.77 231.146 634.939 231.619 633.852 231.619C632.216 231.619 631.116 230.558 631.065 228.666H638.045V227.989C638.045 224.441 635.923 223.054 633.699 223.054C630.963 223.054 629.16 225.138 629.16 228.155C629.16 231.204 630.937 233.198 633.833 233.198ZM631.071 227.234C631.148 225.841 632.158 224.633 633.711 224.633C635.194 224.633 636.166 225.732 636.172 227.234H631.071ZM643.841 233.192C645.631 233.192 646.334 232.099 646.679 231.472H646.839V233H648.705V219.909H646.794V224.773H646.679C646.334 224.166 645.682 223.054 643.854 223.054C641.482 223.054 639.737 224.927 639.737 228.11C639.737 231.287 641.457 233.192 643.841 233.192ZM644.263 231.562C642.556 231.562 641.668 230.06 641.668 228.091C641.668 226.141 642.537 224.678 644.263 224.678C645.931 224.678 646.826 226.039 646.826 228.091C646.826 230.156 645.912 231.562 644.263 231.562ZM651.587 233H653.453V231.472H653.613C653.958 232.099 654.661 233.192 656.451 233.192C658.829 233.192 660.555 231.287 660.555 228.11C660.555 224.927 658.803 223.054 656.432 223.054C654.61 223.054 653.952 224.166 653.613 224.773H653.498V219.909H651.587V233ZM653.46 228.091C653.46 226.039 654.354 224.678 656.023 224.678C657.755 224.678 658.624 226.141 658.624 228.091C658.624 230.06 657.729 231.562 656.023 231.562C654.38 231.562 653.46 230.156 653.46 228.091ZM665.558 233.217C667.182 233.217 668.096 232.393 668.46 231.658H668.537V233H670.403V226.48C670.403 223.623 668.153 223.054 666.594 223.054C664.817 223.054 663.18 223.77 662.541 225.56L664.337 225.969C664.618 225.272 665.334 224.601 666.619 224.601C667.853 224.601 668.486 225.246 668.486 226.359V226.403C668.486 227.1 667.77 227.087 666.006 227.292C664.145 227.509 662.241 227.995 662.241 230.226C662.241 232.156 663.692 233.217 665.558 233.217ZM665.974 231.683C664.893 231.683 664.113 231.197 664.113 230.251C664.113 229.229 665.021 228.864 666.127 228.717C666.747 228.634 668.217 228.468 668.492 228.193V229.459C668.492 230.622 667.565 231.683 665.974 231.683ZM677.085 233.198C679.405 233.198 680.907 231.805 681.118 229.893H679.258C679.015 230.955 678.19 231.581 677.097 231.581C675.48 231.581 674.438 230.232 674.438 228.091C674.438 225.988 675.499 224.665 677.097 224.665C678.312 224.665 679.053 225.432 679.258 226.352H681.118C680.913 224.371 679.296 223.054 677.065 223.054C674.298 223.054 672.508 225.138 672.508 228.136C672.508 231.095 674.234 233.198 677.085 233.198ZM683.162 233H685.073V229.516L686.025 228.564L689.362 233H691.708L687.464 227.394L691.439 223.182H689.151L685.239 227.337H685.073V219.909H683.162V233Z" fill="#001632"/>
<path d="M617.677 186.792H616.802C616.254 186.792 615.809 186.347 615.809 185.799C615.809 185.251 616.254 184.807 616.802 184.807H620.537C621.085 184.807 621.529 185.251 621.529 185.799C621.529 186.347 621.085 186.792 620.537 186.792H619.661V189.535C619.661 190.083 619.217 190.527 618.669 190.527C618.121 190.527 617.677 190.083 617.677 189.535V186.792ZM625.314 192.909L628.709 196.304C629.097 196.692 629.097 197.32 628.709 197.707C628.322 198.095 627.694 198.095 627.306 197.707L623.911 194.312C622.469 195.451 620.649 196.13 618.669 196.13C613.995 196.13 610.206 192.341 610.206 187.667C610.206 182.993 613.995 179.204 618.669 179.204C623.343 179.204 627.132 182.993 627.132 187.667C627.132 189.647 626.453 191.467 625.314 192.909ZM614.058 174.677V177.395C614.058 177.943 613.614 178.387 613.066 178.387C612.518 178.387 612.074 177.943 612.074 177.395V174.672C611.788 174.567 611.514 174.416 611.26 174.219C608.613 171.983 605.399 170.52 601.984 169.993C601.732 169.957 601.477 170.032 601.285 170.2C601.093 170.367 600.983 170.609 600.984 170.868L600.984 187.803C600.984 188.238 601.307 188.606 601.723 188.66C604.231 188.945 606.658 189.722 608.865 190.945C609.345 191.211 609.518 191.815 609.252 192.294C608.987 192.774 608.383 192.947 607.904 192.681C605.924 191.584 603.747 190.888 601.483 190.63C600.062 190.445 598.999 189.234 599 187.802L599 170.872C598.997 170.04 599.355 169.249 599.982 168.703C600.609 168.157 601.443 167.911 602.276 168.031C606.063 168.614 609.614 170.231 612.51 172.678C612.66 172.795 612.839 172.858 613.016 172.87C613.033 172.869 613.049 172.869 613.066 172.869C613.087 172.869 613.108 172.869 613.128 172.871C613.297 172.861 613.46 172.805 613.591 172.703C616.518 170.232 620.07 168.615 623.866 168.029C624.689 167.911 625.523 168.157 626.15 168.703C626.777 169.249 627.136 170.04 627.132 170.868V180.197C627.132 180.745 626.688 181.19 626.14 181.19C625.592 181.19 625.148 180.745 625.148 180.197L625.148 170.864C625.149 170.609 625.039 170.367 624.847 170.2C624.655 170.032 624.4 169.957 624.158 169.992C620.733 170.52 617.52 171.983 614.841 174.245C614.599 174.433 614.335 174.577 614.058 174.677ZM609.865 176.218C610.329 176.51 610.467 177.123 610.175 177.587C609.882 178.05 609.27 178.189 608.806 177.896C607.446 177.038 605.974 176.371 604.432 175.914C603.907 175.759 603.607 175.206 603.762 174.681C603.918 174.156 604.47 173.856 604.996 174.012C606.712 174.52 608.351 175.263 609.865 176.218ZM609.925 180.922C610.366 181.247 610.46 181.868 610.134 182.309C609.809 182.75 609.188 182.844 608.747 182.519C607.216 181.389 605.436 180.644 603.557 180.346C603.016 180.26 602.647 179.751 602.733 179.21C602.819 178.669 603.327 178.3 603.868 178.386C606.061 178.734 608.138 179.604 609.925 180.922ZM617.326 177.896C616.863 178.189 616.25 178.05 615.957 177.587C615.665 177.123 615.804 176.51 616.267 176.218C617.781 175.263 619.42 174.52 621.137 174.012C621.662 173.856 622.214 174.156 622.37 174.681C622.526 175.206 622.226 175.759 621.701 175.914C620.158 176.371 618.686 177.038 617.326 177.896ZM618.669 194.146C622.247 194.146 625.148 191.245 625.148 187.667C625.148 184.089 622.247 181.188 618.669 181.188C615.091 181.188 612.191 184.089 612.191 187.667C612.191 191.245 615.091 194.146 618.669 194.146Z" fill="#006CFA"/>
<path d="M132 311.525C134.087 311.19 136.196 311.014 138.309 311C138.491 310.997 138.666 311.066 138.797 311.192C138.926 311.317 138.999 311.488 139 311.667V332.691C138.996 333.057 138.7 333.354 138.333 333.357C127.276 333.495 124 337 124 337V314.643C124 314.643 120.727 311.141 109.691 311C109.508 310.997 109.332 311.066 109.2 311.192C109.072 311.317 109 311.488 109 311.667V332.691C109.004 333.057 109.3 333.354 109.667 333.357C120.724 333.495 124 337 124 337" stroke="#006CFA" stroke-width="2" stroke-linecap="round" stroke-linejoin="round"/>
<path d="M124 336.343C124.211 334.615 124.976 333.001 126.181 331.745C127.732 330.072 129.766 328.924 132 328.461V307.657C131.996 307.439 131.881 307.239 131.696 307.124C131.5 307.001 131.259 306.968 131.037 307.036C129.166 307.574 127.484 308.626 126.181 310.072C124.977 311.327 124.211 312.94 124 314.667" stroke="#006CFA" stroke-width="2" stroke-linecap="round" stroke-linejoin="round"/>
<defs>
<filter id="filter0_d" x="0" y="0" width="245" height="139" filterUnits="userSpaceOnUse" color-interpolation-filters="sRGB">
<feFlood flood-opacity="0" result="BackgroundImageFix"/>
<feColorMatrix in="SourceAlpha" type="matrix" values="0 0 0 0 0 0 0 0 0 0 0 0 0 0 0 0 0 0 127 0"/>
<feOffset dy="4"/>
<feGaussianBlur stdDeviation="4"/>
<feColorMatrix type="matrix" values="0 0 0 0 0 0 0 0 0 0 0 0 0 0 0 0 0 0 0.04 0"/>
<feBlend mode="normal" in2="BackgroundImageFix" result="effect1_dropShadow"/>
<feBlend mode="normal" in="SourceGraphic" in2="effect1_dropShadow" result="shape"/>
</filter>
<filter id="filter1_d" x="245" y="0" width="246" height="139" filterUnits="userSpaceOnUse" color-interpolation-filters="sRGB">
<feFlood flood-opacity="0" result="BackgroundImageFix"/>
<feColorMatrix in="SourceAlpha" type="matrix" values="0 0 0 0 0 0 0 0 0 0 0 0 0 0 0 0 0 0 127 0"/>
<feOffset dy="4"/>
<feGaussianBlur stdDeviation="4"/>
<feColorMatrix type="matrix" values="0 0 0 0 0 0 0 0 0 0 0 0 0 0 0 0 0 0 0.04 0"/>
<feBlend mode="normal" in2="BackgroundImageFix" result="effect1_dropShadow"/>
<feBlend mode="normal" in="SourceGraphic" in2="effect1_dropShadow" result="shape"/>
</filter>
<filter id="filter2_d" x="491" y="0" width="245" height="139" filterUnits="userSpaceOnUse" color-interpolation-filters="sRGB">
<feFlood flood-opacity="0" result="BackgroundImageFix"/>
<feColorMatrix in="SourceAlpha" type="matrix" values="0 0 0 0 0 0 0 0 0 0 0 0 0 0 0 0 0 0 127 0"/>
<feOffset dy="4"/>
<feGaussianBlur stdDeviation="4"/>
<feColorMatrix type="matrix" values="0 0 0 0 0 0 0 0 0 0 0 0 0 0 0 0 0 0 0.04 0"/>
<feBlend mode="normal" in2="BackgroundImageFix" result="effect1_dropShadow"/>
<feBlend mode="normal" in="SourceGraphic" in2="effect1_dropShadow" result="shape"/>
</filter>
<filter id="filter3_d" x="0" y="139" width="245" height="139" filterUnits="userSpaceOnUse" color-interpolation-filters="sRGB">
<feFlood flood-opacity="0" result="BackgroundImageFix"/>
<feColorMatrix in="SourceAlpha" type="matrix" values="0 0 0 0 0 0 0 0 0 0 0 0 0 0 0 0 0 0 127 0"/>
<feOffset dy="4"/>
<feGaussianBlur stdDeviation="4"/>
<feColorMatrix type="matrix" values="0 0 0 0 0 0 0 0 0 0 0 0 0 0 0 0 0 0 0.04 0"/>
<feBlend mode="normal" in2="BackgroundImageFix" result="effect1_dropShadow"/>
<feBlend mode="normal" in="SourceGraphic" in2="effect1_dropShadow" result="shape"/>
</filter>
<filter id="filter4_d" x="245" y="139" width="246" height="139" filterUnits="userSpaceOnUse" color-interpolation-filters="sRGB">
<feFlood flood-opacity="0" result="BackgroundImageFix"/>
<feColorMatrix in="SourceAlpha" type="matrix" values="0 0 0 0 0 0 0 0 0 0 0 0 0 0 0 0 0 0 127 0"/>
<feOffset dy="4"/>
<feGaussianBlur stdDeviation="4"/>
<feColorMatrix type="matrix" values="0 0 0 0 0 0 0 0 0 0 0 0 0 0 0 0 0 0 0.04 0"/>
<feBlend mode="normal" in2="BackgroundImageFix" result="effect1_dropShadow"/>
<feBlend mode="normal" in="SourceGraphic" in2="effect1_dropShadow" result="shape"/>
</filter>
<filter id="filter5_d" x="491" y="139" width="245" height="139" filterUnits="userSpaceOnUse" color-interpolation-filters="sRGB">
<feFlood flood-opacity="0" result="BackgroundImageFix"/>
<feColorMatrix in="SourceAlpha" type="matrix" values="0 0 0 0 0 0 0 0 0 0 0 0 0 0 0 0 0 0 127 0"/>
<feOffset dy="4"/>
<feGaussianBlur stdDeviation="4"/>
<feColorMatrix type="matrix" values="0 0 0 0 0 0 0 0 0 0 0 0 0 0 0 0 0 0 0.04 0"/>
<feBlend mode="normal" in2="BackgroundImageFix" result="effect1_dropShadow"/>
<feBlend mode="normal" in="SourceGraphic" in2="effect1_dropShadow" result="shape"/>
</filter>
<filter id="filter6_d" x="0" y="278" width="245" height="139" filterUnits="userSpaceOnUse" color-interpolation-filters="sRGB">
<feFlood flood-opacity="0" result="BackgroundImageFix"/>
<feColorMatrix in="SourceAlpha" type="matrix" values="0 0 0 0 0 0 0 0 0 0 0 0 0 0 0 0 0 0 127 0"/>
<feOffset dy="4"/>
<feGaussianBlur stdDeviation="4"/>
<feColorMatrix type="matrix" values="0 0 0 0 0 0 0 0 0 0 0 0 0 0 0 0 0 0 0.04 0"/>
<feBlend mode="normal" in2="BackgroundImageFix" result="effect1_dropShadow"/>
<feBlend mode="normal" in="SourceGraphic" in2="effect1_dropShadow" result="shape"/>
</filter>
<filter id="filter7_d" x="245" y="278" width="246" height="139" filterUnits="userSpaceOnUse" color-interpolation-filters="sRGB">
<feFlood flood-opacity="0" result="BackgroundImageFix"/>
<feColorMatrix in="SourceAlpha" type="matrix" values="0 0 0 0 0 0 0 0 0 0 0 0 0 0 0 0 0 0 127 0"/>
<feOffset dy="4"/>
<feGaussianBlur stdDeviation="4"/>
<feColorMatrix type="matrix" values="0 0 0 0 0 0 0 0 0 0 0 0 0 0 0 0 0 0 0.04 0"/>
<feBlend mode="normal" in2="BackgroundImageFix" result="effect1_dropShadow"/>
<feBlend mode="normal" in="SourceGraphic" in2="effect1_dropShadow" result="shape"/>
</filter>
<filter id="filter8_d" x="491" y="278" width="245" height="139" filterUnits="userSpaceOnUse" color-interpolation-filters="sRGB">
<feFlood flood-opacity="0" result="BackgroundImageFix"/>
<feColorMatrix in="SourceAlpha" type="matrix" values="0 0 0 0 0 0 0 0 0 0 0 0 0 0 0 0 0 0 127 0"/>
<feOffset dy="4"/>
<feGaussianBlur stdDeviation="4"/>
<feColorMatrix type="matrix" values="0 0 0 0 0 0 0 0 0 0 0 0 0 0 0 0 0 0 0.04 0"/>
<feBlend mode="normal" in2="BackgroundImageFix" result="effect1_dropShadow"/>
<feBlend mode="normal" in="SourceGraphic" in2="effect1_dropShadow" result="shape"/>
</filter>
<filter id="filter9_d" x="0" y="417" width="245" height="139" filterUnits="userSpaceOnUse" color-interpolation-filters="sRGB">
<feFlood flood-opacity="0" result="BackgroundImageFix"/>
<feColorMatrix in="SourceAlpha" type="matrix" values="0 0 0 0 0 0 0 0 0 0 0 0 0 0 0 0 0 0 127 0"/>
<feOffset dy="4"/>
<feGaussianBlur stdDeviation="4"/>
<feColorMatrix type="matrix" values="0 0 0 0 0 0 0 0 0 0 0 0 0 0 0 0 0 0 0.04 0"/>
<feBlend mode="normal" in2="BackgroundImageFix" result="effect1_dropShadow"/>
<feBlend mode="normal" in="SourceGraphic" in2="effect1_dropShadow" result="shape"/>
</filter>
<filter id="filter10_d" x="245" y="417" width="246" height="139" filterUnits="userSpaceOnUse" color-interpolation-filters="sRGB">
<feFlood flood-opacity="0" result="BackgroundImageFix"/>
<feColorMatrix in="SourceAlpha" type="matrix" values="0 0 0 0 0 0 0 0 0 0 0 0 0 0 0 0 0 0 127 0"/>
<feOffset dy="4"/>
<feGaussianBlur stdDeviation="4"/>
<feColorMatrix type="matrix" values="0 0 0 0 0 0 0 0 0 0 0 0 0 0 0 0 0 0 0.04 0"/>
<feBlend mode="normal" in2="BackgroundImageFix" result="effect1_dropShadow"/>
<feBlend mode="normal" in="SourceGraphic" in2="effect1_dropShadow" result="shape"/>
</filter>
<filter id="filter11_d" x="491" y="417" width="245" height="139" filterUnits="userSpaceOnUse" color-interpolation-filters="sRGB">
<feFlood flood-opacity="0" result="BackgroundImageFix"/>
<feColorMatrix in="SourceAlpha" type="matrix" values="0 0 0 0 0 0 0 0 0 0 0 0 0 0 0 0 0 0 127 0"/>
<feOffset dy="4"/>
<feGaussianBlur stdDeviation="4"/>
<feColorMatrix type="matrix" values="0 0 0 0 0 0 0 0 0 0 0 0 0 0 0 0 0 0 0.04 0"/>
<feBlend mode="normal" in2="BackgroundImageFix" result="effect1_dropShadow"/>
<feBlend mode="normal" in="SourceGraphic" in2="effect1_dropShadow" result="shape"/>
</filter>
</defs>
</svg>
