<svg width="600" height="380" viewBox="0 0 600 380" fill="none" xmlns="http://www.w3.org/2000/svg">
<g clip-path="url(#clip0)">
<path d="M484.777 294.415C484.416 295.854 484.05 297.431 483.629 299.001C482.891 301.83 482.132 304.653 481.39 307.478C481.352 307.687 481.339 307.898 481.353 308.109C481.369 308.127 481.389 308.142 481.413 308.153C481.437 308.164 481.463 308.172 481.491 308.175C481.554 308.189 481.622 308.184 481.68 308.159C482.003 307.89 482.302 307.602 482.575 307.299C483.359 306.357 484.304 305.504 485.382 304.764C486.633 303.859 487.786 302.874 488.831 301.819C492.435 298.263 496.365 294.932 500.204 291.538C500.788 291.021 501.456 290.556 502.075 290.065C503.036 289.385 503.939 288.657 504.779 287.885C506.929 285.671 509.5 283.755 511.754 281.611C511.887 281.49 512.005 281.361 512.108 281.224C512.141 281.193 512.166 281.157 512.181 281.119C512.196 281.081 512.202 281.041 512.197 281.001C512.192 280.961 512.178 280.922 512.153 280.886C512.129 280.851 512.096 280.82 512.057 280.794C511.782 280.639 511.493 280.5 511.192 280.379C510.098 279.949 509.003 279.525 507.911 279.119C506.169 278.519 504.506 277.787 502.944 276.933C502.785 276.832 502.612 276.745 502.429 276.673C500.191 275.894 498.133 274.844 495.955 273.971C494.081 273.218 492.246 272.4 490.47 271.518C489.227 270.865 487.911 270.303 486.537 269.839C486.162 269.715 485.801 269.566 485.458 269.393C485.347 269.331 485.254 269.251 485.185 269.159C485.115 269.067 485.07 268.965 485.053 268.859C485.035 268.753 485.046 268.645 485.084 268.542C485.122 268.439 485.186 268.344 485.273 268.262C485.545 268.024 485.84 267.803 486.156 267.602C488.061 266.389 489.818 265.039 491.404 263.568C492.469 262.668 493.599 261.818 494.788 261.021C496.381 259.859 497.999 258.712 499.584 257.543C500.085 257.182 500.551 256.793 500.978 256.378C502.509 254.857 504.426 253.655 506.276 252.401C506.488 252.27 506.713 252.153 506.949 252.051C507.068 252 507.206 251.987 507.337 252.014C507.467 252.041 507.579 252.107 507.65 252.198C507.705 252.345 507.689 252.503 507.605 252.641C507.257 252.967 506.879 253.273 506.475 253.557C504.74 254.755 503.128 256.059 501.654 257.457C500.062 258.92 498.333 260.287 496.481 261.546C494.697 262.788 493.047 264.143 491.546 265.599C490.791 266.286 489.991 266.942 489.149 267.563C488.866 267.794 488.572 268.013 488.289 268.244C488.24 268.312 488.222 268.391 488.239 268.468C488.256 268.545 488.307 268.615 488.383 268.666C490.871 269.756 493.355 270.852 495.853 271.926C497.102 272.463 498.381 272.958 499.649 273.476C500.009 273.622 500.353 273.801 500.723 273.931C502.59 274.573 504.377 275.351 506.06 276.254C506.52 276.482 507.005 276.677 507.509 276.837C509.869 277.678 511.997 278.792 514.2 279.884C514.423 280.005 514.628 280.146 514.809 280.305C514.914 280.41 514.979 280.537 514.995 280.671C515.012 280.804 514.981 280.938 514.904 281.058C514.685 281.327 514.443 281.584 514.18 281.828C512.521 283.312 510.845 284.787 509.181 286.267C508.807 286.576 508.456 286.903 508.13 287.244C506.759 288.709 505.235 290.08 503.574 291.345C502.675 292.071 501.776 292.803 500.937 293.576C497.414 296.831 493.812 300.032 490.429 303.383C489.447 304.34 488.39 305.247 487.263 306.098C486.222 306.868 485.265 307.706 484.403 308.603C484.045 308.99 483.61 309.332 483.216 309.7C483.193 309.72 483.176 309.743 483.164 309.768C483.153 309.793 483.148 309.82 483.15 309.847C483.192 309.98 483.301 309.997 483.464 309.947C484.725 309.556 486.03 309.234 487.247 308.77C489.018 308.095 490.843 307.507 492.689 306.974C494.158 306.549 495.568 306.026 496.982 305.51C498.891 304.814 500.843 304.197 502.78 303.553C503.032 303.475 503.293 303.417 503.56 303.38C503.763 303.367 503.966 303.408 504.138 303.494C504.31 303.581 504.441 303.71 504.512 303.861C504.583 304.012 504.587 304.177 504.525 304.33C504.462 304.483 504.337 304.615 504.168 304.705C503.816 304.864 503.452 305.006 503.078 305.13C501.889 305.526 500.672 305.866 499.512 306.308C496.578 307.427 493.499 308.282 490.533 309.336C487.125 310.546 483.579 311.476 480.183 312.698C479.874 312.806 479.556 312.898 479.232 312.974C479.1 313.002 478.962 313.007 478.827 312.99C478.692 312.973 478.563 312.934 478.449 312.876C478.334 312.817 478.237 312.74 478.162 312.65C478.088 312.56 478.038 312.458 478.017 312.352C477.987 312.087 477.996 311.819 478.045 311.556C478.209 310.765 478.34 309.964 478.601 309.193C479.468 306.604 479.891 303.947 480.62 301.337C481.28 298.99 481.689 296.597 482.601 294.293C482.797 293.784 483.033 293.284 483.308 292.798C483.372 292.72 483.456 292.652 483.554 292.6C483.652 292.548 483.762 292.512 483.878 292.494C483.995 292.476 484.114 292.476 484.23 292.495C484.346 292.514 484.456 292.551 484.553 292.603C484.665 292.663 484.758 292.744 484.822 292.837C484.887 292.931 484.922 293.036 484.925 293.143C484.89 293.54 484.828 293.905 484.777 294.415Z" fill="#001632"/>
<path d="M133.938 34.416L133.939 34.4158C168.142 24.0744 203.431 26.3334 254.515 34.5995C280.057 38.7325 309.469 44.3583 334.875 53.2748C360.306 62.2005 381.598 74.3821 391.052 91.5459L391.052 91.5468C400.559 108.718 400.654 133.722 393.105 158.646C385.559 183.555 370.405 208.285 349.555 224.874L349.555 224.874C328.661 241.501 302.056 250.004 273.81 254.292C245.564 258.58 215.724 258.647 188.381 258.436C161.026 258.183 133.879 254.939 110.376 248.006C86.8666 241.071 67.0455 230.458 54.2864 215.501C28.775 185.595 31.4252 138.084 49.214 102.835C66.9796 67.6316 99.8185 44.677 133.938 34.416Z" stroke="#0CD977"/>
<path d="M125.323 81.1369C128.241 80.0912 131.072 78.819 133.791 77.3323C133.868 77.3003 133.945 77.2684 134.022 77.2365C137.717 75.5005 141.411 73.7645 145.106 72.0285C148.953 70.2256 152.801 68.4226 156.648 66.6196C157.033 66.4601 157.385 66.2192 157.78 66.0836C161.339 64.8336 164.526 62.8348 167.876 61.1611C168.993 60.6032 170.13 60.0816 171.266 59.5552C173.16 58.6811 175.117 57.9602 176.879 56.7701C177.242 56.5717 177.634 56.4338 178.041 56.3618C178.248 56.3425 178.456 56.3854 178.638 56.485C178.82 56.5845 178.968 56.7362 179.062 56.9204C179.14 57.1114 179.156 57.322 179.108 57.523C179.06 57.724 178.95 57.9051 178.793 58.0412C177.69 58.785 176.542 59.4592 175.355 60.0599C172.237 61.4636 169.147 62.9227 166.121 64.5071C165.534 64.8177 164.919 65.0893 164.358 65.4506C163.15 66.1925 161.87 66.8109 160.538 67.2965C159.597 67.6358 158.679 68.0347 157.79 68.4908C154.197 70.4501 150.409 71.9797 146.702 73.6893C145.185 74.3847 143.688 75.1117 142.179 75.8263C141.948 75.922 141.713 76.064 141.508 76.1661C137.968 77.8453 134.446 79.5397 130.888 81.1875C129.469 81.8478 127.961 82.3997 126.503 83.0038C124.287 83.972 122.088 84.967 119.891 85.9667C119.772 86.0076 119.662 86.0725 119.569 86.1572C119.476 86.2419 119.401 86.3447 119.349 86.4593C119.297 86.5738 119.269 86.6976 119.267 86.8231C119.265 86.9486 119.289 87.073 119.337 87.1888C119.703 88.2885 120.155 89.3575 120.69 90.386C122.047 92.6953 122.894 95.2043 123.797 97.6962C124.22 98.863 124.737 99.9935 125.344 101.077C125.967 102.246 126.523 103.45 127.007 104.683C128.124 107.181 129.085 109.746 129.884 112.364C130.203 113.516 130.546 113.637 131.719 113.106C132.632 112.695 133.523 112.247 134.432 111.826C134.734 111.69 135.047 111.581 135.368 111.5C135.615 111.454 135.87 111.488 136.096 111.596C136.322 111.703 136.508 111.88 136.626 112.1C136.801 112.47 136.917 112.864 136.97 113.27C136.981 113.605 136.928 113.939 136.814 114.255C136.171 116.489 135.556 118.735 134.843 120.948C134.533 121.805 134.133 122.627 133.648 123.4C133.514 123.615 133.313 123.78 133.076 123.871C132.839 123.963 132.579 123.974 132.335 123.905C131.926 123.828 131.531 123.693 131.16 123.505C128.676 122.164 126.2 120.806 123.732 119.432C123.522 119.298 123.329 119.142 123.155 118.964C123.034 118.798 122.968 118.598 122.966 118.393C122.963 118.187 123.024 117.985 123.141 117.815C123.388 117.594 123.656 117.396 123.94 117.226C125.175 116.529 126.421 115.862 127.659 115.175C127.847 115.081 127.992 114.919 128.067 114.723C128.141 114.527 128.139 114.311 128.061 114.117C126.661 110.042 125.319 105.96 123.252 102.139C122.289 100.212 121.451 98.2252 120.743 96.1909C120.083 94.49 119.355 92.8401 118.588 91.1667C117.921 89.7606 117.383 88.2563 116.835 86.784C116.683 86.3905 116.681 85.9549 116.828 85.5585C116.975 85.1622 117.262 84.8321 117.635 84.6302C117.781 84.5346 117.935 84.4503 118.094 84.3781C120.498 83.2927 122.93 82.2068 125.323 81.1369Z" fill="#001632"/>
<g filter="url(#filter0_d)">
<rect x="128" y="142" width="413" height="96" rx="5.7" fill="white"/>
</g>
<path d="M215.75 209C218.409 209 219.909 207.347 219.909 204.619C219.909 201.909 218.409 200.273 215.869 200.273H213.057V209H215.75ZM214.114 208.062V201.21H215.801C217.847 201.21 218.886 202.506 218.886 204.619C218.886 206.75 217.847 208.062 215.682 208.062H214.114ZM224.29 209.136C225.619 209.136 226.591 208.472 226.898 207.483L225.926 207.21C225.671 207.892 225.078 208.233 224.29 208.233C223.109 208.233 222.296 207.47 222.249 206.068H227V205.642C227 203.205 225.551 202.369 224.188 202.369C222.415 202.369 221.239 203.767 221.239 205.778C221.239 207.79 222.398 209.136 224.29 209.136ZM222.249 205.199C222.317 204.18 223.037 203.273 224.188 203.273C225.279 203.273 225.977 204.091 225.977 205.199H222.249ZM230.456 209.153C231.598 209.153 232.195 208.54 232.399 208.114H232.45V209H233.456V204.688C233.456 202.608 231.871 202.369 231.036 202.369C230.047 202.369 228.922 202.71 228.411 203.903L229.365 204.244C229.587 203.767 230.111 203.256 231.07 203.256C231.994 203.256 232.45 203.746 232.45 204.585V204.619C232.45 205.105 231.956 205.062 230.763 205.216C229.548 205.374 228.223 205.642 228.223 207.142C228.223 208.42 229.212 209.153 230.456 209.153ZM230.609 208.25C229.808 208.25 229.229 207.892 229.229 207.193C229.229 206.426 229.928 206.188 230.712 206.085C231.138 206.034 232.28 205.915 232.45 205.71V206.631C232.45 207.449 231.803 208.25 230.609 208.25ZM237.763 209.136C239.025 209.136 239.451 208.352 239.672 207.994H239.792V209H240.763V200.273H239.758V203.494H239.672C239.451 203.153 239.059 202.369 237.78 202.369C236.127 202.369 234.985 203.682 234.985 205.744C234.985 207.824 236.127 209.136 237.763 209.136ZM237.9 208.233C236.638 208.233 235.991 207.125 235.991 205.727C235.991 204.347 236.621 203.273 237.9 203.273C239.127 203.273 239.775 204.261 239.775 205.727C239.775 207.21 239.11 208.233 237.9 208.233ZM243.75 200.273H242.745V209H243.75V200.273ZM245.592 209H246.598V202.455H245.592V209ZM246.104 201.364C246.496 201.364 246.82 201.057 246.82 200.682C246.82 200.307 246.496 200 246.104 200C245.712 200 245.388 200.307 245.388 200.682C245.388 201.057 245.712 201.364 246.104 201.364ZM249.446 205.062C249.446 203.92 250.153 203.273 251.116 203.273C252.049 203.273 252.616 203.882 252.616 204.909V209H253.622V204.841C253.622 203.17 252.731 202.369 251.406 202.369C250.417 202.369 249.804 202.812 249.497 203.477H249.412V202.455H248.44V209H249.446V205.062ZM258.204 209.136C259.534 209.136 260.505 208.472 260.812 207.483L259.84 207.21C259.585 207.892 258.992 208.233 258.204 208.233C257.024 208.233 256.21 207.47 256.163 206.068H260.914V205.642C260.914 203.205 259.465 202.369 258.102 202.369C256.329 202.369 255.153 203.767 255.153 205.778C255.153 207.79 256.312 209.136 258.204 209.136ZM256.163 205.199C256.231 204.18 256.951 203.273 258.102 203.273C259.193 203.273 259.891 204.091 259.891 205.199H256.163ZM270.899 204.79H264.899V205.727H270.899V204.79ZM275.33 200.273V209H276.319V202.369H276.404L279.132 209H280.086L282.813 202.369H282.899V209H283.887V200.273H282.626L279.66 207.517H279.558L276.592 200.273H275.33ZM287.796 209.153C288.938 209.153 289.535 208.54 289.739 208.114H289.79V209H290.796V204.688C290.796 202.608 289.211 202.369 288.375 202.369C287.387 202.369 286.262 202.71 285.75 203.903L286.705 204.244C286.927 203.767 287.451 203.256 288.41 203.256C289.334 203.256 289.79 203.746 289.79 204.585V204.619C289.79 205.105 289.296 205.062 288.103 205.216C286.888 205.374 285.563 205.642 285.563 207.142C285.563 208.42 286.552 209.153 287.796 209.153ZM287.949 208.25C287.148 208.25 286.569 207.892 286.569 207.193C286.569 206.426 287.268 206.188 288.052 206.085C288.478 206.034 289.62 205.915 289.79 205.71V206.631C289.79 207.449 289.143 208.25 287.949 208.25ZM292.632 209H293.637V204.858C293.637 203.972 294.336 203.324 295.291 203.324C295.559 203.324 295.836 203.375 295.904 203.392V202.369C295.789 202.361 295.525 202.352 295.376 202.352C294.592 202.352 293.91 202.795 293.671 203.443H293.603V202.455H292.632V209ZM299.556 209.136C301.005 209.136 301.96 208.25 302.13 207.091H301.124C300.937 207.807 300.34 208.233 299.556 208.233C298.363 208.233 297.596 207.244 297.596 205.727C297.596 204.244 298.38 203.273 299.556 203.273C300.443 203.273 300.971 203.818 301.124 204.415H302.13C301.96 203.188 300.92 202.369 299.539 202.369C297.766 202.369 296.59 203.767 296.59 205.761C296.59 207.722 297.715 209.136 299.556 209.136ZM304.606 205.062C304.606 203.92 305.335 203.273 306.328 203.273C307.274 203.273 307.845 203.869 307.845 204.909V209H308.85V204.841C308.85 203.158 307.955 202.369 306.617 202.369C305.586 202.369 304.998 202.8 304.691 203.477H304.606V200.273H303.6V209H304.606V205.062ZM314.048 209H319.554V208.062H315.497V207.994L317.457 205.898C318.957 204.291 319.4 203.541 319.4 202.574C319.4 201.227 318.309 200.153 316.775 200.153C315.246 200.153 314.082 201.193 314.082 202.727H315.088C315.088 201.734 315.731 201.074 316.741 201.074C317.687 201.074 318.412 201.653 318.412 202.574C318.412 203.379 317.939 203.976 316.929 205.08L314.048 208.233V209ZM324.16 209.119C326.086 209.119 327.194 207.487 327.194 204.636C327.194 201.807 326.069 200.153 324.16 200.153C322.251 200.153 321.126 201.807 321.126 204.636C321.126 207.487 322.234 209.119 324.16 209.119ZM324.16 208.182C322.89 208.182 322.149 206.908 322.149 204.636C322.149 202.369 322.899 201.074 324.16 201.074C325.422 201.074 326.172 202.369 326.172 204.636C326.172 206.908 325.43 208.182 324.16 208.182ZM330.331 207.807H329.24L329.189 208.284C329.065 209.439 328.822 210.589 328.711 211.131H329.478C329.683 210.551 330.118 209.239 330.263 208.267L330.331 207.807ZM338.62 200.273H337.563L335.382 201.722V202.795L337.512 201.381H337.563V209H338.62V200.273ZM343.977 209.119C345.903 209.119 347.011 207.487 347.011 204.636C347.011 201.807 345.886 200.153 343.977 200.153C342.068 200.153 340.943 201.807 340.943 204.636C340.943 207.487 342.051 209.119 343.977 209.119ZM343.977 208.182C342.707 208.182 341.965 206.908 341.965 204.636C341.965 202.369 342.715 201.074 343.977 201.074C345.238 201.074 345.988 202.369 345.988 204.636C345.988 206.908 345.247 208.182 343.977 208.182ZM349.38 207.884C349.802 207.884 350.147 207.538 350.147 207.116C350.147 206.695 349.802 206.349 349.38 206.349C348.958 206.349 348.613 206.695 348.613 207.116C348.613 207.538 348.958 207.884 349.38 207.884ZM349.38 203.469C349.802 203.469 350.147 203.124 350.147 202.702C350.147 202.28 349.802 201.935 349.38 201.935C348.958 201.935 348.613 202.28 348.613 202.702C348.613 203.124 348.958 203.469 349.38 203.469ZM354.884 209.119C356.575 209.119 357.833 208.058 357.833 206.631C357.833 205.523 357.176 204.717 356.077 204.534V204.466C356.959 204.197 357.509 203.473 357.509 202.489C357.509 201.253 356.533 200.153 354.918 200.153C353.409 200.153 352.156 201.082 352.105 202.455H353.128C353.166 201.585 353.993 201.074 354.901 201.074C355.864 201.074 356.486 201.658 356.486 202.54C356.486 203.46 355.766 204.057 354.73 204.057H354.031V204.994H354.73C356.056 204.994 356.793 205.668 356.793 206.631C356.793 207.555 355.987 208.182 354.867 208.182C353.857 208.182 353.056 207.662 352.992 206.818H351.918C351.982 208.19 353.192 209.119 354.884 209.119ZM362.422 209.119C364.348 209.119 365.456 207.487 365.456 204.636C365.456 201.807 364.331 200.153 362.422 200.153C360.513 200.153 359.388 201.807 359.388 204.636C359.388 207.487 360.496 209.119 362.422 209.119ZM362.422 208.182C361.152 208.182 360.411 206.908 360.411 204.636C360.411 202.369 361.161 201.074 362.422 201.074C363.683 201.074 364.433 202.369 364.433 204.636C364.433 206.908 363.692 208.182 362.422 208.182ZM369.019 209.153C370.161 209.153 370.757 208.54 370.962 208.114H371.013V209H372.019V204.688C372.019 202.608 370.433 202.369 369.598 202.369C368.609 202.369 367.484 202.71 366.973 203.903L367.928 204.244C368.149 203.767 368.673 203.256 369.632 203.256C370.557 203.256 371.013 203.746 371.013 204.585V204.619C371.013 205.105 370.519 205.062 369.325 205.216C368.111 205.374 366.786 205.642 366.786 207.142C366.786 208.42 367.774 209.153 369.019 209.153ZM369.172 208.25C368.371 208.25 367.791 207.892 367.791 207.193C367.791 206.426 368.49 206.188 369.274 206.085C369.7 206.034 370.842 205.915 371.013 205.71V206.631C371.013 207.449 370.365 208.25 369.172 208.25ZM373.854 209H374.86V204.909C374.86 203.95 375.559 203.273 376.343 203.273C377.106 203.273 377.638 203.771 377.638 204.517V209H378.661V204.739C378.661 203.895 379.189 203.273 380.11 203.273C380.826 203.273 381.439 203.652 381.439 204.619V209H382.445V204.619C382.445 203.081 381.618 202.369 380.451 202.369C379.513 202.369 378.827 202.8 378.491 203.477H378.422C378.098 202.778 377.527 202.369 376.667 202.369C375.814 202.369 375.184 202.778 374.911 203.477H374.826V202.455H373.854V209Z" fill="#66768A"/>
<g clip-path="url(#clip1)">
<path fill-rule="evenodd" clip-rule="evenodd" d="M201.522 201.5H202.957C203.533 201.5 204 201.948 204 202.5V211C204 211.552 203.533 212 202.957 212H193.044C192.467 212 192 211.552 192 211V202.5C192 201.948 192.467 201.5 193.044 201.5H193.826C193.97 201.5 194.087 201.612 194.087 201.75V202.875C194.087 203.082 194.262 203.25 194.478 203.25C194.694 203.25 194.87 203.082 194.87 202.875V200.5C194.87 200.224 195.103 200 195.391 200C195.68 200 195.913 200.224 195.913 200.5V201.375C195.913 201.444 195.972 201.5 196.044 201.5H199.304C199.449 201.5 199.565 201.612 199.565 201.75V202.875C199.565 203.082 199.741 203.25 199.957 203.25C200.173 203.25 200.348 203.082 200.348 202.875V200.5C200.348 200.224 200.582 200 200.87 200C201.158 200 201.391 200.224 201.391 200.5V201.375C201.391 201.444 201.45 201.5 201.522 201.5ZM193.304 211H202.696C202.84 211 202.957 210.888 202.957 210.75V204.75C202.957 204.612 202.84 204.5 202.696 204.5H193.304C193.16 204.5 193.044 204.612 193.044 204.75V210.75C193.044 210.888 193.16 211 193.304 211Z" fill="#8093AD"/>
</g>
<path d="M202.943 175.148C202.545 172.659 200.597 171.205 198.136 171.205C195.125 171.205 192.903 173.46 192.903 177.182C192.903 180.903 195.114 183.159 198.136 183.159C200.693 183.159 202.562 181.557 202.943 179.256L201.17 179.25C200.869 180.739 199.619 181.557 198.148 181.557C196.153 181.557 194.648 180.028 194.648 177.182C194.648 174.358 196.148 172.807 198.153 172.807C199.636 172.807 200.881 173.642 201.17 175.148H202.943ZM208.584 183.176C211.044 183.176 212.652 181.375 212.652 178.676C212.652 175.96 211.044 174.159 208.584 174.159C206.124 174.159 204.516 175.96 204.516 178.676C204.516 181.375 206.124 183.176 208.584 183.176ZM208.589 181.75C206.982 181.75 206.232 180.347 206.232 178.67C206.232 177 206.982 175.58 208.589 175.58C210.186 175.58 210.936 177 210.936 178.67C210.936 180.347 210.186 181.75 208.589 181.75ZM214.548 183H216.247V177.619C216.247 176.443 217.071 175.625 218.037 175.625C218.98 175.625 219.634 176.25 219.634 177.199V183H221.327V177.438C221.327 176.386 221.969 175.625 223.077 175.625C223.974 175.625 224.713 176.125 224.713 177.307V183H226.412V177.148C226.412 175.153 225.298 174.159 223.719 174.159C222.463 174.159 221.52 174.761 221.099 175.693H221.009C220.628 174.739 219.827 174.159 218.662 174.159C217.509 174.159 216.651 174.733 216.287 175.693H216.179V174.273H214.548V183ZM228.689 183H230.388V177.619C230.388 176.443 231.212 175.625 232.178 175.625C233.121 175.625 233.774 176.25 233.774 177.199V183H235.467V177.438C235.467 176.386 236.109 175.625 237.217 175.625C238.115 175.625 238.854 176.125 238.854 177.307V183H240.553V177.148C240.553 175.153 239.439 174.159 237.859 174.159C236.604 174.159 235.661 174.761 235.24 175.693H235.149C234.768 174.739 233.967 174.159 232.803 174.159C231.649 174.159 230.791 174.733 230.428 175.693H230.32V174.273H228.689V183ZM246.591 183.176C248.494 183.176 249.841 182.239 250.227 180.818L248.619 180.528C248.312 181.352 247.574 181.773 246.608 181.773C245.153 181.773 244.176 180.83 244.131 179.148H250.335V178.545C250.335 175.392 248.449 174.159 246.472 174.159C244.04 174.159 242.438 176.011 242.438 178.693C242.438 181.403 244.017 183.176 246.591 183.176ZM244.136 177.875C244.205 176.636 245.102 175.562 246.483 175.562C247.801 175.562 248.665 176.54 248.67 177.875H244.136ZM253.919 177.818C253.919 176.426 254.771 175.631 255.953 175.631C257.107 175.631 257.805 176.386 257.805 177.653V183H259.504V177.449C259.504 175.29 258.317 174.159 256.533 174.159C255.22 174.159 254.362 174.767 253.959 175.693H253.851V174.273H252.22V183H253.919V177.818ZM265.857 174.273H264.067V172.182H262.368V174.273H261.089V175.636H262.368V180.79C262.362 182.375 263.572 183.142 264.913 183.114C265.453 183.108 265.817 183.006 266.016 182.932L265.709 181.528C265.595 181.551 265.385 181.602 265.112 181.602C264.561 181.602 264.067 181.42 264.067 180.438V175.636H265.857V174.273ZM275.357 183.165C276.408 183.165 277.572 182.812 278.357 182.08L279.141 183H281.061L279.408 181.023C279.902 180.364 280.374 179.33 280.374 177.716H278.839C278.839 178.494 278.658 179.188 278.357 179.767L276.027 176.983L276.822 176.398C277.788 175.693 278.368 174.881 278.368 173.773C278.368 172.415 277.271 171.239 275.482 171.239C273.709 171.239 272.544 172.381 272.544 173.989C272.544 175.028 273.089 175.852 273.822 176.744C272.493 177.665 271.589 178.523 271.589 179.909C271.589 181.778 273.016 183.165 275.357 183.165ZM277.402 180.955C276.8 181.455 276.078 181.727 275.362 181.727C274.101 181.727 273.277 180.869 273.277 179.864C273.277 179.506 273.578 178.79 274.487 178.119L274.794 177.892L277.402 180.955ZM275.089 175.852C274.561 175.205 274.146 174.608 274.146 174.017C274.146 173.341 274.703 172.659 275.521 172.659C276.305 172.659 276.817 173.273 276.817 173.818C276.817 174.511 276.436 174.932 275.805 175.347L275.089 175.852ZM289.893 183.17C291.484 183.17 292.109 182.199 292.416 181.642H292.558V183H294.217V171.364H292.518V175.688H292.416C292.109 175.148 291.53 174.159 289.905 174.159C287.797 174.159 286.246 175.824 286.246 178.653C286.246 181.477 287.774 183.17 289.893 183.17ZM290.268 181.722C288.751 181.722 287.962 180.386 287.962 178.636C287.962 176.903 288.734 175.602 290.268 175.602C291.751 175.602 292.547 176.812 292.547 178.636C292.547 180.472 291.734 181.722 290.268 181.722ZM296.642 183H298.341V174.273H296.642V183ZM297.5 172.926C298.085 172.926 298.574 172.472 298.574 171.915C298.574 171.358 298.085 170.898 297.5 170.898C296.909 170.898 296.426 171.358 296.426 171.915C296.426 172.472 296.909 172.926 297.5 172.926ZM307.166 176.403C306.814 175.045 305.751 174.159 303.865 174.159C301.893 174.159 300.496 175.199 300.496 176.744C300.496 177.983 301.246 178.807 302.882 179.17L304.359 179.494C305.2 179.682 305.592 180.057 305.592 180.602C305.592 181.278 304.871 181.807 303.757 181.807C302.74 181.807 302.087 181.369 301.882 180.511L300.24 180.761C300.524 182.307 301.808 183.176 303.768 183.176C305.876 183.176 307.337 182.057 307.337 180.477C307.337 179.244 306.553 178.483 304.95 178.114L303.564 177.795C302.604 177.568 302.189 177.244 302.195 176.653C302.189 175.983 302.916 175.506 303.882 175.506C304.939 175.506 305.428 176.091 305.626 176.676L307.166 176.403ZM312.881 183.176C314.943 183.176 316.278 181.938 316.466 180.239H314.812C314.597 181.182 313.864 181.739 312.892 181.739C311.455 181.739 310.528 180.54 310.528 178.636C310.528 176.767 311.472 175.591 312.892 175.591C313.972 175.591 314.631 176.273 314.812 177.091H316.466C316.284 175.33 314.847 174.159 312.864 174.159C310.403 174.159 308.812 176.011 308.812 178.676C308.812 181.307 310.347 183.176 312.881 183.176ZM323.811 179.381C323.817 180.864 322.714 181.568 321.76 181.568C320.709 181.568 319.982 180.807 319.982 179.619V174.273H318.283V179.824C318.283 181.989 319.47 183.114 321.146 183.114C322.459 183.114 323.351 182.42 323.754 181.489H323.845V183H325.516V174.273H323.811V179.381ZM334.338 176.403C333.986 175.045 332.923 174.159 331.037 174.159C329.065 174.159 327.668 175.199 327.668 176.744C327.668 177.983 328.418 178.807 330.054 179.17L331.531 179.494C332.372 179.682 332.764 180.057 332.764 180.602C332.764 181.278 332.043 181.807 330.929 181.807C329.912 181.807 329.259 181.369 329.054 180.511L327.412 180.761C327.696 182.307 328.98 183.176 330.94 183.176C333.048 183.176 334.509 182.057 334.509 180.477C334.509 179.244 333.724 178.483 332.122 178.114L330.736 177.795C329.776 177.568 329.361 177.244 329.366 176.653C329.361 175.983 330.088 175.506 331.054 175.506C332.111 175.506 332.599 176.091 332.798 176.676L334.338 176.403ZM342.916 176.403C342.564 175.045 341.501 174.159 339.615 174.159C337.643 174.159 336.246 175.199 336.246 176.744C336.246 177.983 336.996 178.807 338.632 179.17L340.109 179.494C340.95 179.682 341.342 180.057 341.342 180.602C341.342 181.278 340.621 181.807 339.507 181.807C338.49 181.807 337.837 181.369 337.632 180.511L335.99 180.761C336.274 182.307 337.558 183.176 339.518 183.176C341.626 183.176 343.087 182.057 343.087 180.477C343.087 179.244 342.303 178.483 340.7 178.114L339.314 177.795C338.354 177.568 337.939 177.244 337.945 176.653C337.939 175.983 338.666 175.506 339.632 175.506C340.689 175.506 341.178 176.091 341.376 176.676L342.916 176.403ZM350.888 171.364H349.189V183H350.888V171.364ZM356.935 183.176C358.838 183.176 360.185 182.239 360.571 180.818L358.963 180.528C358.656 181.352 357.918 181.773 356.952 181.773C355.497 181.773 354.52 180.83 354.474 179.148H360.679V178.545C360.679 175.392 358.793 174.159 356.815 174.159C354.384 174.159 352.781 176.011 352.781 178.693C352.781 181.403 354.361 183.176 356.935 183.176ZM354.48 177.875C354.548 176.636 355.446 175.562 356.827 175.562C358.145 175.562 359.009 176.54 359.014 177.875H354.48ZM365.104 183.193C366.547 183.193 367.359 182.46 367.683 181.807H367.751V183H369.411V177.205C369.411 174.665 367.411 174.159 366.024 174.159C364.445 174.159 362.99 174.795 362.422 176.386L364.018 176.75C364.268 176.131 364.905 175.534 366.047 175.534C367.143 175.534 367.706 176.108 367.706 177.097V177.136C367.706 177.756 367.07 177.744 365.501 177.926C363.848 178.119 362.155 178.551 362.155 180.534C362.155 182.25 363.445 183.193 365.104 183.193ZM365.473 181.83C364.513 181.83 363.82 181.398 363.82 180.557C363.82 179.648 364.626 179.324 365.609 179.193C366.161 179.119 367.467 178.972 367.712 178.727V179.852C367.712 180.886 366.888 181.83 365.473 181.83ZM371.673 183H373.372V177.67C373.372 176.528 374.253 175.705 375.457 175.705C375.81 175.705 376.207 175.767 376.344 175.807V174.182C376.173 174.159 375.838 174.142 375.622 174.142C374.599 174.142 373.724 174.722 373.406 175.659H373.315V174.273H371.673V183ZM379.513 177.818C379.513 176.426 380.365 175.631 381.547 175.631C382.7 175.631 383.399 176.386 383.399 177.653V183H385.098V177.449C385.098 175.29 383.911 174.159 382.126 174.159C380.814 174.159 379.956 174.767 379.553 175.693H379.445V174.273H377.814V183H379.513V177.818ZM387.376 183H389.075V174.273H387.376V183ZM388.234 172.926C388.82 172.926 389.308 172.472 389.308 171.915C389.308 171.358 388.82 170.898 388.234 170.898C387.643 170.898 387.161 171.358 387.161 171.915C387.161 172.472 387.643 172.926 388.234 172.926ZM393.06 177.818C393.06 176.426 393.912 175.631 395.094 175.631C396.247 175.631 396.946 176.386 396.946 177.653V183H398.645V177.449C398.645 175.29 397.457 174.159 395.673 174.159C394.361 174.159 393.503 174.767 393.099 175.693H392.991V174.273H391.361V183H393.06V177.818ZM404.582 186.438C406.804 186.438 408.52 185.42 408.52 183.193V174.273H406.855V175.688H406.73C406.429 175.148 405.827 174.159 404.202 174.159C402.094 174.159 400.543 175.824 400.543 178.602C400.543 181.386 402.128 182.869 404.19 182.869C405.793 182.869 406.412 181.966 406.719 181.409H406.827V183.125C406.827 184.472 405.889 185.068 404.599 185.068C403.185 185.068 402.634 184.358 402.332 183.875L400.872 184.477C401.332 185.528 402.497 186.438 404.582 186.438ZM404.565 181.46C403.048 181.46 402.259 180.295 402.259 178.58C402.259 176.903 403.031 175.602 404.565 175.602C406.048 175.602 406.844 176.812 406.844 178.58C406.844 180.381 406.031 181.46 404.565 181.46ZM415.033 183H416.732V177.67C416.732 176.528 417.612 175.705 418.817 175.705C419.169 175.705 419.567 175.767 419.703 175.807V174.182C419.533 174.159 419.197 174.142 418.982 174.142C417.959 174.142 417.084 174.722 416.766 175.659H416.675V174.273H415.033V183ZM424.622 183.176C426.526 183.176 427.872 182.239 428.259 180.818L426.651 180.528C426.344 181.352 425.605 181.773 424.639 181.773C423.185 181.773 422.207 180.83 422.162 179.148H428.366V178.545C428.366 175.392 426.48 174.159 424.503 174.159C422.071 174.159 420.469 176.011 420.469 178.693C420.469 181.403 422.048 183.176 424.622 183.176ZM422.168 177.875C422.236 176.636 423.134 175.562 424.514 175.562C425.832 175.562 426.696 176.54 426.702 177.875H422.168ZM437.842 186.273V174.273H436.183V175.688H436.041C435.74 175.148 435.155 174.159 433.536 174.159C431.428 174.159 429.871 175.824 429.871 178.653C429.871 181.477 431.405 183.17 433.518 183.17C435.109 183.17 435.734 182.199 436.041 181.642H436.143V186.273H437.842ZM436.178 178.636C436.178 180.472 435.359 181.722 433.899 181.722C432.382 181.722 431.587 180.386 431.587 178.636C431.587 176.903 432.359 175.602 433.899 175.602C435.382 175.602 436.178 176.812 436.178 178.636ZM445.655 179.381C445.661 180.864 444.558 181.568 443.604 181.568C442.553 181.568 441.825 180.807 441.825 179.619V174.273H440.126V179.824C440.126 181.989 441.314 183.114 442.99 183.114C444.303 183.114 445.195 182.42 445.598 181.489H445.689V183H447.359V174.273H445.655V179.381ZM449.642 183H451.341V174.273H449.642V183ZM450.5 172.926C451.085 172.926 451.574 172.472 451.574 171.915C451.574 171.358 451.085 170.898 450.5 170.898C449.909 170.898 449.426 171.358 449.426 171.915C449.426 172.472 449.909 172.926 450.5 172.926ZM453.626 183H455.325V177.67C455.325 176.528 456.206 175.705 457.411 175.705C457.763 175.705 458.161 175.767 458.297 175.807V174.182C458.126 174.159 457.791 174.142 457.575 174.142C456.553 174.142 455.678 174.722 455.359 175.659H455.268V174.273H453.626V183ZM463.216 183.176C465.119 183.176 466.466 182.239 466.852 180.818L465.244 180.528C464.938 181.352 464.199 181.773 463.233 181.773C461.778 181.773 460.801 180.83 460.756 179.148H466.96V178.545C466.96 175.392 465.074 174.159 463.097 174.159C460.665 174.159 459.062 176.011 459.062 178.693C459.062 181.403 460.642 183.176 463.216 183.176ZM460.761 177.875C460.83 176.636 461.727 175.562 463.108 175.562C464.426 175.562 465.29 176.54 465.295 177.875H460.761ZM468.845 183H470.544V177.619C470.544 176.443 471.368 175.625 472.334 175.625C473.277 175.625 473.93 176.25 473.93 177.199V183H475.624V177.438C475.624 176.386 476.266 175.625 477.374 175.625C478.271 175.625 479.01 176.125 479.01 177.307V183H480.709V177.148C480.709 175.153 479.595 174.159 478.016 174.159C476.76 174.159 475.817 174.761 475.396 175.693H475.305C474.925 174.739 474.124 174.159 472.959 174.159C471.805 174.159 470.947 174.733 470.584 175.693H470.476V174.273H468.845V183ZM486.747 183.176C488.651 183.176 489.997 182.239 490.384 180.818L488.776 180.528C488.469 181.352 487.73 181.773 486.764 181.773C485.31 181.773 484.332 180.83 484.287 179.148H490.491V178.545C490.491 175.392 488.605 174.159 486.628 174.159C484.196 174.159 482.594 176.011 482.594 178.693C482.594 181.403 484.173 183.176 486.747 183.176ZM484.293 177.875C484.361 176.636 485.259 175.562 486.639 175.562C487.957 175.562 488.821 176.54 488.827 177.875H484.293ZM494.075 177.818C494.075 176.426 494.928 175.631 496.109 175.631C497.263 175.631 497.962 176.386 497.962 177.653V183H499.661V177.449C499.661 175.29 498.473 174.159 496.689 174.159C495.376 174.159 494.518 174.767 494.115 175.693H494.007V174.273H492.376V183H494.075V177.818ZM506.013 174.273H504.223V172.182H502.524V174.273H501.246V175.636H502.524V180.79C502.518 182.375 503.729 183.142 505.07 183.114C505.609 183.108 505.973 183.006 506.172 182.932L505.865 181.528C505.751 181.551 505.541 181.602 505.268 181.602C504.717 181.602 504.223 181.42 504.223 180.438V175.636H506.013V174.273ZM514.291 176.403C513.939 175.045 512.876 174.159 510.99 174.159C509.018 174.159 507.621 175.199 507.621 176.744C507.621 177.983 508.371 178.807 510.007 179.17L511.484 179.494C512.325 179.682 512.717 180.057 512.717 180.602C512.717 181.278 511.996 181.807 510.882 181.807C509.865 181.807 509.212 181.369 509.007 180.511L507.365 180.761C507.649 182.307 508.933 183.176 510.893 183.176C513.001 183.176 514.462 182.057 514.462 180.477C514.462 179.244 513.678 178.483 512.075 178.114L510.689 177.795C509.729 177.568 509.314 177.244 509.32 176.653C509.314 175.983 510.041 175.506 511.007 175.506C512.064 175.506 512.553 176.091 512.751 176.676L514.291 176.403Z" fill="#001632"/>
<path d="M174.63 180.87L167 188.5L163.25 189.25L164 185.5L171.63 177.87C172.455 177.044 173.793 177.043 174.62 177.868C174.621 177.869 174.622 177.87 174.622 177.87L174.63 177.878C175.428 178.699 175.405 180.027 174.63 180.87Z" stroke="#001632" stroke-width="1.5" stroke-linecap="round" stroke-linejoin="round"/>
<path d="M155.75 172.75H166.25" stroke="#001632" stroke-width="1.5" stroke-linecap="round" stroke-linejoin="round"/>
<path d="M155.75 177.25H166.25" stroke="#001632" stroke-width="1.5" stroke-linecap="round" stroke-linejoin="round"/>
<path d="M155.75 181.75H161" stroke="#001632" stroke-width="1.5" stroke-linecap="round" stroke-linejoin="round"/>
<path d="M159.5 186.25H154.25C153.422 186.25 152.75 185.578 152.75 184.75V168.25C152.75 167.422 153.422 166.75 154.25 166.75H164.879C165.277 166.75 165.658 166.908 165.939 167.189L168.811 170.061C169.092 170.342 169.25 170.723 169.25 171.121V174.25" stroke="#001632" stroke-width="1.5" stroke-linecap="round" stroke-linejoin="round"/>
<g filter="url(#filter1_d)">
<rect x="8" y="276" width="443" height="96" rx="5.7" fill="white"/>
</g>
<path d="M93.4148 343L94.2926 340.528H97.821L98.6989 343H99.8068L96.6023 334.273H95.5114L92.3068 343H93.4148ZM94.625 339.591L96.0227 335.653H96.0909L97.4886 339.591H94.625ZM105.562 336.455H104.471L102.664 341.67H102.596L100.789 336.455H99.6982L102.119 343H103.141L105.562 336.455ZM108.616 343.153C109.758 343.153 110.355 342.54 110.559 342.114H110.61V343H111.616V338.688C111.616 336.608 110.031 336.369 109.196 336.369C108.207 336.369 107.082 336.71 106.571 337.903L107.525 338.244C107.747 337.767 108.271 337.256 109.23 337.256C110.154 337.256 110.61 337.746 110.61 338.585V338.619C110.61 339.105 110.116 339.062 108.923 339.216C107.708 339.374 106.383 339.642 106.383 341.142C106.383 342.42 107.372 343.153 108.616 343.153ZM108.77 342.25C107.968 342.25 107.389 341.892 107.389 341.193C107.389 340.426 108.088 340.188 108.872 340.085C109.298 340.034 110.44 339.915 110.61 339.71V340.631C110.61 341.449 109.963 342.25 108.77 342.25ZM113.452 343H114.457V336.455H113.452V343ZM113.963 335.364C114.355 335.364 114.679 335.057 114.679 334.682C114.679 334.307 114.355 334 113.963 334C113.571 334 113.247 334.307 113.247 334.682C113.247 335.057 113.571 335.364 113.963 335.364ZM117.305 334.273H116.299V343H117.305V334.273ZM121.073 343.153C122.215 343.153 122.812 342.54 123.016 342.114H123.067V343H124.073V338.688C124.073 336.608 122.488 336.369 121.653 336.369C120.664 336.369 119.539 336.71 119.028 337.903L119.982 338.244C120.204 337.767 120.728 337.256 121.687 337.256C122.612 337.256 123.067 337.746 123.067 338.585V338.619C123.067 339.105 122.573 339.062 121.38 339.216C120.165 339.374 118.84 339.642 118.84 341.142C118.84 342.42 119.829 343.153 121.073 343.153ZM121.227 342.25C120.425 342.25 119.846 341.892 119.846 341.193C119.846 340.426 120.545 340.188 121.329 340.085C121.755 340.034 122.897 339.915 123.067 339.71V340.631C123.067 341.449 122.42 342.25 121.227 342.25ZM126.045 343H127.017V341.994H127.136C127.358 342.352 127.784 343.136 129.045 343.136C130.681 343.136 131.824 341.824 131.824 339.744C131.824 337.682 130.681 336.369 129.028 336.369C127.75 336.369 127.358 337.153 127.136 337.494H127.051V334.273H126.045V343ZM127.034 339.727C127.034 338.261 127.681 337.273 128.909 337.273C130.187 337.273 130.818 338.347 130.818 339.727C130.818 341.125 130.17 342.233 128.909 342.233C127.699 342.233 127.034 341.21 127.034 339.727ZM134.368 334.273H133.362V343H134.368V334.273ZM138.954 343.136C140.283 343.136 141.255 342.472 141.562 341.483L140.59 341.21C140.335 341.892 139.742 342.233 138.954 342.233C137.773 342.233 136.96 341.47 136.913 340.068H141.664V339.642C141.664 337.205 140.215 336.369 138.852 336.369C137.079 336.369 135.903 337.767 135.903 339.778C135.903 341.79 137.062 343.136 138.954 343.136ZM136.913 339.199C136.981 338.18 137.701 337.273 138.852 337.273C139.942 337.273 140.641 338.091 140.641 339.199H136.913ZM151.648 338.168H145.648V339.105H151.648V338.168ZM156.08 334.273V343H157.069V336.369H157.154L159.881 343H160.836L163.563 336.369H163.648V343H164.637V334.273H163.376L160.41 341.517H160.308L157.342 334.273H156.08ZM168.546 343.153C169.688 343.153 170.284 342.54 170.489 342.114H170.54V343H171.546V338.688C171.546 336.608 169.961 336.369 169.125 336.369C168.137 336.369 167.012 336.71 166.5 337.903L167.455 338.244C167.676 337.767 168.201 337.256 169.159 337.256C170.084 337.256 170.54 337.746 170.54 338.585V338.619C170.54 339.105 170.046 339.062 168.853 339.216C167.638 339.374 166.313 339.642 166.313 341.142C166.313 342.42 167.301 343.153 168.546 343.153ZM168.699 342.25C167.898 342.25 167.319 341.892 167.319 341.193C167.319 340.426 168.017 340.188 168.801 340.085C169.228 340.034 170.37 339.915 170.54 339.71V340.631C170.54 341.449 169.892 342.25 168.699 342.25ZM173.381 343H174.387V338.858C174.387 337.972 175.086 337.324 176.04 337.324C176.309 337.324 176.586 337.375 176.654 337.392V336.369C176.539 336.361 176.275 336.352 176.126 336.352C175.342 336.352 174.66 336.795 174.421 337.443H174.353V336.455H173.381V343ZM180.306 343.136C181.755 343.136 182.71 342.25 182.88 341.091H181.874C181.687 341.807 181.09 342.233 180.306 342.233C179.113 342.233 178.346 341.244 178.346 339.727C178.346 338.244 179.13 337.273 180.306 337.273C181.192 337.273 181.721 337.818 181.874 338.415H182.88C182.71 337.188 181.67 336.369 180.289 336.369C178.516 336.369 177.34 337.767 177.34 339.761C177.34 341.722 178.465 343.136 180.306 343.136ZM185.356 339.062C185.356 337.92 186.085 337.273 187.077 337.273C188.023 337.273 188.594 337.869 188.594 338.909V343H189.6V338.841C189.6 337.158 188.705 336.369 187.367 336.369C186.336 336.369 185.748 336.8 185.441 337.477H185.356V334.273H184.35V343H185.356V339.062ZM194.798 343H200.304V342.062H196.247V341.994L198.207 339.898C199.707 338.291 200.15 337.541 200.15 336.574C200.15 335.227 199.059 334.153 197.525 334.153C195.995 334.153 194.832 335.193 194.832 336.727H195.838C195.838 335.734 196.481 335.074 197.491 335.074C198.437 335.074 199.162 335.653 199.162 336.574C199.162 337.379 198.689 337.976 197.679 339.08L194.798 342.233V343ZM204.791 343.119C206.453 343.119 207.672 341.892 207.672 340.222C207.672 338.53 206.495 337.29 204.893 337.29C204.305 337.29 203.734 337.499 203.376 337.784H203.325L203.632 335.21H207.279V334.273H202.745L202.217 338.568L203.206 338.688C203.568 338.428 204.186 338.24 204.723 338.244C205.835 338.253 206.649 339.097 206.649 340.239C206.649 341.359 205.865 342.182 204.791 342.182C203.896 342.182 203.184 341.607 203.103 340.818H202.081C202.145 342.148 203.291 343.119 204.791 343.119ZM210.471 341.807H209.38L209.329 342.284C209.206 343.439 208.963 344.589 208.852 345.131H209.619C209.824 344.551 210.258 343.239 210.403 342.267L210.471 341.807ZM218.761 334.273H217.704L215.522 335.722V336.795L217.653 335.381H217.704V343H218.761V334.273ZM221.271 343H226.776V342.062H222.719V341.994L224.68 339.898C226.18 338.291 226.623 337.541 226.623 336.574C226.623 335.227 225.532 334.153 223.998 334.153C222.468 334.153 221.305 335.193 221.305 336.727H222.31C222.31 335.734 222.954 335.074 223.964 335.074C224.91 335.074 225.634 335.653 225.634 336.574C225.634 337.379 225.161 337.976 224.151 339.08L221.271 342.233V343ZM229.286 341.884C229.708 341.884 230.053 341.538 230.053 341.116C230.053 340.695 229.708 340.349 229.286 340.349C228.864 340.349 228.519 340.695 228.519 341.116C228.519 341.538 228.864 341.884 229.286 341.884ZM229.286 337.469C229.708 337.469 230.053 337.124 230.053 336.702C230.053 336.28 229.708 335.935 229.286 335.935C228.864 335.935 228.519 336.28 228.519 336.702C228.519 337.124 228.864 337.469 229.286 337.469ZM234.688 343.119C236.614 343.119 237.722 341.487 237.722 338.636C237.722 335.807 236.597 334.153 234.688 334.153C232.778 334.153 231.653 335.807 231.653 338.636C231.653 341.487 232.761 343.119 234.688 343.119ZM234.688 342.182C233.418 342.182 232.676 340.908 232.676 338.636C232.676 336.369 233.426 335.074 234.688 335.074C235.949 335.074 236.699 336.369 236.699 338.636C236.699 340.908 235.957 342.182 234.688 342.182ZM242.188 343.119C244.114 343.119 245.222 341.487 245.222 338.636C245.222 335.807 244.097 334.153 242.188 334.153C240.278 334.153 239.153 335.807 239.153 338.636C239.153 341.487 240.261 343.119 242.188 343.119ZM242.188 342.182C240.918 342.182 240.176 340.908 240.176 338.636C240.176 336.369 240.926 335.074 242.188 335.074C243.449 335.074 244.199 336.369 244.199 338.636C244.199 340.908 243.457 342.182 242.188 342.182ZM248.784 343.153C249.926 343.153 250.523 342.54 250.727 342.114H250.778V343H251.784V338.688C251.784 336.608 250.199 336.369 249.364 336.369C248.375 336.369 247.25 336.71 246.739 337.903L247.693 338.244C247.915 337.767 248.439 337.256 249.398 337.256C250.322 337.256 250.778 337.746 250.778 338.585V338.619C250.778 339.105 250.284 339.062 249.091 339.216C247.876 339.374 246.551 339.642 246.551 341.142C246.551 342.42 247.54 343.153 248.784 343.153ZM248.938 342.25C248.136 342.25 247.557 341.892 247.557 341.193C247.557 340.426 248.256 340.188 249.04 340.085C249.466 340.034 250.608 339.915 250.778 339.71V340.631C250.778 341.449 250.131 342.25 248.938 342.25ZM253.62 343H254.625V338.909C254.625 337.95 255.324 337.273 256.108 337.273C256.871 337.273 257.404 337.771 257.404 338.517V343H258.426V338.739C258.426 337.895 258.955 337.273 259.875 337.273C260.591 337.273 261.205 337.652 261.205 338.619V343H262.211V338.619C262.211 337.081 261.384 336.369 260.216 336.369C259.279 336.369 258.593 336.8 258.256 337.477H258.188C257.864 336.778 257.293 336.369 256.432 336.369C255.58 336.369 254.949 336.778 254.676 337.477H254.591V336.455H253.62V343Z" fill="#66768A"/>
<path fill-rule="evenodd" clip-rule="evenodd" d="M81.5217 335.5H82.9565C83.5328 335.5 84 335.948 84 336.5V345C84 345.552 83.5328 346 82.9565 346H73.0435C72.4672 346 72 345.552 72 345V336.5C72 335.948 72.4672 335.5 73.0435 335.5H73.8261C73.9702 335.5 74.087 335.612 74.087 335.75V336.875C74.087 337.082 74.2621 337.25 74.4783 337.25C74.6944 337.25 74.8696 337.082 74.8696 336.875V334.5C74.8696 334.224 75.1032 334 75.3913 334C75.6795 334 75.913 334.224 75.913 334.5V335.375C75.9133 335.444 75.9716 335.5 76.0435 335.5H79.3043C79.4484 335.5 79.5652 335.612 79.5652 335.75V336.875C79.5652 337.082 79.7404 337.25 79.9565 337.25C80.1726 337.25 80.3478 337.082 80.3478 336.875V334.5C80.3478 334.224 80.5814 334 80.8696 334C81.1577 334 81.3913 334.224 81.3913 334.5V335.375C81.3913 335.444 81.4497 335.5 81.5217 335.5ZM73.3043 345H82.6957C82.8397 345 82.9565 344.888 82.9565 344.75V338.75C82.9565 338.612 82.8397 338.5 82.6957 338.5H73.3043C73.1603 338.5 73.0435 338.612 73.0435 338.75V344.75C73.0435 344.888 73.1603 345 73.3043 345Z" fill="#8093AD"/>
<path d="M73.2784 317H80.3068V315.489H75.0341V305.364H73.2784V317ZM85.9347 317.176C87.8381 317.176 89.1847 316.239 89.571 314.818L87.9631 314.528C87.6562 315.352 86.9176 315.773 85.9517 315.773C84.4972 315.773 83.5199 314.83 83.4744 313.148H89.679V312.545C89.679 309.392 87.7926 308.159 85.8153 308.159C83.3835 308.159 81.7812 310.011 81.7812 312.693C81.7812 315.403 83.3608 317.176 85.9347 317.176ZM83.4801 311.875C83.5483 310.636 84.446 309.562 85.8267 309.562C87.1449 309.562 88.0085 310.54 88.0142 311.875H83.4801ZM94.1037 317.193C95.5469 317.193 96.3594 316.46 96.6832 315.807H96.7514V317H98.4105V311.205C98.4105 308.665 96.4105 308.159 95.0241 308.159C93.4446 308.159 91.9901 308.795 91.4219 310.386L93.0185 310.75C93.2685 310.131 93.9048 309.534 95.0469 309.534C96.1435 309.534 96.706 310.108 96.706 311.097V311.136C96.706 311.756 96.0696 311.744 94.5014 311.926C92.848 312.119 91.1548 312.551 91.1548 314.534C91.1548 316.25 92.4446 317.193 94.1037 317.193ZM94.473 315.83C93.5128 315.83 92.8196 315.398 92.8196 314.557C92.8196 313.648 93.6264 313.324 94.6094 313.193C95.1605 313.119 96.4673 312.972 96.7116 312.727V313.852C96.7116 314.886 95.8878 315.83 94.473 315.83ZM100.673 317H102.372V311.67C102.372 310.528 103.253 309.705 104.457 309.705C104.81 309.705 105.207 309.767 105.344 309.807V308.182C105.173 308.159 104.838 308.142 104.622 308.142C103.599 308.142 102.724 308.722 102.406 309.659H102.315V308.273H100.673V317ZM108.513 311.818C108.513 310.426 109.365 309.631 110.547 309.631C111.7 309.631 112.399 310.386 112.399 311.653V317H114.098V311.449C114.098 309.29 112.911 308.159 111.126 308.159C109.814 308.159 108.956 308.767 108.553 309.693H108.445V308.273H106.814V317H108.513V311.818ZM116.376 317H118.075V308.273H116.376V317ZM117.234 306.926C117.82 306.926 118.308 306.472 118.308 305.915C118.308 305.358 117.82 304.898 117.234 304.898C116.643 304.898 116.161 305.358 116.161 305.915C116.161 306.472 116.643 306.926 117.234 306.926ZM122.06 311.818C122.06 310.426 122.912 309.631 124.094 309.631C125.247 309.631 125.946 310.386 125.946 311.653V317H127.645V311.449C127.645 309.29 126.457 308.159 124.673 308.159C123.361 308.159 122.503 308.767 122.099 309.693H121.991V308.273H120.361V317H122.06V311.818ZM133.582 320.438C135.804 320.438 137.52 319.42 137.52 317.193V308.273H135.855V309.688H135.73C135.429 309.148 134.827 308.159 133.202 308.159C131.094 308.159 129.543 309.824 129.543 312.602C129.543 315.386 131.128 316.869 133.19 316.869C134.793 316.869 135.412 315.966 135.719 315.409H135.827V317.125C135.827 318.472 134.889 319.068 133.599 319.068C132.185 319.068 131.634 318.358 131.332 317.875L129.872 318.477C130.332 319.528 131.497 320.438 133.582 320.438ZM133.565 315.46C132.048 315.46 131.259 314.295 131.259 312.58C131.259 310.903 132.031 309.602 133.565 309.602C135.048 309.602 135.844 310.812 135.844 312.58C135.844 314.381 135.031 315.46 133.565 315.46ZM144.033 317H145.732V311.67C145.732 310.528 146.612 309.705 147.817 309.705C148.169 309.705 148.567 309.767 148.703 309.807V308.182C148.533 308.159 148.197 308.142 147.982 308.142C146.959 308.142 146.084 308.722 145.766 309.659H145.675V308.273H144.033V317ZM153.622 317.176C155.526 317.176 156.872 316.239 157.259 314.818L155.651 314.528C155.344 315.352 154.605 315.773 153.639 315.773C152.185 315.773 151.207 314.83 151.162 313.148H157.366V312.545C157.366 309.392 155.48 308.159 153.503 308.159C151.071 308.159 149.469 310.011 149.469 312.693C149.469 315.403 151.048 317.176 153.622 317.176ZM151.168 311.875C151.236 310.636 152.134 309.562 153.514 309.562C154.832 309.562 155.696 310.54 155.702 311.875H151.168ZM166.842 320.273V308.273H165.183V309.688H165.041C164.74 309.148 164.155 308.159 162.536 308.159C160.428 308.159 158.871 309.824 158.871 312.653C158.871 315.477 160.405 317.17 162.518 317.17C164.109 317.17 164.734 316.199 165.041 315.642H165.143V320.273H166.842ZM165.178 312.636C165.178 314.472 164.359 315.722 162.899 315.722C161.382 315.722 160.587 314.386 160.587 312.636C160.587 310.903 161.359 309.602 162.899 309.602C164.382 309.602 165.178 310.812 165.178 312.636ZM174.655 313.381C174.661 314.864 173.558 315.568 172.604 315.568C171.553 315.568 170.825 314.807 170.825 313.619V308.273H169.126V313.824C169.126 315.989 170.314 317.114 171.99 317.114C173.303 317.114 174.195 316.42 174.598 315.489H174.689V317H176.359V308.273H174.655V313.381ZM178.642 317H180.341V308.273H178.642V317ZM179.5 306.926C180.085 306.926 180.574 306.472 180.574 305.915C180.574 305.358 180.085 304.898 179.5 304.898C178.909 304.898 178.426 305.358 178.426 305.915C178.426 306.472 178.909 306.926 179.5 306.926ZM182.626 317H184.325V311.67C184.325 310.528 185.206 309.705 186.411 309.705C186.763 309.705 187.161 309.767 187.297 309.807V308.182C187.126 308.159 186.791 308.142 186.575 308.142C185.553 308.142 184.678 308.722 184.359 309.659H184.268V308.273H182.626V317ZM192.216 317.176C194.119 317.176 195.466 316.239 195.852 314.818L194.244 314.528C193.938 315.352 193.199 315.773 192.233 315.773C190.778 315.773 189.801 314.83 189.756 313.148H195.96V312.545C195.96 309.392 194.074 308.159 192.097 308.159C189.665 308.159 188.062 310.011 188.062 312.693C188.062 315.403 189.642 317.176 192.216 317.176ZM189.761 311.875C189.83 310.636 190.727 309.562 192.108 309.562C193.426 309.562 194.29 310.54 194.295 311.875H189.761ZM197.845 317H199.544V311.619C199.544 310.443 200.368 309.625 201.334 309.625C202.277 309.625 202.93 310.25 202.93 311.199V317H204.624V311.438C204.624 310.386 205.266 309.625 206.374 309.625C207.271 309.625 208.01 310.125 208.01 311.307V317H209.709V311.148C209.709 309.153 208.595 308.159 207.016 308.159C205.76 308.159 204.817 308.761 204.396 309.693H204.305C203.925 308.739 203.124 308.159 201.959 308.159C200.805 308.159 199.947 308.733 199.584 309.693H199.476V308.273H197.845V317ZM215.747 317.176C217.651 317.176 218.997 316.239 219.384 314.818L217.776 314.528C217.469 315.352 216.73 315.773 215.764 315.773C214.31 315.773 213.332 314.83 213.287 313.148H219.491V312.545C219.491 309.392 217.605 308.159 215.628 308.159C213.196 308.159 211.594 310.011 211.594 312.693C211.594 315.403 213.173 317.176 215.747 317.176ZM213.293 311.875C213.361 310.636 214.259 309.562 215.639 309.562C216.957 309.562 217.821 310.54 217.827 311.875H213.293ZM223.075 311.818C223.075 310.426 223.928 309.631 225.109 309.631C226.263 309.631 226.962 310.386 226.962 311.653V317H228.661V311.449C228.661 309.29 227.473 308.159 225.689 308.159C224.376 308.159 223.518 308.767 223.115 309.693H223.007V308.273H221.376V317H223.075V311.818ZM235.013 308.273H233.223V306.182H231.524V308.273H230.246V309.636H231.524V314.79C231.518 316.375 232.729 317.142 234.07 317.114C234.609 317.108 234.973 317.006 235.172 316.932L234.865 315.528C234.751 315.551 234.541 315.602 234.268 315.602C233.717 315.602 233.223 315.42 233.223 314.438V309.636H235.013V308.273ZM243.291 310.403C242.939 309.045 241.876 308.159 239.99 308.159C238.018 308.159 236.621 309.199 236.621 310.744C236.621 311.983 237.371 312.807 239.007 313.17L240.484 313.494C241.325 313.682 241.717 314.057 241.717 314.602C241.717 315.278 240.996 315.807 239.882 315.807C238.865 315.807 238.212 315.369 238.007 314.511L236.365 314.761C236.649 316.307 237.933 317.176 239.893 317.176C242.001 317.176 243.462 316.057 243.462 314.477C243.462 313.244 242.678 312.483 241.075 312.114L239.689 311.795C238.729 311.568 238.314 311.244 238.32 310.653C238.314 309.983 239.041 309.506 240.007 309.506C241.064 309.506 241.553 310.091 241.751 310.676L243.291 310.403ZM253.717 308.273H251.837V307.489C251.837 306.716 252.155 306.295 252.984 306.295C253.337 306.295 253.587 306.375 253.746 306.426L254.143 305.051C253.905 304.96 253.411 304.818 252.723 304.818C251.342 304.818 250.132 305.625 250.132 307.261V308.273H248.786V309.636H250.132V317H251.837V309.636H253.717V308.273ZM258.803 317.176C261.263 317.176 262.871 315.375 262.871 312.676C262.871 309.96 261.263 308.159 258.803 308.159C256.342 308.159 254.734 309.96 254.734 312.676C254.734 315.375 256.342 317.176 258.803 317.176ZM258.808 315.75C257.2 315.75 256.45 314.347 256.45 312.67C256.45 311 257.2 309.58 258.808 309.58C260.405 309.58 261.155 311 261.155 312.67C261.155 314.347 260.405 315.75 258.808 315.75ZM264.767 317H266.466V311.67C266.466 310.528 267.347 309.705 268.551 309.705C268.903 309.705 269.301 309.767 269.438 309.807V308.182C269.267 308.159 268.932 308.142 268.716 308.142C267.693 308.142 266.818 308.722 266.5 309.659H266.409V308.273H264.767V317ZM276.216 320.25C277.619 320.25 278.511 319.517 279.011 318.165L282.619 308.29L280.784 308.273L278.574 315.045H278.483L276.273 308.273H274.455L277.648 317.114L277.438 317.693C277.006 318.824 276.398 318.926 275.466 318.67L275.057 320.062C275.261 320.159 275.705 320.25 276.216 320.25ZM287.584 317.176C290.044 317.176 291.652 315.375 291.652 312.676C291.652 309.96 290.044 308.159 287.584 308.159C285.124 308.159 283.516 309.96 283.516 312.676C283.516 315.375 285.124 317.176 287.584 317.176ZM287.589 315.75C285.982 315.75 285.232 314.347 285.232 312.67C285.232 311 285.982 309.58 287.589 309.58C289.186 309.58 289.936 311 289.936 312.67C289.936 314.347 289.186 315.75 287.589 315.75ZM299.077 313.381C299.082 314.864 297.98 315.568 297.026 315.568C295.974 315.568 295.247 314.807 295.247 313.619V308.273H293.548V313.824C293.548 315.989 294.736 317.114 296.412 317.114C297.724 317.114 298.616 316.42 299.02 315.489H299.111V317H300.781V308.273H299.077V313.381ZM303.064 317H304.763V311.67C304.763 310.528 305.643 309.705 306.848 309.705C307.2 309.705 307.598 309.767 307.734 309.807V308.182C307.564 308.159 307.229 308.142 307.013 308.142C305.99 308.142 305.115 308.722 304.797 309.659H304.706V308.273H303.064V317ZM319.979 310.403C319.626 309.045 318.564 308.159 316.678 308.159C314.706 308.159 313.308 309.199 313.308 310.744C313.308 311.983 314.058 312.807 315.695 313.17L317.172 313.494C318.013 313.682 318.405 314.057 318.405 314.602C318.405 315.278 317.683 315.807 316.57 315.807C315.553 315.807 314.899 315.369 314.695 314.511L313.053 314.761C313.337 316.307 314.621 317.176 316.581 317.176C318.689 317.176 320.149 316.057 320.149 314.477C320.149 313.244 319.365 312.483 317.763 312.114L316.376 311.795C315.416 311.568 315.001 311.244 315.007 310.653C315.001 309.983 315.729 309.506 316.695 309.506C317.751 309.506 318.24 310.091 318.439 310.676L319.979 310.403ZM327.545 313.381C327.551 314.864 326.449 315.568 325.494 315.568C324.443 315.568 323.716 314.807 323.716 313.619V308.273H322.017V313.824C322.017 315.989 323.205 317.114 324.881 317.114C326.193 317.114 327.085 316.42 327.489 315.489H327.58V317H329.25V308.273H327.545V313.381ZM331.669 317H333.328V315.642H333.47C333.777 316.199 334.402 317.17 335.993 317.17C338.107 317.17 339.641 315.477 339.641 312.653C339.641 309.824 338.084 308.159 335.976 308.159C334.357 308.159 333.771 309.148 333.47 309.688H333.368V305.364H331.669V317ZM333.334 312.636C333.334 310.812 334.129 309.602 335.612 309.602C337.152 309.602 337.925 310.903 337.925 312.636C337.925 314.386 337.129 315.722 335.612 315.722C334.152 315.722 333.334 314.472 333.334 312.636ZM341.548 317H343.247V311.619C343.247 310.443 344.071 309.625 345.037 309.625C345.98 309.625 346.634 310.25 346.634 311.199V317H348.327V311.438C348.327 310.386 348.969 309.625 350.077 309.625C350.974 309.625 351.713 310.125 351.713 311.307V317H353.412V311.148C353.412 309.153 352.298 308.159 350.719 308.159C349.463 308.159 348.52 308.761 348.099 309.693H348.009C347.628 308.739 346.827 308.159 345.662 308.159C344.509 308.159 343.651 308.733 343.287 309.693H343.179V308.273H341.548V317ZM355.689 317H357.388V308.273H355.689V317ZM356.547 306.926C357.132 306.926 357.621 306.472 357.621 305.915C357.621 305.358 357.132 304.898 356.547 304.898C355.956 304.898 355.473 305.358 355.473 305.915C355.473 306.472 355.956 306.926 356.547 306.926ZM366.213 310.403C365.861 309.045 364.798 308.159 362.912 308.159C360.94 308.159 359.543 309.199 359.543 310.744C359.543 311.983 360.293 312.807 361.929 313.17L363.406 313.494C364.247 313.682 364.639 314.057 364.639 314.602C364.639 315.278 363.918 315.807 362.804 315.807C361.787 315.807 361.134 315.369 360.929 314.511L359.287 314.761C359.571 316.307 360.855 317.176 362.815 317.176C364.923 317.176 366.384 316.057 366.384 314.477C366.384 313.244 365.599 312.483 363.997 312.114L362.611 311.795C361.651 311.568 361.236 311.244 361.241 310.653C361.236 309.983 361.963 309.506 362.929 309.506C363.986 309.506 364.474 310.091 364.673 310.676L366.213 310.403ZM374.791 310.403C374.439 309.045 373.376 308.159 371.49 308.159C369.518 308.159 368.121 309.199 368.121 310.744C368.121 311.983 368.871 312.807 370.507 313.17L371.984 313.494C372.825 313.682 373.217 314.057 373.217 314.602C373.217 315.278 372.496 315.807 371.382 315.807C370.365 315.807 369.712 315.369 369.507 314.511L367.865 314.761C368.149 316.307 369.433 317.176 371.393 317.176C373.501 317.176 374.962 316.057 374.962 314.477C374.962 313.244 374.178 312.483 372.575 312.114L371.189 311.795C370.229 311.568 369.814 311.244 369.82 310.653C369.814 309.983 370.541 309.506 371.507 309.506C372.564 309.506 373.053 310.091 373.251 310.676L374.791 310.403ZM376.83 317H378.528V308.273H376.83V317ZM377.688 306.926C378.273 306.926 378.761 306.472 378.761 305.915C378.761 305.358 378.273 304.898 377.688 304.898C377.097 304.898 376.614 305.358 376.614 305.915C376.614 306.472 377.097 306.926 377.688 306.926ZM384.49 317.176C386.95 317.176 388.558 315.375 388.558 312.676C388.558 309.96 386.95 308.159 384.49 308.159C382.03 308.159 380.422 309.96 380.422 312.676C380.422 315.375 382.03 317.176 384.49 317.176ZM384.496 315.75C382.888 315.75 382.138 314.347 382.138 312.67C382.138 311 382.888 309.58 384.496 309.58C386.092 309.58 386.842 311 386.842 312.67C386.842 314.347 386.092 315.75 384.496 315.75ZM392.153 311.818C392.153 310.426 393.006 309.631 394.188 309.631C395.341 309.631 396.04 310.386 396.04 311.653V317H397.739V311.449C397.739 309.29 396.551 308.159 394.767 308.159C393.455 308.159 392.597 308.767 392.193 309.693H392.085V308.273H390.455V317H392.153V311.818Z" fill="#001632"/>
<g clip-path="url(#clip2)">
<path d="M35 300.748C36.243 300.748 37.25 301.755 37.25 302.998C37.25 304.241 36.243 305.248 35 305.248C33.757 305.248 32.75 304.241 32.75 302.998C32.75 301.755 33.757 300.748 35 300.748Z" stroke="#001632" stroke-width="1.5" stroke-linecap="round" stroke-linejoin="round"/>
<path d="M35 309.748C36.243 309.748 37.25 310.755 37.25 311.998C37.25 313.241 36.243 314.248 35 314.248C33.757 314.248 32.75 313.241 32.75 311.998C32.75 310.755 33.757 309.748 35 309.748Z" stroke="#001632" stroke-width="1.5" stroke-linecap="round" stroke-linejoin="round"/>
<path d="M35 318.748C36.243 318.748 37.25 319.755 37.25 320.998C37.25 322.241 36.243 323.248 35 323.248C33.757 323.248 32.75 322.241 32.75 320.998C32.75 319.755 33.757 318.748 35 318.748Z" stroke="#001632" stroke-width="1.5" stroke-linecap="round" stroke-linejoin="round"/>
<path d="M40.25 303.748H55.25" stroke="#001632" stroke-width="1.5" stroke-linecap="round" stroke-linejoin="round"/>
<path d="M40.25 312.748H55.25" stroke="#001632" stroke-width="1.5" stroke-linecap="round" stroke-linejoin="round"/>
<path d="M40.25 321.748H55.25" stroke="#001632" stroke-width="1.5" stroke-linecap="round" stroke-linejoin="round"/>
</g>
<g filter="url(#filter2_d)">
<rect x="206" y="8" width="386" height="96" rx="5.7" fill="white"/>
</g>
<path d="M242 32.75C243.864 32.75 245.375 34.261 245.375 36.125C245.375 37.989 243.864 39.5 242 39.5C240.136 39.5 238.625 37.989 238.625 36.125C238.625 34.261 240.136 32.75 242 32.75Z" stroke="#001632" stroke-width="1.5" stroke-linecap="round" stroke-linejoin="round"/>
<path d="M244.92 41.75C243.102 40.75 240.898 40.75 239.08 41.75" stroke="#001632" stroke-width="1.5" stroke-linecap="round" stroke-linejoin="round"/>
<path d="M242 55.25C242 55.25 245.514 52.124 248.986 51.771C249.722 51.67 250.266 51.033 250.25 50.29V44.762C250.271 43.95 249.629 43.275 248.817 43.254C248.753 43.252 248.689 43.255 248.625 43.262C245.366 43.626 242 46.272 242 46.272C242 46.272 238.634 43.626 235.375 43.262C234.567 43.177 233.843 43.762 233.758 44.57C233.751 44.634 233.749 44.698 233.75 44.762V50.29C233.734 51.033 234.278 51.67 235.014 51.771C238.485 52.124 242 55.25 242 55.25Z" stroke="#001632" stroke-width="1.5" stroke-linecap="round" stroke-linejoin="round"/>
<path d="M242 46.269V55.247" stroke="#001632" stroke-width="1.5" stroke-linecap="round" stroke-linejoin="round"/>
<path d="M298.75 75C301.409 75 302.909 73.3466 302.909 70.6193C302.909 67.9091 301.409 66.2727 298.869 66.2727H296.057V75H298.75ZM297.114 74.0625V67.2102H298.801C300.847 67.2102 301.886 68.5057 301.886 70.6193C301.886 72.75 300.847 74.0625 298.682 74.0625H297.114ZM307.29 75.1364C308.619 75.1364 309.591 74.4716 309.898 73.483L308.926 73.2102C308.67 73.892 308.078 74.233 307.29 74.233C306.109 74.233 305.295 73.4702 305.249 72.0682H310V71.642C310 69.2045 308.551 68.3693 307.188 68.3693C305.415 68.3693 304.239 69.767 304.239 71.7784C304.239 73.7898 305.398 75.1364 307.29 75.1364ZM305.249 71.1989C305.317 70.1804 306.037 69.2727 307.188 69.2727C308.278 69.2727 308.977 70.0909 308.977 71.1989H305.249ZM313.456 75.1534C314.598 75.1534 315.195 74.5398 315.399 74.1136H315.45V75H316.456V70.6875C316.456 68.608 314.871 68.3693 314.036 68.3693C313.047 68.3693 311.922 68.7102 311.411 69.9034L312.365 70.2443C312.587 69.767 313.111 69.2557 314.07 69.2557C314.994 69.2557 315.45 69.7457 315.45 70.5852V70.6193C315.45 71.1051 314.956 71.0625 313.763 71.2159C312.548 71.3736 311.223 71.642 311.223 73.142C311.223 74.4205 312.212 75.1534 313.456 75.1534ZM313.609 74.25C312.808 74.25 312.229 73.892 312.229 73.1932C312.229 72.4261 312.928 72.1875 313.712 72.0852C314.138 72.0341 315.28 71.9148 315.45 71.7102V72.6307C315.45 73.4489 314.803 74.25 313.609 74.25ZM320.763 75.1364C322.025 75.1364 322.451 74.3523 322.672 73.9943H322.792V75H323.763V66.2727H322.757V69.4943H322.672C322.451 69.1534 322.059 68.3693 320.78 68.3693C319.127 68.3693 317.985 69.6818 317.985 71.7443C317.985 73.8239 319.127 75.1364 320.763 75.1364ZM320.9 74.233C319.638 74.233 318.99 73.125 318.99 71.7273C318.99 70.3466 319.621 69.2727 320.9 69.2727C322.127 69.2727 322.775 70.2614 322.775 71.7273C322.775 73.2102 322.11 74.233 320.9 74.233ZM326.75 66.2727H325.745V75H326.75V66.2727ZM328.592 75H329.598V68.4545H328.592V75ZM329.104 67.3636C329.496 67.3636 329.82 67.0568 329.82 66.6818C329.82 66.3068 329.496 66 329.104 66C328.712 66 328.388 66.3068 328.388 66.6818C328.388 67.0568 328.712 67.3636 329.104 67.3636ZM332.446 71.0625C332.446 69.9205 333.153 69.2727 334.116 69.2727C335.049 69.2727 335.616 69.8821 335.616 70.9091V75H336.622V70.8409C336.622 69.1705 335.731 68.3693 334.406 68.3693C333.417 68.3693 332.804 68.8125 332.497 69.4773H332.412V68.4545H331.44V75H332.446V71.0625ZM341.204 75.1364C342.533 75.1364 343.505 74.4716 343.812 73.483L342.84 73.2102C342.585 73.892 341.992 74.233 341.204 74.233C340.023 74.233 339.21 73.4702 339.163 72.0682H343.914V71.642C343.914 69.2045 342.465 68.3693 341.102 68.3693C339.329 68.3693 338.153 69.767 338.153 71.7784C338.153 73.7898 339.312 75.1364 341.204 75.1364ZM339.163 71.1989C339.231 70.1804 339.951 69.2727 341.102 69.2727C342.192 69.2727 342.891 70.0909 342.891 71.1989H339.163ZM353.898 70.7898H347.898V71.7273H353.898V70.7898ZM358.33 66.2727V75H359.319V68.3693H359.404L362.131 75H363.086L365.813 68.3693H365.898V75H366.887V66.2727H365.626L362.66 73.517H362.558L359.592 66.2727H358.33ZM370.796 75.1534C371.938 75.1534 372.534 74.5398 372.739 74.1136H372.79V75H373.796V70.6875C373.796 68.608 372.211 68.3693 371.375 68.3693C370.387 68.3693 369.262 68.7102 368.75 69.9034L369.705 70.2443C369.926 69.767 370.451 69.2557 371.409 69.2557C372.334 69.2557 372.79 69.7457 372.79 70.5852V70.6193C372.79 71.1051 372.296 71.0625 371.103 71.2159C369.888 71.3736 368.563 71.642 368.563 73.142C368.563 74.4205 369.551 75.1534 370.796 75.1534ZM370.949 74.25C370.148 74.25 369.569 73.892 369.569 73.1932C369.569 72.4261 370.267 72.1875 371.051 72.0852C371.478 72.0341 372.62 71.9148 372.79 71.7102V72.6307C372.79 73.4489 372.142 74.25 370.949 74.25ZM375.631 75H376.637V70.858C376.637 69.9716 377.336 69.3239 378.29 69.3239C378.559 69.3239 378.836 69.375 378.904 69.392V68.3693C378.789 68.3608 378.525 68.3523 378.376 68.3523C377.592 68.3523 376.91 68.7955 376.671 69.4432H376.603V68.4545H375.631V75ZM382.556 75.1364C384.005 75.1364 384.96 74.25 385.13 73.0909H384.124C383.937 73.8068 383.34 74.233 382.556 74.233C381.363 74.233 380.596 73.2443 380.596 71.7273C380.596 70.2443 381.38 69.2727 382.556 69.2727C383.442 69.2727 383.971 69.8182 384.124 70.4148H385.13C384.96 69.1875 383.92 68.3693 382.539 68.3693C380.766 68.3693 379.59 69.767 379.59 71.7614C379.59 73.7216 380.715 75.1364 382.556 75.1364ZM387.606 71.0625C387.606 69.9205 388.335 69.2727 389.327 69.2727C390.273 69.2727 390.844 69.8693 390.844 70.9091V75H391.85V70.8409C391.85 69.1577 390.955 68.3693 389.617 68.3693C388.586 68.3693 387.998 68.7997 387.691 69.4773H387.606V66.2727H386.6V75H387.606V71.0625ZM400.116 66.2727H399.059L396.877 67.7216V68.7955L399.008 67.3807H399.059V75H400.116V66.2727ZM405.575 75.1193C407.267 75.1193 408.524 74.0582 408.524 72.6307C408.524 71.5227 407.868 70.7173 406.768 70.5341V70.4659C407.65 70.1974 408.2 69.473 408.2 68.4886C408.2 67.2528 407.224 66.1534 405.609 66.1534C404.1 66.1534 402.848 67.0824 402.797 68.4545H403.819C403.858 67.5852 404.684 67.0739 405.592 67.0739C406.555 67.0739 407.177 67.6577 407.177 68.5398C407.177 69.4602 406.457 70.0568 405.422 70.0568H404.723V70.9943H405.422C406.747 70.9943 407.484 71.6676 407.484 72.6307C407.484 73.5554 406.679 74.1818 405.558 74.1818C404.548 74.1818 403.747 73.6619 403.683 72.8182H402.609C402.673 74.1903 403.883 75.1193 405.575 75.1193ZM411.374 73.8068H410.283L410.232 74.2841C410.108 75.4389 409.865 76.5895 409.754 77.1307H410.521C410.726 76.5511 411.161 75.2386 411.305 74.267L411.374 73.8068ZM419.663 66.2727H418.606L416.424 67.7216V68.7955L418.555 67.3807H418.606V75H419.663V66.2727ZM425.02 75.1193C426.946 75.1193 428.054 73.4872 428.054 70.6364C428.054 67.8068 426.929 66.1534 425.02 66.1534C423.11 66.1534 421.985 67.8068 421.985 70.6364C421.985 73.4872 423.093 75.1193 425.02 75.1193ZM425.02 74.1818C423.75 74.1818 423.008 72.9077 423.008 70.6364C423.008 68.3693 423.758 67.0739 425.02 67.0739C426.281 67.0739 427.031 68.3693 427.031 70.6364C427.031 72.9077 426.289 74.1818 425.02 74.1818ZM430.423 73.8835C430.845 73.8835 431.19 73.5384 431.19 73.1165C431.19 72.6946 430.845 72.3494 430.423 72.3494C430.001 72.3494 429.656 72.6946 429.656 73.1165C429.656 73.5384 430.001 73.8835 430.423 73.8835ZM430.423 69.4688C430.845 69.4688 431.19 69.1236 431.19 68.7017C431.19 68.2798 430.845 67.9347 430.423 67.9347C430.001 67.9347 429.656 68.2798 429.656 68.7017C429.656 69.1236 430.001 69.4688 430.423 69.4688ZM435.926 75.1193C437.618 75.1193 438.875 74.0582 438.875 72.6307C438.875 71.5227 438.219 70.7173 437.12 70.5341V70.4659C438.002 70.1974 438.551 69.473 438.551 68.4886C438.551 67.2528 437.576 66.1534 435.961 66.1534C434.452 66.1534 433.199 67.0824 433.148 68.4545H434.171C434.209 67.5852 435.036 67.0739 435.944 67.0739C436.907 67.0739 437.529 67.6577 437.529 68.5398C437.529 69.4602 436.809 70.0568 435.773 70.0568H435.074V70.9943H435.773C437.098 70.9943 437.836 71.6676 437.836 72.6307C437.836 73.5554 437.03 74.1818 435.909 74.1818C434.9 74.1818 434.098 73.6619 434.034 72.8182H432.961C433.025 74.1903 434.235 75.1193 435.926 75.1193ZM443.465 75.1193C445.391 75.1193 446.499 73.4872 446.499 70.6364C446.499 67.8068 445.374 66.1534 443.465 66.1534C441.556 66.1534 440.431 67.8068 440.431 70.6364C440.431 73.4872 441.539 75.1193 443.465 75.1193ZM443.465 74.1818C442.195 74.1818 441.453 72.9077 441.453 70.6364C441.453 68.3693 442.203 67.0739 443.465 67.0739C444.726 67.0739 445.476 68.3693 445.476 70.6364C445.476 72.9077 444.735 74.1818 443.465 74.1818ZM450.061 75.1534C451.203 75.1534 451.8 74.5398 452.005 74.1136H452.056V75H453.061V70.6875C453.061 68.608 451.476 68.3693 450.641 68.3693C449.652 68.3693 448.527 68.7102 448.016 69.9034L448.971 70.2443C449.192 69.767 449.716 69.2557 450.675 69.2557C451.6 69.2557 452.056 69.7457 452.056 70.5852V70.6193C452.056 71.1051 451.561 71.0625 450.368 71.2159C449.154 71.3736 447.828 71.642 447.828 73.142C447.828 74.4205 448.817 75.1534 450.061 75.1534ZM450.215 74.25C449.414 74.25 448.834 73.892 448.834 73.1932C448.834 72.4261 449.533 72.1875 450.317 72.0852C450.743 72.0341 451.885 71.9148 452.056 71.7102V72.6307C452.056 73.4489 451.408 74.25 450.215 74.25ZM454.897 75H455.903V70.9091C455.903 69.9503 456.602 69.2727 457.386 69.2727C458.148 69.2727 458.681 69.7713 458.681 70.517V75H459.704V70.7386C459.704 69.8949 460.232 69.2727 461.153 69.2727C461.869 69.2727 462.482 69.652 462.482 70.6193V75H463.488V70.6193C463.488 69.081 462.661 68.3693 461.494 68.3693C460.556 68.3693 459.87 68.7997 459.533 69.4773H459.465C459.141 68.7784 458.57 68.3693 457.71 68.3693C456.857 68.3693 456.227 68.7784 455.954 69.4773H455.869V68.4545H454.897V75Z" fill="#66768A"/>
<path fill-rule="evenodd" clip-rule="evenodd" d="M284.522 67.5H285.957C286.533 67.5 287 67.9477 287 68.5V77C287 77.5523 286.533 78 285.957 78H276.043C275.467 78 275 77.5523 275 77V68.5C275 67.9477 275.467 67.5 276.043 67.5H276.826C276.97 67.5 277.087 67.6119 277.087 67.75V68.875C277.087 69.0821 277.262 69.25 277.478 69.25C277.694 69.25 277.87 69.0821 277.87 68.875V66.5C277.87 66.2239 278.103 66 278.391 66C278.679 66 278.913 66.2239 278.913 66.5V67.3755C278.913 67.4443 278.972 67.5 279.043 67.5H282.304C282.448 67.5 282.565 67.6119 282.565 67.75V68.875C282.565 69.0821 282.74 69.25 282.957 69.25C283.173 69.25 283.348 69.0821 283.348 68.875V66.5C283.348 66.2239 283.581 66 283.87 66C284.158 66 284.391 66.2239 284.391 66.5V67.375C284.391 67.444 284.45 67.5 284.522 67.5ZM276.304 77H285.696C285.84 77 285.957 76.8881 285.957 76.75V70.75C285.957 70.6119 285.84 70.5 285.696 70.5H276.304C276.16 70.5 276.043 70.6119 276.043 70.75V76.75C276.043 76.8881 276.16 77 276.304 77Z" fill="#8093AD"/>
<path d="M271.278 49H273.034V44.5966H275.42C275.46 44.5966 275.494 44.5966 275.534 44.5966L277.898 49H279.898L277.318 44.2898C278.744 43.7614 279.455 42.5739 279.455 41.0114C279.455 38.8693 278.125 37.3636 275.426 37.3636H271.278V49ZM273.034 43.0852V38.8693H275.239C276.972 38.8693 277.688 39.6932 277.688 41.0114C277.688 42.3239 276.972 43.0852 275.261 43.0852H273.034ZM285.107 49.1761C287.01 49.1761 288.357 48.2386 288.743 46.8182L287.135 46.5284C286.828 47.3523 286.089 47.7727 285.124 47.7727C283.669 47.7727 282.692 46.8295 282.646 45.1477H288.851V44.5455C288.851 41.392 286.964 40.1591 284.987 40.1591C282.555 40.1591 280.953 42.0114 280.953 44.6932C280.953 47.4034 282.533 49.1761 285.107 49.1761ZM282.652 43.875C282.72 42.6364 283.618 41.5625 284.999 41.5625C286.317 41.5625 287.18 42.5398 287.186 43.875H282.652ZM293.276 49.1932C294.719 49.1932 295.531 48.4602 295.855 47.8068H295.923V49H297.582V43.2045C297.582 40.6648 295.582 40.1591 294.196 40.1591C292.616 40.1591 291.162 40.7955 290.594 42.3864L292.19 42.75C292.44 42.1307 293.077 41.5341 294.219 41.5341C295.315 41.5341 295.878 42.108 295.878 43.0966V43.1364C295.878 43.7557 295.241 43.7443 293.673 43.9261C292.02 44.1193 290.327 44.5511 290.327 46.5341C290.327 48.25 291.616 49.1932 293.276 49.1932ZM293.645 47.8295C292.685 47.8295 291.991 47.3977 291.991 46.5568C291.991 45.6477 292.798 45.3239 293.781 45.1932C294.332 45.1193 295.639 44.9716 295.884 44.7273V45.8523C295.884 46.8864 295.06 47.8295 293.645 47.8295ZM303.112 49.1705C304.703 49.1705 305.328 48.1989 305.635 47.642H305.777V49H307.436V37.3636H305.737V41.6875H305.635C305.328 41.1477 304.749 40.1591 303.124 40.1591C301.016 40.1591 299.464 41.8239 299.464 44.6534C299.464 47.4773 300.993 49.1705 303.112 49.1705ZM303.487 47.7216C301.97 47.7216 301.18 46.3864 301.18 44.6364C301.18 42.9034 301.953 41.6023 303.487 41.6023C304.97 41.6023 305.766 42.8125 305.766 44.6364C305.766 46.4716 304.953 47.7216 303.487 47.7216ZM318.124 49.1591C320.499 49.1591 322.243 47.7386 322.237 45.8068C322.243 44.3352 321.351 43.2784 319.805 43.0398V42.9489C321.021 42.6364 321.811 41.6818 321.805 40.375C321.811 38.6648 320.408 37.2045 318.169 37.2045C316.033 37.2045 314.317 38.4943 314.26 40.3864H315.959C315.999 39.3182 317.004 38.6705 318.146 38.6705C319.334 38.6705 320.112 39.392 320.107 40.4659C320.112 41.5909 319.209 42.3295 317.919 42.3295H316.936V43.7614H317.919C319.533 43.7614 320.464 44.5795 320.464 45.75C320.464 46.8807 319.482 47.6477 318.112 47.6477C316.851 47.6477 315.868 47 315.8 45.9659H314.016C314.089 47.8636 315.771 49.1591 318.124 49.1591ZM332.403 49.1761C334.307 49.1761 335.653 48.2386 336.04 46.8182L334.432 46.5284C334.125 47.3523 333.386 47.7727 332.42 47.7727C330.966 47.7727 329.989 46.8295 329.943 45.1477H336.148V44.5455C336.148 41.392 334.261 40.1591 332.284 40.1591C329.852 40.1591 328.25 42.0114 328.25 44.6932C328.25 47.4034 329.83 49.1761 332.403 49.1761ZM329.949 43.875C330.017 42.6364 330.915 41.5625 332.295 41.5625C333.614 41.5625 334.477 42.5398 334.483 43.875H329.949ZM339.17 40.2727H337.307L339.989 44.6364L337.273 49H339.136L341.097 45.7386L343.062 49H344.92L342.176 44.6364L344.898 40.2727H343.04L341.097 43.6705L339.17 40.2727ZM349.166 49.1932C350.609 49.1932 351.422 48.4602 351.746 47.8068H351.814V49H353.473V43.2045C353.473 40.6648 351.473 40.1591 350.087 40.1591C348.507 40.1591 347.053 40.7955 346.484 42.3864L348.081 42.75C348.331 42.1307 348.967 41.5341 350.109 41.5341C351.206 41.5341 351.768 42.108 351.768 43.0966V43.1364C351.768 43.7557 351.132 43.7443 349.564 43.9261C347.911 44.1193 346.217 44.5511 346.217 46.5341C346.217 48.25 347.507 49.1932 349.166 49.1932ZM349.536 47.8295C348.575 47.8295 347.882 47.3977 347.882 46.5568C347.882 45.6477 348.689 45.3239 349.672 45.1932C350.223 45.1193 351.53 44.9716 351.774 44.7273V45.8523C351.774 46.8864 350.95 47.8295 349.536 47.8295ZM355.736 49H357.435V43.6193C357.435 42.4432 358.259 41.625 359.224 41.625C360.168 41.625 360.821 42.25 360.821 43.1989V49H362.514V43.4375C362.514 42.3864 363.156 41.625 364.264 41.625C365.162 41.625 365.901 42.125 365.901 43.3068V49H367.599V43.1477C367.599 41.1534 366.486 40.1591 364.906 40.1591C363.651 40.1591 362.707 40.7614 362.287 41.6932H362.196C361.815 40.7386 361.014 40.1591 359.849 40.1591C358.696 40.1591 357.838 40.733 357.474 41.6932H357.366V40.2727H355.736V49ZM369.876 52.2727H371.575V47.642H371.678C371.984 48.1989 372.609 49.1705 374.2 49.1705C376.314 49.1705 377.848 47.4773 377.848 44.6534C377.848 41.8239 376.291 40.1591 374.183 40.1591C372.564 40.1591 371.979 41.1477 371.678 41.6875H371.536V40.2727H369.876V52.2727ZM371.541 44.6364C371.541 42.8125 372.337 41.6023 373.82 41.6023C375.359 41.6023 376.132 42.9034 376.132 44.6364C376.132 46.3864 375.337 47.7216 373.82 47.7216C372.359 47.7216 371.541 46.4716 371.541 44.6364ZM381.45 37.3636H379.751V49H381.45V37.3636ZM387.497 49.1761C389.401 49.1761 390.747 48.2386 391.134 46.8182L389.526 46.5284C389.219 47.3523 388.48 47.7727 387.514 47.7727C386.06 47.7727 385.082 46.8295 385.037 45.1477H391.241V44.5455C391.241 41.392 389.355 40.1591 387.378 40.1591C384.946 40.1591 383.344 42.0114 383.344 44.6932C383.344 47.4034 384.923 49.1761 387.497 49.1761ZM385.043 43.875C385.111 42.6364 386.009 41.5625 387.389 41.5625C388.707 41.5625 389.571 42.5398 389.577 43.875H385.043ZM403.901 42.4034C403.548 41.0455 402.486 40.1591 400.599 40.1591C398.628 40.1591 397.23 41.1989 397.23 42.7443C397.23 43.983 397.98 44.8068 399.616 45.1705L401.094 45.4943C401.935 45.6818 402.327 46.0568 402.327 46.6023C402.327 47.2784 401.605 47.8068 400.491 47.8068C399.474 47.8068 398.821 47.3693 398.616 46.5114L396.974 46.7614C397.259 48.3068 398.543 49.1761 400.503 49.1761C402.611 49.1761 404.071 48.0568 404.071 46.4773C404.071 45.2443 403.287 44.483 401.685 44.1136L400.298 43.7955C399.338 43.5682 398.923 43.2443 398.929 42.6534C398.923 41.983 399.651 41.5057 400.616 41.5057C401.673 41.5057 402.162 42.0909 402.361 42.6761L403.901 42.4034ZM411.467 45.3807C411.473 46.8636 410.371 47.5682 409.416 47.5682C408.365 47.5682 407.638 46.8068 407.638 45.6193V40.2727H405.939V45.8239C405.939 47.9886 407.126 49.1136 408.803 49.1136C410.115 49.1136 411.007 48.4205 411.411 47.4886H411.501V49H413.172V40.2727H411.467V45.3807ZM415.591 49H417.25V47.642H417.392C417.699 48.1989 418.324 49.1705 419.915 49.1705C422.028 49.1705 423.562 47.4773 423.562 44.6534C423.562 41.8239 422.006 40.1591 419.898 40.1591C418.278 40.1591 417.693 41.1477 417.392 41.6875H417.29V37.3636H415.591V49ZM417.256 44.6364C417.256 42.8125 418.051 41.6023 419.534 41.6023C421.074 41.6023 421.847 42.9034 421.847 44.6364C421.847 46.3864 421.051 47.7216 419.534 47.7216C418.074 47.7216 417.256 46.4716 417.256 44.6364ZM425.47 49H427.169V43.6193C427.169 42.4432 427.993 41.625 428.959 41.625C429.902 41.625 430.555 42.25 430.555 43.1989V49H432.249V43.4375C432.249 42.3864 432.891 41.625 433.999 41.625C434.896 41.625 435.635 42.125 435.635 43.3068V49H437.334V43.1477C437.334 41.1534 436.22 40.1591 434.641 40.1591C433.385 40.1591 432.442 40.7614 432.021 41.6932H431.93C431.55 40.7386 430.749 40.1591 429.584 40.1591C428.43 40.1591 427.572 40.733 427.209 41.6932H427.101V40.2727H425.47V49ZM439.611 49H441.31V40.2727H439.611V49ZM440.469 38.9261C441.054 38.9261 441.543 38.4716 441.543 37.9148C441.543 37.358 441.054 36.8977 440.469 36.8977C439.878 36.8977 439.395 37.358 439.395 37.9148C439.395 38.4716 439.878 38.9261 440.469 38.9261ZM450.135 42.4034C449.783 41.0455 448.72 40.1591 446.834 40.1591C444.862 40.1591 443.464 41.1989 443.464 42.7443C443.464 43.983 444.214 44.8068 445.851 45.1705L447.328 45.4943C448.169 45.6818 448.561 46.0568 448.561 46.6023C448.561 47.2784 447.839 47.8068 446.726 47.8068C445.709 47.8068 445.055 47.3693 444.851 46.5114L443.209 46.7614C443.493 48.3068 444.777 49.1761 446.737 49.1761C448.845 49.1761 450.305 48.0568 450.305 46.4773C450.305 45.2443 449.521 44.483 447.919 44.1136L446.533 43.7955C445.572 43.5682 445.158 43.2443 445.163 42.6534C445.158 41.983 445.885 41.5057 446.851 41.5057C447.908 41.5057 448.396 42.0909 448.595 42.6761L450.135 42.4034ZM458.713 42.4034C458.361 41.0455 457.298 40.1591 455.412 40.1591C453.44 40.1591 452.043 41.1989 452.043 42.7443C452.043 43.983 452.793 44.8068 454.429 45.1705L455.906 45.4943C456.747 45.6818 457.139 46.0568 457.139 46.6023C457.139 47.2784 456.418 47.8068 455.304 47.8068C454.287 47.8068 453.634 47.3693 453.429 46.5114L451.787 46.7614C452.071 48.3068 453.355 49.1761 455.315 49.1761C457.423 49.1761 458.884 48.0568 458.884 46.4773C458.884 45.2443 458.099 44.483 456.497 44.1136L455.111 43.7955C454.151 43.5682 453.736 43.2443 453.741 42.6534C453.736 41.983 454.463 41.5057 455.429 41.5057C456.486 41.5057 456.974 42.0909 457.173 42.6761L458.713 42.4034ZM460.751 49H462.45V40.2727H460.751V49ZM461.609 38.9261C462.195 38.9261 462.683 38.4716 462.683 37.9148C462.683 37.358 462.195 36.8977 461.609 36.8977C461.018 36.8977 460.536 37.358 460.536 37.9148C460.536 38.4716 461.018 38.9261 461.609 38.9261ZM468.412 49.1761C470.872 49.1761 472.48 47.375 472.48 44.6761C472.48 41.9602 470.872 40.1591 468.412 40.1591C465.952 40.1591 464.344 41.9602 464.344 44.6761C464.344 47.375 465.952 49.1761 468.412 49.1761ZM468.418 47.75C466.81 47.75 466.06 46.3466 466.06 44.6705C466.06 43 466.81 41.5795 468.418 41.5795C470.014 41.5795 470.764 43 470.764 44.6705C470.764 46.3466 470.014 47.75 468.418 47.75ZM476.075 43.8182C476.075 42.4261 476.928 41.6307 478.109 41.6307C479.263 41.6307 479.962 42.3864 479.962 43.6534V49H481.661V43.4489C481.661 41.2898 480.473 40.1591 478.689 40.1591C477.376 40.1591 476.518 40.767 476.115 41.6932H476.007V40.2727H474.376V49H476.075V43.8182ZM490.479 42.4034C490.126 41.0455 489.064 40.1591 487.178 40.1591C485.206 40.1591 483.808 41.1989 483.808 42.7443C483.808 43.983 484.558 44.8068 486.195 45.1705L487.672 45.4943C488.513 45.6818 488.905 46.0568 488.905 46.6023C488.905 47.2784 488.183 47.8068 487.07 47.8068C486.053 47.8068 485.399 47.3693 485.195 46.5114L483.553 46.7614C483.837 48.3068 485.121 49.1761 487.081 49.1761C489.189 49.1761 490.649 48.0568 490.649 46.4773C490.649 45.2443 489.865 44.483 488.263 44.1136L486.876 43.7955C485.916 43.5682 485.501 43.2443 485.507 42.6534C485.501 41.983 486.229 41.5057 487.195 41.5057C488.251 41.5057 488.74 42.0909 488.939 42.6761L490.479 42.4034Z" fill="#001632"/>
</g>
<defs>
<filter id="filter0_d" x="119.45" y="136.3" width="430.1" height="113.1" filterUnits="userSpaceOnUse" color-interpolation-filters="sRGB">
<feFlood flood-opacity="0" result="BackgroundImageFix"/>
<feColorMatrix in="SourceAlpha" type="matrix" values="0 0 0 0 0 0 0 0 0 0 0 0 0 0 0 0 0 0 127 0"/>
<feOffset dy="2.85"/>
<feGaussianBlur stdDeviation="4.275"/>
<feColorMatrix type="matrix" values="0 0 0 0 0 0 0 0 0 0 0 0 0 0 0 0 0 0 0.06 0"/>
<feBlend mode="normal" in2="BackgroundImageFix" result="effect1_dropShadow"/>
<feBlend mode="normal" in="SourceGraphic" in2="effect1_dropShadow" result="shape"/>
</filter>
<filter id="filter1_d" x="-0.55" y="270.3" width="460.1" height="113.1" filterUnits="userSpaceOnUse" color-interpolation-filters="sRGB">
<feFlood flood-opacity="0" result="BackgroundImageFix"/>
<feColorMatrix in="SourceAlpha" type="matrix" values="0 0 0 0 0 0 0 0 0 0 0 0 0 0 0 0 0 0 127 0"/>
<feOffset dy="2.85"/>
<feGaussianBlur stdDeviation="4.275"/>
<feColorMatrix type="matrix" values="0 0 0 0 0 0 0 0 0 0 0 0 0 0 0 0 0 0 0.06 0"/>
<feBlend mode="normal" in2="BackgroundImageFix" result="effect1_dropShadow"/>
<feBlend mode="normal" in="SourceGraphic" in2="effect1_dropShadow" result="shape"/>
</filter>
<filter id="filter2_d" x="197.45" y="2.3" width="403.1" height="113.1" filterUnits="userSpaceOnUse" color-interpolation-filters="sRGB">
<feFlood flood-opacity="0" result="BackgroundImageFix"/>
<feColorMatrix in="SourceAlpha" type="matrix" values="0 0 0 0 0 0 0 0 0 0 0 0 0 0 0 0 0 0 127 0"/>
<feOffset dy="2.85"/>
<feGaussianBlur stdDeviation="4.275"/>
<feColorMatrix type="matrix" values="0 0 0 0 0 0 0 0 0 0 0 0 0 0 0 0 0 0 0.06 0"/>
<feBlend mode="normal" in2="BackgroundImageFix" result="effect1_dropShadow"/>
<feBlend mode="normal" in="SourceGraphic" in2="effect1_dropShadow" result="shape"/>
</filter>
<clipPath id="clip0">
<rect width="600" height="380" fill="white"/>
</clipPath>
<clipPath id="clip1">
<rect width="12" height="12" fill="white" transform="translate(192 200)"/>
</clipPath>
<clipPath id="clip2">
<rect width="24" height="24" fill="white" transform="translate(32 300)"/>
</clipPath>
</defs>
</svg>
