<svg width="600" height="380" viewBox="0 0 600 380" fill="none" xmlns="http://www.w3.org/2000/svg">
<g clip-path="url(#clip0)">
<path d="M148.917 330.52L148.645 330.828L148.917 330.519C139.63 322.349 132.949 309.697 127.398 295.313C123.499 285.209 120.175 274.298 116.896 263.533C115.506 258.973 114.125 254.439 112.711 250.003L112.711 250.003C110.792 244.013 108.82 238.228 106.904 232.606C104.05 224.235 101.32 216.226 99.0714 208.441C95.3189 195.447 92.9385 183.166 93.6145 171.064L93.6145 171.064C94.9595 146.798 108.497 123.12 126.522 101.013C135.555 89.9589 145.678 79.3356 156.406 71.4717C167.137 63.6054 178.43 58.5304 189.816 58.5C201.206 58.4983 212.777 63.542 224.147 71.5625C235.514 79.5802 246.635 90.5407 257.117 102.299C278.044 125.836 296.34 152.321 299.106 180.498L299.106 180.499C301.919 208.674 289.251 238.587 274.481 266.181C259.672 293.837 242.891 319.006 219.845 332.258C196.779 345.522 167.516 346.885 148.917 330.52Z" stroke="#0CD977"/>
<path d="M174.589 292.415C174.931 293.854 175.277 295.431 175.675 297.001C176.373 299.83 177.091 302.653 177.793 305.478C177.829 305.687 177.841 305.898 177.828 306.109C177.813 306.127 177.794 306.142 177.771 306.153C177.749 306.164 177.724 306.172 177.698 306.175C177.638 306.189 177.574 306.184 177.519 306.159C177.213 305.89 176.93 305.602 176.673 305.299C175.93 304.357 175.037 303.504 174.017 302.764C172.834 301.859 171.743 300.874 170.754 299.819C167.345 296.263 163.627 292.932 159.996 289.538C159.444 289.021 158.812 288.556 158.226 288.065C157.317 287.385 156.463 286.657 155.668 285.885C153.634 283.671 151.202 281.755 149.07 279.611C148.945 279.49 148.833 279.361 148.736 279.224C148.705 279.193 148.681 279.157 148.666 279.119C148.652 279.081 148.647 279.041 148.651 279.001C148.656 278.961 148.67 278.922 148.692 278.886C148.715 278.851 148.746 278.82 148.784 278.794C149.044 278.639 149.317 278.5 149.602 278.379C150.637 277.949 151.672 277.525 152.705 277.119C154.353 276.519 155.927 275.787 157.404 274.933C157.555 274.832 157.718 274.745 157.891 274.673C160.008 273.894 161.955 272.844 164.015 271.971C165.788 271.218 167.523 270.4 169.204 269.518C170.38 268.865 171.625 268.303 172.924 267.839C173.279 267.715 173.62 267.566 173.945 267.393C174.05 267.331 174.138 267.251 174.204 267.159C174.27 267.067 174.312 266.965 174.328 266.859C174.345 266.753 174.335 266.645 174.299 266.542C174.263 266.439 174.202 266.344 174.12 266.262C173.863 266.024 173.583 265.803 173.284 265.602C171.482 264.389 169.82 263.039 168.32 261.568C167.313 260.668 166.244 259.818 165.119 259.021C163.612 257.859 162.082 256.712 160.582 255.543C160.109 255.182 159.668 254.793 159.264 254.378C157.815 252.857 156.002 251.655 154.253 250.401C154.052 250.27 153.839 250.153 153.615 250.051C153.503 250 153.372 249.987 153.249 250.014C153.125 250.041 153.019 250.107 152.953 250.198C152.901 250.345 152.916 250.503 152.995 250.641C153.324 250.967 153.682 251.273 154.064 251.557C155.705 252.755 157.23 254.059 158.625 255.457C160.13 256.92 161.766 258.287 163.518 259.546C165.205 260.788 166.766 262.143 168.186 263.599C168.9 264.286 169.657 264.942 170.453 265.563C170.721 265.794 170.999 266.013 171.267 266.244C171.314 266.312 171.33 266.391 171.314 266.468C171.298 266.545 171.25 266.615 171.178 266.666C168.824 267.756 166.475 268.852 164.112 269.926C162.93 270.463 161.72 270.958 160.521 271.476C160.18 271.622 159.855 271.801 159.505 271.931C157.739 272.573 156.049 273.351 154.456 274.254C154.021 274.482 153.562 274.677 153.086 274.837C150.853 275.678 148.84 276.792 146.757 277.884C146.546 278.005 146.352 278.146 146.18 278.305C146.081 278.41 146.02 278.537 146.004 278.671C145.988 278.804 146.018 278.938 146.09 279.058C146.298 279.327 146.527 279.584 146.775 279.828C148.345 281.312 149.93 282.787 151.504 284.267C151.858 284.576 152.19 284.903 152.498 285.244C153.796 286.709 155.237 288.08 156.808 289.345C157.658 290.071 158.509 290.803 159.303 291.576C162.635 294.831 166.042 298.032 169.243 301.383C170.171 302.34 171.172 303.247 172.238 304.098C173.222 304.868 174.127 305.706 174.943 306.603C175.282 306.99 175.693 307.332 176.066 307.7C176.087 307.72 176.104 307.743 176.115 307.768C176.125 307.793 176.13 307.82 176.128 307.847C176.088 307.98 175.985 307.997 175.831 307.947C174.638 307.556 173.404 307.234 172.252 306.77C170.578 306.095 168.851 305.507 167.105 304.974C165.716 304.549 164.382 304.026 163.044 303.51C161.238 302.814 159.392 302.197 157.559 301.553C157.321 301.475 157.074 301.417 156.822 301.38C156.629 301.367 156.437 301.408 156.274 301.494C156.112 301.581 155.988 301.71 155.921 301.861C155.854 302.012 155.85 302.177 155.909 302.33C155.968 302.483 156.087 302.615 156.246 302.705C156.579 302.864 156.923 303.006 157.277 303.13C158.402 303.526 159.554 303.866 160.651 304.308C163.426 305.427 166.339 306.282 169.144 307.336C172.368 308.546 175.722 309.476 178.934 310.698C179.227 310.806 179.528 310.898 179.835 310.974C179.959 311.002 180.09 311.007 180.217 310.99C180.345 310.973 180.467 310.934 180.575 310.876C180.684 310.817 180.776 310.74 180.846 310.65C180.917 310.56 180.964 310.458 180.984 310.352C181.012 310.087 181.003 309.819 180.957 309.556C180.802 308.765 180.678 307.964 180.432 307.193C179.611 304.604 179.211 301.947 178.522 299.337C177.897 296.99 177.51 294.597 176.648 292.293C176.462 291.784 176.239 291.284 175.979 290.798C175.918 290.72 175.839 290.652 175.746 290.6C175.653 290.548 175.549 290.512 175.439 290.494C175.329 290.476 175.216 290.476 175.107 290.495C174.997 290.514 174.893 290.551 174.801 290.603C174.695 290.663 174.607 290.744 174.546 290.837C174.485 290.931 174.452 291.036 174.449 291.143C174.482 291.54 174.541 291.905 174.589 292.415Z" fill="#001632"/>
<path d="M521.561 126.001C521.675 126.005 521.787 126.032 521.89 126.082C522.049 126.201 522.179 126.353 522.273 126.527C522.405 126.917 522.497 127.318 522.549 127.725C523.237 132.481 523.137 137.316 522.254 142.039C522.187 142.405 522.128 142.774 522.068 143.143C521.845 144.515 521.621 145.895 521.058 147.194C520.191 149.296 519.208 151.349 518.115 153.345C515.692 157.607 512.401 161.316 508.456 164.236C505.301 166.517 501.864 168.383 498.23 169.788C496.509 170.486 494.752 171.095 492.968 171.613C490.939 172.197 488.869 172.668 486.814 173.11C482.436 174.08 477.974 174.457 473.515 174.824C473.01 174.861 472.502 174.863 471.996 174.831C471.746 174.819 471.503 174.74 471.293 174.603C471.103 174.452 470.963 174.248 470.889 174.018C470.86 173.852 470.886 173.682 470.964 173.532C471.041 173.383 471.166 173.264 471.319 173.193C471.894 173.077 472.476 172.999 473.062 172.959C476.774 172.781 480.47 172.357 484.126 171.69C488.299 171.004 492.395 169.919 496.36 168.451C500.1 167.109 503.644 165.276 506.898 162.999C509.319 161.229 511.699 159.296 513.528 156.835C514.585 155.415 515.577 153.941 516.496 152.432C518.294 149.575 519.55 146.413 520.201 143.103C521.016 138.623 521.522 134.104 520.887 129.537C520.793 128.869 520.716 128.201 520.675 127.528C520.668 127.193 520.697 126.859 520.76 126.531C520.801 126.424 520.863 126.327 520.944 126.246C521.024 126.164 521.12 126.1 521.226 126.058C521.333 126.016 521.446 125.996 521.561 126.001Z" fill="#001632"/>
<path d="M471.791 179.604C471.397 179.513 471.003 179.422 470.609 179.33C469.157 178.86 467.799 178.221 466.451 177.588C465.602 177.189 464.757 176.791 463.894 176.439C463.674 176.316 463.471 176.162 463.292 175.984C463.13 175.843 463.027 175.647 463.005 175.434C462.982 175.22 463.042 175.007 463.172 174.836C463.51 174.463 463.882 174.122 464.282 173.816C465.314 173.095 466.308 172.299 467.305 171.502C468.023 170.928 468.743 170.352 469.478 169.803C472.188 167.777 474.823 165.677 477.351 163.443C477.582 163.238 477.815 163.034 478.047 162.83C479.649 161.427 481.256 160.018 482.402 158.169C482.539 157.957 482.736 157.792 482.968 157.693C483.193 157.599 483.445 157.59 483.677 157.668C483.836 157.731 483.968 157.848 484.05 157.998C484.132 158.148 484.159 158.322 484.126 158.489C484.082 158.734 484.004 158.972 483.896 159.196C483.294 160.309 482.502 161.309 481.555 162.151C478.169 165.428 474.468 168.313 470.769 171.196C469.548 172.148 468.327 173.099 467.118 174.064C466.791 174.312 466.482 174.582 466.193 174.873C466.166 174.946 466.158 175.024 466.17 175.101C466.182 175.178 466.214 175.25 466.262 175.311C466.522 175.522 466.808 175.7 467.111 175.841C470.398 177.401 473.9 178.223 477.4 179.045C477.512 179.072 477.625 179.098 477.737 179.125C481.882 180.097 486.06 180.542 490.291 179.696C490.621 179.634 490.96 179.627 491.292 179.677C491.455 179.715 491.603 179.802 491.717 179.925C491.831 180.048 491.905 180.202 491.93 180.368C491.955 180.533 491.929 180.702 491.857 180.853C491.785 181.005 491.669 181.131 491.524 181.215C491.125 181.353 490.717 181.465 490.304 181.551C485.902 182.425 481.565 181.922 477.256 180.908C476.722 180.782 476.19 180.651 475.658 180.52C475.125 180.389 474.593 180.258 474.059 180.132C473.303 179.953 472.547 179.779 471.791 179.604Z" fill="#001632"/>
<g filter="url(#filter0_d)">
<rect x="8" y="143" width="413" height="96" rx="5.7" fill="white"/>
</g>
<path d="M95.7501 210C98.4092 210 99.9092 208.347 99.9092 205.619C99.9092 202.909 98.4092 201.273 95.8694 201.273H93.0569V210H95.7501ZM94.1138 209.062V202.21H95.8013C97.8467 202.21 98.8865 203.506 98.8865 205.619C98.8865 207.75 97.8467 209.062 95.6819 209.062H94.1138ZM104.29 210.136C105.619 210.136 106.591 209.472 106.898 208.483L105.926 208.21C105.671 208.892 105.078 209.233 104.29 209.233C103.109 209.233 102.296 208.47 102.249 207.068H107V206.642C107 204.205 105.551 203.369 104.188 203.369C102.415 203.369 101.239 204.767 101.239 206.778C101.239 208.79 102.398 210.136 104.29 210.136ZM102.249 206.199C102.317 205.18 103.037 204.273 104.188 204.273C105.279 204.273 105.977 205.091 105.977 206.199H102.249ZM110.456 210.153C111.598 210.153 112.195 209.54 112.399 209.114H112.45V210H113.456V205.688C113.456 203.608 111.871 203.369 111.036 203.369C110.047 203.369 108.922 203.71 108.411 204.903L109.365 205.244C109.587 204.767 110.111 204.256 111.07 204.256C111.994 204.256 112.45 204.746 112.45 205.585V205.619C112.45 206.105 111.956 206.062 110.763 206.216C109.548 206.374 108.223 206.642 108.223 208.142C108.223 209.42 109.212 210.153 110.456 210.153ZM110.609 209.25C109.808 209.25 109.229 208.892 109.229 208.193C109.229 207.426 109.928 207.188 110.712 207.085C111.138 207.034 112.28 206.915 112.45 206.71V207.631C112.45 208.449 111.803 209.25 110.609 209.25ZM117.763 210.136C119.025 210.136 119.451 209.352 119.672 208.994H119.792V210H120.763V201.273H119.758V204.494H119.672C119.451 204.153 119.059 203.369 117.78 203.369C116.127 203.369 114.985 204.682 114.985 206.744C114.985 208.824 116.127 210.136 117.763 210.136ZM117.9 209.233C116.638 209.233 115.991 208.125 115.991 206.727C115.991 205.347 116.621 204.273 117.9 204.273C119.127 204.273 119.775 205.261 119.775 206.727C119.775 208.21 119.11 209.233 117.9 209.233ZM123.75 201.273H122.745V210H123.75V201.273ZM125.592 210H126.598V203.455H125.592V210ZM126.104 202.364C126.496 202.364 126.82 202.057 126.82 201.682C126.82 201.307 126.496 201 126.104 201C125.712 201 125.388 201.307 125.388 201.682C125.388 202.057 125.712 202.364 126.104 202.364ZM129.446 206.062C129.446 204.92 130.153 204.273 131.116 204.273C132.049 204.273 132.616 204.882 132.616 205.909V210H133.622V205.841C133.622 204.17 132.731 203.369 131.406 203.369C130.417 203.369 129.804 203.812 129.497 204.477H129.412V203.455H128.44V210H129.446V206.062ZM138.204 210.136C139.534 210.136 140.505 209.472 140.812 208.483L139.84 208.21C139.585 208.892 138.992 209.233 138.204 209.233C137.024 209.233 136.21 208.47 136.163 207.068H140.914V206.642C140.914 204.205 139.465 203.369 138.102 203.369C136.329 203.369 135.153 204.767 135.153 206.778C135.153 208.79 136.312 210.136 138.204 210.136ZM136.163 206.199C136.231 205.18 136.951 204.273 138.102 204.273C139.193 204.273 139.891 205.091 139.891 206.199H136.163ZM150.899 205.79H144.899V206.727H150.899V205.79ZM155.33 201.273V210H156.319V203.369H156.404L159.132 210H160.086L162.813 203.369H162.899V210H163.887V201.273H162.626L159.66 208.517H159.558L156.592 201.273H155.33ZM167.796 210.153C168.938 210.153 169.535 209.54 169.739 209.114H169.79V210H170.796V205.688C170.796 203.608 169.211 203.369 168.375 203.369C167.387 203.369 166.262 203.71 165.75 204.903L166.705 205.244C166.927 204.767 167.451 204.256 168.41 204.256C169.334 204.256 169.79 204.746 169.79 205.585V205.619C169.79 206.105 169.296 206.062 168.103 206.216C166.888 206.374 165.563 206.642 165.563 208.142C165.563 209.42 166.552 210.153 167.796 210.153ZM167.949 209.25C167.148 209.25 166.569 208.892 166.569 208.193C166.569 207.426 167.268 207.188 168.052 207.085C168.478 207.034 169.62 206.915 169.79 206.71V207.631C169.79 208.449 169.143 209.25 167.949 209.25ZM172.632 210H173.637V205.858C173.637 204.972 174.336 204.324 175.291 204.324C175.559 204.324 175.836 204.375 175.904 204.392V203.369C175.789 203.361 175.525 203.352 175.376 203.352C174.592 203.352 173.91 203.795 173.671 204.443H173.603V203.455H172.632V210ZM179.556 210.136C181.005 210.136 181.96 209.25 182.13 208.091H181.124C180.937 208.807 180.34 209.233 179.556 209.233C178.363 209.233 177.596 208.244 177.596 206.727C177.596 205.244 178.38 204.273 179.556 204.273C180.443 204.273 180.971 204.818 181.124 205.415H182.13C181.96 204.188 180.92 203.369 179.539 203.369C177.766 203.369 176.59 204.767 176.59 206.761C176.59 208.722 177.715 210.136 179.556 210.136ZM184.606 206.062C184.606 204.92 185.335 204.273 186.328 204.273C187.274 204.273 187.845 204.869 187.845 205.909V210H188.85V205.841C188.85 204.158 187.955 203.369 186.617 203.369C185.586 203.369 184.998 203.8 184.691 204.477H184.606V201.273H183.6V210H184.606V206.062ZM194.048 210H199.554V209.062H195.497V208.994L197.457 206.898C198.957 205.291 199.4 204.541 199.4 203.574C199.4 202.227 198.309 201.153 196.775 201.153C195.246 201.153 194.082 202.193 194.082 203.727H195.088C195.088 202.734 195.731 202.074 196.741 202.074C197.687 202.074 198.412 202.653 198.412 203.574C198.412 204.379 197.939 204.976 196.929 206.08L194.048 209.233V210ZM204.16 210.119C206.086 210.119 207.194 208.487 207.194 205.636C207.194 202.807 206.069 201.153 204.16 201.153C202.251 201.153 201.126 202.807 201.126 205.636C201.126 208.487 202.234 210.119 204.16 210.119ZM204.16 209.182C202.89 209.182 202.149 207.908 202.149 205.636C202.149 203.369 202.899 202.074 204.16 202.074C205.422 202.074 206.172 203.369 206.172 205.636C206.172 207.908 205.43 209.182 204.16 209.182ZM210.331 208.807H209.24L209.189 209.284C209.065 210.439 208.822 211.589 208.711 212.131H209.478C209.683 211.551 210.118 210.239 210.263 209.267L210.331 208.807ZM218.62 201.273H217.563L215.382 202.722V203.795L217.512 202.381H217.563V210H218.62V201.273ZM223.977 210.119C225.903 210.119 227.011 208.487 227.011 205.636C227.011 202.807 225.886 201.153 223.977 201.153C222.068 201.153 220.943 202.807 220.943 205.636C220.943 208.487 222.051 210.119 223.977 210.119ZM223.977 209.182C222.707 209.182 221.965 207.908 221.965 205.636C221.965 203.369 222.715 202.074 223.977 202.074C225.238 202.074 225.988 203.369 225.988 205.636C225.988 207.908 225.247 209.182 223.977 209.182ZM229.38 208.884C229.802 208.884 230.147 208.538 230.147 208.116C230.147 207.695 229.802 207.349 229.38 207.349C228.958 207.349 228.613 207.695 228.613 208.116C228.613 208.538 228.958 208.884 229.38 208.884ZM229.38 204.469C229.802 204.469 230.147 204.124 230.147 203.702C230.147 203.28 229.802 202.935 229.38 202.935C228.958 202.935 228.613 203.28 228.613 203.702C228.613 204.124 228.958 204.469 229.38 204.469ZM234.884 210.119C236.575 210.119 237.833 209.058 237.833 207.631C237.833 206.523 237.176 205.717 236.077 205.534V205.466C236.959 205.197 237.509 204.473 237.509 203.489C237.509 202.253 236.533 201.153 234.918 201.153C233.409 201.153 232.156 202.082 232.105 203.455H233.128C233.166 202.585 233.993 202.074 234.901 202.074C235.864 202.074 236.486 202.658 236.486 203.54C236.486 204.46 235.766 205.057 234.73 205.057H234.031V205.994H234.73C236.056 205.994 236.793 206.668 236.793 207.631C236.793 208.555 235.987 209.182 234.867 209.182C233.857 209.182 233.056 208.662 232.992 207.818H231.918C231.982 209.19 233.192 210.119 234.884 210.119ZM242.422 210.119C244.348 210.119 245.456 208.487 245.456 205.636C245.456 202.807 244.331 201.153 242.422 201.153C240.513 201.153 239.388 202.807 239.388 205.636C239.388 208.487 240.496 210.119 242.422 210.119ZM242.422 209.182C241.152 209.182 240.411 207.908 240.411 205.636C240.411 203.369 241.161 202.074 242.422 202.074C243.683 202.074 244.433 203.369 244.433 205.636C244.433 207.908 243.692 209.182 242.422 209.182ZM249.019 210.153C250.161 210.153 250.757 209.54 250.962 209.114H251.013V210H252.019V205.688C252.019 203.608 250.433 203.369 249.598 203.369C248.609 203.369 247.484 203.71 246.973 204.903L247.928 205.244C248.149 204.767 248.673 204.256 249.632 204.256C250.557 204.256 251.013 204.746 251.013 205.585V205.619C251.013 206.105 250.519 206.062 249.325 206.216C248.111 206.374 246.786 206.642 246.786 208.142C246.786 209.42 247.774 210.153 249.019 210.153ZM249.172 209.25C248.371 209.25 247.791 208.892 247.791 208.193C247.791 207.426 248.49 207.188 249.274 207.085C249.7 207.034 250.842 206.915 251.013 206.71V207.631C251.013 208.449 250.365 209.25 249.172 209.25ZM253.854 210H254.86V205.909C254.86 204.95 255.559 204.273 256.343 204.273C257.106 204.273 257.638 204.771 257.638 205.517V210H258.661V205.739C258.661 204.895 259.189 204.273 260.11 204.273C260.826 204.273 261.439 204.652 261.439 205.619V210H262.445V205.619C262.445 204.081 261.618 203.369 260.451 203.369C259.513 203.369 258.827 203.8 258.491 204.477H258.422C258.098 203.778 257.527 203.369 256.667 203.369C255.814 203.369 255.184 203.778 254.911 204.477H254.826V203.455H253.854V210Z" fill="#66768A"/>
<g clip-path="url(#clip1)">
<path fill-rule="evenodd" clip-rule="evenodd" d="M81.5219 202.5H82.9566C83.5329 202.5 84.0001 202.948 84.0001 203.5V212C84.0001 212.552 83.5329 213 82.9566 213H73.0436C72.4673 213 72.0001 212.552 72.0001 212V203.5C72.0001 202.948 72.4673 202.5 73.0436 202.5H73.8262C73.9703 202.5 74.0871 202.612 74.0871 202.75V203.875C74.0871 204.082 74.2623 204.25 74.4784 204.25C74.6945 204.25 74.8697 204.082 74.8697 203.875V201.5C74.8697 201.224 75.1033 201 75.3914 201C75.6796 201 75.9132 201.224 75.9132 201.5V202.375C75.9135 202.444 75.9718 202.5 76.0436 202.5H79.3045C79.4485 202.5 79.5653 202.612 79.5653 202.75V203.875C79.5653 204.082 79.7405 204.25 79.9566 204.25C80.1728 204.25 80.3479 204.082 80.3479 203.875V201.5C80.3479 201.224 80.5815 201 80.8697 201C81.1578 201 81.3914 201.224 81.3914 201.5V202.375C81.3914 202.444 81.4498 202.5 81.5219 202.5ZM73.3045 212H82.6958C82.8398 212 82.9566 211.888 82.9566 211.75V205.75C82.9566 205.612 82.8398 205.5 82.6958 205.5H73.3045C73.1604 205.5 73.0436 205.612 73.0436 205.75V211.75C73.0436 211.888 73.1604 212 73.3045 212Z" fill="#8093AD"/>
</g>
<path d="M73.2784 184H75.0341V179.597H77.4205C77.4602 179.597 77.4943 179.597 77.5341 179.597L79.8977 184H81.8977L79.3182 179.29C80.7443 178.761 81.4545 177.574 81.4545 176.011C81.4545 173.869 80.125 172.364 77.4261 172.364H73.2784V184ZM75.0341 178.085V173.869H77.2386C78.9716 173.869 79.6875 174.693 79.6875 176.011C79.6875 177.324 78.9716 178.085 77.2614 178.085H75.0341ZM87.1065 184.176C89.0099 184.176 90.3565 183.239 90.7429 181.818L89.1349 181.528C88.8281 182.352 88.0895 182.773 87.1236 182.773C85.669 182.773 84.6918 181.83 84.6463 180.148H90.8509V179.545C90.8509 176.392 88.9645 175.159 86.9872 175.159C84.5554 175.159 82.9531 177.011 82.9531 179.693C82.9531 182.403 84.5327 184.176 87.1065 184.176ZM84.652 178.875C84.7202 177.636 85.6179 176.562 86.9986 176.562C88.3168 176.562 89.1804 177.54 89.1861 178.875H84.652ZM100.155 175.273H98.331L96.1264 181.989H96.0355L93.8253 175.273H92.0014L95.1719 184H96.9901L100.155 175.273ZM101.751 184H103.45V175.273H101.751V184ZM102.609 173.926C103.195 173.926 103.683 173.472 103.683 172.915C103.683 172.358 103.195 171.898 102.609 171.898C102.018 171.898 101.536 172.358 101.536 172.915C101.536 173.472 102.018 173.926 102.609 173.926ZM109.497 184.176C111.401 184.176 112.747 183.239 113.134 181.818L111.526 181.528C111.219 182.352 110.48 182.773 109.514 182.773C108.06 182.773 107.082 181.83 107.037 180.148H113.241V179.545C113.241 176.392 111.355 175.159 109.378 175.159C106.946 175.159 105.344 177.011 105.344 179.693C105.344 182.403 106.923 184.176 109.497 184.176ZM107.043 178.875C107.111 177.636 108.009 176.562 109.389 176.562C110.707 176.562 111.571 177.54 111.577 178.875H107.043ZM117.003 184H118.73L120.503 177.699H120.634L122.406 184H124.139L126.702 175.273H124.946L123.247 181.653H123.162L121.457 175.273H119.702L117.986 181.682H117.901L116.19 175.273H114.435L117.003 184ZM133.622 187.25C135.026 187.25 135.918 186.517 136.418 185.165L140.026 175.29L138.19 175.273L135.98 182.045H135.889L133.679 175.273H131.861L135.054 184.114L134.844 184.693C134.412 185.824 133.804 185.926 132.872 185.67L132.463 187.062C132.668 187.159 133.111 187.25 133.622 187.25ZM144.99 184.176C147.45 184.176 149.058 182.375 149.058 179.676C149.058 176.96 147.45 175.159 144.99 175.159C142.53 175.159 140.922 176.96 140.922 179.676C140.922 182.375 142.53 184.176 144.99 184.176ZM144.996 182.75C143.388 182.75 142.638 181.347 142.638 179.67C142.638 178 143.388 176.58 144.996 176.58C146.592 176.58 147.342 178 147.342 179.67C147.342 181.347 146.592 182.75 144.996 182.75ZM156.483 180.381C156.489 181.864 155.386 182.568 154.432 182.568C153.381 182.568 152.653 181.807 152.653 180.619V175.273H150.955V180.824C150.955 182.989 152.142 184.114 153.818 184.114C155.131 184.114 156.023 183.42 156.426 182.489H156.517V184H158.188V175.273H156.483V180.381ZM160.47 184H162.169V178.67C162.169 177.528 163.05 176.705 164.254 176.705C164.607 176.705 165.004 176.767 165.141 176.807V175.182C164.97 175.159 164.635 175.142 164.419 175.142C163.396 175.142 162.521 175.722 162.203 176.659H162.112V175.273H160.47V184ZM174.504 187.438C176.726 187.438 178.442 186.42 178.442 184.193V175.273H176.777V176.688H176.652C176.351 176.148 175.749 175.159 174.124 175.159C172.016 175.159 170.464 176.824 170.464 179.602C170.464 182.386 172.05 183.869 174.112 183.869C175.714 183.869 176.334 182.966 176.641 182.409H176.749V184.125C176.749 185.472 175.811 186.068 174.521 186.068C173.107 186.068 172.555 185.358 172.254 184.875L170.794 185.477C171.254 186.528 172.419 187.438 174.504 187.438ZM174.487 182.46C172.97 182.46 172.18 181.295 172.18 179.58C172.18 177.903 172.953 176.602 174.487 176.602C175.97 176.602 176.766 177.812 176.766 179.58C176.766 181.381 175.953 182.46 174.487 182.46ZM180.72 184H182.419V178.67C182.419 177.528 183.3 176.705 184.504 176.705C184.857 176.705 185.254 176.767 185.391 176.807V175.182C185.22 175.159 184.885 175.142 184.669 175.142C183.646 175.142 182.771 175.722 182.453 176.659H182.362V175.273H180.72V184ZM190.224 184.176C192.685 184.176 194.293 182.375 194.293 179.676C194.293 176.96 192.685 175.159 190.224 175.159C187.764 175.159 186.156 176.96 186.156 179.676C186.156 182.375 187.764 184.176 190.224 184.176ZM190.23 182.75C188.622 182.75 187.872 181.347 187.872 179.67C187.872 178 188.622 176.58 190.23 176.58C191.827 176.58 192.577 178 192.577 179.67C192.577 181.347 191.827 182.75 190.23 182.75ZM201.717 180.381C201.723 181.864 200.621 182.568 199.666 182.568C198.615 182.568 197.888 181.807 197.888 180.619V175.273H196.189V180.824C196.189 182.989 197.376 184.114 199.053 184.114C200.365 184.114 201.257 183.42 201.661 182.489H201.751V184H203.422V175.273H201.717V180.381ZM205.705 187.273H207.403V182.642H207.506C207.812 183.199 208.438 184.17 210.028 184.17C212.142 184.17 213.676 182.477 213.676 179.653C213.676 176.824 212.119 175.159 210.011 175.159C208.392 175.159 207.807 176.148 207.506 176.688H207.364V175.273H205.705V187.273ZM207.369 179.636C207.369 177.812 208.165 176.602 209.648 176.602C211.188 176.602 211.96 177.903 211.96 179.636C211.96 181.386 211.165 182.722 209.648 182.722C208.188 182.722 207.369 181.472 207.369 179.636ZM219.814 184H221.513V178.619C221.513 177.443 222.337 176.625 223.303 176.625C224.246 176.625 224.899 177.25 224.899 178.199V184H226.592V178.438C226.592 177.386 227.234 176.625 228.342 176.625C229.24 176.625 229.979 177.125 229.979 178.307V184H231.678V178.148C231.678 176.153 230.564 175.159 228.984 175.159C227.729 175.159 226.786 175.761 226.365 176.693H226.274C225.893 175.739 225.092 175.159 223.928 175.159C222.774 175.159 221.916 175.733 221.553 176.693H221.445V175.273H219.814V184ZM237.716 184.176C239.619 184.176 240.966 183.239 241.352 181.818L239.744 181.528C239.438 182.352 238.699 182.773 237.733 182.773C236.278 182.773 235.301 181.83 235.256 180.148H241.46V179.545C241.46 176.392 239.574 175.159 237.597 175.159C235.165 175.159 233.562 177.011 233.562 179.693C233.562 182.403 235.142 184.176 237.716 184.176ZM235.261 178.875C235.33 177.636 236.227 176.562 237.608 176.562C238.926 176.562 239.79 177.54 239.795 178.875H235.261ZM243.345 184H245.044V178.619C245.044 177.443 245.868 176.625 246.834 176.625C247.777 176.625 248.43 177.25 248.43 178.199V184H250.124V178.438C250.124 177.386 250.766 176.625 251.874 176.625C252.771 176.625 253.51 177.125 253.51 178.307V184H255.209V178.148C255.209 176.153 254.095 175.159 252.516 175.159C251.26 175.159 250.317 175.761 249.896 176.693H249.805C249.425 175.739 248.624 175.159 247.459 175.159C246.305 175.159 245.447 175.733 245.084 176.693H244.976V175.273H243.345V184ZM257.622 184H259.281V182.642H259.423C259.73 183.199 260.355 184.17 261.946 184.17C264.06 184.17 265.594 182.477 265.594 179.653C265.594 176.824 264.037 175.159 261.929 175.159C260.31 175.159 259.724 176.148 259.423 176.688H259.321V172.364H257.622V184ZM259.287 179.636C259.287 177.812 260.082 176.602 261.565 176.602C263.105 176.602 263.878 177.903 263.878 179.636C263.878 181.386 263.082 182.722 261.565 182.722C260.105 182.722 259.287 181.472 259.287 179.636ZM271.263 184.176C273.166 184.176 274.513 183.239 274.899 181.818L273.291 181.528C272.984 182.352 272.246 182.773 271.28 182.773C269.825 182.773 268.848 181.83 268.803 180.148H275.007V179.545C275.007 176.392 273.121 175.159 271.143 175.159C268.712 175.159 267.109 177.011 267.109 179.693C267.109 182.403 268.689 184.176 271.263 184.176ZM268.808 178.875C268.876 177.636 269.774 176.562 271.155 176.562C272.473 176.562 273.337 177.54 273.342 178.875H268.808ZM276.892 184H278.591V178.67C278.591 177.528 279.472 176.705 280.676 176.705C281.028 176.705 281.426 176.767 281.562 176.807V175.182C281.392 175.159 281.057 175.142 280.841 175.142C279.818 175.142 278.943 175.722 278.625 176.659H278.534V175.273H276.892V184ZM289.572 177.403C289.22 176.045 288.158 175.159 286.271 175.159C284.3 175.159 282.902 176.199 282.902 177.744C282.902 178.983 283.652 179.807 285.288 180.17L286.766 180.494C287.607 180.682 287.999 181.057 287.999 181.602C287.999 182.278 287.277 182.807 286.163 182.807C285.146 182.807 284.493 182.369 284.288 181.511L282.646 181.761C282.93 183.307 284.214 184.176 286.175 184.176C288.283 184.176 289.743 183.057 289.743 181.477C289.743 180.244 288.959 179.483 287.357 179.114L285.97 178.795C285.01 178.568 284.595 178.244 284.601 177.653C284.595 176.983 285.322 176.506 286.288 176.506C287.345 176.506 287.834 177.091 288.033 177.676L289.572 177.403ZM293.071 172.364H291.616V173.472C291.616 174.352 291.23 175.074 290.787 175.727L291.628 176.33C292.503 175.625 293.071 174.42 293.071 173.455V172.364ZM299.267 187.273H300.966V182.642H301.068C301.375 183.199 302 184.17 303.591 184.17C305.705 184.17 307.239 182.477 307.239 179.653C307.239 176.824 305.682 175.159 303.574 175.159C301.955 175.159 301.369 176.148 301.068 176.688H300.926V175.273H299.267V187.273ZM300.932 179.636C300.932 177.812 301.727 176.602 303.21 176.602C304.75 176.602 305.523 177.903 305.523 179.636C305.523 181.386 304.727 182.722 303.21 182.722C301.75 182.722 300.932 181.472 300.932 179.636ZM312.903 184.176C314.807 184.176 316.153 183.239 316.54 181.818L314.932 181.528C314.625 182.352 313.886 182.773 312.92 182.773C311.466 182.773 310.489 181.83 310.443 180.148H316.648V179.545C316.648 176.392 314.761 175.159 312.784 175.159C310.352 175.159 308.75 177.011 308.75 179.693C308.75 182.403 310.33 184.176 312.903 184.176ZM310.449 178.875C310.517 177.636 311.415 176.562 312.795 176.562C314.114 176.562 314.977 177.54 314.983 178.875H310.449ZM318.533 184H320.232V178.67C320.232 177.528 321.112 176.705 322.317 176.705C322.669 176.705 323.067 176.767 323.203 176.807V175.182C323.033 175.159 322.697 175.142 322.482 175.142C321.459 175.142 320.584 175.722 320.266 176.659H320.175V175.273H318.533V184ZM329.342 175.273H327.462V174.489C327.462 173.716 327.78 173.295 328.609 173.295C328.962 173.295 329.212 173.375 329.371 173.426L329.768 172.051C329.53 171.96 329.036 171.818 328.348 171.818C326.967 171.818 325.757 172.625 325.757 174.261V175.273H324.411V176.636H325.757V184H327.462V176.636H329.342V175.273ZM334.428 184.176C336.888 184.176 338.496 182.375 338.496 179.676C338.496 176.96 336.888 175.159 334.428 175.159C331.967 175.159 330.359 176.96 330.359 179.676C330.359 182.375 331.967 184.176 334.428 184.176ZM334.433 182.75C332.825 182.75 332.075 181.347 332.075 179.67C332.075 178 332.825 176.58 334.433 176.58C336.03 176.58 336.78 178 336.78 179.67C336.78 181.347 336.03 182.75 334.433 182.75ZM340.392 184H342.091V178.67C342.091 177.528 342.972 176.705 344.176 176.705C344.528 176.705 344.926 176.767 345.062 176.807V175.182C344.892 175.159 344.557 175.142 344.341 175.142C343.318 175.142 342.443 175.722 342.125 176.659H342.034V175.273H340.392V184ZM346.533 184H348.232V178.619C348.232 177.443 349.055 176.625 350.021 176.625C350.964 176.625 351.618 177.25 351.618 178.199V184H353.311V178.438C353.311 177.386 353.953 176.625 355.061 176.625C355.959 176.625 356.697 177.125 356.697 178.307V184H358.396V178.148C358.396 176.153 357.283 175.159 355.703 175.159C354.447 175.159 353.504 175.761 353.084 176.693H352.993C352.612 175.739 351.811 175.159 350.646 175.159C349.493 175.159 348.635 175.733 348.271 176.693H348.163V175.273H346.533V184ZM363.213 184.193C364.656 184.193 365.469 183.46 365.793 182.807H365.861V184H367.52V178.205C367.52 175.665 365.52 175.159 364.134 175.159C362.554 175.159 361.099 175.795 360.531 177.386L362.128 177.75C362.378 177.131 363.014 176.534 364.156 176.534C365.253 176.534 365.815 177.108 365.815 178.097V178.136C365.815 178.756 365.179 178.744 363.611 178.926C361.957 179.119 360.264 179.551 360.264 181.534C360.264 183.25 361.554 184.193 363.213 184.193ZM363.582 182.83C362.622 182.83 361.929 182.398 361.929 181.557C361.929 180.648 362.736 180.324 363.719 180.193C364.27 180.119 365.577 179.972 365.821 179.727V180.852C365.821 181.886 364.997 182.83 363.582 182.83ZM371.482 178.818C371.482 177.426 372.334 176.631 373.516 176.631C374.669 176.631 375.368 177.386 375.368 178.653V184H377.067V178.449C377.067 176.29 375.879 175.159 374.095 175.159C372.783 175.159 371.925 175.767 371.521 176.693H371.413V175.273H369.783V184H371.482V178.818ZM383.021 184.176C385.084 184.176 386.419 182.938 386.607 181.239H384.953C384.737 182.182 384.004 182.739 383.033 182.739C381.595 182.739 380.669 181.54 380.669 179.636C380.669 177.767 381.612 176.591 383.033 176.591C384.112 176.591 384.771 177.273 384.953 178.091H386.607C386.425 176.33 384.987 175.159 383.004 175.159C380.544 175.159 378.953 177.011 378.953 179.676C378.953 182.307 380.487 184.176 383.021 184.176ZM392.185 184.176C394.088 184.176 395.435 183.239 395.821 181.818L394.213 181.528C393.906 182.352 393.168 182.773 392.202 182.773C390.747 182.773 389.77 181.83 389.724 180.148H395.929V179.545C395.929 176.392 394.043 175.159 392.065 175.159C389.634 175.159 388.031 177.011 388.031 179.693C388.031 182.403 389.611 184.176 392.185 184.176ZM389.73 178.875C389.798 177.636 390.696 176.562 392.077 176.562C393.395 176.562 394.259 177.54 394.264 178.875H389.73Z" fill="#001632"/>
<g clip-path="url(#clip2)">
<path d="M50.3621 174C47.4611 170.486 42.2611 169.99 38.7481 172.89C36.8511 174.456 35.7521 176.787 35.7501 179.247V181.5" stroke="#001632" stroke-width="2" stroke-linecap="round" stroke-linejoin="round"/>
<path d="M38.0001 184.908C41.1271 188.222 46.3491 188.373 49.6621 185.246C51.3131 183.688 52.2491 181.518 52.2501 179.247V177.747" stroke="#001632" stroke-width="2" stroke-linecap="round" stroke-linejoin="round"/>
<path d="M32.7501 178.497L35.7501 181.497L38.7501 178.497" stroke="#001632" stroke-width="2" stroke-linecap="round" stroke-linejoin="round"/>
<path d="M55.2501 180.747L52.2501 177.747L49.2501 180.747" stroke="#001632" stroke-width="2" stroke-linecap="round" stroke-linejoin="round"/>
</g>
<g filter="url(#filter1_d)">
<rect x="221" y="276" width="371" height="96" rx="5.7" fill="white"/>
</g>
<path d="M306.415 343L307.293 340.528H310.821L311.699 343H312.807L309.602 334.273H308.511L305.307 343H306.415ZM307.625 339.591L309.023 335.653H309.091L310.489 339.591H307.625ZM318.562 336.455H317.471L315.664 341.67H315.596L313.789 336.455H312.698L315.119 343H316.141L318.562 336.455ZM321.616 343.153C322.758 343.153 323.355 342.54 323.559 342.114H323.61V343H324.616V338.688C324.616 336.608 323.031 336.369 322.196 336.369C321.207 336.369 320.082 336.71 319.571 337.903L320.525 338.244C320.747 337.767 321.271 337.256 322.23 337.256C323.154 337.256 323.61 337.746 323.61 338.585V338.619C323.61 339.105 323.116 339.062 321.923 339.216C320.708 339.374 319.383 339.642 319.383 341.142C319.383 342.42 320.372 343.153 321.616 343.153ZM321.77 342.25C320.968 342.25 320.389 341.892 320.389 341.193C320.389 340.426 321.088 340.188 321.872 340.085C322.298 340.034 323.44 339.915 323.61 339.71V340.631C323.61 341.449 322.963 342.25 321.77 342.25ZM326.452 343H327.457V336.455H326.452V343ZM326.963 335.364C327.355 335.364 327.679 335.057 327.679 334.682C327.679 334.307 327.355 334 326.963 334C326.571 334 326.247 334.307 326.247 334.682C326.247 335.057 326.571 335.364 326.963 335.364ZM330.305 334.273H329.299V343H330.305V334.273ZM334.073 343.153C335.215 343.153 335.812 342.54 336.016 342.114H336.067V343H337.073V338.688C337.073 336.608 335.488 336.369 334.653 336.369C333.664 336.369 332.539 336.71 332.028 337.903L332.982 338.244C333.204 337.767 333.728 337.256 334.687 337.256C335.612 337.256 336.067 337.746 336.067 338.585V338.619C336.067 339.105 335.573 339.062 334.38 339.216C333.165 339.374 331.84 339.642 331.84 341.142C331.84 342.42 332.829 343.153 334.073 343.153ZM334.227 342.25C333.425 342.25 332.846 341.892 332.846 341.193C332.846 340.426 333.545 340.188 334.329 340.085C334.755 340.034 335.897 339.915 336.067 339.71V340.631C336.067 341.449 335.42 342.25 334.227 342.25ZM339.045 343H340.017V341.994H340.136C340.358 342.352 340.784 343.136 342.045 343.136C343.681 343.136 344.824 341.824 344.824 339.744C344.824 337.682 343.681 336.369 342.028 336.369C340.75 336.369 340.358 337.153 340.136 337.494H340.051V334.273H339.045V343ZM340.034 339.727C340.034 338.261 340.681 337.273 341.909 337.273C343.187 337.273 343.818 338.347 343.818 339.727C343.818 341.125 343.17 342.233 341.909 342.233C340.699 342.233 340.034 341.21 340.034 339.727ZM347.368 334.273H346.362V343H347.368V334.273ZM351.954 343.136C353.283 343.136 354.255 342.472 354.562 341.483L353.59 341.21C353.335 341.892 352.742 342.233 351.954 342.233C350.773 342.233 349.96 341.47 349.913 340.068H354.664V339.642C354.664 337.205 353.215 336.369 351.852 336.369C350.079 336.369 348.903 337.767 348.903 339.778C348.903 341.79 350.062 343.136 351.954 343.136ZM349.913 339.199C349.981 338.18 350.701 337.273 351.852 337.273C352.942 337.273 353.641 338.091 353.641 339.199H349.913ZM364.648 338.168H358.648V339.105H364.648V338.168ZM369.08 334.273V343H370.069V336.369H370.154L372.881 343H373.836L376.563 336.369H376.648V343H377.637V334.273H376.376L373.41 341.517H373.308L370.342 334.273H369.08ZM381.546 343.153C382.688 343.153 383.284 342.54 383.489 342.114H383.54V343H384.546V338.688C384.546 336.608 382.961 336.369 382.125 336.369C381.137 336.369 380.012 336.71 379.5 337.903L380.455 338.244C380.676 337.767 381.201 337.256 382.159 337.256C383.084 337.256 383.54 337.746 383.54 338.585V338.619C383.54 339.105 383.046 339.062 381.853 339.216C380.638 339.374 379.313 339.642 379.313 341.142C379.313 342.42 380.301 343.153 381.546 343.153ZM381.699 342.25C380.898 342.25 380.319 341.892 380.319 341.193C380.319 340.426 381.017 340.188 381.801 340.085C382.228 340.034 383.37 339.915 383.54 339.71V340.631C383.54 341.449 382.892 342.25 381.699 342.25ZM386.381 343H387.387V338.858C387.387 337.972 388.086 337.324 389.04 337.324C389.309 337.324 389.586 337.375 389.654 337.392V336.369C389.539 336.361 389.275 336.352 389.126 336.352C388.342 336.352 387.66 336.795 387.421 337.443H387.353V336.455H386.381V343ZM393.306 343.136C394.755 343.136 395.71 342.25 395.88 341.091H394.874C394.687 341.807 394.09 342.233 393.306 342.233C392.113 342.233 391.346 341.244 391.346 339.727C391.346 338.244 392.13 337.273 393.306 337.273C394.192 337.273 394.721 337.818 394.874 338.415H395.88C395.71 337.188 394.67 336.369 393.289 336.369C391.516 336.369 390.34 337.767 390.34 339.761C390.34 341.722 391.465 343.136 393.306 343.136ZM398.356 339.062C398.356 337.92 399.085 337.273 400.077 337.273C401.023 337.273 401.594 337.869 401.594 338.909V343H402.6V338.841C402.6 337.158 401.705 336.369 400.367 336.369C399.336 336.369 398.748 336.8 398.441 337.477H398.356V334.273H397.35V343H398.356V339.062ZM407.798 343H413.304V342.062H409.247V341.994L411.207 339.898C412.707 338.291 413.15 337.541 413.15 336.574C413.15 335.227 412.059 334.153 410.525 334.153C408.995 334.153 407.832 335.193 407.832 336.727H408.838C408.838 335.734 409.481 335.074 410.491 335.074C411.437 335.074 412.162 335.653 412.162 336.574C412.162 337.379 411.689 337.976 410.679 339.08L407.798 342.233V343ZM417.791 343.119C419.453 343.119 420.672 341.892 420.672 340.222C420.672 338.53 419.495 337.29 417.893 337.29C417.305 337.29 416.734 337.499 416.376 337.784H416.325L416.632 335.21H420.279V334.273H415.745L415.217 338.568L416.206 338.688C416.568 338.428 417.186 338.24 417.723 338.244C418.835 338.253 419.649 339.097 419.649 340.239C419.649 341.359 418.865 342.182 417.791 342.182C416.896 342.182 416.184 341.607 416.103 340.818H415.081C415.145 342.148 416.291 343.119 417.791 343.119ZM423.471 341.807H422.38L422.329 342.284C422.206 343.439 421.963 344.589 421.852 345.131H422.619C422.824 344.551 423.258 343.239 423.403 342.267L423.471 341.807ZM431.761 334.273H430.704L428.522 335.722V336.795L430.653 335.381H430.704V343H431.761V334.273ZM434.271 343H439.776V342.062H435.719V341.994L437.68 339.898C439.18 338.291 439.623 337.541 439.623 336.574C439.623 335.227 438.532 334.153 436.998 334.153C435.468 334.153 434.305 335.193 434.305 336.727H435.31C435.31 335.734 435.954 335.074 436.964 335.074C437.91 335.074 438.634 335.653 438.634 336.574C438.634 337.379 438.161 337.976 437.151 339.08L434.271 342.233V343ZM442.286 341.884C442.708 341.884 443.053 341.538 443.053 341.116C443.053 340.695 442.708 340.349 442.286 340.349C441.864 340.349 441.519 340.695 441.519 341.116C441.519 341.538 441.864 341.884 442.286 341.884ZM442.286 337.469C442.708 337.469 443.053 337.124 443.053 336.702C443.053 336.28 442.708 335.935 442.286 335.935C441.864 335.935 441.519 336.28 441.519 336.702C441.519 337.124 441.864 337.469 442.286 337.469ZM447.688 343.119C449.614 343.119 450.722 341.487 450.722 338.636C450.722 335.807 449.597 334.153 447.688 334.153C445.778 334.153 444.653 335.807 444.653 338.636C444.653 341.487 445.761 343.119 447.688 343.119ZM447.688 342.182C446.418 342.182 445.676 340.908 445.676 338.636C445.676 336.369 446.426 335.074 447.688 335.074C448.949 335.074 449.699 336.369 449.699 338.636C449.699 340.908 448.957 342.182 447.688 342.182ZM455.188 343.119C457.114 343.119 458.222 341.487 458.222 338.636C458.222 335.807 457.097 334.153 455.188 334.153C453.278 334.153 452.153 335.807 452.153 338.636C452.153 341.487 453.261 343.119 455.188 343.119ZM455.188 342.182C453.918 342.182 453.176 340.908 453.176 338.636C453.176 336.369 453.926 335.074 455.188 335.074C456.449 335.074 457.199 336.369 457.199 338.636C457.199 340.908 456.457 342.182 455.188 342.182ZM461.784 343.153C462.926 343.153 463.523 342.54 463.727 342.114H463.778V343H464.784V338.688C464.784 336.608 463.199 336.369 462.364 336.369C461.375 336.369 460.25 336.71 459.739 337.903L460.693 338.244C460.915 337.767 461.439 337.256 462.398 337.256C463.322 337.256 463.778 337.746 463.778 338.585V338.619C463.778 339.105 463.284 339.062 462.091 339.216C460.876 339.374 459.551 339.642 459.551 341.142C459.551 342.42 460.54 343.153 461.784 343.153ZM461.938 342.25C461.136 342.25 460.557 341.892 460.557 341.193C460.557 340.426 461.256 340.188 462.04 340.085C462.466 340.034 463.608 339.915 463.778 339.71V340.631C463.778 341.449 463.131 342.25 461.938 342.25ZM466.62 343H467.625V338.909C467.625 337.95 468.324 337.273 469.108 337.273C469.871 337.273 470.404 337.771 470.404 338.517V343H471.426V338.739C471.426 337.895 471.955 337.273 472.875 337.273C473.591 337.273 474.205 337.652 474.205 338.619V343H475.211V338.619C475.211 337.081 474.384 336.369 473.216 336.369C472.279 336.369 471.593 336.8 471.256 337.477H471.188C470.864 336.778 470.293 336.369 469.432 336.369C468.58 336.369 467.949 336.778 467.676 337.477H467.591V336.455H466.62V343Z" fill="#66768A"/>
<path fill-rule="evenodd" clip-rule="evenodd" d="M294.522 335.5H295.957C296.533 335.5 297 335.948 297 336.5V345C297 345.552 296.533 346 295.957 346H286.043C285.467 346 285 345.552 285 345V336.5C285 335.948 285.467 335.5 286.043 335.5H286.826C286.97 335.5 287.087 335.612 287.087 335.75V336.875C287.087 337.082 287.262 337.25 287.478 337.25C287.694 337.25 287.87 337.082 287.87 336.875V334.5C287.87 334.224 288.103 334 288.391 334C288.679 334 288.913 334.224 288.913 334.5V335.375C288.913 335.444 288.972 335.5 289.043 335.5H292.304C292.448 335.5 292.565 335.612 292.565 335.75V336.875C292.565 337.082 292.74 337.25 292.957 337.25C293.173 337.25 293.348 337.082 293.348 336.875V334.5C293.348 334.224 293.581 334 293.87 334C294.158 334 294.391 334.224 294.391 334.5V335.375C294.391 335.444 294.45 335.5 294.522 335.5ZM286.304 345H295.696C295.84 345 295.957 344.888 295.957 344.75V338.75C295.957 338.612 295.84 338.5 295.696 338.5H286.304C286.16 338.5 286.043 338.612 286.043 338.75V344.75C286.043 344.888 286.16 345 286.304 345Z" fill="#8093AD"/>
<path d="M295.943 309.148C295.545 306.659 293.597 305.205 291.136 305.205C288.125 305.205 285.903 307.46 285.903 311.182C285.903 314.903 288.114 317.159 291.136 317.159C293.693 317.159 295.562 315.557 295.943 313.256L294.17 313.25C293.869 314.739 292.619 315.557 291.148 315.557C289.153 315.557 287.648 314.028 287.648 311.182C287.648 308.358 289.148 306.807 291.153 306.807C292.636 306.807 293.881 307.642 294.17 309.148H295.943ZM301.584 317.176C304.044 317.176 305.652 315.375 305.652 312.676C305.652 309.96 304.044 308.159 301.584 308.159C299.124 308.159 297.516 309.96 297.516 312.676C297.516 315.375 299.124 317.176 301.584 317.176ZM301.589 315.75C299.982 315.75 299.232 314.347 299.232 312.67C299.232 311 299.982 309.58 301.589 309.58C303.186 309.58 303.936 311 303.936 312.67C303.936 314.347 303.186 315.75 301.589 315.75ZM307.548 317H309.247V311.619C309.247 310.443 310.071 309.625 311.037 309.625C311.98 309.625 312.634 310.25 312.634 311.199V317H314.327V311.438C314.327 310.386 314.969 309.625 316.077 309.625C316.974 309.625 317.713 310.125 317.713 311.307V317H319.412V311.148C319.412 309.153 318.298 308.159 316.719 308.159C315.463 308.159 314.52 308.761 314.099 309.693H314.009C313.628 308.739 312.827 308.159 311.662 308.159C310.509 308.159 309.651 308.733 309.287 309.693H309.179V308.273H307.548V317ZM321.689 317H323.388V311.619C323.388 310.443 324.212 309.625 325.178 309.625C326.121 309.625 326.774 310.25 326.774 311.199V317H328.467V311.438C328.467 310.386 329.109 309.625 330.217 309.625C331.115 309.625 331.854 310.125 331.854 311.307V317H333.553V311.148C333.553 309.153 332.439 308.159 330.859 308.159C329.604 308.159 328.661 308.761 328.24 309.693H328.149C327.768 308.739 326.967 308.159 325.803 308.159C324.649 308.159 323.791 308.733 323.428 309.693H323.32V308.273H321.689V317ZM339.591 317.176C341.494 317.176 342.841 316.239 343.227 314.818L341.619 314.528C341.312 315.352 340.574 315.773 339.608 315.773C338.153 315.773 337.176 314.83 337.131 313.148H343.335V312.545C343.335 309.392 341.449 308.159 339.472 308.159C337.04 308.159 335.438 310.011 335.438 312.693C335.438 315.403 337.017 317.176 339.591 317.176ZM337.136 311.875C337.205 310.636 338.102 309.562 339.483 309.562C340.801 309.562 341.665 310.54 341.67 311.875H337.136ZM346.919 311.818C346.919 310.426 347.771 309.631 348.953 309.631C350.107 309.631 350.805 310.386 350.805 311.653V317H352.504V311.449C352.504 309.29 351.317 308.159 349.533 308.159C348.22 308.159 347.362 308.767 346.959 309.693H346.851V308.273H345.22V317H346.919V311.818ZM358.857 308.273H357.067V306.182H355.368V308.273H354.089V309.636H355.368V314.79C355.362 316.375 356.572 317.142 357.913 317.114C358.453 317.108 358.817 317.006 359.016 316.932L358.709 315.528C358.595 315.551 358.385 315.602 358.112 315.602C357.561 315.602 357.067 315.42 357.067 314.438V309.636H358.857V308.273ZM368.646 317.176C371.107 317.176 372.714 315.375 372.714 312.676C372.714 309.96 371.107 308.159 368.646 308.159C366.186 308.159 364.578 309.96 364.578 312.676C364.578 315.375 366.186 317.176 368.646 317.176ZM368.652 315.75C367.044 315.75 366.294 314.347 366.294 312.67C366.294 311 367.044 309.58 368.652 309.58C370.249 309.58 370.999 311 370.999 312.67C370.999 314.347 370.249 315.75 368.652 315.75ZM376.31 311.818C376.31 310.426 377.162 309.631 378.344 309.631C379.497 309.631 380.196 310.386 380.196 311.653V317H381.895V311.449C381.895 309.29 380.707 308.159 378.923 308.159C377.611 308.159 376.753 308.767 376.349 309.693H376.241V308.273H374.611V317H376.31V311.818ZM389.482 320.25C390.885 320.25 391.777 319.517 392.277 318.165L395.885 308.29L394.05 308.273L391.839 315.045H391.749L389.538 308.273H387.72L390.913 317.114L390.703 317.693C390.271 318.824 389.663 318.926 388.732 318.67L388.322 320.062C388.527 320.159 388.97 320.25 389.482 320.25ZM400.849 317.176C403.31 317.176 404.918 315.375 404.918 312.676C404.918 309.96 403.31 308.159 400.849 308.159C398.389 308.159 396.781 309.96 396.781 312.676C396.781 315.375 398.389 317.176 400.849 317.176ZM400.855 315.75C399.247 315.75 398.497 314.347 398.497 312.67C398.497 311 399.247 309.58 400.855 309.58C402.452 309.58 403.202 311 403.202 312.67C403.202 314.347 402.452 315.75 400.855 315.75ZM412.342 313.381C412.348 314.864 411.246 315.568 410.291 315.568C409.24 315.568 408.513 314.807 408.513 313.619V308.273H406.814V313.824C406.814 315.989 408.001 317.114 409.678 317.114C410.99 317.114 411.882 316.42 412.286 315.489H412.376V317H414.047V308.273H412.342V313.381ZM416.33 317H418.028V311.67C418.028 310.528 418.909 309.705 420.114 309.705C420.466 309.705 420.864 309.767 421 309.807V308.182C420.83 308.159 420.494 308.142 420.278 308.142C419.256 308.142 418.381 308.722 418.062 309.659H417.972V308.273H416.33V317ZM426.705 317H428.403V311.67C428.403 310.528 429.284 309.705 430.489 309.705C430.841 309.705 431.239 309.767 431.375 309.807V308.182C431.205 308.159 430.869 308.142 430.653 308.142C429.631 308.142 428.756 308.722 428.438 309.659H428.347V308.273H426.705V317ZM436.294 317.176C438.197 317.176 439.544 316.239 439.93 314.818L438.322 314.528C438.016 315.352 437.277 315.773 436.311 315.773C434.857 315.773 433.879 314.83 433.834 313.148H440.038V312.545C440.038 309.392 438.152 308.159 436.175 308.159C433.743 308.159 432.141 310.011 432.141 312.693C432.141 315.403 433.72 317.176 436.294 317.176ZM433.839 311.875C433.908 310.636 434.805 309.562 436.186 309.562C437.504 309.562 438.368 310.54 438.374 311.875H433.839ZM445.599 317.176C447.662 317.176 448.997 315.938 449.185 314.239H447.531C447.315 315.182 446.582 315.739 445.611 315.739C444.173 315.739 443.247 314.54 443.247 312.636C443.247 310.767 444.19 309.591 445.611 309.591C446.69 309.591 447.349 310.273 447.531 311.091H449.185C449.003 309.33 447.565 308.159 445.582 308.159C443.122 308.159 441.531 310.011 441.531 312.676C441.531 315.307 443.065 317.176 445.599 317.176ZM454.763 317.176C456.666 317.176 458.013 316.239 458.399 314.818L456.791 314.528C456.484 315.352 455.746 315.773 454.78 315.773C453.325 315.773 452.348 314.83 452.303 313.148H458.507V312.545C458.507 309.392 456.621 308.159 454.643 308.159C452.212 308.159 450.609 310.011 450.609 312.693C450.609 315.403 452.189 317.176 454.763 317.176ZM452.308 311.875C452.376 310.636 453.274 309.562 454.655 309.562C455.973 309.562 456.837 310.54 456.842 311.875H452.308ZM460.392 317H462.091V308.273H460.392V317ZM461.25 306.926C461.835 306.926 462.324 306.472 462.324 305.915C462.324 305.358 461.835 304.898 461.25 304.898C460.659 304.898 460.176 305.358 460.176 305.915C460.176 306.472 460.659 306.926 461.25 306.926ZM471.842 308.273H470.018L467.814 314.989H467.723L465.513 308.273H463.689L466.859 317H468.678L471.842 308.273ZM476.888 317.176C478.791 317.176 480.138 316.239 480.524 314.818L478.916 314.528C478.609 315.352 477.871 315.773 476.905 315.773C475.45 315.773 474.473 314.83 474.428 313.148H480.632V312.545C480.632 309.392 478.746 308.159 476.768 308.159C474.337 308.159 472.734 310.011 472.734 312.693C472.734 315.403 474.314 317.176 476.888 317.176ZM474.433 311.875C474.501 310.636 475.399 309.562 476.78 309.562C478.098 309.562 478.962 310.54 478.967 311.875H474.433ZM485.784 317.17C487.375 317.17 488 316.199 488.307 315.642H488.449V317H490.108V305.364H488.409V309.688H488.307C488 309.148 487.42 308.159 485.795 308.159C483.688 308.159 482.136 309.824 482.136 312.653C482.136 315.477 483.665 317.17 485.784 317.17ZM486.159 315.722C484.642 315.722 483.852 314.386 483.852 312.636C483.852 310.903 484.625 309.602 486.159 309.602C487.642 309.602 488.438 310.812 488.438 312.636C488.438 314.472 487.625 315.722 486.159 315.722ZM500.92 308.273H499.04V307.489C499.04 306.716 499.358 306.295 500.188 306.295C500.54 306.295 500.79 306.375 500.949 306.426L501.347 305.051C501.108 304.96 500.614 304.818 499.926 304.818C498.545 304.818 497.335 305.625 497.335 307.261V308.273H495.989V309.636H497.335V317H499.04V309.636H500.92V308.273ZM506.091 317.176C507.994 317.176 509.341 316.239 509.727 314.818L508.119 314.528C507.812 315.352 507.074 315.773 506.108 315.773C504.653 315.773 503.676 314.83 503.631 313.148H509.835V312.545C509.835 309.392 507.949 308.159 505.972 308.159C503.54 308.159 501.938 310.011 501.938 312.693C501.938 315.403 503.517 317.176 506.091 317.176ZM503.636 311.875C503.705 310.636 504.602 309.562 505.983 309.562C507.301 309.562 508.165 310.54 508.17 311.875H503.636ZM515.482 317.176C517.385 317.176 518.732 316.239 519.118 314.818L517.51 314.528C517.203 315.352 516.464 315.773 515.499 315.773C514.044 315.773 513.067 314.83 513.021 313.148H519.226V312.545C519.226 309.392 517.339 308.159 515.362 308.159C512.93 308.159 511.328 310.011 511.328 312.693C511.328 315.403 512.908 317.176 515.482 317.176ZM513.027 311.875C513.095 310.636 513.993 309.562 515.374 309.562C516.692 309.562 517.555 310.54 517.561 311.875H513.027ZM524.378 317.17C525.969 317.17 526.594 316.199 526.901 315.642H527.043V317H528.702V305.364H527.003V309.688H526.901C526.594 309.148 526.014 308.159 524.389 308.159C522.281 308.159 520.73 309.824 520.73 312.653C520.73 315.477 522.259 317.17 524.378 317.17ZM524.753 315.722C523.236 315.722 522.446 314.386 522.446 312.636C522.446 310.903 523.219 309.602 524.753 309.602C526.236 309.602 527.031 310.812 527.031 312.636C527.031 314.472 526.219 315.722 524.753 315.722ZM531.263 317H532.922V315.642H533.064C533.371 316.199 533.996 317.17 535.587 317.17C537.7 317.17 539.234 315.477 539.234 312.653C539.234 309.824 537.678 308.159 535.57 308.159C533.95 308.159 533.365 309.148 533.064 309.688H532.962V305.364H531.263V317ZM532.928 312.636C532.928 310.812 533.723 309.602 535.206 309.602C536.746 309.602 537.518 310.903 537.518 312.636C537.518 314.386 536.723 315.722 535.206 315.722C533.746 315.722 532.928 314.472 532.928 312.636ZM543.682 317.193C545.125 317.193 545.938 316.46 546.261 315.807H546.33V317H547.989V311.205C547.989 308.665 545.989 308.159 544.602 308.159C543.023 308.159 541.568 308.795 541 310.386L542.597 310.75C542.847 310.131 543.483 309.534 544.625 309.534C545.722 309.534 546.284 310.108 546.284 311.097V311.136C546.284 311.756 545.648 311.744 544.08 311.926C542.426 312.119 540.733 312.551 540.733 314.534C540.733 316.25 542.023 317.193 543.682 317.193ZM544.051 315.83C543.091 315.83 542.398 315.398 542.398 314.557C542.398 313.648 543.205 313.324 544.188 313.193C544.739 313.119 546.045 312.972 546.29 312.727V313.852C546.29 314.886 545.466 315.83 544.051 315.83ZM553.928 317.176C555.99 317.176 557.325 315.938 557.513 314.239H555.859C555.643 315.182 554.911 315.739 553.939 315.739C552.501 315.739 551.575 314.54 551.575 312.636C551.575 310.767 552.518 309.591 553.939 309.591C555.018 309.591 555.678 310.273 555.859 311.091H557.513C557.331 309.33 555.893 308.159 553.911 308.159C551.45 308.159 549.859 310.011 549.859 312.676C549.859 315.307 551.393 317.176 553.928 317.176ZM559.33 317H561.028V313.903L561.875 313.057L564.841 317H566.926L563.153 312.017L566.688 308.273H564.653L561.176 311.966H561.028V305.364H559.33V317Z" fill="#001632"/>
<path fill-rule="evenodd" clip-rule="evenodd" d="M263.354 308.261C262.871 307.294 261.952 306.617 260.886 306.444C259.82 306.271 258.736 306.621 257.972 307.385L257.738 307.62L257.504 307.386C256.74 306.621 255.655 306.27 254.588 306.443C253.522 306.617 252.603 307.293 252.12 308.26C251.476 309.554 251.729 311.115 252.749 312.138L257.232 316.819C257.365 316.958 257.549 317.036 257.742 317.036C257.934 317.036 258.119 316.957 258.252 316.818L262.725 312.138C263.745 311.115 263.999 309.554 263.354 308.261ZM254.814 307.838C255.433 307.738 256.062 307.941 256.505 308.385L257.239 309.118C257.514 309.393 257.961 309.393 258.236 309.118L258.97 308.385C259.413 307.942 260.042 307.738 260.66 307.839C261.278 307.939 261.811 308.331 262.091 308.891C262.465 309.643 262.317 310.55 261.722 311.143L261.711 311.155L257.741 315.308L253.763 311.155L253.752 311.143C253.158 310.55 253.009 309.643 253.383 308.891C253.664 308.33 254.196 307.939 254.814 307.838Z" fill="#001632"/>
<path fill-rule="evenodd" clip-rule="evenodd" d="M268.358 307.502C266.77 302.999 262.513 299.991 257.741 300C253.663 299.995 249.903 302.204 247.92 305.771C246.001 309.224 246.039 313.423 247.998 316.831L245.069 322.99C244.94 323.26 244.995 323.582 245.207 323.793C245.418 324.005 245.74 324.06 246.009 323.931L252.162 320.998C256.163 323.301 261.183 322.924 264.801 320.014C268.521 317.023 269.947 312.006 268.358 307.502ZM257.741 301.413L257.742 300.707L257.743 301.413C261.915 301.405 265.638 304.035 267.027 307.973C268.416 311.911 267.169 316.297 263.917 318.913C260.664 321.529 256.116 321.803 252.573 319.598C252.369 319.47 252.114 319.456 251.897 319.56L247.198 321.799L249.435 317.097C249.539 316.88 249.524 316.625 249.397 316.42C247.513 313.39 247.42 309.576 249.154 306.458C250.888 303.339 254.175 301.408 257.741 301.413Z" fill="#001632"/>
<g filter="url(#filter2_d)">
<rect x="198" y="8" width="346" height="96" rx="5.7" fill="white"/>
</g>
<g clip-path="url(#clip3)">
<path d="M243.554 34.4459L222.75 55.2499" stroke="#001632" stroke-width="1.5" stroke-linecap="round" stroke-linejoin="round"/>
<path d="M237.925 48.264L234.342 47.752" stroke="#001632" stroke-width="1.5" stroke-linecap="round" stroke-linejoin="round"/>
<path d="M240.995 45.193L237.413 44.681" stroke="#001632" stroke-width="1.5" stroke-linecap="round" stroke-linejoin="round"/>
<path d="M227.061 42.7499C226.176 43.6359 225.717 44.8609 225.8 46.1099L226.181 51.8199L231.891 52.2009C233.141 52.2839 234.365 51.8239 235.251 50.9389L243.551 42.6389C245.831 40.3969 245.863 36.7309 243.621 34.4509C241.379 32.1709 237.713 32.1389 235.433 34.3809C235.41 34.4039 235.386 34.4269 235.363 34.4509L227.061 42.7499Z" stroke="#001632" stroke-width="1.5" stroke-linecap="round" stroke-linejoin="round"/>
</g>
<path d="M290.75 75C293.409 75 294.909 73.3466 294.909 70.6193C294.909 67.9091 293.409 66.2727 290.869 66.2727H288.057V75H290.75ZM289.114 74.0625V67.2102H290.801C292.847 67.2102 293.886 68.5057 293.886 70.6193C293.886 72.75 292.847 74.0625 290.682 74.0625H289.114ZM299.29 75.1364C300.619 75.1364 301.591 74.4716 301.898 73.483L300.926 73.2102C300.67 73.892 300.078 74.233 299.29 74.233C298.109 74.233 297.295 73.4702 297.249 72.0682H302V71.642C302 69.2045 300.551 68.3693 299.188 68.3693C297.415 68.3693 296.239 69.767 296.239 71.7784C296.239 73.7898 297.398 75.1364 299.29 75.1364ZM297.249 71.1989C297.317 70.1804 298.037 69.2727 299.188 69.2727C300.278 69.2727 300.977 70.0909 300.977 71.1989H297.249ZM305.456 75.1534C306.598 75.1534 307.195 74.5398 307.399 74.1136H307.45V75H308.456V70.6875C308.456 68.608 306.871 68.3693 306.036 68.3693C305.047 68.3693 303.922 68.7102 303.411 69.9034L304.365 70.2443C304.587 69.767 305.111 69.2557 306.07 69.2557C306.994 69.2557 307.45 69.7457 307.45 70.5852V70.6193C307.45 71.1051 306.956 71.0625 305.763 71.2159C304.548 71.3736 303.223 71.642 303.223 73.142C303.223 74.4205 304.212 75.1534 305.456 75.1534ZM305.609 74.25C304.808 74.25 304.229 73.892 304.229 73.1932C304.229 72.4261 304.928 72.1875 305.712 72.0852C306.138 72.0341 307.28 71.9148 307.45 71.7102V72.6307C307.45 73.4489 306.803 74.25 305.609 74.25ZM312.763 75.1364C314.025 75.1364 314.451 74.3523 314.672 73.9943H314.792V75H315.763V66.2727H314.757V69.4943H314.672C314.451 69.1534 314.059 68.3693 312.78 68.3693C311.127 68.3693 309.985 69.6818 309.985 71.7443C309.985 73.8239 311.127 75.1364 312.763 75.1364ZM312.9 74.233C311.638 74.233 310.99 73.125 310.99 71.7273C310.99 70.3466 311.621 69.2727 312.9 69.2727C314.127 69.2727 314.775 70.2614 314.775 71.7273C314.775 73.2102 314.11 74.233 312.9 74.233ZM318.75 66.2727H317.745V75H318.75V66.2727ZM320.592 75H321.598V68.4545H320.592V75ZM321.104 67.3636C321.496 67.3636 321.82 67.0568 321.82 66.6818C321.82 66.3068 321.496 66 321.104 66C320.712 66 320.388 66.3068 320.388 66.6818C320.388 67.0568 320.712 67.3636 321.104 67.3636ZM324.446 71.0625C324.446 69.9205 325.153 69.2727 326.116 69.2727C327.049 69.2727 327.616 69.8821 327.616 70.9091V75H328.622V70.8409C328.622 69.1705 327.731 68.3693 326.406 68.3693C325.417 68.3693 324.804 68.8125 324.497 69.4773H324.412V68.4545H323.44V75H324.446V71.0625ZM333.204 75.1364C334.533 75.1364 335.505 74.4716 335.812 73.483L334.84 73.2102C334.585 73.892 333.992 74.233 333.204 74.233C332.023 74.233 331.21 73.4702 331.163 72.0682H335.914V71.642C335.914 69.2045 334.465 68.3693 333.102 68.3693C331.329 68.3693 330.153 69.767 330.153 71.7784C330.153 73.7898 331.312 75.1364 333.204 75.1364ZM331.163 71.1989C331.231 70.1804 331.951 69.2727 333.102 69.2727C334.192 69.2727 334.891 70.0909 334.891 71.1989H331.163ZM345.898 70.7898H339.898V71.7273H345.898V70.7898ZM350.33 66.2727V75H351.319V68.3693H351.404L354.131 75H355.086L357.813 68.3693H357.898V75H358.887V66.2727H357.626L354.66 73.517H354.558L351.592 66.2727H350.33ZM362.796 75.1534C363.938 75.1534 364.534 74.5398 364.739 74.1136H364.79V75H365.796V70.6875C365.796 68.608 364.211 68.3693 363.375 68.3693C362.387 68.3693 361.262 68.7102 360.75 69.9034L361.705 70.2443C361.926 69.767 362.451 69.2557 363.409 69.2557C364.334 69.2557 364.79 69.7457 364.79 70.5852V70.6193C364.79 71.1051 364.296 71.0625 363.103 71.2159C361.888 71.3736 360.563 71.642 360.563 73.142C360.563 74.4205 361.551 75.1534 362.796 75.1534ZM362.949 74.25C362.148 74.25 361.569 73.892 361.569 73.1932C361.569 72.4261 362.267 72.1875 363.051 72.0852C363.478 72.0341 364.62 71.9148 364.79 71.7102V72.6307C364.79 73.4489 364.142 74.25 362.949 74.25ZM367.631 75H368.637V70.858C368.637 69.9716 369.336 69.3239 370.29 69.3239C370.559 69.3239 370.836 69.375 370.904 69.392V68.3693C370.789 68.3608 370.525 68.3523 370.376 68.3523C369.592 68.3523 368.91 68.7955 368.671 69.4432H368.603V68.4545H367.631V75ZM374.556 75.1364C376.005 75.1364 376.96 74.25 377.13 73.0909H376.124C375.937 73.8068 375.34 74.233 374.556 74.233C373.363 74.233 372.596 73.2443 372.596 71.7273C372.596 70.2443 373.38 69.2727 374.556 69.2727C375.442 69.2727 375.971 69.8182 376.124 70.4148H377.13C376.96 69.1875 375.92 68.3693 374.539 68.3693C372.766 68.3693 371.59 69.767 371.59 71.7614C371.59 73.7216 372.715 75.1364 374.556 75.1364ZM379.606 71.0625C379.606 69.9205 380.335 69.2727 381.327 69.2727C382.273 69.2727 382.844 69.8693 382.844 70.9091V75H383.85V70.8409C383.85 69.1577 382.955 68.3693 381.617 68.3693C380.586 68.3693 379.998 68.7997 379.691 69.4773H379.606V66.2727H378.6V75H379.606V71.0625ZM392.116 66.2727H391.059L388.877 67.7216V68.7955L391.008 67.3807H391.059V75H392.116V66.2727ZM397.575 75.1193C399.267 75.1193 400.524 74.0582 400.524 72.6307C400.524 71.5227 399.868 70.7173 398.768 70.5341V70.4659C399.65 70.1974 400.2 69.473 400.2 68.4886C400.2 67.2528 399.224 66.1534 397.609 66.1534C396.1 66.1534 394.848 67.0824 394.797 68.4545H395.819C395.858 67.5852 396.684 67.0739 397.592 67.0739C398.555 67.0739 399.177 67.6577 399.177 68.5398C399.177 69.4602 398.457 70.0568 397.422 70.0568H396.723V70.9943H397.422C398.747 70.9943 399.484 71.6676 399.484 72.6307C399.484 73.5554 398.679 74.1818 397.558 74.1818C396.548 74.1818 395.747 73.6619 395.683 72.8182H394.609C394.673 74.1903 395.883 75.1193 397.575 75.1193ZM403.374 73.8068H402.283L402.232 74.2841C402.108 75.4389 401.865 76.5895 401.754 77.1307H402.521C402.726 76.5511 403.161 75.2386 403.305 74.267L403.374 73.8068ZM411.663 66.2727H410.606L408.424 67.7216V68.7955L410.555 67.3807H410.606V75H411.663V66.2727ZM417.02 75.1193C418.946 75.1193 420.054 73.4872 420.054 70.6364C420.054 67.8068 418.929 66.1534 417.02 66.1534C415.11 66.1534 413.985 67.8068 413.985 70.6364C413.985 73.4872 415.093 75.1193 417.02 75.1193ZM417.02 74.1818C415.75 74.1818 415.008 72.9077 415.008 70.6364C415.008 68.3693 415.758 67.0739 417.02 67.0739C418.281 67.0739 419.031 68.3693 419.031 70.6364C419.031 72.9077 418.289 74.1818 417.02 74.1818ZM422.423 73.8835C422.845 73.8835 423.19 73.5384 423.19 73.1165C423.19 72.6946 422.845 72.3494 422.423 72.3494C422.001 72.3494 421.656 72.6946 421.656 73.1165C421.656 73.5384 422.001 73.8835 422.423 73.8835ZM422.423 69.4688C422.845 69.4688 423.19 69.1236 423.19 68.7017C423.19 68.2798 422.845 67.9347 422.423 67.9347C422.001 67.9347 421.656 68.2798 421.656 68.7017C421.656 69.1236 422.001 69.4688 422.423 69.4688ZM427.926 75.1193C429.618 75.1193 430.875 74.0582 430.875 72.6307C430.875 71.5227 430.219 70.7173 429.12 70.5341V70.4659C430.002 70.1974 430.551 69.473 430.551 68.4886C430.551 67.2528 429.576 66.1534 427.961 66.1534C426.452 66.1534 425.199 67.0824 425.148 68.4545H426.171C426.209 67.5852 427.036 67.0739 427.944 67.0739C428.907 67.0739 429.529 67.6577 429.529 68.5398C429.529 69.4602 428.809 70.0568 427.773 70.0568H427.074V70.9943H427.773C429.098 70.9943 429.836 71.6676 429.836 72.6307C429.836 73.5554 429.03 74.1818 427.909 74.1818C426.9 74.1818 426.098 73.6619 426.034 72.8182H424.961C425.025 74.1903 426.235 75.1193 427.926 75.1193ZM435.465 75.1193C437.391 75.1193 438.499 73.4872 438.499 70.6364C438.499 67.8068 437.374 66.1534 435.465 66.1534C433.556 66.1534 432.431 67.8068 432.431 70.6364C432.431 73.4872 433.539 75.1193 435.465 75.1193ZM435.465 74.1818C434.195 74.1818 433.453 72.9077 433.453 70.6364C433.453 68.3693 434.203 67.0739 435.465 67.0739C436.726 67.0739 437.476 68.3693 437.476 70.6364C437.476 72.9077 436.735 74.1818 435.465 74.1818ZM442.061 75.1534C443.203 75.1534 443.8 74.5398 444.005 74.1136H444.056V75H445.061V70.6875C445.061 68.608 443.476 68.3693 442.641 68.3693C441.652 68.3693 440.527 68.7102 440.016 69.9034L440.971 70.2443C441.192 69.767 441.716 69.2557 442.675 69.2557C443.6 69.2557 444.056 69.7457 444.056 70.5852V70.6193C444.056 71.1051 443.561 71.0625 442.368 71.2159C441.154 71.3736 439.828 71.642 439.828 73.142C439.828 74.4205 440.817 75.1534 442.061 75.1534ZM442.215 74.25C441.414 74.25 440.834 73.892 440.834 73.1932C440.834 72.4261 441.533 72.1875 442.317 72.0852C442.743 72.0341 443.885 71.9148 444.056 71.7102V72.6307C444.056 73.4489 443.408 74.25 442.215 74.25ZM446.897 75H447.903V70.9091C447.903 69.9503 448.602 69.2727 449.386 69.2727C450.148 69.2727 450.681 69.7713 450.681 70.517V75H451.704V70.7386C451.704 69.8949 452.232 69.2727 453.153 69.2727C453.869 69.2727 454.482 69.652 454.482 70.6193V75H455.488V70.6193C455.488 69.081 454.661 68.3693 453.494 68.3693C452.556 68.3693 451.87 68.7997 451.533 69.4773H451.465C451.141 68.7784 450.57 68.3693 449.71 68.3693C448.857 68.3693 448.227 68.7784 447.954 69.4773H447.869V68.4545H446.897V75Z" fill="#66768A"/>
<path fill-rule="evenodd" clip-rule="evenodd" d="M276.522 67.5H277.957C278.533 67.5 279 67.9477 279 68.5V77C279 77.5523 278.533 78 277.957 78H268.043C267.467 78 267 77.5523 267 77V68.5C267 67.9477 267.467 67.5 268.043 67.5H268.826C268.97 67.5 269.087 67.6119 269.087 67.75V68.875C269.087 69.0821 269.262 69.25 269.478 69.25C269.694 69.25 269.87 69.0821 269.87 68.875V66.5C269.87 66.2239 270.103 66 270.391 66C270.679 66 270.913 66.2239 270.913 66.5V67.3755C270.913 67.4443 270.972 67.5 271.043 67.5H274.304C274.448 67.5 274.565 67.6119 274.565 67.75V68.875C274.565 69.0821 274.74 69.25 274.957 69.25C275.173 69.25 275.348 69.0821 275.348 68.875V66.5C275.348 66.2239 275.581 66 275.87 66C276.158 66 276.391 66.2239 276.391 66.5V67.375C276.391 67.444 276.45 67.5 276.522 67.5ZM268.304 77H277.696C277.84 77 277.957 76.8881 277.957 76.75V70.75C277.957 70.6119 277.84 70.5 277.696 70.5H268.304C268.16 70.5 268.043 70.6119 268.043 70.75V76.75C268.043 76.8881 268.16 77 268.304 77Z" fill="#8093AD"/>
<path d="M269.625 40.4205H271.318C271.267 38.5568 269.619 37.2045 267.256 37.2045C264.92 37.2045 263.131 38.5398 263.131 40.5455C263.131 42.1648 264.29 43.1136 266.159 43.6193L267.534 43.9943C268.778 44.3239 269.739 44.733 269.739 45.767C269.739 46.9034 268.653 47.6534 267.159 47.6534C265.807 47.6534 264.682 47.0511 264.58 45.7841H262.818C262.932 47.892 264.562 49.1932 267.17 49.1932C269.903 49.1932 271.477 47.7557 271.477 45.7841C271.477 43.6875 269.608 42.875 268.131 42.5114L266.994 42.2159C266.085 41.983 264.875 41.5568 264.881 40.4432C264.881 39.4545 265.784 38.7216 267.216 38.7216C268.551 38.7216 269.5 39.3466 269.625 40.4205ZM278.967 45.3807C278.973 46.8636 277.871 47.5682 276.916 47.5682C275.865 47.5682 275.138 46.8068 275.138 45.6193V40.2727H273.439V45.8239C273.439 47.9886 274.626 49.1136 276.303 49.1136C277.615 49.1136 278.507 48.4205 278.911 47.4886H279.001V49H280.672V40.2727H278.967V45.3807ZM283.091 49H284.75V47.642H284.892C285.199 48.1989 285.824 49.1705 287.415 49.1705C289.528 49.1705 291.062 47.4773 291.062 44.6534C291.062 41.8239 289.506 40.1591 287.398 40.1591C285.778 40.1591 285.193 41.1477 284.892 41.6875H284.79V37.3636H283.091V49ZM284.756 44.6364C284.756 42.8125 285.551 41.6023 287.034 41.6023C288.574 41.6023 289.347 42.9034 289.347 44.6364C289.347 46.3864 288.551 47.7216 287.034 47.7216C285.574 47.7216 284.756 46.4716 284.756 44.6364ZM292.97 49H294.669V43.6193C294.669 42.4432 295.493 41.625 296.459 41.625C297.402 41.625 298.055 42.25 298.055 43.1989V49H299.749V43.4375C299.749 42.3864 300.391 41.625 301.499 41.625C302.396 41.625 303.135 42.125 303.135 43.3068V49H304.834V43.1477C304.834 41.1534 303.72 40.1591 302.141 40.1591C300.885 40.1591 299.942 40.7614 299.521 41.6932H299.43C299.05 40.7386 298.249 40.1591 297.084 40.1591C295.93 40.1591 295.072 40.733 294.709 41.6932H294.601V40.2727H292.97V49ZM307.111 49H308.81V40.2727H307.111V49ZM307.969 38.9261C308.554 38.9261 309.043 38.4716 309.043 37.9148C309.043 37.358 308.554 36.8977 307.969 36.8977C307.378 36.8977 306.895 37.358 306.895 37.9148C306.895 38.4716 307.378 38.9261 307.969 38.9261ZM315.169 40.2727H313.379V38.1818H311.68V40.2727H310.402V41.6364H311.68V46.7898C311.675 48.375 312.885 49.142 314.226 49.1136C314.766 49.108 315.129 49.0057 315.328 48.9318L315.021 47.5284C314.908 47.5511 314.697 47.6023 314.425 47.6023C313.874 47.6023 313.379 47.4205 313.379 46.4375V41.6364H315.169V40.2727ZM322.357 52.25C323.76 52.25 324.652 51.517 325.152 50.1648L328.76 40.2898L326.925 40.2727L324.714 47.0455H324.624L322.413 40.2727H320.595L323.788 49.1136L323.578 49.6932C323.146 50.8239 322.538 50.9261 321.607 50.6705L321.197 52.0625C321.402 52.1591 321.845 52.25 322.357 52.25ZM333.724 49.1761C336.185 49.1761 337.793 47.375 337.793 44.6761C337.793 41.9602 336.185 40.1591 333.724 40.1591C331.264 40.1591 329.656 41.9602 329.656 44.6761C329.656 47.375 331.264 49.1761 333.724 49.1761ZM333.73 47.75C332.122 47.75 331.372 46.3466 331.372 44.6705C331.372 43 332.122 41.5795 333.73 41.5795C335.327 41.5795 336.077 43 336.077 44.6705C336.077 46.3466 335.327 47.75 333.73 47.75ZM345.217 45.3807C345.223 46.8636 344.121 47.5682 343.166 47.5682C342.115 47.5682 341.388 46.8068 341.388 45.6193V40.2727H339.689V45.8239C339.689 47.9886 340.876 49.1136 342.553 49.1136C343.865 49.1136 344.757 48.4205 345.161 47.4886H345.251V49H346.922V40.2727H345.217V45.3807ZM349.205 49H350.903V43.6705C350.903 42.5284 351.784 41.7045 352.989 41.7045C353.341 41.7045 353.739 41.767 353.875 41.8068V40.1818C353.705 40.1591 353.369 40.142 353.153 40.142C352.131 40.142 351.256 40.7216 350.938 41.6591H350.847V40.2727H349.205V49ZM363.239 52.4375C365.46 52.4375 367.176 51.4205 367.176 49.1932V40.2727H365.511V41.6875H365.386C365.085 41.1477 364.483 40.1591 362.858 40.1591C360.75 40.1591 359.199 41.8239 359.199 44.6023C359.199 47.3864 360.784 48.8693 362.847 48.8693C364.449 48.8693 365.068 47.9659 365.375 47.4091H365.483V49.125C365.483 50.4716 364.545 51.0682 363.256 51.0682C361.841 51.0682 361.29 50.358 360.989 49.875L359.528 50.4773C359.989 51.5284 361.153 52.4375 363.239 52.4375ZM363.222 47.4602C361.705 47.4602 360.915 46.2955 360.915 44.5795C360.915 42.9034 361.688 41.6023 363.222 41.6023C364.705 41.6023 365.5 42.8125 365.5 44.5795C365.5 46.3807 364.688 47.4602 363.222 47.4602ZM369.455 49H371.153V43.6705C371.153 42.5284 372.034 41.7045 373.239 41.7045C373.591 41.7045 373.989 41.767 374.125 41.8068V40.1818C373.955 40.1591 373.619 40.142 373.403 40.142C372.381 40.142 371.506 40.7216 371.188 41.6591H371.097V40.2727H369.455V49ZM378.959 49.1761C381.419 49.1761 383.027 47.375 383.027 44.6761C383.027 41.9602 381.419 40.1591 378.959 40.1591C376.499 40.1591 374.891 41.9602 374.891 44.6761C374.891 47.375 376.499 49.1761 378.959 49.1761ZM378.964 47.75C377.357 47.75 376.607 46.3466 376.607 44.6705C376.607 43 377.357 41.5795 378.964 41.5795C380.561 41.5795 381.311 43 381.311 44.6705C381.311 46.3466 380.561 47.75 378.964 47.75ZM390.452 45.3807C390.457 46.8636 389.355 47.5682 388.401 47.5682C387.349 47.5682 386.622 46.8068 386.622 45.6193V40.2727H384.923V45.8239C384.923 47.9886 386.111 49.1136 387.787 49.1136C389.099 49.1136 389.991 48.4205 390.395 47.4886H390.486V49H392.156V40.2727H390.452V45.3807ZM394.439 52.2727H396.138V47.642H396.24C396.547 48.1989 397.172 49.1705 398.763 49.1705C400.876 49.1705 402.411 47.4773 402.411 44.6534C402.411 41.8239 400.854 40.1591 398.746 40.1591C397.126 40.1591 396.541 41.1477 396.24 41.6875H396.098V40.2727H394.439V52.2727ZM396.104 44.6364C396.104 42.8125 396.899 41.6023 398.382 41.6023C399.922 41.6023 400.695 42.9034 400.695 44.6364C400.695 46.3864 399.899 47.7216 398.382 47.7216C396.922 47.7216 396.104 46.4716 396.104 44.6364ZM410.44 49H412.168L413.94 42.6989H414.071L415.844 49H417.577L420.139 40.2727H418.384L416.685 46.6534H416.599L414.895 40.2727H413.139L411.423 46.6818H411.338L409.628 40.2727H407.872L410.44 49ZM425.162 49.1761C427.622 49.1761 429.23 47.375 429.23 44.6761C429.23 41.9602 427.622 40.1591 425.162 40.1591C422.702 40.1591 421.094 41.9602 421.094 44.6761C421.094 47.375 422.702 49.1761 425.162 49.1761ZM425.168 47.75C423.56 47.75 422.81 46.3466 422.81 44.6705C422.81 43 423.56 41.5795 425.168 41.5795C426.764 41.5795 427.514 43 427.514 44.6705C427.514 46.3466 426.764 47.75 425.168 47.75ZM431.126 49H432.825V43.6705C432.825 42.5284 433.706 41.7045 434.911 41.7045C435.263 41.7045 435.661 41.767 435.797 41.8068V40.1818C435.626 40.1591 435.291 40.142 435.075 40.142C434.053 40.142 433.178 40.7216 432.859 41.6591H432.768V40.2727H431.126V49ZM437.267 49H438.966V45.9034L439.812 45.0568L442.778 49H444.864L441.091 44.017L444.625 40.2727H442.591L439.114 43.9659H438.966V37.3636H437.267V49Z" fill="#001632"/>
</g>
<defs>
<filter id="filter0_d" x="-0.55" y="137.3" width="430.1" height="113.1" filterUnits="userSpaceOnUse" color-interpolation-filters="sRGB">
<feFlood flood-opacity="0" result="BackgroundImageFix"/>
<feColorMatrix in="SourceAlpha" type="matrix" values="0 0 0 0 0 0 0 0 0 0 0 0 0 0 0 0 0 0 127 0"/>
<feOffset dy="2.85"/>
<feGaussianBlur stdDeviation="4.275"/>
<feColorMatrix type="matrix" values="0 0 0 0 0 0 0 0 0 0 0 0 0 0 0 0 0 0 0.06 0"/>
<feBlend mode="normal" in2="BackgroundImageFix" result="effect1_dropShadow"/>
<feBlend mode="normal" in="SourceGraphic" in2="effect1_dropShadow" result="shape"/>
</filter>
<filter id="filter1_d" x="212.45" y="270.3" width="388.1" height="113.1" filterUnits="userSpaceOnUse" color-interpolation-filters="sRGB">
<feFlood flood-opacity="0" result="BackgroundImageFix"/>
<feColorMatrix in="SourceAlpha" type="matrix" values="0 0 0 0 0 0 0 0 0 0 0 0 0 0 0 0 0 0 127 0"/>
<feOffset dy="2.85"/>
<feGaussianBlur stdDeviation="4.275"/>
<feColorMatrix type="matrix" values="0 0 0 0 0 0 0 0 0 0 0 0 0 0 0 0 0 0 0.06 0"/>
<feBlend mode="normal" in2="BackgroundImageFix" result="effect1_dropShadow"/>
<feBlend mode="normal" in="SourceGraphic" in2="effect1_dropShadow" result="shape"/>
</filter>
<filter id="filter2_d" x="189.45" y="2.3" width="363.1" height="113.1" filterUnits="userSpaceOnUse" color-interpolation-filters="sRGB">
<feFlood flood-opacity="0" result="BackgroundImageFix"/>
<feColorMatrix in="SourceAlpha" type="matrix" values="0 0 0 0 0 0 0 0 0 0 0 0 0 0 0 0 0 0 127 0"/>
<feOffset dy="2.85"/>
<feGaussianBlur stdDeviation="4.275"/>
<feColorMatrix type="matrix" values="0 0 0 0 0 0 0 0 0 0 0 0 0 0 0 0 0 0 0.06 0"/>
<feBlend mode="normal" in2="BackgroundImageFix" result="effect1_dropShadow"/>
<feBlend mode="normal" in="SourceGraphic" in2="effect1_dropShadow" result="shape"/>
</filter>
<clipPath id="clip0">
<rect width="600" height="380" fill="white"/>
</clipPath>
<clipPath id="clip1">
<rect width="12" height="12" fill="white" transform="translate(72.0001 201)"/>
</clipPath>
<clipPath id="clip2">
<rect width="24" height="24" fill="white" transform="translate(32.0001 167)"/>
</clipPath>
<clipPath id="clip3">
<rect width="24" height="24" fill="white" transform="translate(222 32)"/>
</clipPath>
</defs>
</svg>
