<svg width="24" height="24" viewBox="0 0 24 24" fill="none" xmlns="http://www.w3.org/2000/svg">
<path d="M23.18 6.71006L21.08 5.81006L22.18 3.41006L19.62 4.26006C18.805 3.50006 17.735 3.07206 16.62 3.06006C14.137 3.06506 12.125 5.07706 12.12 7.56006V8.56006C8.57996 9.29006 5.48996 7.36006 2.61996 4.06006C2.11996 6.72706 2.61996 8.72706 4.11996 10.0601L0.829956 9.56006C1.09196 11.7461 2.88196 13.4311 5.07996 13.5601L2.32996 14.5601C3.32996 16.5601 5.14996 16.8701 7.57996 17.0601C5.59396 18.4151 3.23396 19.1141 0.829956 19.0601C13.59 24.7301 21.08 16.4001 21.08 9.06006V8.23006L23.18 6.71006Z" stroke="#001632" stroke-width="1.5" stroke-linecap="round" stroke-linejoin="round"/>
</svg>
